<?xml version="1.0" encoding="utf-8"?>
<!-- Generator: Adobe Illustrator 26.3.1, SVG Export Plug-In . SVG Version: 6.00 Build 0)  -->
<svg version="1.1" id="basketball" xmlns="http://www.w3.org/2000/svg" xmlns:xlink="http://www.w3.org/1999/xlink" x="0px" y="0px"
	 viewBox="0 0 500 500" style="enable-background:new 0 0 500 500;" xml:space="preserve">
<style type="text/css">
	.st0{fill:#F3FAFC;}
	.st1{fill:#49200F;}
	.st2{fill:#F17523;}
	.st3{fill:#EE6224;}
	.st4{fill:#FBED1D;}
	.st5{fill:#DEB098;}
	.st6{fill:#FFFFFF;}
	.st7{fill:#E5E6E6;}
	.st8{fill:#BC202E;}
	.st9{fill:#CFD1D2;}
	.st10{fill:#112A17;}
	.st11{fill:#5652A2;}
	.st12{fill:#F7EB26;}
	.st13{fill:#FCB614;}
	.st14{fill:#BC61A4;}
	.st15{opacity:0.7;fill:#FFFFFF;}
	.st16{opacity:0.7;}
	.st17{opacity:0.5;fill:#FFFFFF;}
	.st18{opacity:0.5;fill:#DEB098;}
	.st19{fill:#343430;}
	.st20{opacity:0.8;}
	.st21{opacity:0.5;fill:#343430;}
	.st22{fill:#706D65;}
</style>
<rect id="background" class="st0" width="500" height="500"/>
<g id="ball">
	<g>
		<g>
			<path class="st1" d="M366.78,302.82c-25.38-2.45-47.95,16.14-50.4,41.53c-1.96,20.34,9.59,38.85,27.31,46.68
				c0.16,0.08,0.32,0.18,0.48,0.25c0.05,0.02,0.1,0.02,0.14,0.03c4.22,1.79,8.79,2.98,13.59,3.44c25.38,2.45,47.95-16.14,50.4-41.53
				C410.76,327.83,392.17,305.27,366.78,302.82z"/>
			<path class="st2" d="M404.44,335.32c-1.52-2.39-3.35-4.63-5-6.66c-3.98-4.9-9.92-8.74-15.48-11.62
				c-4.99-2.58-10.66-4.14-16.15-5.24c-1.97-0.4-4.52-0.77-5.99-2.33c8.17-1.2,16.65-0.03,24.73,2.61c0.11,0.04,0.23,0.01,0.33-0.05
				C395.16,317.56,401.39,325.78,404.44,335.32z"/>
			<path class="st3" d="M366.59,304.79c6.25,0.6,12.06,2.48,17.22,5.35c-5.54-2.12-10.93-3.31-17.17-3.12
				c-1.74,0.06-3.48,0.24-5.21,0.51c0.54-1.04,1.99-2.07,3-2.9C365.15,304.67,365.87,304.72,366.59,304.79z"/>
			<path class="st3" d="M363.68,304.62c-1.62,0.85-3.36,1.56-3.79,3.21c-1.89,0.37-3.75,0.87-5.57,1.48
				c-1.37-0.96-2.81-1.75-4.28-2.27c-0.32-0.11-0.65,0.34-0.34,0.54c1.08,0.69,2.09,1.46,3.06,2.26c-2.59,0.98-5.1,2.19-7.47,3.61
				c-0.35,0.21-0.68,0.44-1.02,0.65c-2.66-2.45-6.28-1.53-9.59,0.21C342.66,307.93,352.83,304.28,363.68,304.62z"/>
			<path class="st3" d="M318.36,344.53c1.02-10.55,5.67-19.87,12.59-26.85c2.6-1.46,5.3-2.77,8.27-3.26c1.5-0.25,2.65,0.06,3.52,0.7
				c-11.05,7.63-18.75,19.81-20.59,33.05c-0.06,0.41,0.53,0.27,0.59-0.06c2.3-12.93,10.71-23.9,21.32-31.38
				c0.91,1.79,0.96,4.24,0.41,6.12c-0.82,2.75-2.57,5.26-3.91,7.78c-3.51,6.59-6.72,14.24-8.11,21.59
				c-1.5,7.93-1.04,15.9,1.07,23.68c0.83,3.05,2.35,6.69,4.47,9.75C324.79,376.92,316.73,361.38,318.36,344.53z"/>
			<path class="st2" d="M358.1,392.77c-6.36-0.61-12.28-2.56-17.5-5.52c-2.03-2.32-3.52-5.36-4.51-7.78
				c-2.16-5.29-3.03-11.12-3.25-16.79c-0.41-10.54,3.93-20.8,8.64-30.02c2.55-4.98,7.65-11.69,4.14-16.99
				c0.2-0.13,0.4-0.28,0.61-0.41c2.64-1.7,5.38-2.99,8.18-3.97c7.21,6.77,11.45,16.43,14.95,25.47c2.36,6.09,4.48,12.38,5.59,18.83
				c1.22,7.17,1.44,14.32,2.08,21.54c0.06,0.63,0.94,0.23,1-0.23c1.6-14.04-1.81-28.34-6.77-41.36c-2.41-6.32-4.96-12.5-8.91-18.04
				c-1.64-2.3-3.78-4.77-6.19-6.8c1.25-0.37,2.52-0.67,3.79-0.92c0,0,0,0,0,0.01c0.76,3.05,6.16,3.55,8.57,3.95
				c8.25,1.39,15.48,4.63,22.31,9.35c3.99,2.75,7.19,5.87,10.02,9.81c1.71,2.38,3.67,5,4.93,7.79c0.74,3.97,0.95,8.11,0.54,12.33
				C403.99,377.32,382.39,395.11,358.1,392.77z"/>
			<path class="st1" d="M344.96,383.65c-0.49-0.05-0.86,0.8-0.29,0.86C345.17,384.56,345.53,383.71,344.96,383.65z"/>
			<g>
				<path class="st4" d="M339.25,361.19c3.08-28.92,18.53-40.29,19.49-45.06c-1.32-1.72-2.75-3.35-4.32-4.83
					c-2.8,0.98-5.55,2.27-8.18,3.97c-0.2,0.13-0.4,0.27-0.61,0.41c3.5,5.3-1.59,12-4.14,16.99c-4.71,9.23-9.05,19.48-8.64,30.02
					c0.22,5.67,1.09,11.51,3.25,16.79c0.99,2.42,2.49,5.46,4.51,7.78c5.23,2.96,11.14,4.9,17.5,5.52c1.2,0.12,2.39,0.17,3.58,0.19
					C350.15,389.93,337.04,381.95,339.25,361.19z"/>
				<path class="st4" d="M405.79,340.7c-1.26-2.79-3.22-5.41-4.93-7.79c-2.83-3.94-6.03-7.05-10.02-9.81
					c-6.84-4.71-14.06-7.96-22.31-9.35c-2.42-0.4-7.81-0.9-8.57-3.95c0,0,0,0,0-0.01c-1.27,0.25-2.54,0.55-3.79,0.92
					c1.59,1.34,3.05,2.88,4.34,4.43c2.98,0.58,9.31,2.2,18.46,6.67c14.15,6.9,25.83,21.79,26.02,38.58
					c0.64-2.37,1.11-4.83,1.35-7.36C406.74,348.81,406.53,344.67,405.79,340.7z"/>
			</g>
			<path class="st4" d="M344.35,308.43c-3.47,1.55-6.71,3.53-9.65,5.89c3.3-1.74,6.93-2.66,9.59-0.21c0.34-0.22,0.67-0.45,1.02-0.65
				c2.37-1.42,4.87-2.63,7.47-3.61c-0.54-0.44-1.09-0.87-1.65-1.28C349.6,308.2,347.14,308.22,344.35,308.43z"/>
			<path class="st4" d="M351.99,307.9c0.79,0.41,1.57,0.88,2.33,1.41c1.82-0.62,3.68-1.11,5.57-1.48c0.43-1.65,2.16-2.36,3.79-3.21
				c-3.27-0.1-6.47,0.16-9.57,0.75C353.1,306.36,352.41,307.28,351.99,307.9z"/>
		</g>
	</g>
</g>
<g id="hand">
	<path class="st1" d="M382.29,208.26c-2.44-0.81-5.39-0.75-7.56,0.77c-0.01,0.01-0.02,0.01-0.03,0.02c-0.05,0.03-0.1,0.06-0.15,0.1
		c-2.91-1.53-6-2.09-9.16-0.1c-0.06,0.04-0.1,0.08-0.14,0.13c-0.57-0.43-1.18-0.74-1.85-0.86c-1.74-0.31-3.28,1.74-3.95,3.31
		c-0.04-0.02-0.07-0.06-0.11-0.08c-2.02-1.3-3.67-1.45-5.07-0.92c-8.82-5.08-18.47-8.29-27.92-11.99
		c-10.17-3.98-20.23-7.25-31.14-8.35c-11.14-1.13-22.26,0.13-33.4,0.1c-4.35-0.01-8.99,3.81-6.37,8.04
		c0.09,4.3,1.17,8.44,2.39,12.63c1.45,4.99,3.41,9.23,8.4,11.26c0.7,0.29,1.28-0.73,0.96-1.33c0,0,0,0,0,0
		c-0.13-5.69-1.69-11.77-3.4-17.21c5.52-3.39,13.9-2.17,19.92-1.75c4.27,0.3,8.53,0.8,12.8,1.14c4.02,0.32,8.29,0.15,12.28,0.88
		c4.72,2.82,9.89,4.22,15.49,5.35c4.76,0.95,9.53,1.5,14.24,2.72c2.35,0.61,6.18,1.73,8.49,3.44c-1.75,0.89-3.65,1.57-5.82,1.92
		c-0.05,0.01-0.08,0-0.11-0.01c-1.85,0.85-3.48,1.93-4.59,3.36c-1.23,1.59-1.53,3.22-1.8,5.17c-0.45,3.24-2.61,5.89-2.99,9.07
		c-0.37,3.14,2.06,3.11,3.81,1.5c1.89-1.73,2.92-4.52,4.03-6.76c1.93-3.88,5.53-3.19,8.97-4.25c0.45-0.14,0.69-0.6,0.66-1.01
		c1.43-0.26,1.55-0.31,3.01-1.04c4.19-2.1,8.45-2.07,9.68,3.2c0.54,2.31,1,4.6,2.51,6.51c2.57,3.25,4.85-1.07,4.98-3.51
		c1.3-0.48,2.45-1.7,2.81-3.01c1.01-3.65-0.49-6.88-2.13-10.12c-0.1-0.2-0.21-0.42-0.32-0.65c1.75,0.59,3.46,1.23,5.05,2.42
		c1.18,0.88,2.19,2.01,3.34,2.94c1.8,1.46,4.51,2.81,5.66-0.02c0.99-2.43-0.42-4.85-2.29-6.84c2.51,0.42,6.18,0.29,6.05-2.35
		C387.38,209.92,383.87,208.78,382.29,208.26z"/>
	<g>
		<path class="st5" d="M332.16,208.74c-7.33-1.44-14.63-2.42-21.38-5.32c-0.05-0.08-0.12-0.14-0.24-0.18
			c-0.16-0.05-0.32-0.09-0.48-0.13c-1.75-0.79-3.46-1.71-5.12-2.82c-0.38-0.25-0.77,0.4-0.44,0.68c0.53,0.46,1.08,0.88,1.62,1.29
			c-3.13-0.47-6.37-0.61-9.41-0.89c-6.08-0.57-12.13-1.37-18.23-1.66c-6.43-0.31-15.23-0.73-18.43,6.13
			c-0.31,0.66,0.55,0.86,0.91,0.4c0.46-0.58,0.98-1.07,1.52-1.53c0.21,2.33,1.12,4.52,1.68,6.8c0.73,2.94,1.28,5.89,1.92,8.84
			c-8.3-3.97-8.44-17.62-9.84-25.43c1.27-3.3,7.02-2.76,10.4-2.58c4.1,0.21,8.29-0.55,12.4-0.68c8.79-0.27,17.65,0.29,26.27,2.08
			c8.14,1.7,15.97,5.08,23.68,8.09c7.98,3.11,15.99,5.9,23.46,10.08c-0.22,0.17-0.43,0.36-0.65,0.53c-0.23,0.25-0.45,0.51-0.66,0.79
			c-0.02-0.01-0.02-0.03-0.04-0.04c-0.05-0.04-0.1-0.07-0.15-0.11c-0.77,0.57-1.56,1.1-2.36,1.6
			C344.73,210.95,336.81,209.65,332.16,208.74z"/>
		<path class="st5" d="M338.35,208.91c-2.38-0.76-4.77-1.48-7.15-2.25c-4.65-1-9.28-2.09-13.85-3.44c-2.62-0.77-5.92-2.16-8.09-4.35
			c-1.23,1.47-4.46,0.94-5.93,0.61c-4.61-1.04-9.29-1.21-13.99-1.6c-6.35-0.53-12.5-1.11-18.88-0.74c-2.73,0.16-5.63,0.58-8.21-0.5
			c-2.79-1.17-1.58-2.93,0.47-4.46c-2.8,0.03-5.65,0.52-6.49,2.72c1.4,7.81,1.54,21.47,9.84,25.43c-0.63-2.95-1.19-5.9-1.92-8.84
			c-0.57-2.28-1.48-4.47-1.68-6.8c-0.54,0.45-1.06,0.95-1.52,1.53c-0.36,0.46-1.22,0.27-0.91-0.4c3.2-6.85,11.99-6.43,18.43-6.13
			c6.1,0.29,12.15,1.1,18.23,1.66c3.05,0.28,6.29,0.42,9.41,0.89c-0.55-0.41-1.09-0.83-1.62-1.29c-0.33-0.28,0.06-0.94,0.44-0.68
			c1.66,1.11,3.37,2.03,5.12,2.82c0.16,0.05,0.32,0.08,0.48,0.13c0.12,0.04,0.19,0.1,0.24,0.18c6.75,2.9,14.05,3.88,21.38,5.32
			c4.44,0.88,11.85,2.1,15.86,5.44C346.47,211.18,340.98,209.75,338.35,208.91z"/>
		<path class="st5" d="M367.44,229.76c-0.48,1.32-2.48,1.47-3.11-0.17c-1.13-2.96-0.67-6.37-3.65-8.19
			c-4.95-3.03-7.01-0.21-11.77,1.38c-0.27,0.09-0.47,0.35-0.59,0.64c-0.27,0.14-0.53,0.29-0.78,0.45c-2.48,0.02-5.18,0.9-7.2,2.21
			c-2.56,1.67-3.55,6.14-5.11,8.54c-2.2-0.15-2.47-1.07-0.81-2.76c0.48-0.89,0.81-1.47,1.23-2.37c0.77-1.64,0.92-3.68,1.37-5.41
			c0.66-2.53,4.33-3.57,6.34-4.66c1.51-0.82,3.09-1.41,4.65-2.07c0.18,0.04,0.36,0.07,0.54,0.11c-0.12,0.21-0.23,0.42-0.35,0.63
			c-0.35,0.63,0.3,1.4,0.87,0.78c0.39-0.42,0.75-0.86,1.1-1.31c0.6-0.24,1.07-0.86,1.12-1.48c0.13-0.18,0.27-0.36,0.4-0.55
			c3.23-4.49,6.79-1.69,9.27,1.64c1.42,1.9,2.41,4.05,3.67,6.04c0.97,1.52,1.85,3.07,2.61,4.71c0.12,0.26,0.19,0.49,0.23,0.72
			C367.24,228.98,367.16,229.51,367.44,229.76z"/>
		<path class="st5" d="M367.49,228.67c-0.05-0.23-0.12-0.46-0.23-0.72c-0.21-0.45-0.45-0.89-0.68-1.33
			c-1.49-2.28-2.8-4.79-4.98-6.36c-4.3-3.09-7.45-1.07-11.5,0.77c-0.53,0.24-1.06,0.44-1.58,0.6c-1.14,1.55-3.49,1.76-5.3,1.97
			c-2.11,0.24-3.78,0.63-5.21,2.42c-0.85,1.07-1.35,2.45-2.32,3.39c-0.01,0.03-0.02,0.06-0.03,0.09c-0.42,0.9-0.75,1.49-1.23,2.37
			c-1.66,1.69-1.39,2.61,0.81,2.76c1.56-2.4,2.55-6.88,5.11-8.54c2.02-1.31,4.71-2.19,7.2-2.21c0.26-0.16,0.52-0.31,0.78-0.45
			c0.12-0.29,0.32-0.55,0.59-0.64c4.77-1.59,6.82-4.41,11.77-1.38c2.98,1.82,2.51,5.23,3.65,8.19c0.63,1.65,2.63,1.49,3.11,0.17
			C367.16,229.51,367.24,228.98,367.49,228.67z"/>
		<path class="st5" d="M368.98,227.58c-0.86-2.75-3.17-5.71-4.38-7.92c-1.17-2.13-2.43-5.46-4.34-7.34
			c2.13-2.49,4.11-0.81,5.64,1.49c-0.12,0.34-0.04,0.72,0.38,0.9c0.08,0.03,0.15,0.06,0.23,0.09c0.62,1.07,1.15,2.17,1.54,2.96
			C369.59,220.85,371.76,225.02,368.98,227.58z"/>
		<path class="st5" d="M380.18,220.22c-1.63-0.94-2.98-2.3-4.41-3.51c-1.94-1.64-4.71-2.7-7.3-3.24c-0.67-1.27-1.46-2.56-2.39-3.54
			c4.06-1.14,7.01,0.81,10.29,3.17c1.44,1.04,2.72,2.23,3.87,3.58C381.17,217.79,383,221.84,380.18,220.22z"/>
		<path class="st5" d="M384.67,212.46c-0.64,0.06-1.29,0.03-1.94,0c-0.87-0.04-1.7-0.11-2.58-0.04c-0.21,0.02-0.39,0.12-0.53,0.27
			c-0.71-0.6-1.4-1.13-1.98-1.56c-0.73-0.54-1.47-1.04-2.22-1.49c3.05-1,8.54-0.01,10.19,2.83
			C385.43,212.25,385.26,212.41,384.67,212.46z"/>
		<path class="st5" d="M365.32,218.73c-1.22-2.02-2.42-5.11-4.71-6.03c1.72,1.92,2.9,4.96,4,6.95c1.21,2.21,3.52,5.17,4.38,7.92
			c1.55-1.43,1.56-3.36,1-5.33C367.97,221.84,366.51,220.69,365.32,218.73z"/>
		<path class="st5" d="M375.05,214.4c-2.63-2.15-5.35-4.11-8.74-4.2c0.83,0.94,1.55,2.11,2.16,3.27c2.59,0.54,5.36,1.6,7.3,3.24
			c1.43,1.2,2.77,2.57,4.41,3.51c1.55,0.89,1.7,0.07,1.36-1.03C379.04,218.4,377,216.01,375.05,214.4z"/>
		<path class="st5" d="M382.11,211.32c-1.23-0.47-3.63-1.26-5.12-0.64c0.22,0.15,0.43,0.3,0.65,0.46c0.58,0.43,1.27,0.96,1.98,1.56
			c0.14-0.15,0.32-0.25,0.53-0.27c0.87-0.07,1.7,0,2.58,0.04c0.49,0.02,0.98,0.03,1.47,0.02C383.57,212,382.86,211.61,382.11,211.32
			z"/>
	</g>
</g>
<g id="body">
	<g>
		<path class="st1" d="M269.79,215.95c-0.43-0.79-1.2-1.06-1.98-1.41c-1.1-0.5-1.58-1.38-2.37-2.2c-0.41-0.43-1.16,0.03-1.35,0.46
			c-0.42,0.95-0.13,2.12-0.07,3.11c0.09,1.39-0.42,3.25,0.31,4.52c0.09,0.39,0.35,0.69,0.98,0.79c0.84,0.13,1.95-0.6,2.63-1.01
			c0.75-0.45,1.72-1.12,1.85-2.04c0-0.01,0-0.02,0-0.03C270.08,217.41,270.07,216.45,269.79,215.95z"/>
		<path class="st6" d="M266.23,219.27c-0.2,0.1-0.55,0.34-0.77,0.29c0.16-0.74,0.07-1.54,0.11-2.32c0.04-0.64,0.08-1.28,0.08-1.92
			c0.27,0.24,0.58,0.47,0.98,0.68c0.61,0.33,1.59,0.39,1.88,1.12c0.07,0.19,0.08,0.45,0.05,0.71c-0.19,0.12-0.37,0.26-0.55,0.41
			C267.46,218.65,266.84,218.98,266.23,219.27z"/>
	</g>
	<path class="st1" d="M298.7,303.55c-0.31-0.14-0.64-0.23-0.98-0.3c0.16-0.25,0.22-0.57,0.08-0.81
		c-3.88-6.72-10.21-12.6-15.46-18.28c-3.05-3.29-6.54-6.23-9.97-9.11c-1.39-1.16-3.28-3.36-5.23-3.83c0.71-1.02,1.41-2.04,2.02-3.12
		c0.54-0.96,1.01-2.15-0.01-2.98c-0.52-0.42-1.4-0.79-2.28-1.03c0.23-0.4,0.46-0.8,0.68-1.23c1.28-2.51,1.87-5.06,1.8-7.85
		c-0.08-2.93-3.01-5.92-2.67-8.71c0.06-0.48-0.15-0.8-0.44-0.96c0.66-1.05,1.27-2.12,1.76-3.24c1.12-2.57-1.83-3.74-3.96-4.24
		c3.54-5.93,4.58-11.77,5.94-18.29c0.01-0.02,0.02-0.04,0.03-0.05c-0.03-1.18-0.08-2.36-0.13-3.54c-0.38,0.14-0.73,0.43-0.87,0.85
		c-1.77,5.19-6.91,1.9-8.62-0.45c-1.54-2.12-2.01-4.99-2.55-7.49c-1.35-6.24-0.87-12.22-0.76-18.52c0.01-0.65-0.72-1.08-1.29-0.75
		c-3.54,2.06-6.99,3.56-10.77,4.85c-0.07-0.03-0.16-0.04-0.27-0.04c-4.46,0.11-8.83,1.12-13.29,1.35c-2.4,0.12-4.81,0.1-7.21,0.04
		c-2.72-0.07-5.24-1.21-7.81-1.16c-0.09-0.23-0.28-0.44-0.51-0.52c-3.48-1.19-6.3-3.99-10.06-4.34c-0.51-0.05-0.87,0.58-0.64,0.97
		c-0.21,5.28,0.06,10.38-0.77,15.65c-0.88,5.6-2.43,10.92-4.51,16.17c-3.32,8.39-3.96,18.06-3,26.95c0.12,1.05,0.29,2.08,0.52,3.11
		c-1.93,3.29-4.65,6.33-3.54,10.32c0.09,0.31,0.22,0.62,0.38,0.93c-1.59,0.49-2.25,2.75-2.45,4.53c-0.98-0.15-2.29-0.3-3.12,0.12
		c-1.57,0.79-1.28,2.62-0.49,4.09c-0.24,0.12-0.48,0.26-0.74,0.43c-4.39,2.96-8.51,6.83-12.69,10.13
		c-8.85,6.96-17.32,15.1-27.01,20.86c-0.54,0.32-0.96,1.09-0.43,1.61c-0.01,0.01-0.02,0.02-0.03,0.03
		c-0.01,0.01-0.01,0.02-0.02,0.03c-0.25,0.2-0.42,0.52-0.3,0.85c1.33,3.74,4.44,6.63,6.7,9.84c2.95,4.18,6.2,7.56,9.69,11.27
		c2.88,3.06,6.34,5.4,10.09,7.25c2.72,1.34,6.85,3.83,9.97,3.49c0.37-0.04,0.68-0.35,0.81-0.71c6.73-6.53,12.1-14.47,18.24-21.53
		c7.82-8.99,16.1-14.84,27.18-18.92c2.34,2.33,4.32,4.85,5.98,7.9c2.09,3.85,3.91,7.81,6.08,11.62c1.55,2.72,2.48,6.16,4.76,8.37
		c0.89,3.12,1.81,7.62,5.1,7.97c5.59,0.58,11.92-2.83,16.86-5.05c9.96-4.47,22.65-9.8,29.74-18.49
		C299.11,308.47,300.85,304.49,298.7,303.55z"/>
	<path class="st5" d="M216.39,196.48c2.25,1.52,4.96,1.97,7.74,2.1c-0.03,0.17-0.06,0.33-0.09,0.48c-0.19,0.95-0.32,1.91-0.54,2.86
		c-0.08,0.38-0.29,1.8-0.77,1.58c-0.42-0.2-0.81,0.47-0.5,0.78c1.81,1.78,3.44-3.45,4.01-5.65c0.27,0,0.55,0.01,0.82,0.01
		c4.76,0,11,0.2,15.69-1.67c0.22,2.88,0.69,5.77,0.47,8.66c-0.24,3.24-0.05,5.07-2.83,7.67c-2.31,2.16-5.18,3.35-8.34,3.4
		c-4.4,0.07-9.9-1.72-12.72-5.19C216.5,208.03,216.16,201.17,216.39,196.48z"/>
	<path class="st5" d="M222.73,203.5c0.48,0.22,0.69-1.2,0.77-1.58c0.21-0.95,0.35-1.91,0.54-2.86c0.03-0.15,0.06-0.32,0.09-0.48
		c-1.63-0.08-3.23-0.29-4.73-0.74c0.56,0.68,0.94,1.49,1.22,2.61c0.27,1.08-0.12,2.2,0.02,3.27c0.59,4.63,4.31,4.6,6.59,1.16
		c2.42-3.66,6.47-5.84,11-5.26c1.61,0.21,4.03,0.96,4.95,1.92c-0.13-1.96-0.29-3.08-0.42-4.59c0-0.02-0.14,0.07-0.14,0.05
		c-4.67,1.82-10.84,1.63-15.55,1.63c-0.27,0-0.55,0-0.82-0.01c-0.57,2.2-2.2,7.43-4.01,5.65
		C221.92,203.97,222.31,203.3,222.73,203.5z"/>
	<path class="st5" d="M227.83,214.97c-6.57-0.99-9.72-5.12-10.93-10.54c-0.18-0.65-0.32-1.32-0.43-2c0.3,3.45,1.09,6.92,2.85,9.08
		c2.82,3.46,8.32,5.26,12.72,5.19c3.16-0.05,6.03-1.24,8.34-3.4c2.13-1.99,2.52-3.54,2.69-5.6
		C240.21,212.8,233.67,215.84,227.83,214.97z"/>
	<path class="st7" d="M197.29,255.91c0.23-0.47,0.44-0.93,0.64-1.38c0.17,0.57,0.37,1.13,0.57,1.69c2,1.87,3.81,3.94,5.85,5.7
		c-4.29-6.18-5.34-13.9-5.24-21.47c0.22-16.26,12.07-32.15,7.53-48.65c1.85,1.21,3.68,2.51,5.63,3.51
		c2.99,1.53,2.27,8.15,3.07,11.41c1.64,6.66,4.78,10.23,11.74,11.69c5.87,1.23,11.68,0.49,15.75-4.43
		c4.11-4.95,2.34-11.98,1.87-17.87c3.76-0.19,6.99-1.9,10.25-3.79c-0.28,8.57-0.93,17.87,3.5,25.57c1.71,2.98,4.55,3.9,7.79,3.81
		c0.45-0.01,0.84-0.09,1.21-0.19c-1.28,3.82-1.79,8.24-3.42,11.68c-0.54,1.13-1.16,2.2-1.81,3.24c-2.47,5.85-5.92,11.29-10.6,15.6
		c0.08-0.01,0.17-0.04,0.27-0.1c4.53-2.54,8.66-8.54,11.47-12.98c0.66,0.55,1.37,1.03,2.05,1.57c0.26,0.21,0.32,0.54,0.26,0.95
		c0.26,1.57-1.25,3.48-1.98,5.02c-1.08,2.29-1.92,4.69-2.48,7.13c0.54-1.03,1.06-2.06,1.64-3.06c0.53-0.9,1.11-1.78,1.7-2.66
		c0.2,2.16,1.73,4.42,2.31,6.39c2.18,7.34-5.76,14.22-11.53,16.7c-12.68,5.45-25.12,4.27-37.97,1.23c0.51-0.13,1.02-0.27,1.53-0.41
		c4.32-1.27,8.65-2.29,12.98-3.32c-4.8,0.3-9.58,0.87-14.32,1.8c-3.59,0.71-8.34,1.57-11.41-0.93c-2.18-0.86-4.22-2.18-6.17-3.81
		C197.1,263.14,195.49,259.68,197.29,255.91z"/>
	<path class="st8" d="M240.35,216.33c-1.1,0.8-2.28,1.4-3.52,1.81c-0.62,4.37-1.81,8.64-2.18,13.05
		c-0.48,5.69-0.67,11.42-0.17,17.12c0.79,8.93,2.65,17.78,5.3,26.36c1.66-0.11,3.31-0.29,4.97-0.57c-3.16-8.99-5.68-18.23-6.6-27.72
		c-0.59-6.05-0.82-12.19,0.13-18.22C238.91,224.19,239.76,220.28,240.35,216.33z"/>
	<path class="st8" d="M230.63,268.58c-0.87-5.87-0.34-11.97,0.13-18.22c0.79-10.45,0.58-21.31-1.61-31.61
		c-0.69-0.09-1.38-0.2-2.07-0.35c-6.96-1.46-10.09-5.03-11.74-11.69c-0.8-3.26-0.08-9.88-3.07-11.41c-1.95-0.99-3.78-2.29-5.63-3.51
		c4.54,16.5-7.31,32.39-7.53,48.65c-0.1,7.58,0.94,15.3,5.24,21.47c-2.04-1.77-3.85-3.83-5.85-5.7c-0.2-0.56-0.4-1.12-0.57-1.69
		c-0.2,0.45-0.41,0.91-0.64,1.38c-1.81,3.77-0.19,7.23,2.69,9.63c1.95,1.63,4,2.94,6.17,3.81c3.07,2.51,7.82,1.64,11.41,0.93
		C221.89,269.43,226.25,268.9,230.63,268.58z"/>
	<path class="st8" d="M230.66,268.77c-3.92,0.94-7.84,1.88-11.76,3.03c-0.51,0.15-1.02,0.28-1.53,0.41
		c4.96,1.17,9.87,2.07,14.75,2.41C231.43,272.71,230.96,270.75,230.66,268.77z"/>
	<path class="st9" d="M204.48,223.82c2.52-4.41,5.28-10,5.7-15.16c0.12-1.52-0.29-4.58,0.73-5.83c1.14-1.41,1.68,2.95,1.69,3.28
		c0.08,2.47,0.88,5.41,2.17,7.51c1.45,2.38,3.28,3.76,5.49,5.38c5.08,3.71,10.4,3.83,16.37,2.45c2.76-0.64,5.86-1.44,7.88-3.57
		c1.73-1.82,2.73-3.97,3.58-6.31c0.97-2.67,1.35-5.14,1.54-7.97c0.11-1.63,0.25-3.33,1.07-4.78c0.21-0.37,0.67-0.3,0.89,0
		c0.81,1.07,0.78,2.4,0.63,3.69c-0.28,2.45-0.51,4.78-0.07,7.23c0.4,2.27,0.75,4.68,1.56,6.84c0.95,2.54,2.58,4.34,4.24,6.41
		c2.23,2.78,2.8,6.57,2.26,10.03c-0.47,2.95-1.18,6.29-2.28,9.29c-0.6,2.07-1.52,3.98-2.64,5.81c2.87-3.51,5.16-7.48,6.93-11.68
		c0.65-1.04,1.28-2.11,1.81-3.24c1.64-3.44,2.14-7.86,3.42-11.68c-0.37,0.1-0.76,0.18-1.21,0.19c-3.24,0.09-6.08-0.83-7.79-3.81
		c-4.43-7.7-3.78-16.99-3.5-25.57c-3.26,1.89-6.49,3.6-10.25,3.79c0.47,5.89,2.24,12.92-1.87,17.87c-4.08,4.91-9.89,5.65-15.75,4.43
		c-6.96-1.46-10.09-5.03-11.74-11.69c-0.8-3.26-0.08-9.88-3.07-11.41c-1.95-0.99-3.78-2.29-5.63-3.51
		c3.6,13.11-3.13,25.84-6.17,38.67C201.7,228.16,203.25,225.97,204.48,223.82z"/>
	<path class="st9" d="M266.87,254.29c-0.58-1.96-2.11-4.23-2.31-6.39c-0.59,0.88-1.17,1.76-1.7,2.66c-0.58,1-1.1,2.03-1.64,3.06
		c0.56-2.45,1.4-4.84,2.48-7.13c0.72-1.54,2.23-3.44,1.98-5.02c0.06-0.41,0-0.74-0.26-0.95c-0.68-0.54-1.39-1.01-2.05-1.57
		c-1.98,3.13-4.62,7.03-7.59,9.95c0.57-0.31,1.14-0.62,1.7-0.92c0.91-0.47,1.86-0.96,2.77-0.3c1.45,1.04-0.52,4.4-0.93,5.49
		c-0.38,1-1.43,3-1.03,4.09c0.33,0.9,3.42-1.52,3.95-1.73c1.92-0.74,3.23,0.62,2.46,2.56c-2.94,7.4-9.86,11.39-17.37,13
		c-3.77,0.8-8.27,1.4-12.08,0.38c-0.9-0.24-1.71-0.58-2.33-1.3c-0.31-0.36-0.37-0.69-0.31-1.15c0.28-1.98-2.57-1.83-3.83-1.78
		c-1.52,0.05-2.99,0.45-4.46,0.82c-0.75,0.19-1.49,0.39-2.24,0.56c-3.23,0.75-6.34,1.44-9.67,1.04c-1.92-0.23-5.49-1.14-6.93-2.65
		c-1.54-1.61-1.74-3.27-0.47-2.88c3.72,1.15-4.84-9.88-5.57-16.44c0.57,5.11,1.99,10.03,4.92,14.24c-2.04-1.77-3.85-3.83-5.85-5.7
		c-0.2-0.56-0.4-1.12-0.57-1.69c-0.2,0.45-0.41,0.91-0.64,1.38c-1.81,3.77-0.19,7.23,2.69,9.63c1.95,1.63,4,2.94,6.17,3.81
		c3.07,2.51,7.82,1.64,11.41,0.93c4.75-0.93,9.52-1.5,14.32-1.8c-4.33,1.04-8.66,2.06-12.98,3.32c-0.51,0.15-1.02,0.28-1.53,0.41
		c12.85,3.04,25.29,4.22,37.97-1.23C261.1,268.51,269.05,261.63,266.87,254.29z"/>
	<path class="st10" d="M174.4,333.07c-3.63-1.97-6.74-4.13-9.72-6.97c-3.1-2.96-6.09-5.92-8.63-9.39
		c-2.42-3.31-6.03-6.68-7.55-10.54c2.23-0.52,7.33,3.41,8.11,4.03c2.92,2.31,5.41,5.24,8.11,7.8c5.81,5.51,12.16,11.65,16.76,18.36
		C179.05,335.73,176.05,333.97,174.4,333.07z"/>
	<path class="st8" d="M183.84,336.28c-5.65-8.94-13.63-16.3-21.07-23.71c-1.97-1.96-7.8-7.83-12.23-8.1
		c0.69-0.41,1.37-0.84,2.05-1.28c0.03,0.08,0.1,0.14,0.22,0.18c6.83,1.84,12,6.92,16.96,11.74c3.13,3.04,6.07,6.18,8.78,9.61
		c2.09,2.64,6.07,6.22,6.57,9.81C184.68,335.13,184.26,335.71,183.84,336.28z"/>
	<path class="st7" d="M250.37,328.59c-0.33-0.46-0.63-1.02-0.92-1.69c-0.38-0.89-0.9-1.68-1.47-2.45c0.01-0.15-0.01-0.29-0.08-0.42
		c-4.7-7.88-7.88-16.86-13.12-24.43c-2.03-2.92-4.95-5-7.68-7.23c6.67,2.55,13.1,5.56,19.85,8.14c-1.22-0.54-2.39-1.23-3.48-1.93
		c-4.73-3.04-9.51-5.71-14.63-8.06c-0.21-0.08-0.42-0.15-0.62-0.22c3.51,0.41,7.05,0.62,10.74,0.46c6.16-0.27,12.59-0.76,18.76-1.96
		c-0.55,0.01-1.11,0.02-1.66,0.05c-4.87,0.26-9.71,0.28-14.56,0.1c-1.32,0.1-2.65,0.19-3.97,0.26c-5.15,0.26-10.2-0.3-15.27-0.87
		c-0.66-0.2-1.32-0.38-1.99-0.56c-4.2-1.12-8.35-2.06-12.64-2.64c-1.67-0.19-3.35-0.36-5.03-0.51c-1.87-0.13-3.77-0.26-5.63-0.47
		c-1.96-0.16-3.91-0.32-5.86-0.51c-0.02,0.15,0.04,0.29,0.22,0.36c8.24,2.96,17.8,2.88,26.31,5.21c1.51,0.41,2.99,0.88,4.46,1.37
		c1.54,1.13,2.95,2.55,4.4,3.77c0.53,0.45,1.05,0.9,1.55,1.36c-18.17,3.84-31.13,22.51-41.78,37.25c-0.63-1.77-1.91-3.52-2.93-4.87
		c-3.1-4.12-6.35-8.25-9.96-11.93c-4.12-4.2-12.34-14.58-19.44-13.86c5.1-3.46,9.9-7.58,14.59-11.4c3.9-3.17,7.87-6.26,11.79-9.41
		c3.12-2.5,7.67-7.6,12.03-6.53c-1-1.14-2.02-2.38-2.56-3.72c-0.1-0.25,0.14-0.63,0.4-0.68c2.19-0.42,4.38,0.11,6.56,0.06
		c-0.79-0.41-1.59-0.93-2.15-1.55c-0.07-0.02-0.13-0.04-0.2-0.06c0.01-0.07-0.01-0.13-0.02-0.2c-0.72-0.94-0.86-2.05,0.35-3.26
		c0.16-0.16,0.43-0.2,0.58-0.01c0.05,0.06,0.1,0.12,0.15,0.18c0.01-0.01,0.03-0.03,0.04-0.04c2.21,2.54,6.01,4.72,8.31,5.94
		c2.78,1.48,5.65,1.81,8.54,1.55c5.1,3.15,11.03,4.87,17.11,4.44c0.16-0.01,0.3-0.09,0.4-0.21c8.88,0.96,18.13-0.6,26.2-3.9
		c4.38-1.79,7.46-4.29,9.87-7.9c0.29,0.2,0.58,0.37,0.71,0.43c1.09,0.45,1.43,0.7,0.69,1.74c-0.41,0.57-0.78,1.16-1.19,1.74
		c-0.04,0.05-0.08,0.11-0.12,0.16c-0.64,1.09-1.21,2.21-1.75,3.36c-0.03,0.07-0.06,0.13-0.08,0.2c-0.01,0.02-0.02,0.02-0.03,0.04
		c-0.25,0.54-0.49,1.08-0.73,1.62c-0.21,0.54-0.42,1.07-0.62,1.61c1.28-0.84,2.11-2.13,2.99-3.39c0.14-0.2,0.28-0.4,0.43-0.6
		c4.86,4.5,9.88,8.91,14.46,13.68c4.83,5.03,9.26,10.5,14.16,15.47c-7.81,0.46-15.27,4.16-21.79,8.23
		c-4.01,2.5-7.68,5.35-11.22,8.47c-1.76,1.55-3.46,3.16-5.19,4.73c-0.87,0.79-1.74,1.57-2.63,2.34c-0.45,0.38-0.9,0.75-1.35,1.13
		c-1.02,0.48-1.62,1.26-1.85,2.3C250.75,328.69,250.58,328.56,250.37,328.59z"/>
	<path class="st8" d="M219.03,276.27c0.09,3.65,0.32,7.54-0.49,11.05c0.58,0.15,1.15,0.29,1.73,0.44c0.41,0.11,0.81,0.23,1.21,0.34
		c-0.05-0.6-0.05-1.19,0.04-1.76c0.41-2.81,1-4.73,0.96-7.74c-0.01-0.52,0.04-0.98,0.09-1.42
		C221.37,276.96,220.19,276.65,219.03,276.27z"/>
	<path class="st8" d="M217.95,289.29c-0.67,1.79-1.69,3.43-3.27,4.82c-4.83,4.26-10.88,6.66-15.75,10.9
		c-3.81,3.32-7.78,6.87-10.57,11.13c-1.62,2.47-3.07,5.45-5.37,7.37c-0.56,0.47-1.22,1.02-1.93,1.58c0.77,0.99,1.53,1.99,2.28,2.98
		c0.35,0.47,0.74,0.99,1.12,1.55c2.49-6.81,7.59-12.2,12.94-17.41c4.19-4.07,8.53-8,13.25-11.44c2.28-1.66,4.56-3.2,7.09-4.45
		c2.63-1.31,4.2-1.92,3.85-5.03c-0.04-0.33,0.01-0.61,0.12-0.84C220.47,290.03,219.22,289.65,217.95,289.29z"/>
	<path class="st8" d="M280.69,286.2c-4.58-4.78-9.61-9.18-14.46-13.68c-0.14,0.2-0.29,0.4-0.43,0.6c-0.88,1.26-1.71,2.55-2.99,3.39
		c0.21-0.54,0.41-1.07,0.62-1.61c0.24-0.54,0.48-1.09,0.73-1.62c0.01-0.02,0.02-0.02,0.03-0.04c0.02-0.07,0.05-0.13,0.08-0.2
		c0.54-1.14,1.11-2.27,1.75-3.36c0.04-0.05,0.08-0.11,0.12-0.16c0.41-0.57,0.78-1.16,1.19-1.74c0.74-1.05,0.41-1.29-0.69-1.74
		c-0.14-0.06-0.43-0.23-0.71-0.43c-2.41,3.61-5.5,6.11-9.87,7.9c-8.07,3.3-17.32,4.86-26.2,3.9c-0.1,0.12-0.24,0.2-0.4,0.21
		c-1.05,0.07-2.08,0.06-3.12,0.01c0.26,1.32,0.9,1.82,1.27,3.11c0.45,1.59,0.4,2.61-0.22,4.16c-0.56,1.41-0.82,2.69-0.85,3.89
		c3.64,0.36,7.29,0.6,11,0.41c1.33-0.07,2.65-0.16,3.97-0.26c4.85,0.18,9.69,0.17,14.56-0.1c0.55-0.03,1.1-0.04,1.66-0.05
		c-6.16,1.2-12.59,1.69-18.76,1.96c-3.69,0.16-7.23-0.05-10.74-0.46c0.21,0.07,0.42,0.15,0.62,0.22c5.12,2.34,9.9,5.02,14.63,8.06
		c1.09,0.7,2.26,1.4,3.48,1.93c-6.75-2.58-13.17-5.58-19.84-8.14c0,0,0,0.01,0,0.01c2.72,2.22,5.64,4.31,7.66,7.22
		c5.25,7.57,8.42,16.55,13.12,24.43c0.08,0.13,0.09,0.27,0.08,0.42c0.57,0.76,1.09,1.56,1.47,2.45c0.29,0.67,0.59,1.23,0.92,1.69
		c0.21-0.03,0.38,0.1,0.45,0.29c0.23-1.04,0.83-1.82,1.85-2.3c0.45-0.38,0.9-0.75,1.35-1.13c0.89-0.77,1.77-1.55,2.63-2.34
		c1.73-1.57,3.44-3.18,5.19-4.73c3.54-3.12,7.21-5.97,11.22-8.47c6.53-4.07,13.98-7.77,21.79-8.23
		C289.94,296.7,285.52,291.23,280.69,286.2z"/>
	<path class="st9" d="M244.74,291.02c1.59-0.32,3.14-0.61,4.67-1.01c-3.51,0.37-7.02,0.6-10.45,0.75
		c-3.69,0.16-7.23-0.05-10.74-0.46c0.21,0.07,0.42,0.15,0.62,0.22c4.46,2.04,8.66,4.35,12.8,6.92c-1.23-1.16-2.13-2.53-1.5-3.83
		C240.93,291.98,243.11,291.34,244.74,291.02z"/>
	<path class="st9" d="M167.1,296.57c3.37-2.45,6.53-5.15,9.71-7.83c5.14-4.34,10.37-8.45,16.72-10.8c1.76-0.65,2.04-1.55,2.64-3.12
		c0.08-0.19,0.15-0.52,0.31-0.7c0.52-0.59,1.09-0.82,1.9-0.76c1.41,0.1,2.94,0.07,4.28,0.52c6.9,2.34,15.48,4.02,22.94,4.62
		c9.32,0.75,16.27,0.88,25.38-0.89c1.76-0.34,4.43-1.25,6.23-0.6c0.94,0.34,1.35,0.79,2.03,1.52c1.21,1.28,2.41,1.66,4.14,1.83
		c12.36,1.19,19.05,14.23,27.41,21.85c1.34-0.26,2.69-0.47,4.06-0.55c-4.91-4.97-9.33-10.44-14.16-15.47
		c-4.58-4.78-9.61-9.18-14.46-13.68c-0.14,0.2-0.29,0.4-0.43,0.6c-0.88,1.26-1.71,2.55-2.99,3.39c0.21-0.54,0.41-1.07,0.62-1.61
		c0.24-0.54,0.48-1.09,0.73-1.62c0.01-0.02,0.02-0.02,0.03-0.04c0.02-0.07,0.05-0.13,0.08-0.2c0.54-1.14,1.11-2.27,1.75-3.36
		c0.04-0.05,0.08-0.11,0.12-0.16c0.41-0.57,0.78-1.16,1.19-1.74c0.74-1.05,0.41-1.29-0.69-1.74c-0.14-0.06-0.43-0.23-0.71-0.43
		c-2.41,3.61-5.5,6.11-9.87,7.9c-8.07,3.3-17.32,4.86-26.2,3.9c-0.1,0.12-0.24,0.2-0.4,0.21c-6.08,0.43-12.01-1.29-17.11-4.44
		c-2.89,0.26-5.76-0.07-8.54-1.55c-2.3-1.22-6.1-3.41-8.31-5.94c-0.01,0.01-0.03,0.03-0.04,0.04c-0.05-0.06-0.1-0.12-0.15-0.18
		c-0.15-0.19-0.42-0.16-0.58,0.01c-1.21,1.2-1.07,2.32-0.35,3.26c0.01,0.07,0.03,0.14,0.02,0.2l0.2,0.06
		c0.56,0.62,1.35,1.14,2.15,1.55c-2.18,0.04-4.37-0.48-6.56-0.06c-0.26,0.05-0.5,0.43-0.4,0.68c0.54,1.35,1.56,2.58,2.56,3.72
		c-4.36-1.07-8.9,4.02-12.03,6.53c-3.92,3.15-7.89,6.24-11.79,9.41c-4.69,3.82-9.49,7.94-14.59,11.4c1.37-0.14,2.77,0.15,4.18,0.71
		c0.03-0.01,0.05-0.03,0.08-0.04c1.84-0.58,3.75-2.61,5.21-3.76C164.61,298.27,165.88,297.46,167.1,296.57z"/>
	<path class="st9" d="M222.1,290.57c-1.47-0.49-2.95-0.95-4.46-1.37c-5.67-1.55-11.82-2.04-17.73-3.07
		c1.31,0.43,2.63,0.78,3.96,1.03c0.92,0.17,2.51,0.28,3.01,1.22c0.62,1.16-2.09,2.05-2.63,2.3c-1.92,0.88-3.88,1.66-5.8,2.52
		c1.14-0.15,2.3-0.25,3.43-0.44c1.06-0.18,2.25-0.21,3.36-0.39c0.08-0.06,0.17-0.1,0.29-0.1c0.07,0,0.15-0.01,0.22-0.01
		c0.25-0.05,0.5-0.1,0.73-0.18c0.2-0.07,0.35-0.01,0.46,0.1c2.5-0.27,4.92-1.05,7.51-0.32c1.24,0.35,2.46,1.16,1.58,2.52
		c-0.56,0.86-1.81,1.43-2.68,1.88c-1.34,0.7-2.61,1.52-3.83,2.41c-3.42,2.47-6.56,5.29-9.7,8.1c-2.99,2.68-5.99,5.36-9.28,7.68
		c-2.22,1.57-5.21,4.01-8.18,3.32c-3.72-0.87-6.25-4.04-9.29-6.15c-1.74-1.21-3.62-2.54-5.7-3.09c-0.62-0.17-1.24-0.32-1.86-0.49
		c3.16,2.89,5.96,6.18,7.88,8.13c3.62,3.68,6.86,7.81,9.96,11.93c1.01,1.35,2.3,3.1,2.93,4.87c10.65-14.74,23.62-33.41,41.78-37.25
		c-0.5-0.45-1.02-0.91-1.55-1.36C225.05,293.11,223.64,291.7,222.1,290.57z"/>
	<path class="st9" d="M258.46,314.33c-3.82-0.37-7.4-2.16-9.77-5.19c-1.31-1.67-2.1-3.65-3.19-5.46c-1.09-1.82-2.46-3.43-3.67-5.17
		c-0.02-0.03-0.02-0.06-0.04-0.08c-4.92-2.03-9.75-4.16-14.71-6.06c2.73,2.23,5.65,4.31,7.68,7.23c5.25,7.57,8.42,16.55,13.12,24.43
		c0.08,0.13,0.09,0.27,0.08,0.42c0.57,0.76,1.09,1.56,1.47,2.45c0.29,0.67,0.59,1.23,0.92,1.69c0.21-0.03,0.38,0.1,0.45,0.29
		c0.23-1.04,0.83-1.82,1.85-2.3c0.45-0.38,0.9-0.75,1.35-1.13c0.89-0.77,1.77-1.55,2.63-2.34c1.73-1.57,3.44-3.18,5.19-4.73
		c2.51-2.22,5.11-4.29,7.83-6.21C266.07,313.69,262.46,314.71,258.46,314.33z"/>
	<path class="st8" d="M252.22,330.19c-0.45-0.19-0.86-0.48-1.25-0.87c6.29-3.86,11.25-9.64,17.17-14.03
		c7.04-5.22,15.98-10.55,24.98-11.55c-3.32,1.06-6.8,3.28-9.06,4.44C272.33,314.19,262.71,322.44,252.22,330.19z"/>
	<path class="st10" d="M294,311c-6.74,5.72-14.95,9.74-22.9,13.48c-4.29,2.02-8.63,3.88-13.17,5.28c-0.92,0.29-1.76,0.51-2.54,0.64
		c6.29-4.64,12.22-9.7,18.86-13.93c3.9-2.49,7.95-4.77,12-7.01c2.08-1.16,4.26-2.12,6.44-3.1c2.15-1.83,3.65-1.46,4.48,1.1
		C296.32,308.86,295.27,310.03,294,311z"/>
	<path class="st1" d="M216.35,289.57c-7.77,0.3-15.41,2.37-22.93,4.59c-1.26,0.49-2.49,1.03-3.75,1.58
		c-1.35,0.59-2.9,1.28-4.44,1.76c10.3-2.55,20.49-4.85,30.97-6.59C216.84,290.81,217.17,289.54,216.35,289.57z"/>
	<g>
		<path class="st1" d="M204.35,400.27c-0.95-3.79-3.07-7.32-5.17-10.58c-1.4-2.17-3.16-5.58-5.76-6.57c-1.25-0.47-2.44-0.5-3.6-0.27
			c-1.18,0.87-2.43,1.65-3.67,2.38c-7.15-11.42-13.84-22.7-18.53-35.41c-3.58-9.7-6.15-20.61-12.96-28.48
			c1.68-0.98,2.84-2.75,4.52-3.78c1.36-0.83,3.71-1.97,3.79-3.84c0.08-2.02-2.3-2.53-3.29-3.95c-1.29-1.87-3.49-2.58-5.67-2.56
			c-0.12-0.09-0.29-0.11-0.51,0.01c-0.01,0-0.02,0.01-0.03,0.02c-0.11,0.01-0.21,0.01-0.32,0.02c-0.2,0.02-0.38,0.22-0.47,0.44
			c-4.06,2.45-9.56,7.12-10,11.92c-0.66,7.15,5.12,15.27,8.03,21.5c3.96,8.46,7.95,16.91,12.29,25.19
			c4.26,8.12,9.61,15.45,14.2,23.34c-0.12,0.1-0.25,0.2-0.37,0.31c-1.43,0.43-2.84,1.04-4.1,1.83c-2.03,1.27-4.51,3.37-3.36,6.01
			c0.41,0.94,1.33,1.7,2.39,2.15c-1.14,1.05-1.82,2.71-1.01,3.66c-0.64,0.67-1.14,1.56-1.49,2.4c-0.28,0.45-0.45,0.94-0.49,1.49
			c-2.39,1.71-4.72,3.64-7.34,4.91c-2.4,1.15-5.23,1.73-7.74,2.65c-3.66,1.34-7.58,3.58-8.81,7.55c-0.97,3.13-1.77,8.62,1.48,10.9
			c3.69,2.58,8.27,1.87,12.51,1.48c6.9-0.63,13.94-0.88,20.75-2.22c5.01-0.99,9.01-4.75,12.37-8.34
			C197.26,418.78,208.41,408.67,204.35,400.27z"/>
		<g>
			<path class="st5" d="M157.95,351.63c-3.22-6.66-6.18-13.45-9.19-20.2c-1.56-3.49-3.65-6.87-4.04-10.75
				c-0.45-4.38,6-9.46,8.98-12.18c1.92,0.56,3.38,1.45,4.57,3.23c0.39,0.58,2.95,1.82,2.19,2.55c-0.99,0.95-2.26,1.55-3.27,2.49
				c-1.21,1.12-2.12,2.6-3.55,3.45c-0.68-0.71-1.39-1.41-2.16-2.06c-0.36-0.31-0.91,0.29-0.67,0.66c3.72,5.69,6.99,10.71,9.42,17.19
				c2.26,6,4.61,11.97,6.88,17.97c4.38,11.56,10.65,21.93,17.25,32.32c-0.13,0.08-0.27,0.16-0.4,0.23
				c-0.82,0.47-3.17,2.02-5.08,2.49c0-0.01,0-0.02-0.01-0.03C171.91,376.46,164.21,364.56,157.95,351.63z"/>
			<path class="st11" d="M171.84,395.52c0.98-1.41,3.1-2.13,4.63-2.74c2.29-0.91,5.15-1.45,7.28,0.11c1.35,0.98,1.65,2.81,2.9,3.91
				c-3.77-0.56-8.28-0.03-11.49,2.05c-0.03-0.02-0.04-0.04-0.08-0.05c-0.28-0.11-0.56-0.13-0.85-0.14
				C172.85,398.07,171.02,396.71,171.84,395.52z"/>
			<path class="st12" d="M186.76,399.49c0.61,1.89,0.24,2.57-1.1,2.04c-2.19-0.33-4.59-0.75-6.81-0.51c-0.8,0.09-6.97,1.59-5.17-0.5
				c0.2-0.01,0.39-0.02,0.58-0.04c0.11,0.05,0.25,0.05,0.42-0.03c2.17-0.98,4.48-1.19,6.84-1.29c0.9-0.04,1.81,0.01,2.71,0.03
				C185.08,399.19,185.93,399.29,186.76,399.49z"/>
			<path class="st11" d="M156.88,416.36c2.16-0.71,4.35-1.37,6.41-2.38c2.25-1.11,4.01-3.24,5.7-5.21c0.77,1.15,3.68,0.43,4.44,0.38
				c4.19-0.23,8.92,3.66,13.01,1.22c3.48-2.07-0.16-4.75-2.34-5.55c-4.49-1.66-8.59-0.95-12.8,0.73c0.01-0.08,0-0.16-0.01-0.24
				c0.17-0.39,0.39-0.76,0.63-1.12c0.25,0.06,0.53,0.1,0.85,0.11c2.79,0.08,5.29-1.01,8.14-0.79c2.13,0.16,5.49,1.52,7.54,0.58
				c3.3-1.51,2.99-6.16-0.58-7.08c0.36-0.25,0.61-0.74,0.53-1.18c-0.57-3.19-2.22-5.04-4.35-5.91c0.07-0.11,0.13-0.23,0.17-0.35
				c1.63-0.85,3.24-2.66,4.24-3.4c0.1-0.07,0.18-0.17,0.25-0.28c2.19-0.33,4.2,0.03,5.64,1.66c2.79,3.15,4.54,7.1,6.54,10.81
				c-0.03,0-0.06,0-0.08,0c-0.88,0.05-1.59,1.15-1.4,1.85c-3.18,4.65-6.39,10.07-10.21,14.75c-0.16-0.04-0.35-0.03-0.58,0.11
				c-5.67,3.11-11.88,0.81-18.01,1.28c-2.27,0.17-4.15,1.36-5.97,2.61c-3.58,2.46-6.22,4.01-10.72,3.92
				c-5.08-0.11,3.21-4.85,3.05-6.12C156.96,416.61,156.92,416.48,156.88,416.36z"/>
			<path class="st11" d="M194.36,387.56c-1.07-1.2-2.45-1.71-3.98-1.76c3.66,3.63,5.95,9.3,3.46,14.23
				c-1.71,3.41-4.81,5.17-7.98,4.98c1.81,0.58,3.25,1.71,3.25,3.83c0,4.25-5.99,5.14-9.11,5.34c-3.51,0.22-7.09-0.01-10.44,1.27
				c-3.66,1.39-6.49,4.36-10.1,5.67c-2.67,0.97-4.98,0.74-6.19-0.52c-1.19,1.22-1.67,2.24,0.66,2.29c4.5,0.1,7.14-1.46,10.72-3.92
				c1.82-1.25,3.7-2.44,5.97-2.61c6.13-0.47,12.34,1.83,18.01-1.28c0.24-0.13,0.43-0.15,0.58-0.11c3.81-4.68,7.02-10.1,10.21-14.75
				c-0.2-0.7,0.51-1.79,1.4-1.85c0.03,0,0.05,0,0.08,0C198.89,394.66,197.15,390.71,194.36,387.56z"/>
			<path class="st12" d="M173.52,406.91c2.28-0.76,4.65-1.19,7.03-0.61c1.03,0.25,7.02,2.32,3.45,2.47
				c-2.19,0.09-4.31-0.83-6.42-1.25c-1.27-0.25-2.31-0.57-3.62-0.62C173.81,406.9,173.67,406.9,173.52,406.91z"/>
			<path class="st13" d="M186.76,399.49c-0.53-0.13-1.05-0.2-1.59-0.25c0,0.1-0.02,0.21-0.05,0.33c-0.59,1.79-3.57,1.16-4.94,1.21
				c-0.51,0.02-1.29,0.2-2.17,0.39c0.39-0.07,0.7-0.13,0.84-0.15c2.21-0.24,4.62,0.19,6.81,0.51
				C187,402.06,187.37,401.38,186.76,399.49z"/>
			<path class="st13" d="M183.07,407.17c-0.09,0.09-0.2,0.17-0.32,0.25c-1.19,0.71-2.45,0.32-3.71,0.03
				c-1.21-0.28-2.46-0.32-3.71-0.38c0.74,0.13,1.45,0.31,2.25,0.46c2.11,0.42,4.23,1.34,6.42,1.25
				C186.22,408.68,184.75,407.85,183.07,407.17z"/>
			<path class="st14" d="M146.86,423.98c0.68-3.34,3.39-4.9,6.21-6.18c0.42-0.19,0.85-0.37,1.28-0.54
				c-0.48,0.85-2.47,2.19-2.98,2.68c-0.6,0.57-1.58,1.57-1.61,2.48c-0.11,3.06,4.32,2.67,6.46,2.49c2.19-0.18,4.06-0.7,5.93-1.9
				c3.89-2.5,6.54-4.68,11.48-4.61c4.12,0.06,8.51,1.42,12.33,0.21c-2.51,2.5-5.29,4.58-8.48,5.91c-5.18,2.16-10.98,2.64-16.51,2.8
				c-2.69,0.08-12.19,0.91-14.27-2.32C146.74,424.64,146.8,424.3,146.86,423.98z"/>
			<path class="st12" d="M196.5,415.08c-2.58,2.84-4.92,5.89-7.54,8.7c-7.07,7.56-17.03,7.19-26.63,8.06
				c-4.11,0.37-8.43,1.34-12.51,0.32c-2.3-0.58-3.11-2.52-3.25-4.59c0.51,0.64,1.15,1.19,1.89,1.57c2.37,1.23,5.95,0.63,8.5,0.65
				c3.99,0.03,8.08,0.17,12.02-0.53c6.32-1.13,12.82-2.91,17.33-7.77c5.81-6.26,10.37-13.48,15.22-20.46
				C202.97,406.66,200.59,410.59,196.5,415.08z"/>
			<path class="st13" d="M198.17,408.1c-2.27,3.54-4.5,7.08-7.15,10.35c-4.74,5.84-9.71,9.85-17.26,11.32
				c-4.14,0.81-8.29,1.11-12.5,1.34c-3.63,0.2-7.95,0.92-11.49-0.35c-1.31-0.47-2.28-1.12-2.99-1.9c0.36,1.54,1.24,2.84,3.05,3.3
				c4.08,1.03,8.4,0.05,12.51-0.32c9.6-0.87,19.56-0.51,26.63-8.06c2.62-2.81,4.96-5.86,7.54-8.7c3.55-3.9,5.81-7.37,5.4-11.9
				C200.73,404.87,199.27,406.39,198.17,408.1z"/>
		</g>
	</g>
	<g>
		<path class="st1" d="M333.41,409.6c-2.65-1.52-5.88-1.87-8.87-2.12c-4.1-0.34-7.96-1.14-11.96-1.87c-0.09-1.88-2.4-3.95-4.49-4
			c-0.19-0.01-0.39,0.1-0.54,0.25c-0.22-0.27-0.46-0.51-0.75-0.72c-0.4-0.29-0.85-0.51-1.29-0.73c1.32-1.38,1.69-2.91-1.37-3.48
			c-0.12-0.02-0.25,0.01-0.37,0.06c-0.59-0.26-1.18-0.49-1.92-0.58c-0.03,0-0.05,0-0.08,0c0.42-1.68,0.56-3.47-0.36-4.98
			c-1.21-2-4.44-1.85-6.41-1.49c-0.34,0.1-0.68,0.19-1.03,0.29c0.15-6.78-0.62-13.63-0.64-20.43c-0.02-7.73,0.3-15.46,0.85-23.17
			c0.54-7.53,1.73-14.99,2.26-22.52c0.21-2.98,0.42-5.67-0.09-8.62c-0.54-3.06-2.72-5.73-3.56-8.71c0.26-0.62,0.15-1.34-0.63-1.3
			c-1.18,0.06-2.08,0.51-3.1,1.08c-1.09,0.6-2.21,0.92-3.37,1.33c-1.2,0.43-2.77,1.07-3.52,2.21c-0.18,0.12-0.32,0.32-0.31,0.56
			c0,0.02,0.01,0.04,0.01,0.06c-0.03,0.1-0.08,0.2-0.1,0.3c-0.04,0.22,0.07,0.37,0.22,0.41c0.43,1.65,1.79,3.25,2.54,4.73
			c0.74,1.46,1.22,3.17,2,4.66c-0.43,3.59-1.73,7.2-2.19,10.79c-0.41,3.21-0.67,6.36-0.7,9.6c-0.07,8,0.06,16.11,0.9,24.06
			c0.79,7.46,1.99,15.08,1.34,22.59c-0.01,0.17-0.01,0.33-0.02,0.49c-0.43-0.07-0.85-0.05-1.26,0.01c0-0.01,0-0.01,0-0.02
			c-1,0.2-2.09,0.18-2.98,0.58c-1.76,0.79-3.33,1.61-4.54,3.15c-0.78,1-1.09,2.62-0.89,3.84c0.21,1.28,0.63,2.44,1.04,3.67
			c0.33,0.98,0.39,2.04,0.42,3.1c-0.09,0.08-0.17,0.18-0.19,0.31c-1.35,7.37-6.03,17.03-2.12,24.38c1.1,2.06,6.12,2.27,8.04,2.62
			c3.31,0.59,7.57,2.47,11.26,2.64c8.42,1.75,16.68,1.09,25.21-0.21c5.49-0.83,16.69-1.54,19.61-7.51
			C342.19,419.41,338.15,412.33,333.41,409.6z"/>
		<g>
			<path class="st12" d="M306.34,403.79c0.31,0.17,0.65,0.2,1.04-0.11c0.05-0.04,0.1-0.11,0.14-0.16c0.36-0.05,0.74-0.08,1.13-0.09
				c0.92,0.51,2.06,1.22,2.22,1.92c-0.28,0.1-0.48,0.53-0.24,0.73c-0.1,0.1-0.22,0.2-0.39,0.3c-1.03,0.59-2.5,0.63-3.61,1.05
				c-2.62,0.98-4.87,2.31-6.62,4.52c-0.54,0.68-0.76,2.01-1.07,2.77c-2.53,1.59-3.02,0.7-1.48-2.68c0.55-0.77,1.13-1.54,1.72-2.28
				C301.2,407.23,303.33,404.72,306.34,403.79z"/>
			<path class="st12" d="M303.75,398.88c0.38,1.32-4.75,3.15-5.8,3.77c-3.11,1.8-4.88,4.25-6.32,7.46
				c-0.41,1.42-1.47,2.21-3.17,2.36c-2.45-0.67-0.77-3.29,0.12-4.64c1.25-1.9,2.54-3.53,4.33-4.96c1.75-1.4,3.7-2.53,5.69-3.55
				C300.4,398.39,302.03,398.81,303.75,398.88z"/>
			<path class="st13" d="M305.48,406.58c-1.84,1.12-3.5,2.63-4.81,4.14c-0.91,1.05-1.76,3.28-3.07,3.88
				c-0.5,0.23-0.81,0.21-0.99,0.03c-0.09,1.08,0.69,1.12,2.34,0.08c0.31-0.76,0.53-2.09,1.07-2.77c1.75-2.21,3.99-3.54,6.62-4.52
				c1.11-0.42,2.58-0.46,3.61-1.05c0.17-0.1,0.29-0.2,0.39-0.3c-0.24-0.2-0.04-0.61,0.23-0.72
				C309.25,405.04,307.24,405.71,305.48,406.58z"/>
			<path class="st13" d="M295.12,403.62c-2.68,2.32-4.51,4.62-6.33,7.63c-0.32,0.54-1.24,0.33-1.21-0.33
				c0.03-0.74,0.18-1.46,0.4-2.17c-0.81,1.39-1.5,3.18,0.46,3.71c1.7-0.15,2.76-0.94,3.17-2.36c1.44-3.21,3.21-5.66,6.32-7.46
				c1-0.58,5.62-2.24,5.81-3.54C300.73,400.37,297.66,401.42,295.12,403.62z"/>
			<path class="st5" d="M285.93,337.01c0.15-4.66,1.73-9.63,1.91-14.37c0.05,0.05,0.1,0.11,0.15,0.17c0.39,0.36,1.09-0.18,1.03-0.64
				c-0.3-2.21-1.65-4.23-2.49-6.28c-0.33-0.79-0.83-1.53-1.26-2.26c-0.54-0.9-1.59-1.98-2.13-2.95c1.03-0.68,2.54-0.96,3.61-1.2
				c1.42-0.31,2.66-1.08,3.99-1.57c0.3,1.92,1.08,3.26,1.93,5.25c1.64,3.86,1.69,7.3,1.46,11.4c-0.42,7.51-1.47,14.98-2.06,22.48
				c-0.55,7.07-0.8,14.16-0.87,21.25c-0.07,7.38,0.8,14.79,0.66,22.15c-1.13,0-1.93-0.17-2.51-0.46c-0.22-0.24-0.5-0.46-0.81-0.65
				c-1.07-1.37-0.29-3.81-0.38-6.1c-0.12-3.06-0.19-6.12-0.37-9.17c-0.36-6.21-1.46-12.31-1.69-18.54
				C285.87,349.38,285.73,343.15,285.93,337.01z"/>
			<path class="st11" d="M276.59,414.96c0.06-0.2,0.11-0.38,0.19-0.59c0.07-0.18,0.03-0.32-0.05-0.4c0.46-3.11,1.11-6.2,1.45-8.45
				c0.48,0.29,1.25-0.02,1.37-0.71c0.28-1.69,0.6-3.58,0.29-5.28c-0.5-2.76-2.16-5.71,1.02-7.67c1.28-0.79,2.98-1.05,4.36-1.74
				c0.29,0.11,0.57,0.24,0.84,0.36c0.06,0.03,0.12,0.06,0.17,0.09c0.04,0.08,0.09,0.14,0.13,0.22c-0.26-0.09-0.51-0.2-0.72-0.34
				c0.32,0.47,0.78,0.83,1.29,1.1c0.38,0.37,0.86,0.63,1.41,0.79c-1.78,1.34-1.12,4.21-0.24,5.87c0.22,0.42,0.87,0.25,1.09-0.07
				c0.21-0.3,0.35-0.51,0.25-0.88c-0.01-0.02-0.02-0.03-0.03-0.05c0.05-0.73,0.07-1.46,0.15-2.19c0.11-0.92,1.04-0.99,1.78-1.19
				c1.2-0.32,2.4-0.64,3.61-0.92c1.71-0.39,4.26-0.3,4.42,1.94c0.05,0.67,0,1.31,0.01,1.95c-0.47,0.17-0.92,0.37-1.35,0.54
				c-2.91,1.17-6.05,3.3-8.21,5.55c-2.76,2.87-9.04,11.32-1.25,11.9c2.36,0.18,3.27-1.05,4.34-2.99c1.26-2.27,1.91-4.31,3.95-6.11
				c1.53-1.35,3.41-2.16,5.26-2.96c0.59-0.25,1.33-0.68,2.04-1.18c0.31,0.33,0.62,0.65,0.93,0.97c-3.5,1.13-6.36,4.89-8.3,7.69
				c-1.29,1.85-2.35,3.22-1.81,5.56c0.43,1.88,2.26,2.52,3.82,1.79c1.59-0.73,2.15-3,2.63-4.49c1.09-3.37,6.53-3.91,9.29-5.04
				c0.68-0.28,1.14-0.64,1.44-1.04c3.76,2.09,7.36,2.59,11.83,2.88c3.23,0.21,6.23,0.99,8.61,2.49c-0.03,0.1-0.05,0.2-0.04,0.3
				c0.57,9.46-16.77,8.39-22.41,8.01c-5.37-0.36-9.8-1.05-13.12,3.71c-0.03,0.04-0.04,0.08-0.06,0.12c-1.6-0.36-3.21-0.71-4.83-1.03
				c-2.67-0.52-5.25-1.33-7.95-1.63c-3.53-0.39-7.38-1.06-7.9-4.13C276.36,416.84,276.46,415.9,276.59,414.96z"/>
			<path class="st11" d="M315.63,420.82c-3.18-0.34-8.41-1.06-9.45-4.86c-0.43-1.54,0.18-2.68,1.07-3.87
				c1.29-1.73,2.87-2.86,4.17-4.43c-0.21,0.14-0.44,0.27-0.71,0.38c-2.76,1.13-8.2,1.67-9.29,5.04c-0.48,1.49-1.04,3.76-2.63,4.49
				c-1.56,0.72-3.39,0.08-3.82-1.79c-0.54-2.34,0.52-3.71,1.81-5.56c1.95-2.81,4.8-6.56,8.3-7.69c-0.31-0.33-0.62-0.65-0.93-0.97
				c-0.7,0.51-1.44,0.93-2.04,1.18c-1.85,0.79-3.73,1.61-5.26,2.96c-2.04,1.8-2.69,3.84-3.95,6.11c-1.08,1.94-1.99,3.17-4.34,2.99
				c-7.79-0.58-1.5-9.04,1.25-11.9c2.16-2.25,5.3-4.38,8.21-5.55c0.43-0.17,0.88-0.37,1.35-0.54c0-0.05,0-0.1,0-0.16
				c-4.84-1.96-10.39,3.43-12.64,7.09c-1.6,2.6-2.22,5.02-2.9,7.89c-0.51,2.14-1.61,4.59-3.93,2.72c-1.38-1.11-0.49-4.05-0.17-5.35
				c0.99-4.01,1.42-7.75,1.68-11.85c0.17-2.69,1.35-4.92,3.04-6.73c-1.21,0.47-2.55,0.77-3.61,1.43c-3.18,1.96-1.52,4.91-1.02,7.67
				c0.31,1.7-0.01,3.59-0.29,5.28c-0.12,0.7-0.89,1-1.37,0.71c-0.35,2.25-0.99,5.34-1.45,8.45c0.08,0.09,0.12,0.22,0.05,0.4
				c-0.08,0.21-0.13,0.39-0.19,0.59c-0.12,0.94-0.23,1.88-0.3,2.78c0.52,3.07,4.37,3.73,7.9,4.13c2.7,0.3,5.28,1.11,7.95,1.63
				c1.62,0.32,3.22,0.67,4.83,1.03c0.02-0.04,0.03-0.08,0.06-0.12c3.32-4.77,7.75-4.08,13.12-3.71c1.52,0.1,3.89,0.25,6.53,0.23
				C316.32,420.9,315.97,420.86,315.63,420.82z"/>
			<path class="st12" d="M316.25,430.33c-6.41,0.81-12.27,0.39-18.41-0.07c-0.14-0.13-0.33-0.23-0.61-0.24
				c-3.22-0.12-6.52-1.54-9.64-2.32c-2.75-0.69-5.71-0.8-8.49-1.42c-1.94-0.43-2.71-2.47-2.86-5.21c0.52,0.56,1.19,1.08,2.05,1.54
				c3.25,1.73,8.09,1.66,11.64,2.43c3.74,0.81,7.4,1.9,11.12,2.71c6.01,1.3,12.09,1.5,18.18,0.89c3.84-0.39,7.57-1.5,11.31-2.41
				c2.13-0.52,4.25-0.85,6.27-1.54C333.16,429.18,320.31,429.81,316.25,430.33z"/>
			<path class="st13" d="M328.98,427.73c-6.49,1.96-14.19,2.93-20.95,2.37c-7.53-0.62-14.77-2.67-22.21-3.79
				c-3.42-0.51-6.87-0.88-9.28-3.08c0.39,1.61,1.17,2.74,2.55,3.05c2.79,0.61,5.75,0.73,8.49,1.42c3.12,0.78,6.42,2.21,9.64,2.32
				c0.29,0.01,0.47,0.11,0.61,0.24c6.14,0.46,12,0.89,18.41,0.07c3.8-0.48,15.3-1.07,19.74-4.83
				C333.81,426.47,331.36,427.01,328.98,427.73z"/>
			<path class="st14" d="M337.77,422.29c-4.02,1.88-9.08,2.43-13.33,3.49c-5.76,1.44-12.17,1.83-18.01,0.75
				c-2.76-0.51-5.48-1.12-8.2-1.73c3.86-3.21,8.44-2.13,13.06-1.72c4.61,0.41,9.02,0.24,13.52-0.76c3.61-0.8,9.58-4.08,9.79-8.33
				c1.87,1.88,3.05,4.46,3.18,7.87C337.79,422.01,337.77,422.15,337.77,422.29z"/>
		</g>
	</g>
	<path class="st1" d="M206.56,190.82c-0.11-0.59-0.86-0.57-1.23-0.28c-2.69,2.06-4.44,5.93-6.35,8.67
		c-3.57,5.13-8.18,9.99-12.65,14.33c-3.89,3.77-8.36,6.94-12.47,10.46c-1.99,1.71-4,3.39-5.91,5.18c-0.13,0.12-2.95,2.53-3.88,3.85
		c-2.37-6.63-1.72-14.13-2.49-20.98c0.2-0.09,0.39-0.19,0.58-0.29c0.14-0.28,0.32-0.57,0.58-0.88c1.54-1.85,3.48-3.75,4.78-5.92
		c0.02-0.03,0.03-0.06,0.04-0.09c0.59-1.26,0.9-2.61,1.12-3.99c1.54-2.97,3.02-6.08,3.8-9.27c0.72-2.97-1.95-6.74-3.6-8.88
		c-1.62-2.11-3.29-5.33-5.31-7.02c-1.26-1.06-3.77,0.52-5.42,1.63c-0.01-0.13-0.05-0.26-0.15-0.37c-2.21-2.27-8.12-6.87-11.26-3.64
		c-1.12,1.15-0.73,2.97,0.4,3.88c0.69,0.56,1.67,0.77,2.51,1c1.49,0.41,2.9,1.02,4.37,1.49c-0.79,0.48-1.6,1.02-2.23,1.56
		c-2.39-0.81-5.11,1.4-6.76,2.99c-2.06,1.99-4.82,4.18-5.07,7.23c-0.21,2.61,3.52,0.72,4.35,0.1c1.69-1.29,2.88-3.02,4.81-4.04
		c2.74-1.45,3.62,1.89,5.04,3.37c-0.67,0.4-1.3,0.86-1.92,1.35c-0.94-1.06-2.21-2.78-3.63-2.99c-1.31-0.2-1.86,0.61-2.74,1.47
		c-2.62,2.56-2.82,5.21-2.85,8.75c-0.01,1.41,0.29,4.13,2.41,3.15c2.97-1.39,1.07-6.58,4.25-7.8c-0.05,0.19,0.05,0.36,0.2,0.43
		c-1.82,3.42-2.47,7.05-1.91,10.93c0.69,1.98,1.46,3.85,2.75,5.49c0.39,0.26,0.8,0.49,1.24,0.63c0.24,0.1,0.48,0.18,0.72,0.24
		c1.3,8.32,1.32,16.75,3.21,24.98c0.55,2.41,1.33,5.35,3.28,7.04c1.48,1.29,4.47-0.82,5.66-1.49c7.8-4.41,15.23-10.03,22.36-15.44
		c6.79-5.15,13.12-10.49,17.97-17.53c0.11-0.08,0.2-0.18,0.28-0.32c1.34-2.52,1.17-5.69,1.37-8.49
		C207.06,197.93,207.2,194.14,206.56,190.82z"/>
	<g>
		<path class="st5" d="M150.68,176.98c-1.21-0.38-3.85-0.71-3.12-2.71c0.57-1.57,3.62-0.27,4.55,0.15c1.9,0.84,3.49,2.22,5.01,3.6
			c-0.05,0.03-0.11,0.07-0.15,0.09c0,0-0.92,0.43-2.06,1.06C153.71,178.03,152.25,177.48,150.68,176.98z"/>
		<path class="st5" d="M152.1,186.21c-2.03-0.87-3.87,0.07-5.47,1.36c-0.89,0.71-1.67,1.59-2.5,2.38c-0.16,0.15-3.31,2.34-2.49,0.17
			c0.3-0.81,0.92-1.47,1.48-2.11c2.11-2.42,4.42-4.91,7.56-5.32c-0.13,0.49,0.11,0.93,0.93,1.24c1.34,0.5,3.25,0.01,4.68-0.34
			c0.58,1.92,2.04,3.47,2.47,5.45c-0.49,0.11-0.96,0.24-1.37,0.38c-0.85,0.29-1.65,0.63-2.42,1.04
			C154.42,188.94,153.54,186.82,152.1,186.21z"/>
		<path class="st5" d="M157.58,183.23c1.25-0.42,2.82-1.01,3.77,0.05c0.94,1.05,2.31,3.94,2.84,5.6c-1.43-0.35-3.15-0.26-4.7,0.01
			C159.39,187,158.67,184.79,157.58,183.23z"/>
		<path class="st5" d="M204.06,209.27c-0.02,0.04-0.02,0.07-0.04,0.11c-8.05,11.34-21.26,19.52-32.77,26.99
			c-3.16,2.05-6.26,4.24-9.56,6.06c-3.15,1.74-4.7-7.58-5.04-9.09c-1.5-6.8-0.78-14.03-3-20.65c0.5,0.02,0.97-0.07,1.41-0.23
			c-1.62-0.28-3.14-1.07-4.07-2.43c-1.34-1.93-1.75-4.21-1.61-6.5c-0.12-2.73,0.53-5.46,1.5-8.03c0-0.04,0-0.08-0.01-0.12
			c-0.3-0.37-0.32-0.94-0.54-1.31c-0.16-0.14-0.37-0.23-0.62-0.28c-1.28,0.15-1.95,0.81-2.53,1.99c-0.39,0.79-0.67,1.63-0.93,2.47
			c-0.02,0.08-1.27,4.07-1.77,2.59c-0.66-1.95-0.17-5.56,0.59-7.29c0.41-0.94,1.38-1.73,2.09-2.44c1.42-1.42,3.34,0.51,4.48,1.61
			c-0.14,0.12-0.27,0.27-0.41,0.4c-0.07,0.03-0.13,0.07-0.18,0.14c-0.01,0.02-0.03,0.04-0.04,0.06c0.03,0.04,0.06,0.08,0.09,0.12
			c1.26-1.24,4.8-2.31,5.87-2.68c1.62-0.56,3.25-1.06,4.96-1.2c1.25-0.1,2.47-0.02,3.7,0.04c-0.01-0.09-0.04-0.17-0.11-0.24
			c0.03-0.08,0.05-0.17,0.04-0.26c-0.24-1.68-0.68-2.37-1.77-3.79c-0.61-0.79-1.23-3.25-2.33-3.6c-2.79-0.88-5.76,0.74-8.65,0.69
			c1.03,0.02,4.73-2.78,5.75-3.38c1.07-0.63,3.57-2.72,4.78-0.79c0.64,1.03,1.03,1.96,1.76,2.99c1.92,2.73,3.95,4.67,5.24,7.84
			c0.87,2.13-0.02,5.29-1.17,8.21c0.14-1.04,0.32-2.07,0.61-3.06c0.51-1.73-0.59-3.39-2.51-3.42c-3.35-0.05-6.28,1.47-9.72,1.25
			c-1.24-0.08-2.3,1.31-2.29,2.45c0.02,1.47,1.14,2.67,2.69,2.59c1.42-0.07,4.57-0.77,3.49,1.89c-0.55,1.35-0.57,2.93-0.62,4.37
			c-0.01,0.34,0.18,0.49,0.42,0.51c0.24-1.59,0.63-3.14,1.17-4.67c0.3-0.86,1.59-2.76,0.97-3.66c-1.47-0.78-2.72-0.06-4.28,0.15
			c-0.61,0.08-1.85,0.29-2.31-0.32c-0.72-0.95,0.12-1.79,1.07-2.1c1.71-0.55,3.5-0.39,5.22-0.8c1.4-0.33,2.87-0.7,3.93,0.06
			c0.17-0.12,0.36-0.13,0.46,0.07c1.73,3.25,0.48,7.48-0.79,10.7c-1.39,3.54-3.46,6.97-7.03,8.61c-0.9,0.42-1.94,0.62-2.98,0.65
			c1.48,0.21,2.78,0.15,3.92-0.17c-0.43,3.76-0.41,7.19,0.16,11.06c0.43,2.92,0.68,6.13,1.5,9.09c0.82,1.34,1.81,2.57,3.04,3.63
			c0.03-0.16,0.03-0.33-0.05-0.49c-0.27-0.52-0.51-1.05-0.73-1.58c2.83-1.56,5.25-4.58,7.66-6.61c4.55-3.83,9.24-7.52,13.73-11.43
			c4.05-3.53,7.55-7.69,10.97-11.81c1.85-2.23,3.63-4.44,5.21-6.87c0.88-1.35,1.89-3.2,3.09-4.56
			C205.89,197.64,206.12,205.4,204.06,209.27z"/>
	</g>
	<g>
		<path class="st5" d="M147.48,174.55c-0.4,1.76,2.04,2.07,3.2,2.44c1.57,0.5,3.03,1.04,4.24,2.19c0.35-0.19,0.67-0.37,0.96-0.52
			C153.98,175.85,150.64,175.08,147.48,174.55z"/>
		<path class="st5" d="M156.3,183.58c-1.43,0.35-3.34,0.84-4.68,0.34c-0.17-0.06-0.29-0.13-0.41-0.21
			c-3.32,0.78-7.16,3.67-8.51,7.11c0.66-0.31,1.36-0.81,1.43-0.88c0.82-0.79,1.61-1.67,2.5-2.38c1.6-1.29,3.45-2.23,5.47-1.36
			c1.44,0.62,2.32,2.74,2.88,4.23c0.77-0.4,1.57-0.75,2.42-1.04c0.41-0.14,0.88-0.27,1.37-0.38
			C158.34,187.05,156.88,185.49,156.3,183.58z"/>
		<path class="st5" d="M157.58,183.23c1.25-0.42,2.82-1.01,3.77,0.05c0.94,1.05,2.31,3.94,2.84,5.6c-1.43-0.35-3.15-0.26-4.7,0.01
			C159.39,187,158.67,184.79,157.58,183.23z"/>
		<path class="st5" d="M150.34,194.09c0.22,0.37,0.24,0.94,0.54,1.31c0,0.04,0,0.08,0.01,0.12c-0.23,0.62-0.45,1.24-0.63,1.88
			c0.05,0.13,0.08,0.28,0.05,0.45c-0.71,3.47-1.32,9.06,3.51,9.83c3.3,0.53,5.63-1.9,7.02-4.7c0.04-1.33,0.11-2.74,0.61-3.97
			c1.08-2.66-2.07-1.96-3.49-1.89c-1.55,0.08-2.67-1.12-2.69-2.59c-0.01-1.14,1.05-2.53,2.29-2.45c3.44,0.22,6.37-1.3,9.72-1.25
			c0.84,0.01,1.51,0.35,1.97,0.87c0.04-1.31-0.27-2.56-1.3-4.04c-1.3-1.86-2.61-3.61-3.56-5.69c-0.72-1.59-1.34-4.29-4.26-2.71
			c-0.93,0.51-1.85,1.06-2.81,1.53c-1.18,0.58-2.34,1.04-3.61,1.35c-0.38,0.18-0.7,0.29-0.9,0.29c2.88,0.05,5.86-1.57,8.65-0.69
			c1.11,0.35,1.72,2.81,2.33,3.6c1.09,1.42,1.54,2.11,1.77,3.79c0.01,0.09-0.01,0.17-0.04,0.26c0.07,0.07,0.1,0.15,0.11,0.24
			c-1.23-0.05-2.45-0.14-3.7-0.04c-1.71,0.14-3.34,0.63-4.96,1.2c-0.9,0.31-3.57,1.13-5.14,2.12c-0.11,0.28-0.37,0.48-0.68,0.51
			c-0.02,0.02-0.04,0.03-0.05,0.05c-0.01-0.01-0.02-0.02-0.03-0.04c-0.56-0.01-0.93-0.57-1.4-0.82c-0.07-0.04-0.14-0.07-0.22-0.11
			c-0.1-0.04-0.2-0.08-0.3-0.12c-2.34-1.03-3.22,0.84-3.61,2.77c-0.35,1.76-0.41,3.49-0.08,5.16c0.41-0.84,0.77-2,0.78-2.04
			c0.26-0.84,0.53-1.68,0.93-2.47c0.58-1.18,1.25-1.83,2.53-1.99C149.97,193.86,150.18,193.95,150.34,194.09z"/>
		<path class="st5" d="M165.3,195.73c0.59-4.21-5.94-1.73-7.98-1.12c-0.34,0.1-0.6-0.02-0.77-0.22c-0.1,0.3-0.05,0.65,0.23,1.01
			c0.46,0.61,1.7,0.4,2.31,0.32c1.56-0.21,2.8-0.93,4.28-0.15c0.42,0.6-0.03,1.65-0.45,2.54
			C163.79,197.35,165.11,197.11,165.3,195.73z"/>
		<path class="st5" d="M205.15,192.83c-0.89,1.01-1.68,2.29-2.39,3.44c0,0.08,0,0.16,0,0.24c0.99,4.97-1.36,10.83-4.04,14.79
			c-3.54,5.23-8.86,9.3-13.64,13.35c-2.67,2.27-7.16,6.02-11.02,7.12c-2.73,1.53-5.66,2.46-9.21,2.58c-0.1,0-0.19-0.03-0.27-0.05
			c0.2,0.47,0.4,0.93,0.64,1.39c0.08,0.16,0.08,0.32,0.05,0.49c-1.22-1.06-2.22-2.29-3.04-3.63c-0.82-2.96-1.08-6.17-1.5-9.09
			c-0.56-3.87-0.58-7.3-0.16-11.06c-1.14,0.32-2.44,0.38-3.92,0.17c1.04-0.03,2.08-0.23,2.98-0.65c3.57-1.65,5.64-5.07,7.03-8.61
			c1.15-2.93,2.28-6.69,1.18-9.79c0.89,3.83-0.35,7.85-2.87,10.87c-0.06,0.07-0.13,0.12-0.2,0.16c-0.76,1.3-1.6,2.53-2.5,3.51
			c-3.17,3.49-8.21,4.53-11.42,1.73c0.05,0.08,0.1,0.17,0.15,0.25c0.94,1.35,2.45,2.14,4.07,2.43c-0.44,0.16-0.91,0.25-1.41,0.23
			c0.03,0.1,0.06,0.19,0.09,0.29c3.48,1.69,4.8,3.73,5.41,8.23c0.64,4.66,1.42,9.33,1.96,14c0.32,2.8,0.09,5.57-0.96,7.19
			c0.46,0.29,0.97,0.33,1.54,0.02c3.29-1.82,6.4-4.01,9.56-6.06c11.51-7.47,24.72-15.64,32.77-26.99c0.01-0.04,0.01-0.07,0.04-0.11
			C206.12,205.4,205.89,197.64,205.15,192.83z"/>
	</g>
	<path class="st6" d="M195.66,207.03c-3.24,4.6-7.6,8.55-11.71,12.37c-4.32,4.01-9.42,7.2-13.63,11.29
		c-0.09,0.08,0.03,0.21,0.13,0.15c5.07-2.92,9.64-7.13,14.08-10.92c4.23-3.61,8.74-7.76,11.38-12.73
		C195.98,207.05,195.76,206.89,195.66,207.03z"/>
	<path class="st6" d="M308.94,199.67c-4.8-2.64-10.21-3.84-15.52-5.04c-5.51-1.25-11.75-2.4-17.4-1.65c-0.03,0-0.04,0.05-0.01,0.05
		c5.56,0.52,10.89,1.29,16.35,2.46c5.46,1.17,11.31,2.24,16.48,4.35C308.97,199.89,309.05,199.73,308.94,199.67z"/>
	<g>
		<path class="st15" d="M198.18,274.54c-1.95,3-4.71,4.21-7.8,5.71c-3.54,1.71-6.7,4.24-9.73,6.71c-6.25,5.11-12.9,9.85-18.78,15.39
			c-0.09,0.08,0.04,0.23,0.13,0.16c6.99-5.11,14.07-9.97,20.79-15.46c2.98-2.44,5.82-4.95,9.32-6.61c2.81-1.34,5.38-2.61,6.6-5.63
			C198.84,274.45,198.38,274.22,198.18,274.54z"/>
		<path class="st15" d="M211.9,292.8c-3.87-0.59-8.04,0.76-11.72,1.8c-4.6,1.3-9.11,2.87-13.67,4.29c-0.04,0.01-0.02,0.08,0.02,0.07
			c4.39-0.82,8.73-1.91,13.08-2.95c4.06-0.97,8.34-1.49,12.3-2.8C212.11,293.14,212.12,292.83,211.9,292.8z"/>
		<path class="st15" d="M225.2,288.11c-2.72-0.41-5.17-1.15-7.74-2.13c-2.31-0.89-4.92-1.24-7.34-1.72
			c-5.03-0.99-10.55-1.83-15.69-1.45c-0.04,0-0.04,0.05-0.01,0.06c5.06,1.14,10.31,1.69,15.42,2.65c5.11,0.97,10.17,2.03,15.33,2.71
			C225.25,288.24,225.28,288.12,225.2,288.11z"/>
		<path class="st15" d="M258.35,287.69c-2.54-0.16-5.04-0.68-7.59-0.68c-2.44,0-4.88,0.18-7.31,0.33c-2.46,0.16-4.93,0.33-7.39,0.53
			c-2.71,0.21-5.43-0.14-8.13,0.06c-0.09,0.01-0.09,0.12-0.01,0.15c4.45,1.52,10.05,0.98,14.67,0.74c5.24-0.27,10.55-1,15.77-1
			C258.44,287.82,258.43,287.7,258.35,287.69z"/>
		<path class="st15" d="M286.88,300.65c-4-4.14-6.57-9.37-10.53-13.55c-3.2-3.39-8.65-5.8-13.33-5.87c-0.03,0-0.04,0.05-0.01,0.06
			c2.16,1.11,4.63,1.51,6.86,2.5c2.48,1.09,4.43,2.8,6.23,4.78c3.65,4,6.94,8.25,10.74,12.14
			C286.86,300.73,286.9,300.68,286.88,300.65z"/>
	</g>
	<g class="st16">
		<path class="st6" d="M201.64,240.76c0.21-6.13,2.62-11.41,4.84-16.98c0.02-0.06-0.05-0.1-0.09-0.05
			c-6.99,10.22-7.84,24.06-1.29,34.66c0.06,0.1,0.24,0.02,0.19-0.09C202.87,252.71,201.43,246.89,201.64,240.76z"/>
		<path class="st6" d="M249.14,213.36c-0.91,1.81-1.54,3.7-2.71,5.37c-1.31,1.87-3.36,3.2-5.41,4.14c-3.58,1.64-7.7,1.82-11.56,1.35
			c-8.1-0.98-14.78-5.61-17.45-13.4c-0.03-0.09-0.16-0.05-0.14,0.04c1.66,9.05,9.4,13.67,18.04,14.71
			c8.24,0.99,18.77-2.55,19.51-12.16C249.43,213.27,249.2,213.24,249.14,213.36z"/>
		<path class="st6" d="M256.56,236.74c-0.72,2.8-1.31,5.46-2.68,8.05c-1.44,2.71-3.49,5.15-5.59,7.38
			c-0.12,0.12,0.04,0.28,0.18,0.21c5.4-2.7,8.4-9.78,8.27-15.62C256.73,236.65,256.58,236.64,256.56,236.74z"/>
		<path class="st6" d="M262.84,258.04c-2.66,4.29-6.85,7.26-11.3,9.48c-5.13,2.56-10.38,3.12-16.02,2.8c-0.02,0-0.03,0.03-0.01,0.04
			c5.24,2.23,10.86,0.92,15.85-1.28c5.17-2.28,9.57-5.59,11.68-10.94C263.09,258.01,262.92,257.92,262.84,258.04z"/>
		<path class="st6" d="M226.65,265.89c-3.15-0.34-6.35,0.87-9.43,1.38c-3.86,0.65-7.44,0.43-10.91-1.41
			c-0.07-0.04-0.13,0.06-0.08,0.11c5.64,4.96,14.1,2.09,20.44,0.32C226.86,266.23,226.86,265.91,226.65,265.89z"/>
	</g>
	<path class="st17" d="M308.25,403.94c-4.06,0-8.23,3.73-9.74,7.31c-0.07,0.17,0.13,0.3,0.26,0.18c1.46-1.36,2.59-2.91,4.23-4.1
		c1.68-1.22,3.61-1.46,5.45-2.28C309.01,404.79,308.93,403.94,308.25,403.94z"/>
	<path class="st17" d="M299.7,399.28c-4.27,0.98-9.22,5.29-11.02,9.24c-0.11,0.24,0.21,0.49,0.39,0.27c1.7-2.05,3.23-3.82,5.45-5.34
		c1.81-1.24,3.96-2.04,5.62-3.47C300.51,399.68,300.08,399.19,299.7,399.28z"/>
	<path class="st17" d="M298.61,393.69c-2.12-1.73-8.47-0.29-8.44,2.94c0,0.16,0.23,0.2,0.29,0.06c0.8-1.64,1.91-2.24,3.68-2.52
		c1.42-0.23,2.64,0.24,4.01,0.39C298.62,394.61,299.04,394.05,298.61,393.69z"/>
	<g>
		<path class="st17" d="M168.85,410.89c-1.62,1.02-2.76,2.57-4.39,3.6c-1.72,1.1-3.59,1.76-5.52,2.38
			c-0.07,0.02-0.06,0.14,0.03,0.14c3.88-0.26,8.4-2.23,10.18-5.85C169.23,410.98,169.02,410.78,168.85,410.89z"/>
		<path class="st17" d="M182.24,392.81c-2.08-0.2-4.78,0.86-6.67,1.62c-0.85,0.34-1.96,0.81-2.35,1.71
			c-0.37,0.85,0.31,1.57,1.13,1.69c0.17,0.02,0.29-0.14,0.2-0.29c-0.4-0.73-0.53-0.99,0.23-1.5c0.86-0.58,1.93-0.88,2.91-1.18
			c1.47-0.45,3.18-0.54,4.58-1.16C182.65,393.54,182.76,392.86,182.24,392.81z"/>
		<path class="st17" d="M183.74,399.71c-2.45-1.47-6.86,0-9.2,1.15c-0.1,0.04-0.03,0.18,0.05,0.18c1.49,0,3.02-0.23,4.5-0.38
			c1.51-0.15,3.15,0.12,4.6-0.33C183.98,400.23,183.98,399.85,183.74,399.71z"/>
		<path class="st17" d="M182.04,406.9c-0.73-0.56-1.75-0.75-2.66-0.79c-0.97-0.05-1.95-0.21-2.84,0.27
			c-0.06,0.03-0.04,0.12,0.02,0.13c0.8,0.17,1.61,0.08,2.42,0.22c0.94,0.16,1.76,0.75,2.71,0.85
			C182.03,407.61,182.38,407.17,182.04,406.9z"/>
		<path class="st17" d="M178.38,419.98c-4.88-1.99-9.59,0.17-13.94,2.46c-2.8,1.47-5.44,2.76-8.64,2.96
			c-3.17,0.2-4.91-0.59-6.8-3.12c-0.28-0.37-0.93-0.13-0.77,0.35c1.48,4.29,6.32,4.73,10.26,3.83c2.95-0.67,5.54-2.12,8.15-3.6
			c3.87-2.19,7.17-3.41,11.66-2.69C178.42,420.19,178.49,420.02,178.38,419.98z"/>
	</g>
	<g id="head">
		<path class="st1" d="M293.82,143.64c-0.31-2.14-1.29-5.19-3.33-6.37c0.03-0.08,0.06-0.16,0.07-0.26
			c0.49-4.79,0.15-8.61-0.89-12.98c0.04,0.03,0.1,0.06,0.14,0.09c0.31,0.22,0.77,0.21,1.05-0.06c2.46-2.37-0.49-7.25-2.78-10.37
			c0.13,0.04,0.26,0.07,0.39,0.1c0.8,0.51,1.58-0.36,1.46-1.16c-0.39-2.72-1.5-5.12-2.98-7.41c-0.56-0.87-1.34-1.58-2.07-2.3
			c-0.16-0.19-0.34-0.32-0.54-0.41c0.82,0.15,1.59,0.45,2.31,0.91c0.67,0.32,1.29-0.48,1.33-1.06c0.34-5.22-6.88-9.56-11.57-12.13
			c0.3-0.11,0.46-0.54,0.37-0.83c0.04-0.17,0.03-0.35-0.08-0.51c-1.55-2.22-3.34-2.67-5.37-3.51c0.87-0.34,1.98-0.67,2.47-1
			c0.54-0.36,0.77-1.33,0.21-1.77c-1.94-1.52-4.63-1.68-7-2c-1.8-0.24-3.59-0.35-5.41-0.37c-2.31-0.03-0.96-0.83-0.28-2.09
			c0.23-0.42,0.05-1.16-0.53-1.15c-1.84,0.04-3.65,0.93-4.69,2.45c-0.25-1.42-0.68-2.61-1.7-3.76c-0.3-0.34-0.72-0.3-1.03-0.08
			c0,0.9,0.02,1.8,0.14,2.71c0.04,0.28-0.33,0.7-0.63,0.58c-3.21-1.26-6.53-2.65-9.97-3.14c-2.94-0.42-5.99-0.15-8.92-0.53
			c-0.15,0.36-0.12,0.79,0.15,1.07c0.02,0.04,0.05,0.07,0.07,0.1c-3.25,0.26-6.19,1.27-9.4,2.42c-4.34,1.55-8.55,2.83-11.99,6.05
			c-0.2,0.19-0.34,0.49-0.38,0.77c-4.3,0.97-8.73,3.16-11.35,6.2c-0.21,0.24-0.3,0.61-0.22,0.92c-0.7,0.27-1.38,0.61-2.04,1.02
			c-2.25,1.4-4.85,2.68-6.73,4.57c-0.49,0.49-0.26,1.34,0.42,1.45c0.38,0.06,0.79,0.08,1.19,0.14c-0.62,0.55-1.23,1.11-1.77,1.76
			c-0.39,0.47-0.32,1.36,0.42,1.42c0.4,0.03,0.81,0.1,1.22,0.16c-2.9,2.16-5.81,5.06-6.84,7.62c-0.18,0.44-0.16,1.05,0.37,1.24
			c0.4,0.14,0.76,0.19,1.12,0.2c-0.29,0.41-0.56,0.84-0.83,1.28c0.1,0.09,0.14,0.24,0.04,0.45c-1.48,3.13-2.67,6.24-2.71,9.69
			c0.34,0.04,0.75-0.1,0.97-0.37c0.95-1.18,0.08,0.25-0.02,1.5c-0.17,2.15,0.09,4.33,0.28,6.47c0.29,3.33,1.15,6.54,2.15,9.71
			c0.03,0.14,0.06,0.28,0.1,0.41c-0.03,0-0.05-0.01-0.08-0.02c-2.44-0.32-4.19,0.62-4.9,3.11c-1.48,5.2-1.01,13.02,4.3,15.89
			c0.15,0.08,0.3,0.1,0.45,0.09c-1.82,8.2-2.28,16.09,3.47,23.01c5.79,6.97,15.69,12.03,23.83,15.69
			c19.47,8.75,39.25-0.8,55.21-12.26c6.35-4.56,12.6-10,13.53-18.21c0.26-2.25,0.12-4.53-0.15-6.81c2.57,0.78,4.71-3.54,5.66-5.31
			C291.94,152.27,294.59,148.92,293.82,143.64z"/>
		<path class="st5" d="M188.33,158.03c-3.07-2.37-3.62-6.49-3.51-10.2c0.06-2.04,0.62-5.04,3.37-4.21c1.17,0.35,1.93,1.65,2.8,2.68
			c-0.18,1.79-0.49,3.56-0.86,5.33c-0.01,0.24-0.01,0.48-0.02,0.71c0,0.12-0.1,0.29-0.23,0.43c-0.04,0.16-0.07,0.32-0.11,0.48
			c-0.07-0.1-0.14-0.19-0.22-0.29c-0.09,0.01-0.17-0.04-0.24-0.16c-0.6-1.17-1.5-2.12-2.18-3.2c-0.13,0.1-0.24,0.23-0.3,0.41
			c-0.32,0.97,0.22,2.13,0.62,3c0.38,0.81,0.94,1.99,1.77,2.52c-0.21,0.85-0.42,1.7-0.63,2.55
			C188.5,158.04,188.42,158.03,188.33,158.03z"/>
		<path class="st5" d="M278.11,176.81c-2.35,3.24-5.79,5.69-8.97,8.04c-16.13,11.93-34.64,20.02-54.16,11.15
			c-7.08-3.22-14.63-8.17-20.27-13.57c-8.12-7.79-5.64-18.67-3.21-28.31c0.59-2.33,0.97-4.67,1.28-7.01
			c0.24-0.21,0.37-0.55,0.16-0.83c-0.02-0.02-0.03-0.04-0.05-0.07c0.63-5.19,0.9-10.38,1.92-15.57c0.15-0.76,0.33-1.51,0.53-2.25
			c0.11,0.88,0.25,1.76,0.46,2.62c0.26,1.06,1.61,0.58,1.96-0.13c2.63-5.31,5.46-9.74,9.04-14.49c1.43-1.9,2.79-3.71,3.75-5.71
			c0.84,3.18,2.38,6.67,4.93,7c0.32,0.04,0.71-0.53,0.38-0.74c0.21-0.06,0.41-0.28,0.39-0.5c-0.15-1.18,0.04-2.3,0.15-3.44
			c1.26,2.78,3.7,5.27,6.67,5.91c0.01,0.03,0.02,0.06,0.03,0.09c0.23,0.62,1.11,0.11,0.95-0.45c-0.02-0.05-0.03-0.11-0.04-0.17
			c0-0.04-0.01-0.07-0.03-0.11c-0.25-1-0.39-2.16-0.33-3.31c0.41,1.8,1.17,3.58,2.32,4.55c0.23,0.19,0.58,0.19,0.83,0.06
			c2.08-1.06,3.56-3.61,5.38-5.06c2.46-1.95,5.21-3.45,8.04-4.77c-0.72,1.28-1.34,2.6-1.87,4c-0.2,0.53,0.02,1.29,0.73,1.12
			c5.86-1.37,11.84-3.49,17.24-6.5c-0.48,1-0.94,2.01-1.27,3.1c-0.2,0.64,0.45,1,0.98,0.79c1.52-0.58,2.69-1.58,3.97-2.49
			c0,2.1,0.54,4,1.12,6.2c0.76,2.91,1.29,6.41,3.26,8.78c0.23,0.27,0.51,0.41,0.87,0.34c1.04-0.2,1.24-0.55,1.74-1.48
			c1.17-2.17,1.28-4.48,2.27-6.7c1.48,4.37,3.27,8.55,5.19,12.76c2.32,5.09,4.04,10.33,6.58,15.32c0.17,5.64,0.37,11.28,0.56,16.92
			C281.8,167.37,281.4,172.29,278.11,176.81z"/>
		<path class="st5" d="M196.26,137.16c1.5-2.58,2.96-6.22,5.39-8.06c0.21-0.16,0.59-0.05,0.7,0.18c0.4,0.89,0.49,1.78,0.57,2.69
			c0.73-1.95,1.19-4.01,2.06-5.92c1.04-2.28,2.26-4.38,3.71-6.43c0.53-0.76,1.51-1.61,2.52-1.15c2.14,0.98,4.21,2.39,6.18,3.75
			c0.01-1.04,0.1-2.11,0.74-2.95c0.18-0.24,0.57-0.38,0.8-0.1c1.75,2.03,3.9,3.54,6.14,4.92c0.88,0.44,1.75,0.79,2.57,0.99
			c2.51-3.33,5.19-7.01,9.37-8.21c0.19-0.05,0.34,0,0.45,0.1c0.12,0.08,0.2,0.21,0.2,0.4c0,0.6-0.06,1.31,0.1,1.89
			c0.58,2.15,2.58-0.03,3.07-0.45c0.94-0.78,2.05-1.43,3.14-1.97c2.9-1.44,5.79-2.79,8.96-3.55c0.37-0.09,0.6,0.19,0.63,0.48
			c0,0.01,0,0.02,0,0.03c0,0.03,0,0.05,0,0.07c0,0.04,0.01,0.08,0,0.12c-0.13,0.6-0.53,5.66,0.77,5.17
			c0.91-0.34,1.62-1.18,2.36-1.78c0.76-0.62,1.54-1.15,2.46-1.49c0.24-0.33,0.9-0.23,0.93,0.3c0.22,4,0.87,7.64,2.89,11.14
			c0.47,0.82,2.79,5.38,4.25,3.67c0.81-0.96,1.37-2.07,1.99-3.15c0.2-0.34,0.68-0.32,0.88,0c2.93,4.63,5.62,9.4,8.17,14.25
			c1.02,1.95,2.07,3.9,2.88,5.92c-0.03-1.02-0.07-2.03-0.1-3.05c-2.54-5-4.26-10.23-6.58-15.32c-1.92-4.21-3.71-8.39-5.19-12.76
			c-0.99,2.22-1.1,4.53-2.27,6.7c-0.5,0.93-0.71,1.28-1.74,1.48c-0.36,0.07-0.64-0.06-0.87-0.34c-1.96-2.37-2.5-5.87-3.26-8.78
			c-0.57-2.2-1.12-4.09-1.12-6.2c-1.28,0.91-2.46,1.92-3.97,2.49c-0.53,0.2-1.18-0.15-0.98-0.79c0.34-1.1,0.79-2.1,1.27-3.1
			c-5.4,3.01-11.39,5.13-17.24,6.5c-0.71,0.17-0.94-0.59-0.73-1.12c0.54-1.4,1.15-2.72,1.87-4c-2.83,1.32-5.57,2.82-8.04,4.77
			c-1.82,1.45-3.3,4-5.38,5.06c-0.25,0.13-0.6,0.13-0.83-0.06c-1.15-0.97-1.91-2.75-2.32-4.55c-0.06,1.15,0.08,2.31,0.33,3.31
			c0.02,0.04,0.02,0.07,0.03,0.11c0.01,0.05,0.02,0.12,0.04,0.17c0.15,0.55-0.72,1.07-0.95,0.45c-0.01-0.03-0.02-0.06-0.03-0.09
			c-2.97-0.63-5.41-3.13-6.67-5.91c-0.12,1.14-0.3,2.26-0.15,3.44c0.03,0.22-0.17,0.44-0.39,0.5c0.33,0.21-0.06,0.78-0.38,0.74
			c-2.55-0.33-4.09-3.82-4.93-7c-0.96,2-2.31,3.81-3.75,5.71c-3.58,4.74-6.41,9.17-9.04,14.49c-0.35,0.71-1.7,1.19-1.96,0.13
			c-0.21-0.86-0.35-1.74-0.46-2.62c-0.2,0.75-0.38,1.5-0.53,2.25c-0.82,4.18-1.16,8.35-1.58,12.52
			C194.09,141.1,195.14,139.1,196.26,137.16z"/>
		<path class="st18" d="M269.92,180.56c-7.45,6.64-16.12,11.04-25.89,13.15c-9.37,2.03-19.68,2.81-29.08,0.55
			c-3.49-0.84-6.77-2.1-9.84-3.71c3.24,2.1,6.61,3.97,9.88,5.46c19.52,8.87,38.03,0.78,54.16-11.15c3.19-2.36,6.62-4.8,8.97-8.04
			c2.81-3.87,3.51-8.03,3.54-12.57C279.49,170.59,274.99,176.04,269.92,180.56z"/>
		<path class="st5" d="M232.07,178.37c-2.33,0.48-4.21-0.53-5.29-2.25c0.1,0.69,0.25,1.37,0.46,2.02c0.61,1.93,1.79,4.23,4.26,3.91
			c1.27-0.16,2.47-0.55,3.43-1.44c2.21-2.05,3.47-4.86,4.33-7.74C237.26,175.4,234.92,177.78,232.07,178.37z"/>
		<path class="st5" d="M237.01,186.91c-1.79,0.96-3.14,2.19-4.55,3.57c3.97,0.27,6.88-2.54,9.38-5.44
			C240.19,185.55,238.53,186.1,237.01,186.91z"/>
		<path class="st5" d="M213,142.31c-0.71-0.35-1.38-0.75-2.07-1.13c0.06,1.21,0.7,1.73,1.86,2.24c0.95,0.42,1.59,0.56,2.31-0.18
			C214.4,142.92,213.69,142.65,213,142.31z"/>
		<path class="st5" d="M211.26,158.81c-2.28,0.86-3.7-1.62-4.12-3.89c-0.53,1.71-0.79,3.54-0.23,5.15c0.82,2.38,3.5,3.67,5.34,1.49
			c1.21-1.42,1.65-3.33,1.76-5.27C213.26,157.43,212.34,158.4,211.26,158.81z"/>
		<path class="st5" d="M254.88,158.67c-1.04,0.7-2.8,0.96-3.7-0.18c-0.55-0.7-0.74-1.48-0.79-2.3c-0.42,0.92-0.69,1.88-0.7,2.85
			c-0.02,2.98,3.27,7.39,6.42,4.27c2.06-2.05,2.03-5.38,1.46-8.24C256.93,156.55,256.04,157.89,254.88,158.67z"/>
		<path class="st5" d="M253.56,142.09c-0.78,0.47-1.57,0.93-2.47,1.1c0.29,1.84,2.98,0.51,3.79-0.28c0.69-0.67,1.25-1.42,1.6-2.29
			C255.5,141.1,254.49,141.52,253.56,142.09z"/>
		<path class="st5" d="M251.12,175.49c-1.23,1.9-3.46,3-5.42,4.11c-3.7,2.08-7.64,3.48-11.61,4.93c-1.08,0.39-9.32,4.36-12.79,3.66
			c2.38,2.95,10.27-0.24,13-1.37c3.87-1.6,7.62-3.62,11.24-5.74c3.16-1.85,6.03-4.04,7.8-7.21c-0.14,0-0.28-0.01-0.42,0
			C252.32,174.41,251.8,175.04,251.12,175.49z"/>
		<path class="st19" d="M281.43,143.33c-0.05-0.27-0.11-0.51-0.18-0.76c-2.63-4.91-4.54-10.38-6.54-15.56
			c-1.12-2.88-2.08-5.82-3.14-8.72c-0.58-1.59-1.26-3.14-1.68-4.77c-0.03,0-0.06-0.01-0.09-0.02c-1.65,2.89-3.05,5.89-3.92,9.14
			c-0.1,0.36-0.61,0.71-0.83,0.25c-2.11-4.56-4.29-10.27-3.51-15.45c-1.43,0.89-2.89,1.74-4.34,2.61c-0.36,0.21-0.67-0.16-0.49-0.51
			c0.76-1.5,1.26-3.08,1.74-4.68c-2.38,1.42-4.78,2.81-7.32,3.99c-3.16,1.46-6.73,2.57-10.13,3.69c-0.15,0.48-0.98,0.62-0.82,0
			c0.51-1.98,1.19-3.91,2.21-5.66c-4.43,1.65-8.51,4.03-12.23,7c-0.92,0.74-1.66,1.63-2.41,2.52c-0.28,0.4-0.55,0.8-0.79,1.24
			c-0.15,0.27-0.63,0.57-0.79,0.12c-0.85-2.41-2-4.69-2.69-7.11c-0.03,0.04-0.07,0.07-0.09,0.11c-1.13,1.96-1.22,4.55-0.7,6.81
			c-1.63-0.9-2.94-2.35-3.91-3.96c-1.99-2.38-3.12-5.01-3.5-8.03c-0.67,1.43-0.05,3.88,0.4,5.39c-0.21,0.11-0.4,0.3-0.48,0.51
			c-0.5,1.4-0.6,3.64,0.12,5.05c-1.11-1-1.92-2.94-2.48-4.94c-0.99-1.66-1.77-3.54-2.2-5.47c-0.43,0.81-0.85,1.62-1.31,2.41
			c-1.02,3.24-3.48,6.38-5.8,9.15c-2.06,3.1-4.12,6.21-5.96,9.45c-0.13,0.23-0.68,0.61-0.79,0.12c-0.32-1.46-0.72-2.91-1.13-4.35
			c-1.18,2.73-2.26,5.52-2.92,8.43c-0.89,3.91-1.02,7.9-1.32,11.88c-0.03,0.32-0.49,0.87-0.79,0.46c-2-2.76-1.99-6.38-2.48-9.62
			c-0.67-4.45-1.01-8.88-0.49-13.34c-0.18-0.23-0.48-0.38-0.77-0.3c-0.24,0.07-0.44,0.14-0.62,0.22c0.46-2.1,1.39-4.36,2.52-6.29
			c0.48-1.37,1.11-2.68,1.81-3.96c-0.09-0.05-0.19-0.09-0.33-0.09c-0.32,0.01-0.83,0.05-1.3,0.05c1.55-2.65,4.59-5.37,7.16-7.47
			c-0.89,0.04-1.77-0.02-2.6-0.34c-0.13-0.05-0.2-0.16-0.22-0.29c-0.2-0.11-0.24-0.43-0.06-0.64c0.69-0.82,1.43-1.63,2.21-2.38
			c-0.46-0.1-0.91-0.22-1.36-0.36c-0.35-0.12-0.23-0.59-0.02-0.77c3.07-2.64,7.08-5.26,11.23-5.9c-0.04-0.04-0.1-0.06-0.17-0.07
			c-0.49-0.05-0.98-0.06-1.46-0.03c-0.05-0.09-0.12-0.17-0.22-0.22c2.11-1.68,4.91-2.64,7.29-3.74c0.34-0.16,0.71-0.29,1.08-0.4
			c0.52-0.22,1.05-0.46,1.58-0.71c1.38-0.67,2.71-1.37,4.1-1.95c-0.01,0-0.01-0.01-0.02-0.01c-0.86-0.02-1.77,0.03-2.71,0.14
			c2.63-2.04,5.66-3.08,8.83-4.25c4.04-1.49,7.74-3.05,12.07-2.91c0.75,0.02,1.25-0.79,0.93-1.45c-0.03-0.07-0.06-0.14-0.08-0.21
			c5.52,0.06,11.35,1.24,16.12,3.92c0.24,0.13,0.62-0.01,0.81-0.16c0.6-0.49,0.88-1.08,1.01-1.72c0.35,0.6,0.62,1.24,0.81,1.94
			c0.1,0.28,0.37,0.3,0.59,0.19c0.11,0.04,0.25,0.03,0.38-0.07c0.81-0.67,1.62-1.31,2.59-1.61c-0.55,0.7-1,1.34-1.07,2.48
			c-0.01,0.07,0.01,0.14,0.03,0.21c0.01,0.01,0.02,0.01,0.03,0.02c0.64,0.89,5.01,0.33,6.07,0.41c2.53,0.17,5.27,0.33,7.6,1.39
			c0.31,0.14,0.28,0.58,0.02,0.77c-0.96,0.73-2.06,1.51-3.2,2.21c0.09,0.14,0.21,0.26,0.38,0.35c0.13,0.07,0.24,0.13,0.34,0.18
			c0.38,0.12,0.77,0.26,1.14,0.4c0.28,0.06,0.62,0.12,1.18,0.25c0.59,0.14,1.16,0.47,1.73,0.85c0.62,0.22,1.26,0.42,1.9,0.56
			c0.5,0.11,0.1,0.79-0.19,0.89c-0.51,0.18-0.97,0.41-1.42,0.66c5.1,2.38,10.21,5.8,13.19,10.65c0.19,0.3-0.1,0.81-0.46,0.79
			c-1.42-0.05-2.82-0.16-4.23-0.23c2.45,3.07,4.62,6.32,6.36,9.86c0.18,0.36-0.14,0.87-0.57,0.78c-0.69-0.15-1.39-0.26-2.09-0.39
			c2.09,3.04,3.59,6.57,4.62,10.04c0.09,0.3-0.26,0.84-0.61,0.69c-0.61-0.26-1.2-0.52-1.79-0.8c0.15,0.99,0.16,2.01,0.25,3.06
			c0.04,0.42,0.07,0.84,0.11,1.26c0.62,3.34,0.84,6.49,0.51,10.1c-0.08-0.02-0.16-0.05-0.23-0.07c0,0.16,0,0.33-0.01,0.49
			c-0.22,0.01-0.45,0.04-0.69,0.09c-2.74,0.56-4.15,2.73-5.1,5.14c-0.16,0.4-0.32,0.8-0.46,1.21
			C282.12,143.48,281.51,143.78,281.43,143.33z"/>
		<path class="st5" d="M292.02,148.31c-0.49,2.03-1.59,3.48-2.69,5.22c-1.08,1.7-1.6,3.96-2.95,5.47c-0.54,0.6-1.45,1.75-2.39,1.47
			c-0.11-0.03-0.2-0.1-0.29-0.2c-0.01,0-0.01,0.01-0.02,0.01c0-0.01,0-0.02,0-0.03c-0.57-0.71-0.49-2.79-0.5-3.26
			c0-0.12,0-0.23,0-0.34c-0.04-0.32-0.09-0.64-0.13-0.96c0.06-0.03,0.13-0.07,0.19-0.11c0.36-3.44,2.29-6.31,4.54-8.94
			c-0.01-0.23-0.19-0.41-0.47-0.29c-2,0.9-2.7,2.63-3.85,4.34c-0.21,0.31-0.48,0.75-0.74,1.24c-0.08-1.54-0.13-3.09-0.18-4.63
			c-0.04-0.05-0.06-0.11-0.07-0.2c-0.14-1.01-0.25-2.08,0.08-3c-0.03,0-0.05-0.01-0.09-0.01c0-0.13-0.01-0.27-0.01-0.4
			c0.76-1.34,2.51-3.33,3.36-4.09c1.08-0.97,1.96-1.18,2.69-0.92c0.06,0.13,0.15,0.22,0.26,0.27c0.08-0.01,0.17,0,0.24,0.06
			c0,0,0,0,0.01,0.01c0.03,0,0.06,0.01,0.09,0.01c0.23,0.18,0.43,0.42,0.62,0.69C291.49,141.81,292.58,145.98,292.02,148.31z"/>
		<path class="st5" d="M186.46,146.61c-0.58,1.25-0.86,2.61-0.85,3.99c0.01,1.58,0.08,3.37,0.62,4.93c0.51,0.94,1.19,1.79,2.1,2.49
			c0.09,0,0.17,0.02,0.26,0.05c0.21-0.86,0.42-1.71,0.63-2.55c-0.83-0.54-1.39-1.71-1.77-2.52c-0.4-0.86-0.94-2.02-0.62-3
			c0.06-0.18,0.17-0.31,0.3-0.41c0.68,1.08,1.58,2.02,2.18,3.2c0.06,0.12,0.15,0.17,0.24,0.16c0.07,0.1,0.14,0.19,0.22,0.29
			c0.04-0.16,0.07-0.32,0.11-0.48c0.13-0.13,0.23-0.31,0.23-0.43c0.01-0.24,0.02-0.48,0.02-0.71c0.37-1.76,0.68-3.53,0.86-5.33
			c-0.03-0.04-0.06-0.08-0.09-0.11C189.36,145.24,187.39,144.59,186.46,146.61z"/>
		<path class="st5" d="M282.48,147.1c0.01,0.08,0.04,0.15,0.07,0.2c0.04,1.54,0.1,3.09,0.18,4.63c0.26-0.5,0.54-0.94,0.74-1.24
			c1.15-1.71,1.85-3.44,3.85-4.34c0.28-0.13,0.46,0.06,0.47,0.29c-2.26,2.63-4.18,5.5-4.54,8.94c-0.06,0.04-0.12,0.08-0.19,0.11
			c0.04,0.32,0.09,0.64,0.13,0.96c0,0.12-0.01,0.23,0,0.34c0.01,0.37-0.04,1.77,0.24,2.69c0.26-0.03,0.5-0.12,0.75-0.23
			c0.71-1.55,1.07-5.41,1.4-6.22c1.17-2.9,3.41-5.18,3.9-8.14c-0.48-2.94-2.29-4.91-6.16-2.65c-0.33,0.44-0.63,0.88-0.85,1.26
			c0,0.13,0.01,0.27,0.01,0.4c0.03,0,0.06,0,0.09,0.01C282.23,145.02,282.34,146.09,282.48,147.1z"/>
		<path class="st1" d="M215.59,141.36c-1.09-0.7-2.06-1.56-3.15-2.25c-0.9-0.57-2.03,0.25-2.02,1.26c0.01,0.86,0.79,1.14,1.42,1.52
			c0.8,0.49,1.61,1.12,2.52,1.39C215.33,143.75,216.55,141.98,215.59,141.36z"/>
		<path class="st1" d="M255.31,139.59c-1,0.43-2.04,0.76-3.02,1.25c-0.19,0.1-0.38,0.21-0.56,0.34c-0.19,0.06-0.39,0.09-0.58,0.13
			c-0.54,0.11-0.94,0.61-1.05,1.12c-0.44,0.49-0.49,1.4,0.31,1.45c0.48,0.03,0.91-0.12,1.32-0.35c0.36-0.1,0.72-0.24,1.03-0.37
			c1.06-0.43,2.13-0.97,3.16-1.48C257.14,141.07,256.81,138.94,255.31,139.59z"/>
		<path class="st1" d="M239.03,171.24c-2.83,1.96-5.17,7.36-9.48,6.12c-1.87-0.54-1.97-4.32-2.05-5.8
			c-0.13-2.42,0.09-4.86,0.36-7.26c0.06-0.5-0.63-0.29-0.73,0.05c-1.2,3.88-3.02,12.25,1.55,14.8c1.65,0.92,4.27-0.32,5.68-1.17
			c2.26-1.35,4.34-3.71,5.58-6.01C240.28,171.33,239.57,170.87,239.03,171.24z"/>
		<g>
			<path class="st1" d="M253.12,172.57c-1.2,0.05-2.32,0.56-3.38,1.09c-0.19-0.07-0.48,0.11-0.52,0.31
				c-0.01,0.05-0.02,0.1-0.03,0.15c-0.04,0.24,0.11,0.43,0.36,0.4c0.56-0.07,1.12-0.18,1.68-0.28c-4.03,3.07-8.3,5.68-12.81,8.03
				c-2.3,1.2-4.68,2.22-7.09,3.19c-1.77,0.71-3.6,1.23-5.43,1.77c-0.38,0.11-6.76,1.91-5.39-1.12c0.12-0.26-0.2-0.44-0.37-0.21
				c-0.94,1.27-0.86,2.28,0.46,3.22c2.24,1.59,7.39-0.81,9.52-1.5c7.67-2.48,17.81-7.17,23.26-13.43c0.11,0.04,0.21,0.07,0.32,0.12
				c0.42,0.19,0.56,0.42,1.06,0.36c0.25-0.03,0.41-0.26,0.48-0.48C255.62,172.95,254.03,172.54,253.12,172.57z"/>
			<path class="st1" d="M241.23,184.91c-1.57,0.41-3.07,1.07-4.53,1.79c-1.76,0.86-2.91,2.29-4.43,3.46
				c-0.34,0.26-0.16,0.94,0.31,0.69c1.59-0.86,2.81-2.15,4.46-2.94c1.43-0.69,3.29-0.96,4.45-2.08
				C241.78,185.55,241.85,184.75,241.23,184.91z"/>
		</g>
		<path class="st6" d="M213.9,152.78c-0.16-0.6-0.21-1.01-0.21-1.68c-0.01-0.82-0.77-1.46-1.56-1.43c-0.83,0.04-1.44,0.75-1.43,1.56
			c0.01,0.82,0.13,1.64,0.35,2.43c0.21,0.79,1.11,1.22,1.87,0.98C213.71,154.4,214.12,153.56,213.9,152.78z"/>
		<path class="st6" d="M255.3,151.63c-0.84,0.04-1.43,0.75-1.43,1.56c0,0.68,0.01,1.38-0.06,2.05c-0.08,0.81,0.29,1.59,1.15,1.78
			c0.73,0.16,1.69-0.33,1.78-1.15c0.1-0.94,0.12-1.87,0.12-2.81C256.85,152.24,256.08,151.6,255.3,151.63z"/>
		<path class="st1" d="M254.26,148.7c-2.04-0.1-3.87,3.13-4.08,7.21c-0.21,4.09,1.28,7.49,3.32,7.59c2.04,0.11,3.87-3.12,4.08-7.21
			C257.79,152.2,256.31,148.8,254.26,148.7z M256.76,154.17c-0.07,1.29-0.65,2.32-1.29,2.28c-0.65-0.03-1.12-1.1-1.05-2.4
			c0.06-1.29,0.64-2.31,1.29-2.28C256.36,151.8,256.83,152.88,256.76,154.17z"/>
		<path class="st1" d="M210.85,146.94c-2.04-0.1-3.87,3.13-4.08,7.21c-0.21,4.09,1.28,7.49,3.32,7.59c2.05,0.1,3.87-3.12,4.08-7.21
			C214.38,150.45,212.9,147.05,210.85,146.94z M213.35,152.41c-0.07,1.29-0.64,2.32-1.29,2.28c-0.65-0.03-1.12-1.1-1.05-2.4
			c0.06-1.29,0.64-2.31,1.29-2.28C212.95,150.04,213.42,151.12,213.35,152.41z"/>
		<g class="st20">
			<path class="st6" d="M228.36,166.04c0-0.07-0.12-0.09-0.13-0.01c-0.27,3.1-0.53,6.43,0.6,9.39c0.11,0.28,0.49,0.15,0.43-0.13
				C228.67,172.18,228.5,169.19,228.36,166.04z"/>
			<path class="st6" d="M246.6,175.72c-6.02,3.68-11.82,7.07-18.36,9.81c-0.01,0.01-0.01,0.03,0.01,0.02
				c6.57-2,13.06-5.37,18.64-9.36C247.19,175.99,246.91,175.54,246.6,175.72z"/>
			<path class="st6" d="M201.4,186.48c-3.34-3.69-6.7-7.42-8.58-12.1c-1.88-4.69-1.58-9.3-1.04-14.23c0.01-0.04-0.06-0.06-0.07-0.01
				c-1.12,4.67-1.53,9.96-0.02,14.59c1.57,4.83,5.36,9.21,9.63,11.87C201.39,186.64,201.45,186.54,201.4,186.48z"/>
			<path class="st6" d="M288.39,139.87c-0.08-0.04-0.16,0.07-0.09,0.13c3.52,3.27,2.51,8.03,0.85,11.93
				c-0.04,0.1,0.08,0.19,0.16,0.11C292.27,149.22,292.39,141.84,288.39,139.87z"/>
			<path class="st6" d="M187.82,144.11c-0.67-0.64-1.73,0.27-2.11,0.86c-0.25,0.38-0.44,0.8-0.51,1.26
				c-0.07,0.49,0.07,1.03,0.07,1.52c0,0.11,0.17,0.1,0.16-0.01c-0.01-0.7,0.35-1.36,0.65-1.98c0.15-0.33,0.39-0.6,0.67-0.82
				c0.32-0.26,0.74-0.28,1.04-0.54C187.89,144.33,187.91,144.2,187.82,144.11z"/>
			<path class="st6" d="M263.23,163.38c-0.04,0-0.06,0.01-0.09,0.02c-3.24-1.24-6,0.55-8.43,2.7c-0.04,0.04,0.02,0.09,0.06,0.07
				c2.56-1.39,5.15-3.16,8.1-1.99c0.08,0.12,0.21,0.2,0.39,0.2C263.91,164.37,263.86,163.38,263.23,163.38z"/>
			<path class="st6" d="M264.73,163.45c-0.44,0-0.41,0.68,0.03,0.68S265.17,163.45,264.73,163.45z"/>
			<path class="st6" d="M202.72,160.09c-0.37,0.16-0.35,0.62,0.03,0.75c0.65,0.21,1.33,0.18,2,0.29c0.72,0.12,1.38,0.45,2.02,0.79
				c1.3,0.68,2.1,1.83,3.03,2.9c0.03,0.03,0.08-0.01,0.07-0.04C208.96,162.41,205.58,158.84,202.72,160.09z"/>
		</g>
		<path class="st19" d="M209.83,103.63c-5.67,4-6.75,2.67-0.67-2c6.08-4.67,2.81-4.21-0.25-2.33c-8.01,4.9-6.08,1.92-1-1.67
			c5.08-3.58,8.17-7.17-0.42-2.33s-7.42,3-4.33-0.08c3.08-3.08-2.25-1.29-9.04,2.92c-0.22,0.19-0.33,0.66,0.02,0.77
			c0.45,0.15,0.9,0.26,1.36,0.36c-0.79,0.75-1.52,1.56-2.21,2.38c-0.18,0.21-0.14,0.53,0.06,0.64c0.02,0.12,0.08,0.23,0.22,0.29
			c0.83,0.32,1.71,0.37,2.6,0.34c-0.23,0.19-0.47,0.39-0.71,0.58c2.99-1.98,4.9-2.91,2.21,0.38c-3.12,3.83-3.33,7.6,1.29,2.67
			s6.88-4.79,3.04,0.12c-4.65,5.97-7.75,11.75-2,5.62s6.79-3.56,3.54,1.56c-1.86,2.94-4.27,8.39-3.94,9.93
			c1.28-2.05,2.61-4.08,3.95-6.09c1.7-2.03,3.46-4.25,4.69-6.56C205.26,112.23,214.95,100.01,209.83,103.63z"/>
		<path class="st19" d="M275.04,114.04c5.38,9.25-2.62-11.88,2.25-5.75s6.12,3.75,3.12-2.12s-3.25-10.12,2.75-2.12
			c1.05,1.41,1.56,1.89,1.75,1.79c-0.94-1.39-1.93-2.75-2.98-4.07c0.74,0.04,1.49,0.08,2.24,0.13c3.2,0.42,3.2-0.29-0.21-4.12
			c-2.07-2.19-4.59-4-7.23-5.51c-3.33-0.62-3.44,0.91-0.68,3.4c3.88,3.5-10-3.38-5.12,0.88s1.5,4-4.5,0.38s-7.88-2.38-0.62,3.88
			s-6.12-2.88-2,4.12c0,0,6.62,10.75,1.12,6.12c-1.69-1.42-2.85-2.17-3.5-2.32c-0.04,0.74-0.04,1.49,0.02,2.24
			c0.61,1.19,1.64,2.82,3.1,4.83c0.95,1.3,1.73,2.61,2.33,3.85c0.8-2.12,1.8-4.16,2.93-6.13c0.03,0,0.06,0.01,0.09,0.02
			c0.42,1.63,1.1,3.18,1.68,4.77c0.62,1.7,1.21,3.41,1.82,5.12C276.12,127.91,269.97,105.32,275.04,114.04z"/>
		<path class="st19" d="M196.39,116.13c-0.04-0.15-0.09-0.3-0.13-0.45c-2.17,1.95-3.37,6.82-4.09,9.25
			c-0.71,2.41-0.71,5.97-2.45,7.91c-0.31,0.34-0.8,0.19-1.03-0.13c-0.49-0.67-0.75-1.43-0.97-2.21c0.12,1.19,0.28,2.38,0.46,3.58
			c0.49,3.24,0.48,6.86,2.48,9.62c0.3,0.41,0.77-0.13,0.79-0.46c0.3-3.99,0.43-7.97,1.32-11.88c0.66-2.91,1.74-5.7,2.92-8.43
			c0.41,1.44,0.81,2.88,1.13,4.35C196.9,127.69,195.72,119.76,196.39,116.13z"/>
		<path class="st21" d="M264.46,104.21c-0.08,0.03-0.16,0.06-0.24,0.09c-1.42,0.59-2.59,1.54-4.13,1.81
			c-0.43,0.08-1.02-0.3-0.81-0.81c0.62-1.52,1.89-3.22,2.14-4.94c-3.93,3.21-9.74,4.59-14.18,6.75c-0.53,0.26-1.09-0.16-0.97-0.74
			c0.46-2.15,1.75-3.88,2.59-5.87c-4.96,0.24-9.42,1.68-13.73,4.26c-2.01,1.21-4.04,2.5-5.67,4.21c-0.67,0.7-1.22,1.65-2.15,2
			c-0.23,0.09-0.47-0.03-0.64-0.17c-0.77-0.65-1.1-1.66-1.45-2.58c-0.47-1.25-1.08-2.67-2.16-1.18c-0.75,1.03-1.36,1.97-1.85,3.18
			c-0.19,0.46-0.94,0.74-1.21,0.16c-1.52-3.32-3.16-6.52-5.55-9.29c-0.58,1.12-1.22,3.11-2.69,3.11c-0.66,0-1.12-0.91-1.47-1.63
			c-0.12,0.11-0.24,0.22-0.36,0.33c-0.18,3.44-1.85,6.93-3.13,10c-0.24,0.57-0.52,1.12-0.78,1.67c1.42-1.92,2.66-3.95,3.32-6.02
			c0.46-0.79,0.88-1.6,1.31-2.41c0.43,1.92,1.21,3.81,2.2,5.47c0.56,2,1.37,3.94,2.48,4.94c-0.72-1.41-0.62-3.65-0.12-5.05
			c0.08-0.21,0.27-0.4,0.48-0.51c-0.46-1.51-1.07-3.95-0.4-5.39c0.38,3.02,1.51,5.65,3.5,8.03c0.98,1.61,2.29,3.06,3.91,3.96
			c-0.53-2.26-0.43-4.85,0.7-6.81c0.02-0.04,0.06-0.07,0.09-0.11c0.69,2.42,1.85,4.7,2.69,7.11c0.16,0.44,0.64,0.15,0.79-0.12
			c0.24-0.44,0.51-0.84,0.79-1.24c0.75-0.89,1.48-1.78,2.41-2.52c3.72-2.97,7.79-5.35,12.23-7c-1.02,1.75-1.7,3.68-2.21,5.66
			c-0.16,0.62,0.67,0.48,0.82,0c3.4-1.12,6.97-2.23,10.13-3.69c2.54-1.18,4.94-2.57,7.32-3.99c-0.48,1.6-0.98,3.19-1.74,4.68
			c-0.18,0.34,0.14,0.72,0.49,0.51c1.45-0.88,2.91-1.72,4.34-2.61c-0.58,3.81,0.46,7.91,1.88,11.63c-0.65-1.93-0.99-3.98-1.04-6.03
			C262.31,109.36,262.89,106.86,264.46,104.21z"/>
		<path class="st19" d="M281.95,132.08c-3.78-1.84-6.79-5.06-8.63-8.85c0.45,1.27,0.91,2.53,1.39,3.79c2,5.18,3.91,10.64,6.54,15.56
			c0.06,0.25,0.13,0.49,0.18,0.76c0.08,0.45,0.69,0.14,0.79-0.12c0.15-0.41,0.31-0.81,0.46-1.21c0.95-2.41,2.36-4.57,5.1-5.14
			c0.24-0.05,0.46-0.08,0.69-0.09c0.01-0.16,0.01-0.33,0.01-0.49c0.08,0.02,0.16,0.05,0.23,0.07c0.16-1.77,0.17-3.43,0.08-5.05
			C287.04,132.85,284.7,133.43,281.95,132.08z"/>
		<path class="st22" d="M244.15,99.31c-3.28,0.57-6.52,1.55-9.44,3.16c-2.38,1.31-5.86,3.4-6.52,6.27c-0.01,0.06,0.06,0.1,0.1,0.06
			c1.07-0.83,1.83-1.98,2.82-2.91c1.35-1.26,2.96-2.23,4.59-3.08c2.69-1.39,5.65-2.26,8.54-3.13
			C244.45,99.63,244.37,99.28,244.15,99.31z"/>
		<path class="st22" d="M217.3,102.43c-0.04-0.05-0.13-0.01-0.1,0.05c1.02,2.22,1.82,4.55,2.77,6.79c0.1,0.24,0.46,0.14,0.39-0.12
			C219.78,106.61,218.87,104.5,217.3,102.43z"/>
		<path class="st22" d="M270.29,83.12c-3.01-0.95-6.09-0.83-9.21-0.56c-0.09,0.01-0.08,0.12,0.01,0.13
			c3.05,0.25,6.09,0.37,9.13,0.77C270.44,83.5,270.5,83.19,270.29,83.12z"/>
		<path class="st22" d="M275.4,90.72c-1.28-1.42-3.03-2.3-4.79-2.97c-0.06-0.02-0.11,0.07-0.04,0.09c1.77,0.72,3.25,1.8,4.71,3.03
			C275.36,90.95,275.48,90.81,275.4,90.72z"/>
		<path class="st22" d="M249.67,79.63c-3.47-1.64-7.32-2.6-11.17-2.26c-0.12,0.01-0.11,0.18,0.01,0.19
			c3.81,0.31,7.42,1.21,11.04,2.42C249.74,80.05,249.86,79.72,249.67,79.63z"/>
		<path class="st22" d="M235.24,80.09c-5.51,0.01-11.58,0.83-16.34,3.8c-0.17,0.11-0.04,0.4,0.15,0.32
			c5.3-2.09,10.54-3.14,16.21-3.71C235.52,80.47,235.51,80.09,235.24,80.09z"/>
		<path class="st22" d="M215.67,87.05c-2.95,0.89-5.87,1.81-8.59,3.29c-0.15,0.08-0.03,0.33,0.12,0.27
			c2.83-1.14,5.78-1.94,8.62-3.06C216.13,87.42,215.99,86.95,215.67,87.05z"/>
		<path class="st22" d="M195.04,107.27c-3.16,3.18-6.67,7.61-7.36,12.18c-0.01,0.08,0.08,0.11,0.12,0.04
			c1.17-1.73,1.93-3.76,2.95-5.58c1.28-2.28,2.85-4.42,4.53-6.42C195.42,107.32,195.19,107.12,195.04,107.27z"/>
		<path class="st22" d="M203.42,98.21c-2.65,1.09-4.95,2.63-7.15,4.45c-2.09,1.72-4.56,3.88-5.63,6.41
			c-0.04,0.1,0.07,0.24,0.17,0.16c1.98-1.52,3.56-3.61,5.44-5.28c2.26-2.01,4.86-3.62,7.39-5.27
			C203.89,98.53,203.71,98.09,203.42,98.21z"/>
		<path class="st22" d="M208.26,91.81c-4.88,2.03-10.1,5.04-12.98,9.62c-0.04,0.06,0.05,0.11,0.1,0.07
			c4.06-3.73,8.3-6.54,13.09-9.25C208.7,92.12,208.52,91.7,208.26,91.81z"/>
		<path class="st22" d="M283.17,98.85c-2.37-4.02-7.82-8.42-12.68-8.6c-0.15-0.01-0.14,0.2-0.02,0.24c4.98,1.71,8.9,4.7,12.39,8.61
			C283.02,99.29,283.28,99.04,283.17,98.85z"/>
		<path class="st22" d="M278.3,99.65c-0.07-0.05-0.18,0.03-0.12,0.1c2.81,3.69,6.24,6.76,8.51,10.88c0.09,0.16,0.36,0.04,0.3-0.14
			C285.35,106.22,281.92,102.4,278.3,99.65z"/>
		<path class="st22" d="M282.77,108.89c-0.09-0.14-0.29-0.01-0.21,0.13c2.15,4.1,4.38,7.95,5.71,12.42c0.08,0.26,0.53,0.2,0.48-0.08
			C287.96,116.73,285.28,112.76,282.77,108.89z"/>
		<path class="st22" d="M265.44,105.12c0.08-0.39-0.53-0.64-0.68-0.24c-1.89,5.23-1.24,11.82,1.26,16.76
			c0.1,0.19,0.35,0.04,0.32-0.15C265.19,115.86,264.32,110.85,265.44,105.12z"/>
		<path class="st22" d="M259.33,99.79c-3.96,1.87-7.82,4.02-11.78,5.91c-0.09,0.04-0.04,0.19,0.05,0.16
			c4.08-1.35,8.08-3.25,11.95-5.37C259.95,100.28,259.74,99.6,259.33,99.79z"/>
	</g>
</g>
</svg>
