<?xml version="1.0" encoding="utf-8"?>
<!-- Generator: Adobe Illustrator 26.3.1, SVG Export Plug-In . SVG Version: 6.00 Build 0)  -->
<svg version="1.1" id="bounce" xmlns="http://www.w3.org/2000/svg" xmlns:xlink="http://www.w3.org/1999/xlink" x="0px" y="0px"
	 viewBox="0 0 900 900" style="enable-background:new 0 0 900 900;" xml:space="preserve">
<style type="text/css">
	.st0{fill:#FFE473;}
	.st1{fill:#FFF0B3;}
	.st2{opacity:0.39;fill:#600000;}
	.st3{fill:#B78448;}
	.st4{fill:#4D3E91;}
	.st5{opacity:0.42;fill:#302866;}
	.st6{fill:#675DAF;}
	.st7{fill:#EA524E;}
	.st8{fill:#FFF5E6;}
	.st9{fill:#F9C8C0;}
	.st10{fill:#FFFFFF;}
	.st11{fill:#F59082;}
	.st12{opacity:0.66;fill:#F59082;}
	.st13{fill:none;stroke:#72391B;stroke-width:4.647;stroke-linecap:round;stroke-linejoin:round;stroke-miterlimit:10;}
	.st14{fill:none;stroke:#F9C8C0;stroke-width:22.0822;stroke-linecap:round;stroke-linejoin:round;stroke-miterlimit:10;}
	.st15{fill:#302866;}
	.st16{opacity:0.36;fill:#302866;}
	.st17{fill:#FF6666;}
	.st18{fill:#99CC50;}
	.st19{fill:#F46060;}
</style>
<rect class="st0" width="900" height="900"/>
<circle class="st1" cx="450" cy="450" r="354.42"/>
<g id="shadoe">
	<path class="st2" d="M368.94,786.32H159.67c-7.19,0-13.08-5.89-13.08-13.08l0,0c0-7.19,5.89-13.08,13.08-13.08h209.27
		c7.19,0,13.08,5.89,13.08,13.08l0,0C382.01,780.43,376.13,786.32,368.94,786.32z"/>
	<path class="st2" d="M747.93,786.32H538.67c-7.19,0-13.08-5.89-13.08-13.08l0,0c0-7.19,5.89-13.08,13.08-13.08h209.27
		c7.19,0,13.08,5.89,13.08,13.08l0,0C761.01,780.43,755.13,786.32,747.93,786.32z"/>
</g>
<g id="boy">
	<path class="st3" d="M781.18,270.35c2.61-3.15,5.51-6.08,7.73-9.47c2.31-3.53,4.34-7.34,5.8-11.29
		c5.22-14.17,0.52-30.05-11.79-24.36c5.19-11.84,6.57-18.62,3.96-25.21c-3.24-8.19-11.01-14.63-20.77-9.74
		c-1.18-5.03-4.41-8.18-9.34-9.77c-9.71-3.14-19.82,2.08-22.91,12.33c-2.17,7.18-5.79,13.12-11.92,17.77
		c1.36-4.92,3.07-9.4,3.77-14.03c1.83-11.96-5.91-19.1-17.79-16.5c-7.63,1.67-12.69,6.27-14.24,14.22
		c-0.33,1.67-0.62,3.36-1.11,4.98c-1.64,5.47-5.2,7.66-10.85,6.58c-2.33-0.44-30.49-17.49-74.01-12.48
		c-20.65,2.38-28.49,21.99-28.49,21.99s-6.28,8.54,1.74,17.44c8.02,8.9,21.8,10.06,28.75,10.76c-5.61,7.59,0.17,18.43,7.69,21.59
		c7.94,3.34,15.87,4.52,24.39,2.67c7.36-1.6,12.3,1.89,12.44,9.4c0.13,6.71-0.97,13.49-2.14,20.14c-0.55,3.15-0.67,4.82,2.8,6.18
		c7.16,2.82,10.1,10.21,7.37,17.18c-2.65,6.78-9.46,9.93-16.66,7.88c-1.51-0.43-3.52-0.9-4.73-0.26
		c-6.08,3.19-11.96,6.73-17.91,10.15c5.43-0.27,11.02-0.75,16.21-2.47c4.36-1.44,8.14-0.81,12.37,0.05
		c9.8,1.99,4.68,11.59,14.68,11.59c58.62,0,101.72-22.99,124.52-55.11C800.69,278.54,792.67,265.23,781.18,270.35z"/>
	<g>
		<g>
			<path class="st4" d="M754.42,594.17c0,62.94-58.79,113.97-131.31,113.97c-72.52,0-131.31-51.03-131.31-113.97
				c0-62.94,58.79-103.97,131.31-103.97C695.63,490.2,754.42,531.22,754.42,594.17z"/>
			<path class="st4" d="M754.42,594.17c0,62.94-58.8,113.97-131.32,113.97c-72.51,0-131.32-51.04-131.32-113.97
				c0-5.94,0.52-1.75,1.52-7.42c9.68-54.67,64.11-96.55,129.8-96.55c71.47,0,129.62,49.57,131.26,111.25
				C754.42,602.34,754.42,593.25,754.42,594.17z"/>
			<path class="st5" d="M754.42,594.17c0,62.94-58.8,113.97-131.32,113.97c-72.51,0-131.32-51.04-131.32-113.97
				c0-5.94,0.52-1.75,1.52-7.42c7.64,57.42,63.88,91.99,132.07,91.99c62.26,0,114.52-27.14,128.99-77.29
				C754.42,602.34,754.42,593.25,754.42,594.17z"/>
			<path class="st6" d="M558.39,594.16c6.04,0.77,41.68,20.55,81.63,16.69c39.95-3.86,39.37,19.1,8.58,31.54
				c-30.79,12.45-77.21,5.94-94.39-6.57C530.42,618.51,531.12,590.69,558.39,594.16z"/>
			<path class="st3" d="M604.13,194.17c43.6-6.1,68.01,3.49,113.35,46.21c45.34,42.73-11.34,129.92-89.81,102.02
				S551.94,201.48,604.13,194.17z"/>
			<g>
				<g>
					<path class="st7" d="M673.01,401.7l-1.28,20.45l-0.13,2l-0.53,8.5l-0.52,8.18l-0.53,8.5l-0.47,7.52l-0.53,8.5l-0.5,7.85
						l-0.53,8.5l-0.34,5.46l-0.45,7.13l-0.08,1.31l-0.08,1.14l-0.26,4.29l-0.04,0.57l-0.27,4.3H562.82l-0.07-2.97l-0.02-1.12
						l-0.03-1.02l-0.29-12.77l-0.15-6.32l-0.19-8.5l-0.18-7.85l-0.2-8.5l-0.17-7.52l-0.19-8.5l-0.19-8.18l-0.2-8.5l-0.01-0.8
						l-0.4-17.29c0-1.32,0.06-2.65,0.17-3.98v-0.04c0.31-3.54,0.98-7.07,2.02-10.54c0.4-1.36,0.85-2.72,1.36-4.06
						c0-0.01,0-0.02,0.01-0.03c3.56-9.42,9.59-18.2,17.1-25.09c6.72-6.17,14.64-10.84,23.06-13.12c3.73-1.02,7.56-1.56,11.43-1.56
						c4.06,0,8.13,0.51,12.11,1.48c10.03,2.42,19.55,7.68,27.25,14.78c0.01,0.02,0.03,0.03,0.04,0.04
						c10.61,9.8,17.74,23.09,17.92,37.19C673.01,401.32,673.01,401.51,673.01,401.7z"/>
				</g>
				<polygon class="st8" points="668.52,473.2 667.99,481.7 562.26,481.7 562.07,473.2 				"/>
				<polygon class="st8" points="669.55,456.85 669.02,465.35 561.89,465.35 561.69,456.85 				"/>
				<polygon class="st8" points="670.55,440.83 670.02,449.33 561.52,449.33 561.33,440.83 				"/>
				<polygon class="st8" points="671.6,424.15 665.07,424.15 663.57,424.15 646.1,424.15 589.44,424.15 572.36,424.15 
					565.08,424.15 560.94,424.15 561.14,432.65 571.22,432.65 665.59,432.65 671.07,432.65 				"/>
			</g>
			<path class="st9" d="M711.05,582.19l-19.03,17.68c0,0-4.96-54.35-17.31-67.64c-9.6-10.33-53.43-20.84-53.43-20.84l19.03-17.68
				c0,0,43.14,9.76,52.5,19.84C705.39,527.09,711.05,582.19,711.05,582.19z"/>
			<g>
				<g>
					<path class="st8" d="M685.31,580.22c0.39,2.84,2.44,19.91,2.44,19.91l30.52-4.19l-2.73-19.87L685.31,580.22z"/>
				</g>
				<path class="st7" d="M688.92,608.65l-2.73-19.87l23.42-3.22c11.1-1.52,20.26,5.36,21.78,16.46L688.92,608.65z"/>
			</g>
			<path class="st9" d="M508.6,567.2l13.52,22.18c0,0,19.52-50.96,35.01-60.4c12.04-7.34,57.08-5.56,57.08-5.56l-13.52-22.18
				c0,0-44.17-2.32-55.91,4.84C529,515.7,508.6,567.2,508.6,567.2z"/>
			<g>
				<g>
					<path class="st8" d="M533.91,572.29c-1.15,2.63-7.75,18.5-7.75,18.5l-28.24-12.32l8.02-18.39L533.91,572.29z"/>
				</g>
				<path class="st7" d="M483.32,581.48l39.4,17.19l8.02-18.39l-21.67-9.45c-10.27-4.48-20.95-0.34-25.43,9.93L483.32,581.48z"/>
			</g>
			<path class="st9" d="M555.9,246.52l-5.09,18.31c-0.31,1.11-0.03,2.36-0.29,3.45c-1.72,7.85-1.66,16.11-0.39,23.67
				c3.8,23.14,20.84,43.6,44.83,50.26l1.98,0.55c32.91,9.15,68.22-10.69,77.37-43.6l5.09-18.31c9.15-32.91-11.72-65.04-44.63-74.19
				l-1.98-0.55C599.88,196.96,565.05,213.61,555.9,246.52z"/>
			<path class="st10" d="M574.2,296.36c-1.75,6.29,2.45,16.24,10.43,18.46c7.98,2.22,16.71-4.14,18.46-10.43L574.2,296.36z"/>
			<rect x="626.57" y="289.64" class="st11" width="0" height="0"/>
			<path class="st12" d="M585.6,285.3l8.02,2.23c1.26,0.35,2.57-0.39,2.93-1.65l0.13-0.46c0.35-1.26-0.39-2.57-1.65-2.93l-8.02-2.23
				c-1.26-0.35-2.57,0.39-2.93,1.65l-0.13,0.46C583.6,283.64,584.34,284.95,585.6,285.3z"/>
			<path class="st10" d="M579.83,360.71l37.93,44.47l39.56-43.82C657.32,361.37,622.34,329.98,579.83,360.71z"/>
			
				<ellipse transform="matrix(0.2207 -0.9753 0.9753 0.2207 197.419 850.5653)" class="st12" cx="630.99" cy="301.74" rx="11.67" ry="11.67"/>
			<path class="st12" d="M551.07,268.42c-1.72,7.85-1.85,15.72-0.58,23.28c5.43,0.39,10.54-3.08,12.05-8.51
				c1.73-6.22-1.92-12.62-8.14-14.35C553.29,268.54,552.17,268.38,551.07,268.42z"/>
			<path class="st9" d="M616.39,366.59h-0.08c6.55,0,11.48-5.46,11.48-12.01v-27.23h-23.54v27.23
				C604.25,361.14,609.84,366.59,616.39,366.59z"/>
			<path class="st3" d="M618.64,242.34l28.77,12.95c13.76,6.19,21.37,21.11,18.32,35.88v0l5.23,28.77c0,0,14.82-12.21,20.93-39.24
				c6.1-27.03-10.46-81.96-76.73-76.73L618.64,242.34z"/>
			<path class="st9" d="M657.5,297.02c-2.07,7.43,2.28,15.13,9.71,17.19l0,0c7.43,2.07,15.13-2.28,17.19-9.71l0,0
				c2.07-7.43-2.28-15.13-9.71-17.19l0,0C667.26,285.24,659.57,289.59,657.5,297.02L657.5,297.02z"/>
			<path class="st13" d="M608.31,274.84c0,0,5.04-5.21,11.07-3.05s6.56,8.08,6.56,8.08"/>
			<path class="st13" d="M565.67,262.67c0,0,5.04-5.21,11.07-3.05c6.03,2.17,6.56,8.08,6.56,8.08"/>
			<path class="st3" d="M664.59,266.36l-1.34,3.27c-2.77,6.78-10.77,9.73-17.28,6.37l0,0c-5.8-2.99-8.31-9.95-5.77-15.96l0,0
				c1.15-2.71-1.75-5.36-4.35-3.98l-9.39,5.01c-2.85,1.52-6.22,1.74-9.24,0.59l0,0c-7.6-2.88-9.69-12.64-3.95-18.39l0,0
				c1.46-1.46-0.03-3.9-2-3.26l-24.22,7.91c-2.18,0.71-4.54,0.71-6.72-0.02l0,0c-7.49-2.5-9.81-11.95-4.32-17.63l0.43-0.44
				c1.54-1.59-0.32-4.11-2.29-3.13l-15.18,7.59c-4.64,2.32-10.25,1.41-13.92-2.26l0,0c-5.94-5.94-4.16-15.98,3.48-19.48
				c19.42-8.9,52.7-21.88,72.74-16.99C650.86,202.8,664.59,266.36,664.59,266.36z"/>
			<path class="st8" d="M617.33,401.35c0,0,1.7,6.19-1.06,11.09c-2.76,4.9-8.93,6.65-8.93,6.65s-1.7-6.19,1.06-11.09
				C611.15,403.1,617.33,401.35,617.33,401.35z"/>
			<path class="st8" d="M617.96,400.66c0,0,6.29,1.26,9.43,5.92c3.14,4.66,1.93,10.97,1.93,10.97s-6.29-1.26-9.43-5.92
				C616.76,406.97,617.96,400.66,617.96,400.66z"/>
			<path class="st10" d="M523.04,504.59c0,0,20.93,39.24,89.81,41.85c78.42,2.98,98.53-38.37,98.53-38.37l-42.73-20.93l-106.38,0.87
				L523.04,504.59z"/>
			<g>
				<path class="st4" d="M630.15,496.65L630.15,496.65c-3.03,1.73-4.08,5.59-2.34,8.62l28.72,50.15c1.73,3.03,5.59,4.08,8.62,2.34
					l0,0c3.03-1.73,4.08-5.59,2.34-8.62l-28.72-50.15C637.03,495.96,633.17,494.91,630.15,496.65z"/>
			</g>
			<g>
				<g>
					<path class="st9" d="M648.21,490.57l-5.97,11.08c-1.81,3.37-0.54,7.61,2.82,9.42l6.72,3.62c3.37,1.81,7.61,0.54,9.42-2.82
						l5.97-11.08c1.81-3.37,0.54-7.61-2.82-9.42l-6.72-3.62C654.26,485.94,650.02,487.21,648.21,490.57z"/>
					<path class="st9" d="M658.2,505.04l-10.41,19.33c-0.76,1.41-0.23,3.19,1.18,3.95l0,0c1.41,0.76,3.19,0.23,3.95-1.18
						l10.41-19.33c0.76-1.41,0.23-3.19-1.18-3.95l0,0C660.74,503.09,658.96,503.63,658.2,505.04z"/>
					<path class="st9" d="M648,507.17l-8.36,15.52c-0.76,1.41-0.23,3.19,1.18,3.95l0,0c1.41,0.76,3.19,0.23,3.95-1.18l8.36-15.52
						c0.76-1.41,0.23-3.19-1.18-3.95l0,0C650.53,505.23,648.76,505.76,648,507.17z"/>
					<path class="st9" d="M643.55,500.42l-9.9,18.37c-0.76,1.41-0.23,3.19,1.18,3.95l0,0c1.41,0.76,3.19,0.23,3.95-1.18l9.9-18.37
						c0.76-1.41,0.23-3.19-1.18-3.95l0,0C646.09,498.48,644.31,499.01,643.55,500.42z"/>
					<path class="st9" d="M653.36,491.29l-17.91,10.7c-1.38,0.82-1.83,2.62-1.01,4l0,0c0.82,1.38,2.62,1.83,4,1.01l17.91-10.7
						c1.38-0.82,1.83-2.62,1.01-4l0,0C656.53,490.92,654.74,490.47,653.36,491.29z"/>
				</g>
				<path class="st14" d="M652.44,390.78c0,0,10.65,23.51,15.69,55.38c5.09,32.16-11.67,51.97-11.67,51.97"/>
				<path class="st7" d="M678.68,420.07l-31.02,9.3l-9.08-30.29c-2.57-8.57,2.29-17.59,10.86-20.16h0
					c8.57-2.57,17.59,2.29,20.16,10.86L678.68,420.07z"/>
			</g>
			<g>
				<path class="st4" d="M612.35,499.94L612.35,499.94c-2.82-2.05-6.77-1.43-8.82,1.39l-33.99,46.74c-2.05,2.82-1.43,6.77,1.39,8.82
					l0,0c2.82,2.05,6.77,1.43,8.82-1.39l33.99-46.74C615.8,505.94,615.17,501.99,612.35,499.94z"/>
			</g>
			<g>
				<g>
					<path class="st9" d="M594.28,489.59l7.07,10.42c2.15,3.16,1.32,7.51-1.85,9.66l-6.32,4.29c-3.16,2.15-7.51,1.32-9.66-1.85
						l-7.07-10.42c-2.15-3.16-1.32-7.51,1.85-9.66l6.32-4.29C587.79,485.59,592.14,486.42,594.28,489.59z"/>
					<path class="st9" d="M585.82,504.99l12.33,18.16c0.9,1.33,0.55,3.15-0.77,4.05l0,0c-1.33,0.9-3.15,0.55-4.05-0.77l-12.33-18.16
						c-0.9-1.33-0.55-3.15,0.78-4.05l0,0C583.09,503.32,584.92,503.67,585.82,504.99z"/>
					<path class="st9" d="M596.18,506.08l9.9,14.58c0.9,1.33,0.55,3.15-0.77,4.05l0,0c-1.33,0.9-3.15,0.55-4.05-0.77l-9.9-14.58
						c-0.9-1.33-0.55-3.15,0.77-4.05l0,0C593.46,504.4,595.28,504.75,596.18,506.08z"/>
					<path class="st9" d="M599.92,498.91l11.72,17.26c0.9,1.33,0.55,3.15-0.77,4.05l0,0c-1.33,0.9-3.15,0.55-4.05-0.78l-11.72-17.26
						c-0.9-1.33-0.55-3.15,0.77-4.05l0,0C597.2,497.23,599.02,497.58,599.92,498.91z"/>
					<path class="st9" d="M589.23,490.83l18.91,8.82c1.45,0.68,2.09,2.42,1.41,3.87l0,0c-0.68,1.45-2.42,2.09-3.87,1.41l-18.91-8.82
						c-1.45-0.68-2.09-2.42-1.41-3.87l0,0C586.03,490.78,587.78,490.15,589.23,490.83z"/>
				</g>
				<path class="st14" d="M579.9,390.74c0,0-8.2,24.47-9.97,56.69c-1.79,32.51,16.9,50.51,16.9,50.51"/>
				<path class="st7" d="M556.78,422.55l31.8,6.09l5.95-31.05c1.68-8.78-4.07-17.27-12.86-18.95v0
					c-8.78-1.68-17.27,4.07-18.95,12.86L556.78,422.55z"/>
			</g>
		</g>
	</g>
</g>
<g id="girl">
	<g>
		<path class="st15" d="M329.69,270.37c-1.18,42.39-34.38,76.78-76.78,76.78s-76.78-34.38-76.78-76.78s34.38-76.78,76.78-76.78
			S331.06,221.01,329.69,270.37z"/>
		<ellipse class="st4" cx="255.38" cy="619.83" rx="131.31" ry="124.03"/>
		<path class="st7" d="M124.07,619.83c0,68.49,58.8,124.04,131.32,124.04c72.51,0,131.32-55.54,131.32-124.04
			c0-6.46-0.52-12.78-1.52-18.96c-9.68-59.5-64.11-105.08-129.8-105.08c-71.47,0-129.62,53.95-131.26,121.08
			C124.07,617.83,124.07,618.83,124.07,619.83z"/>
		<path class="st16" d="M124.07,619.83c0,68.49,58.8,124.04,131.32,124.04c72.51,0,131.32-55.54,131.32-124.04
			c0-6.46-0.52-12.78-1.52-18.96c-7.64,62.49-63.88,111-132.07,111c-62.26,0-114.52-40.42-128.99-95
			C124.07,617.83,124.07,618.83,124.07,619.83z"/>
		<path class="st17" d="M320.1,609.75c-6.04,0.77-41.68,20.55-81.63,16.69c-39.95-3.86-39.37,19.1-8.58,31.54
			c30.79,12.45,77.21,5.94,94.39-6.57C348.07,634.1,347.37,606.28,320.1,609.75z"/>
		<g>
			<g>
				<path class="st18" d="M212.01,511.49h103.65l2.29-99.84c0-28.62-26.53-58.42-55.15-58.42h0c-28.62,0-57.33,25.44-57.33,54.06
					L212.01,511.49z"/>
			</g>
			<path class="st10" d="M262.1,377.18L262.1,377.18l0.08,0v0c9.27-0.06,17.06-7.84,17.06-17.01v-3.72
				c-5.28-2.06-10.81-3.23-16.43-3.23h0c-5.78,0-11.56,1.05-17.11,2.94v4C245.7,369.68,252.9,377.14,262.1,377.18z"/>
		</g>
		<path class="st9" d="M167.44,587.78l19.03,17.68c0,0,4.96-54.35,17.31-67.64c9.6-10.33,53.43-20.84,53.43-20.84l-19.03-17.68
			c0,0-43.14,9.76-52.5,19.84C173.1,532.68,167.44,587.78,167.44,587.78z"/>
		<g>
			<g>
				<path class="st8" d="M193.18,585.81c-0.39,2.84-2.44,19.91-2.44,19.91l-30.52-4.19l2.73-19.87L193.18,585.81z"/>
			</g>
			<path class="st15" d="M146.98,608.39l42.58,5.85l2.73-19.87l-23.42-3.22c-11.1-1.52-20.26,5.36-21.78,16.46L146.98,608.39z"/>
		</g>
		<path class="st9" d="M369.89,572.79l-13.52,22.18c0,0-19.52-50.96-35.01-60.4c-12.04-7.34-57.08-5.56-57.08-5.56l13.52-22.18
			c0,0,44.17-2.32,55.91,4.84C349.49,521.29,369.89,572.79,369.89,572.79z"/>
		<g>
			<g>
				<path class="st8" d="M344.58,577.88c1.15,2.63,7.75,18.5,7.75,18.5l28.24-12.32l-8.02-18.39L344.58,577.88z"/>
			</g>
			<path class="st15" d="M395.17,587.07l-39.4,17.19l-8.02-18.39l21.67-9.45c10.27-4.48,20.95-0.34,25.43,9.93L395.17,587.07z"/>
		</g>
		<path class="st9" d="M322.59,252.11l5.09,18.31c0.31,1.12,0.03,2.36,0.29,3.45c1.72,7.85,1.66,16.11,0.39,23.67
			c-3.8,23.14-20.84,43.6-44.83,50.26l-1.98,0.55c-32.91,9.15-68.22-10.69-77.37-43.6l-5.09-18.31
			c-9.15-32.91,11.72-65.04,44.63-74.19l1.98-0.55C278.61,202.55,313.44,219.2,322.59,252.11z"/>
		<path class="st10" d="M308.42,297.43c2.1,7.56-2.95,19.51-12.53,22.18c-9.58,2.66-20.08-4.97-22.18-12.53L308.42,297.43z"/>
		<rect x="251.92" y="295.24" class="st11" width="0" height="0"/>
		<path class="st12" d="M292.89,290.89l-8.02,2.23c-1.26,0.35-2.57-0.39-2.93-1.65l-0.13-0.46c-0.35-1.26,0.39-2.57,1.65-2.93
			l8.02-2.23c1.26-0.35,2.57,0.39,2.93,1.65l0.13,0.46C294.89,289.23,294.15,290.54,292.89,290.89z"/>
		<path class="st9" d="M262.1,372.19h0.08c-6.55,0-11.48-5.46-11.48-12.01v-27.23h23.54v27.23
			C274.24,366.73,268.65,372.19,262.1,372.19z"/>
		<path class="st15" d="M259.85,247.93c0,0-50.14,34.05-47.09,48.83l0,0l-5.23,28.77c0,0-14.82-12.21-20.93-39.24
			c-6.1-27.03,10.46-81.96,76.73-76.73L259.85,247.93z"/>
		<path class="st9" d="M220.99,302.61c2.07,7.43-2.28,15.13-9.71,17.19l0,0c-7.43,2.07-15.13-2.28-17.19-9.71l0,0
			c-2.07-7.43,2.28-15.13,9.71-17.19l0,0C211.23,290.83,218.92,295.18,220.99,302.61L220.99,302.61z"/>
		<path class="st13" d="M270.18,280.43c0,0-5.04-5.21-11.07-3.05c-6.03,2.17-6.56,8.08-6.56,8.08"/>
		<path class="st13" d="M312.82,268.26c0,0-5.04-5.21-11.07-3.05c-6.03,2.17-6.56,8.08-6.56,8.08"/>
		<path class="st4" d="M189.18,513.77c0,0,18.64,30.41,18.64,28.45c0-1.96,20.93-11.12,51.01-11.12c30.08,0,60.16,8.83,60.16,8.83
			l12.1-31.39l-13.08-3.27l-1.64-8.83l-102.02-3.27l-3.27,9.81L189.18,513.77z"/>
		<g>
			<path class="st19" d="M248.34,502.81L248.34,502.81c3.03,1.89,4.08,6.09,2.34,9.38l-28.72,54.58c-1.73,3.29-5.59,4.44-8.62,2.55
				v0c-3.03-1.89-4.08-6.09-2.34-9.38l28.72-54.58C241.46,502.06,245.32,500.92,248.34,502.81z"/>
		</g>
		<g>
			<g>
				<path class="st9" d="M232.71,500.81l6.69,10.67c2.03,3.24,1.04,7.55-2.2,9.59l-6.47,4.06c-3.24,2.03-7.55,1.04-9.59-2.2
					l-6.69-10.67c-2.03-3.24-1.04-7.55,2.2-9.59l6.47-4.06C226.36,496.58,230.67,497.57,232.71,500.81z"/>
				<path class="st9" d="M223.68,515.9l11.66,18.6c0.85,1.36,0.44,3.17-0.92,4.02l0,0c-1.36,0.85-3.17,0.44-4.02-0.92l-11.66-18.6
					c-0.85-1.36-0.44-3.17,0.92-4.02l0,0C221.02,514.12,222.83,514.54,223.68,515.9z"/>
				<path class="st9" d="M234,517.35l9.36,14.93c0.85,1.36,0.44,3.17-0.92,4.02l0,0c-1.36,0.85-3.17,0.44-4.02-0.92l-9.36-14.93
					c-0.85-1.36-0.44-3.17,0.92-4.02l0,0C231.34,515.58,233.15,515.99,234,517.35z"/>
				<path class="st9" d="M238,510.33L249.08,528c0.85,1.36,0.44,3.17-0.92,4.02v0c-1.36,0.85-3.17,0.44-4.02-0.92l-11.08-17.68
					c-0.85-1.36-0.44-3.17,0.92-4.02l0,0C235.34,508.55,237.15,508.97,238,510.33z"/>
				<path class="st9" d="M227.61,501.86l18.58,9.5c1.43,0.73,2,2.49,1.27,3.92l0,0c-0.73,1.43-2.49,2-3.92,1.27l-18.58-9.5
					c-1.43-0.73-2-2.49-1.27-3.92l0,0C224.42,501.7,226.18,501.13,227.61,501.86z"/>
			</g>
			<path class="st14" d="M221.92,401.51c0,0-9.08,24.16-12.02,56.29c-2.96,32.42,15.06,51.09,15.06,51.09"/>
			<path class="st18" d="M197.66,432.46l31.56,7.24l7.07-30.82c2-8.72-3.45-17.4-12.16-19.4l1.47-17.58
				c-8.72-2-18.87,21.03-20.87,29.74L197.66,432.46z"/>
		</g>
		<g>
			<path class="st19" d="M266.14,506.39L266.14,506.39c2.82-2.23,6.77-1.55,8.82,1.52l33.99,50.87c2.05,3.07,1.43,7.37-1.39,9.6l0,0
				c-2.82,2.23-6.77,1.55-8.82-1.52L264.74,516C262.69,512.92,263.31,508.62,266.14,506.39z"/>
		</g>
		<g>
			<g>
				<path class="st9" d="M284.21,495.18l-7.07,10.42c-2.15,3.16-1.32,7.51,1.85,9.66l6.32,4.29c3.16,2.15,7.51,1.32,9.66-1.85
					l7.07-10.42c2.15-3.16,1.32-7.51-1.85-9.66l-6.32-4.29C290.7,491.18,286.35,492.02,284.21,495.18z"/>
				<path class="st9" d="M292.67,510.59l-12.33,18.16c-0.9,1.33-0.55,3.15,0.77,4.05l0,0c1.33,0.9,3.15,0.55,4.05-0.77l12.33-18.16
					c0.9-1.33,0.55-3.15-0.77-4.05l0,0C295.4,508.91,293.57,509.26,292.67,510.59z"/>
				<path class="st9" d="M282.31,511.67l-9.9,14.58c-0.9,1.33-0.55,3.15,0.77,4.05l0,0c1.33,0.9,3.15,0.55,4.05-0.78l9.9-14.58
					c0.9-1.33,0.55-3.15-0.77-4.05l0,0C285.03,509.99,283.21,510.34,282.31,511.67z"/>
				<path class="st9" d="M278.57,504.5l-11.72,17.26c-0.9,1.33-0.55,3.15,0.77,4.05l0,0c1.33,0.9,3.15,0.55,4.05-0.77l11.72-17.26
					c0.9-1.33,0.55-3.15-0.77-4.05l0,0C281.29,502.83,279.47,503.17,278.57,504.5z"/>
				<path class="st9" d="M289.26,496.42l-18.91,8.82c-1.45,0.68-2.09,2.42-1.41,3.87l0,0c0.68,1.45,2.42,2.09,3.87,1.41l18.91-8.82
					c1.45-0.68,2.09-2.42,1.41-3.87l0,0C292.46,496.38,290.71,495.74,289.26,496.42z"/>
			</g>
			<path class="st14" d="M298.59,396.34c0,0,8.2,24.47,9.97,56.69c1.79,32.51-16.9,50.51-16.9,50.51"/>
			<path class="st18" d="M321.71,428.15l-31.8,6.09l-5.95-31.05c-1.68-8.78-1.47-30.27,7.31-31.95l-2.83-7.17
				c8.78-1.68,25.64,24.25,27.32,33.03L321.71,428.15z"/>
		</g>
		<path class="st15" d="M223.95,300.91c0,0,27.03-24.85,42.07-45.12c15.04-20.27,11.12-34.01,11.12-34.01l46.43,25.5
			c0,0-8.83-37.6-49.05-42.51c-42.91-5.23-34.99,12.43-42.83,44.47L223.95,300.91z"/>
		<polygon class="st10" points="260.79,395.81 267.88,410.17 283.74,412.48 272.26,423.66 274.97,439.45 260.79,431.99 
			246.61,439.45 249.32,423.66 237.85,412.48 253.7,410.17 		"/>
	</g>
	
		<rect x="290.43" y="428.41" transform="matrix(0.9822 -0.1881 0.1881 0.9822 -76.2873 65.4217)" class="st10" width="32.38" height="12.65"/>
	
		<rect x="205.79" y="422.54" transform="matrix(0.1881 -0.9822 0.9822 0.1881 -258.6789 564.5485)" class="st10" width="12.65" height="32.38"/>
</g>
</svg>
