<?xml version="1.0" encoding="utf-8"?>
<!-- Generator: Adobe Illustrator 26.3.1, SVG Export Plug-In . SVG Version: 6.00 Build 0)  -->
<svg version="1.1" id="Clock" xmlns="http://www.w3.org/2000/svg" xmlns:xlink="http://www.w3.org/1999/xlink" x="0px" y="0px"
	 viewBox="0 0 606.12 600.7" style="enable-background:new 0 0 606.12 600.7;" xml:space="preserve">
<style type="text/css">
	.st0{fill:#616E7D;}
	.st1{fill:#AAD4C8;}
	.st2{fill:#82BFAB;}
	.st3{fill:none;stroke:#D4145A;stroke-width:30;stroke-linecap:round;stroke-miterlimit:10;}
	.st4{fill:none;stroke:#616E7D;stroke-width:30;stroke-linecap:round;stroke-miterlimit:10;}
</style>
<g id="ClockBody">
	<g>
		<path class="st0" d="M580.78,319.81c0-153.38-124.33-277.72-277.72-277.72c-153.38,0-277.71,124.34-277.71,277.72
			c0,81.18,34.85,154.22,90.38,205.01l-34.67,34.67c-9.42,9.43-9.42,24.71,0,34.14c9.44,9.44,24.72,9.44,34.15,0l39.25-39.24
			c42.98,27.29,93.93,43.15,148.61,43.15c54.69,0,105.63-15.87,148.61-43.15l39.24,39.24c9.42,9.44,24.72,9.44,34.15,0
			c9.43-9.42,9.43-24.7,0-34.14l-34.67-34.66C545.92,474.04,580.78,401,580.78,319.81z"/>
		<path class="st0" d="M596.76,121.52L484.6,9.36c-12.47-12.48-32.7-12.48-45.17,0c-12.47,12.47-12.47,32.69,0,45.17l112.16,112.16
			c12.47,12.47,32.7,12.47,45.17,0C609.24,154.21,609.24,134,596.76,121.52z"/>
		<path class="st0" d="M54.51,166.69L166.66,54.53c12.47-12.48,12.47-32.7,0-45.17c-12.46-12.48-32.68-12.48-45.15,0L9.36,121.52
			c-12.48,12.48-12.48,32.68,0,45.17C21.83,179.16,42.03,179.16,54.51,166.69z"/>
	</g>
	<path class="st1" d="M88.7,325.35c0,118.39,95.97,214.36,214.37,214.36c118.38,0,214.36-95.97,214.36-214.36
		c0-118.39-95.97-214.36-214.36-214.36C184.67,110.99,88.7,206.96,88.7,325.35z"/>
	<path class="st2" d="M122.12,325.35c0,99.77,81.18,180.94,180.94,180.94c99.77,0,180.93-81.17,180.93-180.94
		c0-99.77-81.16-180.94-180.93-180.94C203.3,144.41,122.12,225.58,122.12,325.35z"/>
</g>
<line id="longhand" class="st3" x1="303.06" y1="325.35" x2="303.06" y2="180.35"/>
<line id="shorthand" class="st4" x1="303.06" y1="236.35" x2="303.06" y2="325.35"/>
</svg>
