<?xml version="1.0" encoding="utf-8"?>
<!-- Generator: Adobe Illustrator 26.3.1, SVG Export Plug-In . SVG Version: 6.00 Build 0)  -->
<svg version="1.1" id="Layer_1" xmlns="http://www.w3.org/2000/svg" xmlns:xlink="http://www.w3.org/1999/xlink" x="0px" y="0px"
	 viewBox="0 0 500 500" style="enable-background:new 0 0 500 500;" xml:space="preserve">
<style type="text/css">
	.st0{fill:#F4FAFC;}
	.st1{fill:#D7EFF4;}
	.st2{fill:#96BE3D;}
	.st3{fill:#15331F;}
	.st4{fill:#593F32;}
	.st5{fill:#D1D627;}
	.st6{fill:#4AB048;}
	.st7{fill:#60B346;}
	.st8{fill:#FFFFFF;}
	.st9{fill:#46813D;}
	.st10{fill:#46813D;stroke:#15331F;stroke-miterlimit:10;}
	.st11{fill:#96BE3D;stroke:#15331F;stroke-width:0.1182;stroke-miterlimit:10;}
	.st12{fill:none;}
	.st13{fill:#97BB2F;stroke:#15331F;stroke-miterlimit:10;}
	.st14{fill:#46813D;stroke:#15331F;stroke-width:0.5;stroke-miterlimit:10;}
	.st15{fill:#74BF45;}
	.st16{fill:#153D21;}
	.st17{fill:#88C65B;}
	.st18{fill:#99CC71;}
	.st19{opacity:0.3;fill:#593F32;}
	.st20{fill:#F2C596;}
	.st21{fill:#754C28;}
	.st22{fill:#DD9C68;}
</style>
<rect id="background" class="st0" width="500" height="500"/>
<g id="rays">
	<polygon class="st1" points="204.41,499.7 304.47,499.7 254.44,253.7 	"/>
	<polygon class="st1" points="0,158.43 0,209.46 181.7,226.38 	"/>
	<polygon class="st1" points="0,297.03 0,348 182.23,271.28 	"/>
	<polygon class="st1" points="0,458.43 0,499.82 70.18,500 245.38,253.33 	"/>
	<polygon class="st1" points="423.7,0.55 255.26,242.81 304.47,0.85 204.41,0.85 253.99,244.64 253.28,245.65 83.17,1 0,0.62 
		0,32.88 252.74,246.43 251.5,248.21 253.17,246.8 255.38,248.66 253.75,246.32 254.24,245.9 254.44,246.85 254.71,245.5 500,38.24 
		500,0.2 	"/>
	<polygon class="st1" points="500,209.44 500,158.35 317.4,226.38 	"/>
	<polygon class="st1" points="500,347.85 500,296.98 318.68,271.28 	"/>
	<polygon class="st1" points="432.7,500 500,499.83 500,456.02 257.5,253.33 	"/>
</g>
<g id="tree1">
	<path class="st2" d="M100.85,194.74c12.04,6.04,12.65,14.09,8.88,21.64c-3.77,7.55-10.51,11.74-22.55,5.7
		c-12.04-6.04-24.83-20.04-21.05-27.59C69.9,186.94,88.81,188.7,100.85,194.74z"/>
	<g>
		<g>
			<path class="st3" d="M100,195.9c4,2.04,8.06,4.83,9.92,9.08c1.4,3.21,1.18,6.76,0.01,10c-1.2,3.34-3.19,6.7-6.12,8.79
				c-3.7,2.64-8.31,2.38-12.46,1.02c-4.65-1.53-8.94-4.23-12.77-7.25c-3.71-2.92-7.16-6.31-9.83-10.23
				c-1.9-2.78-3.82-6.34-3.36-9.84c0.43-3.26,3.19-5.14,6.15-5.98c4.39-1.25,9.22-0.93,13.67-0.22
				C90.33,192.08,95.37,193.6,100,195.9c0.2,0.1,0.82-0.21,0.7-0.27c-4.38-2.17-9.1-3.65-13.91-4.51c-4.2-0.75-8.58-1.09-12.82-0.44
				c-2.94,0.46-6.31,1.46-8.16,3.98c-2.07,2.83-1.19,6.54,0.2,9.45c2.06,4.32,5.42,8.04,8.94,11.22c3.88,3.51,8.27,6.58,13.06,8.7
				c3.99,1.77,8.58,2.86,12.86,1.52c3.45-1.08,6.07-3.63,7.88-6.68c2.12-3.56,3.55-7.9,2.58-12.05c-1.25-5.34-6.02-8.83-10.64-11.19
				C100.51,195.53,99.89,195.84,100,195.9z"/>
		</g>
	</g>
	<path class="st4" d="M97.65,201.6c0,0-0.97,1.8,2.15,5.63c-10.17-5.5-15.23-9.8-15.23-9.8c0.87,4.53,14.93,12.14,14.93,12.14
		c-13.85-4.52-21.13-4.03-21.13-4.03c11.54,2.6,24.35,9.09,24.35,9.09c-8.62-0.97-9.38,2.1-9.38,2.1c8.65-3.6,37.24,15.7,37.24,15.7
		l5.52-10.54c-5.17-0.79-21.64-7.7-21.64-7.7c-1.79-0.75-3.5-1.5-5.12-2.24C106.61,210.46,100.73,206.79,97.65,201.6z"/>
</g>
<g id="tree2">
	<g>
		<path class="st5" d="M133.2,167.81c-0.13,0.15-0.26,0.3-0.38,0.45c-0.38-0.47-0.79-0.93-1.26-1.35
			c-4.44-4.07-11.03-4.1-14.72-0.08c-3.69,4.03-3.09,10.59,1.35,14.66c0.4,0.37,0.81,0.7,1.24,1c-0.28,0.22-0.55,0.46-0.79,0.74
			c-2.95,3.22-2.25,8.67,1.58,12.18c3.82,3.51,9.32,3.74,12.27,0.52c1.19-1.3,1.79-2.96,1.82-4.71c2.62,0.69,5.44,0.02,7.3-2.02
			c1.75-1.92,2.24-4.57,1.52-7c1.35-0.3,2.59-0.97,3.54-2.02c2.87-3.13,2.18-8.45-1.54-11.86
			C141.42,164.91,136.07,164.68,133.2,167.81z"/>
	</g>
	<g>
		<g>
			<path class="st3" d="M132.63,168.65c-0.33,0.37-0.38,0.01-0.68-0.31c-0.3-0.32-0.61-0.62-0.95-0.91
				c-0.47-0.41-0.98-0.78-1.51-1.11c-1.02-0.63-2.14-1.11-3.31-1.4c-1.93-0.48-3.99-0.43-5.89,0.18c-4.35,1.41-6.94,5.75-6.38,10.25
				c0.3,2.44,1.46,4.74,3.16,6.51c0.26,0.27,1.36,0.98,1.46,1.29c0.19,0.57-0.56,0.99-0.89,1.42c-0.71,0.94-1.16,2.06-1.33,3.22
				c-0.74,4.9,3.04,9.63,7.63,10.94c4.85,1.38,9.86-1.42,10.1-6.72c-0.1,0.04-0.19,0.07-0.29,0.11c2.84,0.68,5.93-0.07,7.83-2.39
				c1.08-1.32,1.64-3.01,1.6-4.71c-0.01-0.44-0.12-0.87-0.14-1.3c-0.03-0.56-0.05-0.58,0.42-0.85c0.63-0.36,1.31-0.54,1.91-0.97
				c2.56-1.84,3.3-5.14,2.46-8.07c-0.96-3.35-3.77-6.11-7.11-7.08C137.88,165.9,134.73,166.46,132.63,168.65
				c-0.07,0.07,0.23,0.04,0.29-0.02c4.03-4.18,10.7-1.62,13.45,2.71c2.67,4.2,1.71,10.27-3.67,11.63c-0.03,0.01-0.16,0.04-0.15,0.09
				c1.44,5.36-2.94,10.26-8.54,8.92c-0.06-0.02-0.29,0.02-0.29,0.11c-0.15,3.32-2.27,6.17-5.64,6.76c-2.81,0.49-5.72-0.59-7.85-2.4
				c-3.81-3.25-5.35-9.58-1.08-13.13c0.01-0.01,0.02-0.03,0.01-0.04c-4.44-3.2-6.7-9.55-3.51-14.43c3.98-6.09,12.43-4.71,16.6,0.32
				c0.05,0.06,0.26-0.02,0.29-0.07c0.12-0.16,0.24-0.31,0.38-0.45C132.98,168.55,132.68,168.59,132.63,168.65z"/>
		</g>
	</g>
	<path class="st4" d="M136.81,176.29c0,0-1.18,1.16-0.43,4.2c-4.64-5-6.46-8.59-6.46-8.59c-0.89,3.28,5.52,10.21,5.52,10.21
		c-7.26-4.73-11.98-5.2-11.98-5.2c6.42,3.12,12.39,9.12,12.39,9.12c-5.1-1.65-6.54,0.43-6.54,0.43
		c6.56-1.56,19.31,14.81,19.31,14.81l5.87-6.4c-2.99-1.13-11.13-7.83-11.13-7.83c-0.89-0.73-1.72-1.44-2.5-2.15
		C139.63,183.52,137.1,180.28,136.81,176.29z"/>
</g>
<g id="tree3">
	<g>
		<path class="st6" d="M175.84,111.04c-0.38,0.18-0.74,0.38-1.09,0.59c-0.28-1.02-0.66-2.03-1.13-3.02
			c-4.6-9.42-16.73-12.96-27.1-7.9c-10.36,5.06-15.04,16.8-10.44,26.22c0.41,0.85,0.89,1.64,1.42,2.39
			c-0.71,0.24-1.42,0.52-2.11,0.86c-8.29,4.04-11.79,13.91-7.83,22.03c3.96,8.12,13.9,11.43,22.19,7.38
			c3.34-1.63,5.91-4.21,7.52-7.24c4.22,2.59,10.02,2.9,15.25,0.34c4.93-2.41,8.17-6.78,8.99-11.39c2.77,0.18,5.63-0.33,8.31-1.64
			c8.07-3.94,11.48-13.54,7.62-21.44C193.58,110.32,183.91,107.1,175.84,111.04z"/>
	</g>
	<g>
		<g>
			<path class="st3" d="M174.19,112.09c-0.4,0.2-0.79,0.41-1.17,0.63c0.19,0.01,0.37,0.01,0.56,0.02c-2.64-9.15-11.8-14.19-21-13.21
				c-9.02,0.96-17.29,7.45-19.55,16.36c-1.29,5.11-0.34,10.43,2.63,14.77c0.06-0.1,0.12-0.19,0.18-0.29
				c-8.27,2.87-13.56,11.62-11.23,20.27c2.27,8.39,10.94,13.39,19.36,11.77c5.14-0.99,9.59-4.26,12.09-8.85
				c-0.2,0.05-0.4,0.11-0.6,0.16c9.44,5.6,22.81-0.52,24.86-11.26c-0.16,0.08-0.32,0.16-0.48,0.24c8.37,0.45,16.22-5.27,17.74-13.63
				c1.42-7.8-3.33-15.53-10.84-17.94C182.6,109.81,178.11,110.23,174.19,112.09c-0.43,0.21-0.04,0.45,0.28,0.3
				c6.77-3.21,15.08-1.4,19.61,4.67c4.29,5.76,3.98,13.85-0.53,19.39c-3.26,4-8.29,6.13-13.43,5.85c-0.14-0.01-0.44,0.07-0.48,0.24
				c-1.97,10.29-14.52,16.24-23.62,10.83c-0.16-0.09-0.51,0-0.6,0.16c-4.32,7.92-14.36,11.14-22.35,6.77
				c-7.08-3.87-10.13-12.63-7.14-20.09c1.82-4.55,5.58-7.95,10.18-9.55c0.11-0.04,0.27-0.16,0.18-0.29
				c-5.09-7.43-3.61-17.22,2.45-23.63c6.26-6.62,16.59-9.01,24.89-4.91c4.54,2.24,7.85,6.22,9.25,11.08
				c0.06,0.21,0.44,0.08,0.56,0.02c0.33-0.2,0.67-0.38,1.02-0.55C174.89,112.17,174.5,111.93,174.19,112.09z"/>
		</g>
	</g>
	<path class="st4" d="M173,123.53c0,0-3.21,1.37-4.09,7.92c-5.25-13.42-6.05-21.87-6.05-21.87c-4.27,5.76,2.97,24.32,2.97,24.32
		c-10.61-14.89-19.51-19.47-19.51-19.47c10.19,11.09,17.31,27.48,17.31,27.48c-8.73-7.18-13.18-4.22-13.18-4.22
		c14.1,2,26.49,44.02,26.49,44.02l16.47-8.04c-5-4.54-15.83-23.99-15.83-23.99c-1.18-2.11-2.26-4.16-3.26-6.15
		C172.96,139.92,170.5,131.6,173,123.53z"/>
</g>
<g id="tree4">
	<g>
		<path class="st7" d="M221.37,132.04c-0.17,0.04-0.34,0.09-0.5,0.15c-0.05-0.53-0.13-1.07-0.26-1.61c-1.26-5.18-6.1-8.44-10.79-7.3
			c-4.7,1.15-7.48,6.27-6.22,11.45c0.11,0.47,0.26,0.91,0.42,1.35c-0.32,0.02-0.63,0.07-0.95,0.15c-3.76,0.92-5.92,5.28-4.83,9.74
			c1.09,4.46,5.02,7.34,8.78,6.42c1.51-0.37,2.77-1.3,3.66-2.57c1.58,1.79,3.99,2.68,6.37,2.1c2.24-0.55,3.9-2.26,4.57-4.4
			c1.15,0.44,2.38,0.55,3.6,0.26c3.66-0.89,5.76-5.14,4.7-9.48C228.85,133.95,225.02,131.15,221.37,132.04z"/>
	</g>
	<g>
		<g>
			<path class="st3" d="M220.63,132.37c-0.51,0.14-0.41-0.63-0.49-1.03c-0.1-0.49-0.24-0.98-0.41-1.46
				c-0.32-0.89-0.76-1.74-1.3-2.52c-1.03-1.45-2.45-2.64-4.1-3.33c-2.82-1.18-6.11-0.74-8.49,1.18c-2.88,2.31-3.96,6.25-3.16,9.78
				c0.14,0.61,0.54,1.17-0.06,1.51c-0.2,0.12-0.56,0.13-0.79,0.21c-0.69,0.23-1.33,0.58-1.9,1.03c-1.33,1.04-2.21,2.6-2.6,4.24
				c-0.87,3.71,0.67,8.03,3.98,10.05c2.59,1.57,5.91,1.28,8.06-0.91c0.38-0.39,0.37-0.64,0.84-0.43c0.33,0.15,0.7,0.61,1.03,0.82
				c0.78,0.51,1.66,0.86,2.59,1c1.46,0.23,2.97-0.06,4.25-0.8c0.62-0.36,1.17-0.82,1.64-1.36c0.43-0.49,0.98-2,1.5-2.2
				c0.28-0.1,1.03,0.24,1.37,0.26c0.33,0.03,0.66,0.03,0.99,0c0.77-0.06,1.53-0.28,2.23-0.62
				C233.22,144.08,228.92,130.58,220.63,132.37c-0.19,0.04-0.15,0.18,0.04,0.14c4.36-0.94,7.87,2.97,8.51,6.96
				c0.78,4.81-2.73,10.24-8.16,8.36c-0.08-0.03-0.25,0-0.29,0.1c-0.7,2.07-2.25,3.78-4.43,4.31c-2.33,0.57-4.61-0.39-6.2-2.09
				c-0.06-0.07-0.25,0-0.3,0.06c-3.54,4.79-9.7,2.3-11.66-2.46c-1.79-4.34-0.2-10.57,5.13-11.19c0.04,0,0.21-0.05,0.18-0.12
				c-1.86-5.08,0.3-11.89,6.26-12.8c5.45-0.84,9.74,3.92,10.27,9c0.01,0.06,0.15,0.04,0.18,0.03c0.16-0.06,0.33-0.11,0.5-0.15
				C220.86,132.46,220.82,132.31,220.63,132.37z"/>
		</g>
	</g>
	<path class="st4" d="M219.86,140.05c0,0-1.43,0.27-2.38,2.88c-0.95-5.96-0.53-9.5-0.53-9.5c-2.27,1.98-0.95,10.23-0.95,10.23
		c-3.01-7.05-6.26-9.72-6.26-9.72c3.19,5.45,4.64,12.8,4.64,12.8c-2.94-3.72-5.02-2.9-5.02-2.9c5.6,2.08,6.92,20.39,6.92,20.39
		l7.46-1.82c-1.64-2.3-4.34-11.24-4.34-11.24c-0.29-0.97-0.55-1.91-0.79-2.81C218.38,146.76,218.11,143.13,219.86,140.05z"/>
</g>
<g id="tree5">
	<path class="st8" d="M269.12,108.13c0.08,18.68-11.26,24.49-25.14,24.54c-13.88,0.06-25.04-5.64-25.12-24.33
		c-0.08-18.68,10.94-43.27,24.82-43.33C257.56,64.96,269.04,89.45,269.12,108.13z"/>
	<path class="st7" d="M269.99,109.13c0.08,18.68-11.26,24.49-25.14,24.54c-13.88,0.06-25.04-5.64-25.12-24.33
		c-0.08-18.68,10.94-43.27,24.82-43.33C258.43,65.96,269.91,90.45,269.99,109.13z"/>
	<g>
		<g>
			<path class="st3" d="M268.86,108.7c0,6.14-1.18,12.66-5.42,17.37c-3.62,4.01-8.84,5.92-14.09,6.58
				c-10.54,1.33-23.09-0.88-27.76-11.65c-2.67-6.16-2.6-13.29-1.7-19.82c0.95-6.87,2.97-13.66,6.08-19.87
				c2.62-5.25,6.2-10.65,11.38-13.68c4.79-2.8,10.09-2.12,14.51,1.04c5.09,3.63,8.61,9.33,11.18,14.92
				c2.89,6.26,4.79,13.05,5.53,19.91C268.75,105.23,268.85,106.96,268.86,108.7c0,0.34,0.76,0.19,0.75-0.08
				c-0.06-7.32-1.63-14.64-4.25-21.47c-2.39-6.23-5.74-12.5-10.71-17.06c-3.79-3.48-8.75-5.71-13.92-4.36
				c-5.45,1.42-9.59,5.95-12.58,10.48c-3.97,6.01-6.57,12.96-8.11,19.97c-1.53,6.93-2.21,14.49-0.42,21.44
				c1.39,5.41,4.61,10.07,9.59,12.73c4.95,2.64,10.79,3.24,16.32,3.04c5.44-0.19,11.12-1.34,15.61-4.58
				c4.74-3.42,7.26-8.78,8.1-14.46c0.28-1.9,0.38-3.82,0.38-5.74C269.61,108.28,268.86,108.43,268.86,108.7z"/>
		</g>
	</g>
	<path class="st4" d="M258.67,108.96c0,0-3.36-0.07-6.66,6.19c0.5-16.03,3.05-24.99,3.05-24.99c-5.99,3.91-6.71,26.08-6.71,26.08
		c-3.66-19.97-9.79-28.67-9.79-28.67c4.76,15.91,4.76,35.81,4.76,35.81c-4.97-11.27-10.04-10.29-10.04-10.29
		c11.71,8.45,4.64,55.9,4.64,55.9l19.56,0.23c-2.68-6.89-4.79-31.59-4.79-31.59c-0.23-2.68-0.4-5.26-0.52-7.74
		C252.33,125.6,253.36,116.03,258.67,108.96z"/>
</g>
<g id="tree6">
	<path class="st9" d="M288.63,138.77c-1.44,8.37-6.97,10.07-13.19,9c-6.22-1.07-10.76-4.5-9.33-12.87
		c1.43-8.37,8.31-18.5,14.53-17.44C286.86,118.53,290.07,130.4,288.63,138.77z"/>
	<g>
		<g>
			<path class="st3" d="M287.62,138.65c-0.51,2.82-1.58,5.71-3.98,7.46c-2.07,1.51-4.72,1.84-7.22,1.63
				c-4.87-0.4-10.03-2.55-11.03-7.84c-0.58-3.08,0.14-6.36,1.16-9.26c1.08-3.05,2.64-5.97,4.68-8.48c1.73-2.12,4.08-4.36,6.92-4.72
				c2.48-0.32,4.54,1.16,5.96,3.06C287.75,125.41,288.58,132.75,287.62,138.65c-0.03,0.17,0.32,0.13,0.35-0.03
				c0.96-5.88,0.13-13.09-3.39-18.06c-1.29-1.82-3.15-3.36-5.47-3.43c-2.48-0.08-4.72,1.41-6.45,3.05c-2.52,2.4-4.41,5.5-5.76,8.68
				c-1.31,3.07-2.27,6.52-2.01,9.88c0.44,5.76,5.3,8.47,10.55,9.15c2.63,0.34,5.46,0.18,7.79-1.21c2.88-1.72,4.18-4.9,4.75-8.07
				C287.99,138.45,287.65,138.49,287.62,138.65z"/>
		</g>
	</g>
	<path class="st4" d="M283.04,137.94c0,0-1.5-0.3-3.47,2.25c1.49-7.14,3.33-10.94,3.33-10.94c-2.99,1.28-5.06,11.14-5.06,11.14
		c-0.07-9.22-2.12-13.6-2.12-13.6c0.88,7.5-0.69,16.4-0.69,16.4c-1.34-5.44-3.69-5.4-3.69-5.4c4.58,4.7-2.33,25.39-2.33,25.39
		l8.74,1.64c-0.66-3.29,0.35-14.52,0.35-14.52c0.11-1.22,0.23-2.39,0.38-3.51C278.89,144.88,280.1,140.68,283.04,137.94z"/>
</g>
<g id="tree7">
	<g>
		<path class="st6" d="M359.45,131.6c-0.37-0.15-0.74-0.29-1.11-0.42c0.56-0.85,1.05-1.75,1.45-2.71
			c3.88-9.23-1.21-20.17-11.37-24.44c-10.16-4.27-21.53-0.24-25.41,8.99c-0.35,0.83-0.62,1.67-0.83,2.52
			c-0.62-0.36-1.27-0.69-1.95-0.98c-8.12-3.41-17.41,0.28-20.75,8.24c-3.34,7.96,0.53,17.17,8.65,20.58
			c3.28,1.38,6.74,1.6,9.94,0.85c0.79,4.66,4.22,9.02,9.35,11.18c4.83,2.03,10.01,1.61,13.84-0.7c1.61,2.1,3.78,3.84,6.41,4.94
			c7.9,3.32,16.95-0.27,20.2-8.01C371.12,143.89,367.35,134.92,359.45,131.6z"/>
	</g>
	<g>
		<g>
			<path class="st3" d="M357.94,131.16c-0.73-0.29-0.96-0.32-0.63-1.1c0.28-0.67,0.71-1.29,0.99-1.97c0.42-1.01,0.75-2.06,0.97-3.13
				c0.41-2,0.44-4.06,0.12-6.08c-0.68-4.3-2.94-8.25-6.11-11.2c-6.45-5.99-16.47-7.62-24.34-3.53c-4.43,2.3-7.65,6.29-8.89,11.13
				c0.21-0.06,0.42-0.11,0.64-0.17c-6.86-3.91-15.95-2.6-21.04,3.61c-5.33,6.51-4.31,16.24,1.98,21.73
				c3.99,3.48,9.44,4.72,14.58,3.59c-0.09-0.01-0.18-0.02-0.27-0.04c1.93,10.48,14.8,15.62,23.77,10.4
				c-0.19,0.03-0.39,0.05-0.58,0.08c4.76,6.07,13.25,7.94,20.12,4.43c6.78-3.46,10.03-11.58,7.37-18.75
				C365.08,136.07,361.91,132.87,357.94,131.16c-0.18-0.08-0.69,0.19-0.62,0.23c6.26,2.71,10.31,9.21,9.46,16.07
				c-0.95,7.63-7.83,13.39-15.52,12.94c-4.52-0.26-8.71-2.56-11.49-6.11c-0.11-0.14-0.46,0.01-0.58,0.08
				c-8.7,5.07-20.8-0.76-22.6-10.55c-0.01-0.08-0.23-0.04-0.27-0.04c-8.39,1.85-16.99-3.37-19.06-11.73
				c-1.82-7.36,2.17-15.21,9.27-17.94c4.47-1.72,9.42-1.13,13.54,1.22c0.12,0.07,0.59-0.01,0.64-0.17
				c2.32-9.05,11.35-14.14,20.38-12.8c8.12,1.2,15.41,7.19,17.37,15.29c1.1,4.57,0.29,9.31-2.25,13.27
				c-0.03,0.04,0.03,0.06,0.05,0.07c0.36,0.12,0.72,0.25,1.07,0.4C357.5,131.45,358.01,131.18,357.94,131.16z"/>
		</g>
	</g>
	<path class="st4" d="M348.68,137.42c0,0-3-1.44-8.26,2.04c6.34-12.22,11.91-18.1,11.91-18.1c-6.83,0.55-15.61,17.43-15.61,17.43
		c4.03-16.99,1.71-26.27,1.71-26.27c-1.56,14.3-8.86,29.72-8.86,29.72c-0.34-10.79-5.26-12.13-5.26-12.13
		c7.44,11.39-14.96,46.73-14.96,46.73l16.14,6.78c0.12-6.45,7.28-26.47,7.28-26.47c0.78-2.17,1.57-4.24,2.37-6.21
		C336.88,147.7,341.31,140.7,348.68,137.42z"/>
</g>
<g id="tree8">
	<path class="st5" d="M368.61,186.51c-5.94,6.06-11.46,4.32-15.97-0.09c-4.51-4.41-6.29-9.82-0.35-15.89
		c5.94-6.07,17.36-10.49,21.87-6.08C378.67,168.86,374.56,180.45,368.61,186.51z"/>
	<g>
		<g>
			<path class="st3" d="M367.84,185.93c-2.56,2.56-5.87,4.51-9.6,3.57c-2.69-0.68-4.99-2.54-6.84-4.55
				c-1.75-1.91-3.2-4.26-3.33-6.92c-0.16-3.25,1.75-6.11,3.96-8.32c3.93-3.92,9.69-7.14,15.3-7.54c2.16-0.15,4.54,0.2,6.12,1.81
				c1.49,1.52,1.89,3.76,1.82,5.81C375.09,175.68,371.86,181.77,367.84,185.93c-0.07,0.08,0.25,0.04,0.31-0.02
				c4.01-4.15,7.17-10.1,7.46-15.94c0.11-2.25-0.31-4.74-2.06-6.32c-1.66-1.5-4.05-1.78-6.19-1.61c-5.53,0.45-11.09,3.45-15.1,7.19
				c-2.34,2.18-4.46,5.02-4.53,8.34c-0.07,2.93,1.53,5.54,3.46,7.62c2.2,2.37,5.1,4.53,8.45,4.7c3.34,0.17,6.23-1.71,8.51-3.98
				C368.23,185.83,367.9,185.87,367.84,185.93z"/>
		</g>
	</g>
	<path class="st4" d="M364.48,182.64c0,0-1.06-1.1-4.13-0.13c5.28-5.02,8.97-7.1,8.97-7.1c-3.19-0.65-10.5,6.29-10.5,6.29
		c5.19-7.62,5.99-12.4,5.99-12.4c-3.54,6.66-9.9,13.1-9.9,13.1c1.99-5.23,0.04-6.54,0.04-6.54c1.09,6.47-16.36,19.55-16.36,19.55
		l6.25,6.32c1.34-3.08,8.55-11.75,8.55-11.75c0.78-0.94,1.55-1.83,2.3-2.67C357.12,186,360.51,183.23,364.48,182.64z"/>
</g>
<g id="tree9">
	<path class="st7" d="M400.25,195.75c-12.52,5.01-13.81,12.99-10.68,20.83c3.13,7.85,9.49,12.6,22.01,7.58
		c12.52-5.01,26.45-17.89,23.32-25.74C431.77,190.58,412.77,190.73,400.25,195.75z"/>
	<g>
		<g>
			<path class="st3" d="M400.49,196.58c-4.23,1.72-8.55,4.22-10.82,8.35c-1.78,3.22-1.82,6.98-0.86,10.46
				c0.98,3.52,2.78,7.09,5.65,9.43c3.09,2.52,7.12,3.12,10.98,2.55c5.14-0.76,10.03-3.12,14.4-5.84c4.38-2.73,8.52-6.05,11.83-10.03
				c2.29-2.76,4.71-6.39,4.44-10.16c-0.23-3.23-2.75-5.36-5.57-6.54c-4.36-1.82-9.4-1.99-14.05-1.7
				C411.04,193.43,405.58,194.56,400.49,196.58c-0.48,0.19-0.06,0.63,0.34,0.47c7.96-3.15,17.58-4.61,26.03-2.74
				c2.95,0.65,6.39,1.94,7.86,4.8c1.64,3.2-0.04,6.97-1.84,9.7c-2.54,3.85-6.05,7.05-9.74,9.78c-4.02,2.98-8.5,5.55-13.27,7.14
				c-4.05,1.35-8.69,2.02-12.66,0.07c-3.25-1.6-5.4-4.7-6.75-7.97c-1.46-3.53-2.18-7.56-0.79-11.23c1.83-4.85,6.59-7.67,11.16-9.53
				C401.3,196.85,400.89,196.42,400.49,196.58z"/>
		</g>
	</g>
	<path class="st4" d="M402.87,202.86c0,0,0.81,1.88-2.62,5.43c10.61-4.63,16.02-8.49,16.02-8.49c-1.25,4.44-15.91,10.85-15.91,10.85
		c14.19-3.34,21.42-2.24,21.42-2.24c-11.73,1.62-25.04,7.01-25.04,7.01c8.67-0.25,9.18,2.88,9.18,2.88
		c-8.32-4.32-38.46,12.52-38.46,12.52l-4.62-10.98c5.22-0.36,22.23-5.85,22.23-5.85c1.85-0.6,3.61-1.2,5.3-1.8
		C393.19,210.94,399.36,207.77,402.87,202.86z"/>
</g>
<g>
	<polygon class="st8" points="136.02,254.43 131.44,265.45 64.16,234.44 66.54,228.7 	"/>
	<g>
		<path class="st3" d="M135.74,254.4c-1.53,3.68-3.05,7.35-4.58,11.03c0.15-0.05,0.3-0.11,0.44-0.16
			c-8.63-3.98-17.25-7.95-25.88-11.93c-12.35-5.69-24.7-11.39-37.05-17.08c-0.89-0.41-1.78-0.82-2.67-1.23
			c-0.43-0.2-0.96-0.56-1.43-0.66c-0.05-0.01-0.2-0.07-0.25-0.11c0.27,0.27,0.01,0.18,0.21-0.05c0.18-0.21,0.27-0.64,0.37-0.89
			c0.63-1.52,1.26-3.05,1.9-4.57c-0.15,0.05-0.3,0.11-0.44,0.16c7.85,2.91,15.71,5.81,23.56,8.72c12.43,4.6,24.86,9.2,37.3,13.81
			c2.88,1.06,5.75,2.13,8.63,3.19c0.24,0.09,0.68-0.26,0.34-0.38c-7.85-2.91-15.71-5.81-23.56-8.72c-12.43-4.6-24.86-9.2-37.3-13.81
			c-2.88-1.06-5.75-2.13-8.63-3.19c-0.14-0.05-0.38,0.01-0.44,0.16c-0.79,1.91-1.59,3.82-2.38,5.73c-0.04,0.11,0.01,0.18,0.11,0.22
			c7.61,3.51,15.21,7.01,22.82,10.52c12.04,5.55,24.08,11.1,36.11,16.65c2.78,1.28,5.57,2.57,8.35,3.85
			c0.13,0.06,0.39-0.02,0.44-0.16c1.53-3.68,3.05-7.35,4.58-11.03C136.42,254.15,135.84,254.16,135.74,254.4z"/>
	</g>
</g>
<g id="rotates4">
	
		<ellipse transform="matrix(0.072 -0.9974 0.9974 0.072 -193.8534 251.4011)" class="st10" cx="38.18" cy="229.88" rx="5.5" ry="28"/>
	
		<ellipse transform="matrix(0.8998 -0.4363 0.4363 0.8998 -104.4641 60.2972)" class="st10" cx="79.04" cy="257.58" rx="5.5" ry="28"/>
	
		<ellipse transform="matrix(0.5611 -0.8278 0.8278 0.5611 -136.2039 159.8142)" class="st10" cx="82.6" cy="208.34" rx="28" ry="5.5"/>
	<circle class="st11" cx="67.69" cy="232.01" r="4.73"/>
	<circle class="st8" cx="67.69" cy="232.01" r="2.87"/>
	<circle class="st12" cx="67.69" cy="232.01" r="58.44"/>
</g>
<g>
	<polygon class="st8" points="279.87,168.82 268.14,166.58 284.8,94.39 290.9,95.55 	"/>
	<g>
		<path class="st3" d="M279.97,168.61c-3.07-0.59-6.14-1.17-9.22-1.76c-0.67-0.13-1.34-0.26-2.01-0.38
			c-0.14-0.03-0.31-0.04-0.44-0.08c-0.15-0.06,0.12,0.22,0.14,0.15c0.06-0.3,0.14-0.59,0.2-0.89c1.08-4.69,2.17-9.38,3.25-14.07
			c1.78-7.73,3.57-15.45,5.35-23.18c1.72-7.44,3.44-14.89,5.15-22.33c0.6-2.59,1.19-5.17,1.79-7.76c0.19-0.81,0.38-1.63,0.56-2.44
			c0.07-0.31,0.38-1,0.3-1.32c-0.01-0.04,0.03-0.12,0.04-0.17c-0.13,0.08-0.26,0.15-0.39,0.23c1.41,0.27,2.82,0.54,4.22,0.8
			c0.59,0.11,1.18,0.2,1.77,0.34c0.16,0.04-0.05-0.29-0.1-0.05c-0.21,1.05-0.32,2.13-0.48,3.19c-0.82,5.43-1.63,10.86-2.45,16.28
			c-2.17,14.4-4.33,28.79-6.5,43.19c-0.53,3.5-1.05,6.99-1.58,10.49c-0.04,0.29,0.55,0.21,0.59-0.05
			c1.25-8.28,2.49-16.56,3.74-24.84c1.97-13.11,3.95-26.22,5.92-39.33c0.46-3.03,0.91-6.06,1.37-9.09c0.02-0.12-0.1-0.17-0.19-0.18
			c-2.03-0.39-4.07-0.77-6.1-1.16c-0.15-0.03-0.36,0.07-0.39,0.23c-1.88,8.16-3.77,16.32-5.65,24.48
			c-2.98,12.92-5.96,25.83-8.94,38.75c-0.69,2.99-1.38,5.97-2.07,8.96c-0.03,0.11,0.11,0.17,0.19,0.18
			c3.91,0.75,7.82,1.49,11.73,2.24C280.05,169.08,280.36,168.69,279.97,168.61z"/>
	</g>
</g>
<g id="rotats3">
	
		<ellipse transform="matrix(0.9912 -0.1327 0.1327 0.9912 -6.5151 38.2746)" class="st10" cx="283.97" cy="68.03" rx="5.5" ry="28"/>
	
		<ellipse transform="matrix(0.792 -0.6105 0.6105 0.792 -14.2489 185.5236)" class="st10" cx="265.18" cy="113.68" rx="28" ry="5.5"/>
	
		<ellipse transform="matrix(0.3807 -0.9247 0.9247 0.3807 95.468 356.7979)" class="st10" cx="314.1" cy="107.13" rx="5.5" ry="28"/>
	<circle class="st11" cx="287.89" cy="97.36" r="4.73"/>
	<circle class="st8" cx="287.89" cy="97.36" r="2.87"/>
	<circle class="st12" cx="287.89" cy="97.36" r="58.44"/>
</g>
<g>
	<polygon class="st8" points="174.41,191.14 164.36,197.59 126.78,133.73 132.01,130.38 	"/>
	<g>
		<path class="st3" d="M174.21,191.01c-3.35,2.15-6.7,4.3-10.05,6.45c0.15,0,0.3,0,0.46,0c-4.82-8.19-9.63-16.37-14.45-24.56
			c-6.9-11.72-13.79-23.44-20.69-35.16c-0.5-0.84-0.99-1.69-1.49-2.53c-0.24-0.4-0.46-1.03-0.8-1.36c-0.04-0.04-0.12-0.17-0.14-0.23
			c0.11,0.36-0.2,0.19,0.17,0.09c0.27-0.08,0.58-0.37,0.81-0.52c1.39-0.89,2.78-1.78,4.16-2.67c-0.15,0-0.3,0-0.46,0
			c4.79,6.87,9.58,13.74,14.38,20.6c7.59,10.87,15.17,21.74,22.76,32.61c1.75,2.51,3.51,5.03,5.26,7.54
			c0.15,0.21,0.7-0.01,0.53-0.25c-4.79-6.87-9.58-13.74-14.38-20.6c-7.59-10.87-15.17-21.74-22.76-32.61
			c-1.75-2.51-3.51-5.03-5.26-7.54c-0.1-0.14-0.34-0.08-0.46,0c-1.74,1.12-3.48,2.24-5.22,3.35c-0.09,0.06-0.13,0.16-0.07,0.25
			c4.25,7.22,8.49,14.44,12.74,21.65c6.72,11.42,13.44,22.85,20.17,34.27c1.55,2.64,3.11,5.28,4.66,7.93c0.09,0.15,0.35,0.07,0.46,0
			c3.35-2.15,6.7-4.3,10.05-6.45C174.93,191.06,174.45,190.86,174.21,191.01z"/>
	</g>
</g>
<g id="rotate2">
	
		<ellipse transform="matrix(0.8224 -0.5689 0.5689 0.8224 -66.7115 87.4561)" class="st13" cx="106.73" cy="150.59" rx="28" ry="5.5"/>
	
		<ellipse transform="matrix(0.4278 -0.9039 0.9039 0.4278 -43.2561 224.8067)" class="st13" cx="155.93" cy="146.57" rx="5.5" ry="28"/>
	
		<ellipse transform="matrix(0.9967 -0.0814 0.0814 0.9967 -8.2046 10.763)" class="st13" cx="127.85" cy="105.97" rx="5.5" ry="28"/>
	<circle class="st14" cx="131.07" cy="133.76" r="4.73"/>
	<circle class="st8" cx="131.07" cy="133.76" r="2.87"/>
	<circle class="st12" cx="131.07" cy="133.76" r="58.44"/>
</g>
<g>
	<polygon class="st8" points="356.91,234.71 349.13,225.66 407.1,179.54 411.15,184.24 	"/>
	<g>
		<path class="st3" d="M357.18,234.59c-2.04-2.37-4.08-4.74-6.12-7.11c-0.44-0.52-0.89-1.03-1.33-1.55
			c-0.3-0.35-0.21-0.39-0.39-0.15c0.16-0.22,0.5-0.4,0.71-0.57c3.77-3,7.54-5.99,11.3-8.99c6.21-4.94,12.41-9.87,18.62-14.81
			c5.98-4.76,11.96-9.51,17.94-14.27c2.08-1.65,4.16-3.31,6.23-4.96c0.65-0.52,1.31-1.04,1.96-1.56c0.26-0.21,0.9-0.54,1.06-0.84
			c0.02-0.04,0.1-0.08,0.13-0.11c-0.15,0-0.3,0-0.46,0c0.94,1.09,1.87,2.17,2.81,3.26c0.38,0.44,0.86,0.87,1.17,1.36
			c0.12,0.19,0.16-0.26,0.01-0.05c-0.54,0.82-1.65,1.53-2.36,2.2c-4.02,3.74-8.04,7.48-12.06,11.22
			c-10.66,9.92-21.32,19.84-31.98,29.75c-2.59,2.41-5.18,4.82-7.77,7.23c-0.26,0.24,0.3,0.33,0.48,0.16
			c6.13-5.71,12.26-11.41,18.39-17.12c9.7-9.03,19.41-18.06,29.11-27.09c2.24-2.09,4.49-4.18,6.73-6.27
			c0.05-0.05,0.07-0.15,0.02-0.21c-1.35-1.57-2.7-3.14-4.05-4.7c-0.11-0.13-0.34-0.1-0.46,0c-6.55,5.21-13.11,10.43-19.66,15.64
			c-10.37,8.25-20.75,16.5-31.12,24.76c-2.4,1.91-4.8,3.82-7.2,5.73c-0.07,0.06-0.15,0.17-0.07,0.25c2.6,3.02,5.19,6.03,7.79,9.05
			C356.81,235.03,357.37,234.81,357.18,234.59z"/>
	</g>
</g>
<g id="rotates1">
	
		<ellipse transform="matrix(0.7349 -0.6782 0.6782 0.7349 -7.1339 305.8311)" class="st13" cx="387.61" cy="162.04" rx="5.5" ry="28"/>
	
		<ellipse transform="matrix(0.2973 -0.9548 0.9548 0.2973 79.2967 528.1396)" class="st13" cx="398.47" cy="210.2" rx="28" ry="5.5"/>
	
		<ellipse transform="matrix(0.9755 -0.2199 0.2199 0.9755 -28.2173 99.9163)" class="st13" cx="434.74" cy="176.72" rx="28" ry="5.5"/>
	<circle class="st14" cx="407.68" cy="183.79" r="4.73"/>
	<circle class="st8" cx="407.68" cy="183.79" r="2.87"/>
	<circle class="st12" cx="407.68" cy="183.79" r="58.44"/>
</g>
<g id="globe">
	<g>
		<path class="st15" d="M388.88,298c0,76.92-62.36,139.28-139.28,139.28c-76.92,0-139.28-62.36-139.28-139.28
			c0-76.92,62.36-139.28,139.28-139.28C326.52,158.72,388.88,221.08,388.88,298z"/>
		<g>
			<path class="st16" d="M385.98,298.78c-0.02,14.48-2.3,28.93-6.77,42.7c-4.29,13.21-10.58,25.73-18.61,37.06
				c-7.97,11.23-17.59,21.25-28.51,29.64c-10.84,8.33-22.92,14.97-35.76,19.67c-13.04,4.77-26.99,7.44-41.04,7.88
				c-14.32,0.46-28.72-1.31-42.48-5.33c-13.41-3.92-26.22-9.87-37.83-17.63c-11.44-7.65-21.73-17-30.45-27.64
				c-8.82-10.76-15.98-22.84-21.2-35.74c-5.34-13.21-8.61-27.23-9.69-41.43c-1.11-14.58,0.08-29.3,3.55-43.51
				c3.31-13.55,8.67-26.63,15.9-38.56c7.13-11.77,16.01-22.51,26.3-31.66c10.16-9.04,21.65-16.61,34.05-22.21
				c12.8-5.78,26.22-9.46,40.19-11.01c14.29-1.58,28.82-0.82,42.89,2.13c13.73,2.88,26.99,7.95,39.2,14.85
				c11.97,6.76,22.9,15.39,32.35,25.37c9.54,10.07,17.55,21.55,23.68,33.99c6.23,12.66,10.51,26.26,12.64,40.21
				C385.45,284.57,385.97,291.67,385.98,298.78c0,1.5,5.8,0.5,5.8-1.55c-0.02-14.73-2.31-29.42-6.9-43.42
				c-4.43-13.5-10.95-26.29-19.22-37.84c-8.22-11.49-18.18-21.71-29.45-30.23c-11.33-8.56-23.96-15.42-37.32-20.21
				c-13.94-4.99-28.61-7.71-43.4-8.21c-15.03-0.5-30.17,1.37-44.62,5.51c-13.94,3.99-27.31,10.05-39.43,18.02
				c-11.94,7.85-22.71,17.41-31.82,28.42c-9.03,10.91-16.41,23.2-21.79,36.3c-5.53,13.47-8.9,27.79-9.98,42.31
				c-1.11,14.82,0.06,29.79,3.61,44.22c3.41,13.88,8.98,27.21,16.45,39.39c7.39,12.06,16.55,22.99,27.18,32.32
				c10.63,9.33,22.69,17.05,35.61,22.8c13.28,5.91,27.51,9.73,41.96,11.3c15.09,1.63,30.39,0.9,45.25-2.17
				c14.37-2.97,28.28-8.12,41.1-15.25c12.5-6.96,23.91-15.79,33.81-26.11c9.78-10.2,17.98-21.88,24.3-34.51
				c6.45-12.89,10.87-26.78,13.05-41.03c1.09-7.15,1.61-14.37,1.62-21.6C391.78,295.73,385.98,296.72,385.98,298.78z"/>
		</g>
	</g>
	<g>
		<path class="st17" d="M249.6,412.85c-65.57,0-118.92-53.35-118.92-118.92c0-65.57,53.35-118.92,118.92-118.92
			c65.57,0,118.92,53.35,118.92,118.92C368.52,359.5,315.17,412.85,249.6,412.85z"/>
	</g>
	<g>
		<path class="st18" d="M249.6,382.31c-51.54,0-93.47-41.93-93.47-93.47c0-51.54,41.93-93.47,93.47-93.47
			c51.54,0,93.47,41.93,93.47,93.47C343.07,340.38,301.14,382.31,249.6,382.31z"/>
	</g>
	<g>
		<path class="st9" d="M121.99,241.09c-1.09,2.39-1.27,6.28-0.81,8.83c0.67,3.73,2.37,3.5,6.31,4.62
			c-1.66-0.47-5.67,9.06-6.09,10.53c-1.03,3.6-1.34,8.07,2.03,10.57c1.47,1.09,3.77,0.15,5.14,1.15c2.82,2.07,0.93,1.85,2.34,4.96
			c1.69,3.73,0.9,8.47,2.74,12.3c3.88,8.04,8.03,9.55,15.34,13.76c5.22,3.01,9.89,13.19,16.89,9.16c-5.18-5.3-9.1-6.47-10.33-14.79
			c-0.46-3.09,1.23-6.43-1.39-8.4c-3.28-2.46-8.55,1.57-11.9-0.24c-3.65-1.97-4.26-11.62-4.11-15.16
			c12.77-0.29,17.45,11.45,30.37,9.57c3.43-0.5,4.46,1.9,6.05-2.35c1.14-3.04-0.7-5.29-2.92-6.61c-2.55-1.52-5.72,1.46-8.11-1.21
			c-1.94-2.17-0.89-7-0.35-9.56c3.88-0.43,11.18,0.42,14.32-2.39c3.66-3.28,0.46-12.3,0.77-16.65c6.08-4.03,21.13,0.24,18.99-12.36
			c3.27-2.03,9.74-2.26,11.62-5.92c2.37-4.62,0.18-5.82-4.06-6.24c3.08-6.69-4.26-9.74-9.23-11.43c-8.24-2.81-8.67-0.1-11.58,7.41
			c-2.67,6.88-5.82,8.03-11.54,6.49c-5.12-7.88-4.38-21.17,6.6-21.45c5.56-0.14,9.38,2.78,15.18,1.47
			c4.52-1.02,14.63-8.46,16.73-12.15c-19.66,1.92-21.62-1.95-22.16-10.2c-0.42-8.31,10.34-3.27,13.07-5.35
			c4.67-3.54,9.12-13.4,15.69-8.81c14.61,10.21-0.42,13.04,0.73,21.89c0.75,5.72,14.32,28.23,22.25,20.07
			c6.65-6.83-10.94-16.78,6.21-25.54c0,0,21.16-11.68,0.73-12.41c0,0-6.02-7.83,2.1-15.96C249.6,158.72,162.12,153.52,121.99,241.09
			z"/>
		<g>
			<path class="st16" d="M121.38,241.02c-1.29,3-1.63,7.28-0.5,10.39c0.97,2.67,3.84,2.89,6.25,3.57c0.2-0.3,0.39-0.59,0.59-0.89
				c-1.73-0.32-3.03,2.49-3.67,3.65c-1.19,2.16-2.26,4.45-3.08,6.78c-0.96,2.72-1.41,6.1-0.19,8.81c0.62,1.38,1.77,2.77,3.27,3.19
				c0.81,0.23,1.64,0.17,2.47,0.23c1.06,0.07,1.92,0.53,2.64,1.32c0.68,0.74,0.44,1.73,0.67,2.65c0.24,0.93,0.72,1.78,0.99,2.71
				c0.3,1.04,0.47,2.11,0.6,3.18c0.28,2.17,0.41,4.4,1.13,6.49c0.62,1.77,1.62,3.49,2.68,5.04c1.72,2.52,3.97,4.53,6.54,6.17
				c2.77,1.77,5.98,3.03,8.49,5.16c4.45,3.77,9.09,11.65,15.91,7.9c0.19-0.1,0.54-0.42,0.3-0.66c-2.53-2.56-5.68-4.68-7.75-7.65
				c-1.14-1.63-1.82-3.5-2.24-5.43c-0.26-1.21-0.4-2.39-0.33-3.63c0.06-1.04,0.21-2.08,0.16-3.13c-0.08-1.74-0.9-3.24-2.55-3.95
				c-1.58-0.68-3.37-0.39-4.99-0.06c-1.81,0.37-4.09,1.23-5.88,0.4c-1.41-0.66-2.16-2.32-2.64-3.71c-1.24-3.51-1.58-7.49-1.45-11.2
				c-0.23,0.17-0.47,0.34-0.7,0.51c4.94-0.07,9.18,1.93,13.32,4.44c3.62,2.19,7.24,4.47,11.5,5.13c1.13,0.18,2.28,0.23,3.42,0.2
				c1.21-0.04,2.42-0.34,3.63-0.24c1.31,0.11,2.67,0.65,3.81-0.29c1.52-1.26,2.18-4.02,1.58-5.84c-0.62-1.9-2.61-3.82-4.63-4.11
				c-1.32-0.19-2.59,0.24-3.89,0.34c-1.66,0.13-2.93-0.74-3.44-2.31c-0.81-2.52-0.07-5.46,0.46-7.96c-0.23,0.17-0.47,0.34-0.7,0.51
				c4.51-0.46,9.84,0.54,13.91-1.93c3.85-2.33,2.96-7.72,2.45-11.48c-0.15-1.14-0.33-2.28-0.45-3.42c-0.06-0.51-0.11-1.02-0.13-1.53
				c-0.03-0.66-0.14-0.84,0.29-1.16c1.17-0.84,3.08-1.08,4.46-1.32c3.36-0.59,6.95-0.7,10.1-2.12c3.77-1.7,4.76-5.2,4.14-9.08
				c-0.12,0.18-0.24,0.36-0.36,0.55c3.6-2.15,9.17-1.94,11.67-5.76c0.91-1.4,1.92-3.81,0.81-5.37c-1.05-1.49-3.34-1.71-4.99-1.88
				c0.13,0.18,0.26,0.36,0.39,0.54c1.57-3.58,0.32-6.73-2.83-8.88c-1.56-1.07-3.33-1.84-5.1-2.5c-1.79-0.67-3.65-1.33-5.56-1.58
				c-2.75-0.37-4.84,0.64-6.17,3.08c-1.92,3.5-2.43,8.01-5.39,10.88c-1.24,1.2-2.81,1.63-4.5,1.53c-0.77-0.05-2.24-0.07-2.85-0.54
				c-0.68-0.52-1.13-1.88-1.45-2.66c-1.37-3.28-1.94-7.03-1.2-10.54c0.72-3.43,2.94-6.3,6.46-7.1c4.89-1.12,9.55,1.59,14.41,1.56
				c4.37-0.03,8.16-2.41,11.64-4.83c3.1-2.16,6.75-4.73,8.71-8.05c0.21-0.36-0.29-0.56-0.55-0.54c-4.75,0.45-9.78,0.94-14.5-0.01
				c-2.41-0.49-4.7-1.57-5.85-3.85c-0.52-1.03-0.78-2.19-0.95-3.33c-0.22-1.42-0.47-3.03-0.14-4.45c0.79-3.45,5.27-2.65,7.88-2.49
				c1.29,0.08,2.7,0.21,3.95-0.22c1.42-0.48,2.55-1.9,3.52-2.97c1.47-1.61,2.82-3.34,4.4-4.84c1.38-1.3,3.13-2.65,5.14-2.44
				c1.21,0.13,2.22,0.79,3.18,1.49c1.27,0.92,2.5,1.91,3.56,3.07c1.13,1.24,2.16,2.77,2.13,4.51c-0.05,2.87-2.6,5.19-4.04,7.47
				c-1.53,2.41-2.15,5.04-1.27,7.81c0.95,2.96,2.54,5.77,4.19,8.39c1.97,3.12,4.24,6.13,6.99,8.61c2.07,1.87,4.75,3.72,7.67,3.54
				c2.68-0.16,5.2-2.28,5.76-4.92c0.62-2.94-1.06-5.96-2.01-8.65c-1.21-3.41-1.59-6.9,0.93-9.84c1.94-2.26,4.66-3.44,7.14-4.97
				c2.07-1.28,4.11-2.69,5.87-4.38c1.23-1.18,3.12-3.22,2.19-5.08c-0.48-0.96-1.55-1.48-2.51-1.82c-0.85-0.3-1.75-0.48-2.63-0.62
				c-0.54-0.08-1.08-0.15-1.62-0.2c-0.3-0.03-0.61-0.05-0.92-0.07c-0.14-0.01-1.18,0.04-1.04,0.11c-0.52-0.24-1.02-1.77-1.2-2.22
				c-0.74-1.82-1.04-3.8-0.79-5.76c0.39-2.94,2.01-5.43,4.04-7.51c0.27-0.27,0.02-0.63-0.31-0.65c-3.06-0.18-6.16-0.05-9.22,0.13
				c-7.8,0.46-15.57,1.62-23.18,3.36c-10.78,2.46-21.3,6.14-31.23,11.01c-12.04,5.92-23.17,13.63-32.91,22.86
				c-11.85,11.24-21.5,24.65-28.9,39.18C123.33,236.86,122.34,238.93,121.38,241.02c-0.3,0.66,0.98,0.66,1.22,0.15
				c6.97-15.16,16.19-29.29,27.83-41.28c9.53-9.82,20.6-18.1,32.69-24.5c9.87-5.23,20.38-9.21,31.21-11.95
				c7.89-2,15.96-3.35,24.08-3.96c2.48-0.19,4.97-0.31,7.45-0.33c0.68-0.01,1.73,0,2.19,0.01c0.29,0.01,0.91,0.15,1.18,0.04
				c0.03-0.01,0.11,0.01,0.15,0.01c-0.1-0.22-0.21-0.43-0.31-0.65c-3.4,3.49-5.3,8.13-3.83,12.95c0.33,1.09,0.8,2.33,1.52,3.24
				c0.17,0.22,0.24,0.31,0.53,0.42c0.62,0.23,1.64,0.08,2.31,0.14c0.64,0.06,1.28,0.14,1.92,0.25c2.15,0.37,5.32,1.37,3.79,4.07
				c-1.23,2.16-3.6,3.76-5.61,5.12c-4.68,3.17-11.62,5.62-11.31,12.37c0.15,3.31,1.88,6.22,2.75,9.36c0.8,2.9,0.09,6.41-3.23,7.32
				c-2.88,0.8-5.87-1.56-7.84-3.37c-2.85-2.63-5.18-5.85-7.17-9.15c-1.53-2.54-3.16-5.34-3.82-8.27c-0.71-3.18,1.09-5.87,2.87-8.31
				c1.61-2.21,3.41-4.72,2.44-7.59c-0.64-1.88-2.1-3.39-3.56-4.66c-1.72-1.5-3.74-3.24-6.13-3.4c-3.85-0.26-6.77,3.23-9.04,5.84
				c-1.23,1.41-2.6,3.49-4.28,4.39c-1.09,0.59-2.7,0.3-3.88,0.22c-2.66-0.17-6.38-0.66-8.31,1.66c-1.69,2.03-1.03,5.65-0.43,8.02
				c1.56,6.2,8.26,6.81,13.69,6.81c2.83,0,5.67-0.21,8.49-0.48c-0.18-0.18-0.37-0.36-0.55-0.54c-1.8,3.06-5.22,5.43-8.07,7.43
				c-3.25,2.29-6.83,4.66-10.95,4.67c-4.84,0.01-9.29-2.5-14.2-1.61c-3.16,0.57-5.81,2.53-7.18,5.46c-1.41,3.02-1.47,6.57-0.82,9.79
				c0.36,1.77,0.96,3.48,1.77,5.09c0.29,0.56,0.62,1.47,1.17,1.81c0.67,0.41,2.04,0.48,2.8,0.56c3.29,0.37,6.01-0.88,7.84-3.64
				c1.27-1.92,2-4.12,2.83-6.26c0.56-1.44,1.11-3.02,2.07-4.25c1.03-1.31,2.41-1.5,3.99-1.27c2.22,0.32,4.42,1.17,6.48,2.03
				c1.98,0.83,4.07,1.89,5.47,3.57c1.56,1.88,1.58,4.1,0.63,6.28c-0.12,0.28,0.11,0.51,0.39,0.54c1.42,0.15,3.72,0.29,4.42,1.79
				c0.74,1.6-0.56,4.11-1.74,5.17c-2.8,2.52-7.12,2.46-10.3,4.36c-0.21,0.12-0.4,0.28-0.36,0.55c0.56,3.5-0.23,6.67-3.71,8.11
				c-2.98,1.23-6.35,1.32-9.49,1.88c-1.45,0.26-2.91,0.59-4.26,1.19c-0.44,0.2-1.27,0.48-1.5,0.94c-0.32,0.63-0.03,1.84,0.04,2.52
				c0.21,2.21,0.62,4.4,0.82,6.61c0.18,2.05,0.33,4.49-0.71,6.35c-1.3,2.33-4.57,2.67-6.96,2.85c-2.53,0.19-5.08,0.06-7.61,0.31
				c-0.3,0.03-0.63,0.19-0.7,0.51c-0.68,3.23-2.21,9.78,2.33,10.99c2.2,0.59,4.54-1.01,6.58,0.27c2.59,1.61,3.45,4.23,2.09,6.99
				c-0.37,0.75-0.66,1.22-1.5,1.16c-0.75-0.05-1.47-0.26-2.23-0.27c-1.01-0.02-2.01,0.19-3.02,0.25c-1.25,0.07-2.51-0.01-3.74-0.23
				c-4.23-0.74-7.8-3.19-11.41-5.34c-4.18-2.49-8.49-4.25-13.43-4.18c-0.26,0-0.69,0.21-0.7,0.51c-0.12,3.25,0.17,6.62,0.97,9.77
				c0.73,2.9,2.07,6.12,5.49,6.29c3.19,0.15,9.62-3.27,10.91,1.48c0.56,2.05-0.23,4.3,0.05,6.39c0.26,2,0.82,4,1.75,5.79
				c1.95,3.76,5.73,6.16,8.63,9.11c0.1-0.22,0.2-0.44,0.3-0.66c-5.62,3.09-10.09-3.96-13.64-7.25c-2.17-2.01-4.88-3.23-7.41-4.7
				c-2.47-1.44-4.85-3.04-6.73-5.23c-2.37-2.75-4.14-6.07-4.69-9.67c-0.3-1.96-0.39-3.96-0.84-5.9c-0.34-1.48-1.2-2.83-1.34-4.35
				c-0.08-0.85-0.09-1.43-0.71-2.08c-1.04-1.09-2.14-1.55-3.62-1.61c-0.92-0.04-1.89,0.02-2.69-0.53c-0.79-0.53-1.42-1.36-1.83-2.21
				c-0.76-1.56-0.85-3.36-0.65-5.06c0.29-2.52,1.24-4.77,2.29-7.06c0.6-1.31,1.23-2.6,1.97-3.84c0.3-0.51,0.62-1.02,1-1.49
				c0.15-0.18,0.58-0.62,0.58-0.62c0.48,0.09,1.32-0.69,0.59-0.89c-2.23-0.62-4.99-0.76-5.79-3.31c-0.92-2.94-0.68-6.83,0.53-9.65
				C122.88,240.49,121.6,240.49,121.38,241.02z"/>
		</g>
	</g>
	<g>
		<path class="st9" d="M165.88,316.97c0,0,16.86-0.73,19.6,10.77c0,0,2.74,1.64,7.66-2.19c0,0,16.42-1.64,12.59,15.87
			c0,0,13.14-8.21,14.23,6.02c0,0,18.61-10.4,18.61,4.93c0,0-10.4,2.19-7.66,18.06c0,0,2.74,10.4-3.28,6.02c0,0-5.47-1.64-5.47,5.47
			c0,0-9.85,2.73-7.66,16.42c0,0-0.55,4.93-6.02,0c0,0-4.38,9.31,10.95,19.16c0,0-4.93,19.7-20.25-13.13c0,0-10.4-3.29-9.85-18.06
			c0,0,1.64-10.4-6.57-11.49c0,0-13.68-1.1-10.95-14.78c0,0,1.64-8.21-4.93-8.21c0,0-19.7-8.21-3.28-12.04c0,0-6.02-10.4-1.64-14.78
			C161.94,325,164.34,322.63,165.88,316.97z"/>
		<g>
			<path class="st16" d="M165.63,317.33c2.81-0.12,5.71,0.28,8.41,1c2.34,0.62,4.66,1.59,6.58,3.09c0.97,0.76,1.85,1.66,2.55,2.68
				c0.38,0.54,0.7,1.12,0.97,1.73c0.26,0.59,0.34,1.43,0.67,1.95c0.61,0.99,2.68,0.71,3.64,0.51c1.57-0.33,3.02-1.08,4.33-1.98
				c0.18-0.12,0.68-0.58,0.28-0.4c0.01-0.01,0.04,0,0.05,0c0.17-0.06,0.08,0,0.21-0.01c2.48-0.21,5.24,0.36,7.42,1.54
				c5.19,2.8,5.45,8.93,4.35,14.09c-0.1,0.47,0.86,0.2,1.03,0.1c1.79-1.11,3.95-1.95,6.05-2.15c1.67-0.15,3.36,0.21,4.62,1.39
				c1.83,1.71,2.33,4.39,2.53,6.77c0.03,0.38,0.88,0.1,1.03,0.01c1.82-1.01,3.8-1.81,5.78-2.42c3-0.91,7.04-1.67,9.59,0.69
				c1.81,1.67,2.19,4.3,2.21,6.64c0.18-0.16,0.37-0.32,0.55-0.48c-4.79,1.03-7.79,5.9-8.46,10.42c-0.39,2.64-0.29,5.5,0.25,8.12
				c0.17,0.83,0.37,1.64,0.48,2.48c0.13,1,0.5,3.03-0.28,3.89c-0.61,0.68-1.98-0.75-2.78-0.93c-1.19-0.27-2.58-0.08-3.65,0.5
				c-2.01,1.08-2.49,3.36-2.53,5.48c0.18-0.13,0.37-0.26,0.55-0.39c-2,0.57-3.86,1.92-5.22,3.45c-1.37,1.54-2.32,3.42-2.82,5.41
				c-0.33,1.3-0.47,2.64-0.49,3.98c-0.01,0.77,0.02,1.54,0.1,2.31c0.05,0.56,0.24,1.19,0.21,1.74c-0.03,0.47-0.3,1.15-0.66,1.45
				c-1.14,0.93-3.37-1.21-4.11-1.86c-0.33-0.29-1.06-0.03-1.23,0.33c-1.64,3.54,0.03,8.1,2.03,11.08c1.24,1.85,2.79,3.47,4.47,4.92
				c1.05,0.9,2.15,1.74,3.28,2.52c0.2,0.14,1.13,0.62,1.15,0.7c0.1,0.48-0.53,1.55-0.73,1.97c-0.96,2.06-2.6,4.08-5.08,3.1
				c-2.28-0.9-4.03-3.05-5.46-4.94c-2.98-3.95-5.27-8.44-7.38-12.9c-0.38-0.81-0.37-0.75-1.05-1.04c-0.72-0.32-1.42-0.71-2.07-1.16
				c-2.35-1.61-4.19-3.92-5.35-6.52c-1.41-3.19-1.95-6.87-1.65-10.33c0.19-2.23,0.09-4.56-0.76-6.65c-0.55-1.36-1.42-2.57-2.63-3.41
				c-1.02-0.7-2.67-1.17-3.54-1.29c-1.46-0.2-2.89-0.55-4.25-1.13c-2.45-1.04-4.62-2.78-5.75-5.24c-1.34-2.89-0.89-5.76-0.53-8.79
				c0.26-2.19,0.1-4.9-1.6-6.52c-1.08-1.03-2.24-1.02-3.56-1.27c-0.47-0.09-1-0.44-1.43-0.65c-2.19-1.04-11.01-5.31-7.43-8.65
				c1.34-1.25,3.44-1.71,5.16-2.13c0.12-0.03,0.68-0.26,0.55-0.48c-1.8-3.12-3.42-7.07-3.22-10.73c0.06-1.16,0.35-2.35,1.05-3.3
				c0.3-0.41,0.68-0.76,0.99-1.17c1.7-2.19,2.73-4.88,3.47-7.52c0.12-0.44-1.15-0.26-1.27,0.16c-0.75,2.67-1.79,5.44-3.59,7.6
				c-1.18,1.4-1.88,2.74-1.94,4.65c-0.11,3.65,1.43,7.51,3.23,10.64c0.18-0.16,0.37-0.32,0.55-0.48c-2.2,0.53-5.91,1.34-6.91,3.74
				c-0.7,1.69,0.77,3.31,1.95,4.34c1.63,1.42,3.55,2.51,5.46,3.48c0.64,0.33,1.29,0.65,1.96,0.93c0.66,0.28,1.33,0.2,2.03,0.38
				c2.72,0.7,3.43,3.65,3.34,6.12c-0.08,2.26-0.71,4.4-0.45,6.69c0.57,4.99,4.39,8.24,9.01,9.53c1.19,0.33,2.43,0.38,3.61,0.71
				c2.98,0.83,4.57,3.47,5.08,6.37c0.27,1.56,0.2,3.07,0.08,4.63c-0.28,3.66,0.42,7.65,2.09,10.93c1.11,2.18,2.69,4.11,4.66,5.57
				c0.65,0.48,1.33,0.91,2.04,1.27c0.33,0.17,0.84,0.27,1.12,0.49c0.38,0.3,0.75,1.6,0.97,2.07c0.58,1.18,1.17,2.36,1.79,3.52
				c0.98,1.84,2.01,3.66,3.14,5.41c1.51,2.34,3.2,4.73,5.42,6.46c2.19,1.71,5.02,2.3,7.28,0.35c1.32-1.14,2.34-2.98,2.76-4.67
				c0.03-0.12,0.07-0.24,0.1-0.36c0.03-0.11-0.05-0.17-0.13-0.22c-4.78-3.11-9.82-7.4-11.11-13.23c-0.4-1.79-0.5-3.98,0.29-5.7
				c-0.41,0.11-0.82,0.22-1.23,0.33c1.53,1.34,3.98,3.24,6.05,1.78c1.23-0.87,1.19-2.06,1.04-3.38c-0.57-5.01,0.56-10.51,4.92-13.54
				c0.54-0.37,1.11-0.71,1.71-0.97c0.31-0.14,0.52-0.21,0.63-0.24c0.14-0.04,0.55-0.18,0.55-0.39c0.03-1.8,0.34-4.47,2.41-5.08
				c0.69-0.2,1.51-0.17,2.12,0.14c1.19,0.61,2.39,1.46,3.73,0.66c0.97-0.58,1.11-1.78,1.12-2.81c0.03-2.8-0.93-5.55-1.05-8.35
				c-0.18-3.91,0.57-8.16,3.35-11.1c1.11-1.18,2.7-2.29,4.19-2.61c0.23-0.05,0.56-0.21,0.55-0.48c-0.02-2.27-0.38-4.74-1.98-6.47
				c-1.17-1.27-2.83-1.87-4.52-2.03c-3.59-0.35-7.3,0.88-10.54,2.3c-0.88,0.38-1.76,0.79-2.6,1.26c0.34,0,0.69,0.01,1.03,0.01
				c-0.21-2.52-0.8-5.4-2.84-7.11c-1.41-1.19-3.26-1.54-5.06-1.42c-2.55,0.17-5.19,1.15-7.36,2.5c0.34,0.03,0.69,0.07,1.03,0.1
				c0.98-4.62,1.04-10.17-2.95-13.43c-2.35-1.92-5.47-2.66-8.45-2.75c-0.6-0.02-1.32-0.09-1.91,0.08c-0.83,0.23-1.55,1.04-2.31,1.47
				c-0.82,0.46-1.71,0.84-2.65,0.97c-0.44,0.06-1.66,0.2-2.04-0.21c-0.14-0.16-0.23-0.94-0.34-1.25c-0.24-0.66-0.55-1.3-0.9-1.91
				c-0.61-1.03-1.37-1.96-2.26-2.77c-1.79-1.62-4-2.73-6.28-3.48c-3.21-1.05-6.76-1.6-10.15-1.46
				C165.66,316.64,164.77,317.36,165.63,317.33z"/>
		</g>
	</g>
	<g>
		<path class="st9" d="M327.22,182.16c0,0-4.32,7.49-8.7,7.2c0.54,1.32-0.06,2.28,1.14,3.64c-1.72,2.38-4.91,1.88-7.68,1.67
			c-1.06-4.04,4.5-6.23,3.69-8.82c-0.84-2.68-8.47-3.19-10.88-3.68c-3.96-0.81-5.08-2.05-7.25,2.06c-1.5,2.85-4.79-0.78-3.49,8.41
			c-3.85,6.5-7.87,13.07,2.6,11.4c6.75-1.08,12.38,3.08,13.27-4.29c1.8,0.7,1.71,4.24,2.47,4.96c3.98,3.82-1.32,10.22-5.09,10.85
			c-1.79,0.29-17.65-2.59-17.74-2.1c-0.79,4.33-5.19,6.59-8.76,3.78c-1.25-0.99-0.08-3.81-2.14-4.99c-1.01-0.58-4.37,0.07-5.54,0.12
			c-0.83,5.05,2.73,9.62,7.5,10.94c0.29,5.4,3.33,13.99-4.75,14.24c-0.65,0.02,0.04,6.84,0.72,7.69c1.84,2.32,6.33,2.21,8.95,1.97
			c0.52-1.56,1.95-2.87,2.34-4.29c1.27-4.65,3.2-6.33,3.77-7.24c1.46-2.38,0.71-3.58,3.79-2.6c2.86,0.91,1.75,1.92,3.47,4.38
			c6.79,9.71,20.48,5.47,15.79-6.46c5.35-3.73,13.28-3.95,20.11-3.39c7.51,0.61,10.69,3.52,10.42,10.74
			c-3.98,0.97-13.49-2.7-16.79,0.29c-1,0.91-1.08,3.08-0.65,4.29c1.27,3.53,2.15,2.27,5.59,3.29c4.01,1.18,3.27-0.54,4.79,3.72
			c0.63,1.77,1.22,5.43,0.56,7.34c-2.6,7.62-7.57-2.06-14.14-0.13c-4.37,1.29-9.82,5.34-13.76-1.08c-3.62-5.9,0.16-12.04-8.9-8.74
			c-2.26,0.82-5.05-0.85-7.51-0.56c-4.17,0.49-3.22,1.96-6.57,3.32c-3.96,1.62-11.9,1.73-8.93,8.6c-11.05,2.04-10.4,7.9-11.35,17.09
			c-0.57,5.55-6.91,12.41-3.73,18.49c1.3,2.49,0.87,2.59,2.53,5.15c2.34,3.63,3.81,9.43,9.41,10.29c5.8,0.89,5-2.16,7.64-3.95
			c2.72-1.85,5.35-0.44,5.03,4.96c4.12,0.22,8.34-5.6,12.49-5.39c6.29,0.32-0.11,4.87,5.61,8.08c4.44,2.5-0.12,14.54-0.12,22.69
			c0,4.56,0.56,9.27,1.12,13.54c0.56,4.23,4.31,7.94,4.35,12.61c0.05,5.11-5.51,7.9-6.84,12.62c-1.09,3.88,0.82,9.28,3.63,13.02
			c5.9,1.13,13.04-7.3,14.72-11.4c1.09-2.65,2.88-7.73,5.43-9.35c2.76-1.76,4.41,0.11,7.57-0.51c4.18-0.81,9.46-0.73,12.83-2.64
			c2.81-1.6,3.66-3.46,6.26-5.02c6.83-4.09,6.38-8.11,5.46-15.79c-4.67-0.25-6.68,5-8.75,8.13c-1.86,2.81-3.24,8.84-9.58,7.03
			c-4.54-6.3,1.58-17.22,5.3-21.42c3.95-4.46,7.07-9.98,7.76-15.83c0.29-2.46-0.24-5.04-0.01-7.52c0.47-5.04-0.15-3.18,3.31-5.92
			c2.46-1.95,3.58-0.21,4.35-3.95c0.54-2.65-0.31-4.4-2.07-6.17c-4.22-4.25-10.24-0.71-13.85-7.52c-2.11-3.99-4.98-12.92,0.17-14.22
			c7.71-1.96,6.2,7.84,9.2,11.49c2.3,2.81,12.02,4.99,14.65,0.97c2.59-3.96-1.05-9.72-3.29-12.31c-3.56-4.11-6.62-4.99-5.81-11.02
			c2.71-0.89,4.81,0.47,7.27,1.37c3.55,1.29,3.15,1.17,4.77,4.48c2.54,5.17,7.62,9.17,8.68,15.04c0.98,5.47-0.37,9.59,6.6,10.77
			c-0.74-0.12-3.26-24.22-4.08-27.44c-1.65-6.46-2.8-12.84-5.06-19.1c-5.84-16.15-16.15-31.63-27.32-44.68
			C345.76,196.63,327.22,182.16,327.22,182.16z"/>
		<g>
			<path class="st16" d="M326.6,182.27c-0.6,1.04-1.31,2.02-2.07,2.95c-1.31,1.61-3.32,3.95-5.59,3.88c-0.15,0-1.15,0.15-1.05,0.43
				c0.33,0.96,0.3,1.97,0.65,2.93c0.31,0.87,0.06,1.34-0.77,1.75c-0.77,0.38-1.69,0.4-2.52,0.39c-0.78-0.01-2.52,0.19-2.72-0.67
				c-0.19-0.8,0.15-1.74,0.51-2.44c0.88-1.69,4.63-4.34,2.92-6.48c-0.84-1.05-2.38-1.49-3.62-1.83c-1.63-0.45-3.31-0.7-4.98-0.94
				c-1.47-0.22-2.9-0.53-4.35-0.87c-1.12-0.27-2.22-0.44-3.33-0.02c-1.39,0.53-2.03,1.78-2.76,2.98c-0.45,0.73-0.92,0.94-1.69,1.23
				c-2.13,0.8-2.21,2.75-2.08,4.81c0.03,0.51,0.12,1.02,0.14,1.54c0.04,0.84-0.09,1.19-0.49,1.87c-0.45,0.76-0.9,1.53-1.33,2.3
				c-0.73,1.33-1.47,2.7-1.88,4.17c-0.66,2.32,0.18,3.95,2.67,4.24c2.22,0.26,4.39-0.4,6.6-0.39c1.92,0,3.81,0.34,5.72,0.4
				c1.33,0.04,2.77-0.1,3.92-0.82c1.42-0.89,1.84-2.54,2.05-4.11c-0.41,0.13-0.83,0.26-1.24,0.39c1.9,0.9,1.38,3.48,2.47,4.96
				c0.74,1.01,1.33,1.73,1.37,3.04c0.04,1.23-0.41,2.44-1.04,3.48c-0.96,1.6-2.96,3.85-5,3.87c-1.44,0.01-2.92-0.29-4.35-0.48
				c-3.68-0.51-7.35-1.15-11.04-1.57c-0.69-0.08-2.03-0.37-2.63,0.15c-0.25,0.22-0.08,0.09-0.24,0.5c-0.25,0.64-0.39,1.27-0.74,1.87
				c-0.81,1.4-2.22,2.56-3.92,2.42c-1.41-0.11-3.07-0.88-3.37-2.36c-0.23-1.1-0.11-2.3-0.86-3.22c-1.41-1.74-4.71-0.63-6.56-0.51
				c-0.23,0.01-0.87,0.12-0.91,0.42c-0.62,4.33,1.84,8.43,5.73,10.31c0.39,0.19,0.82,0.3,1.21,0.5c0.48,0.24,0.51,0.32,0.61,0.84
				c0.16,0.82,0.19,1.69,0.3,2.52c0.22,1.61,0.45,3.22,0.45,4.85c0,1.43-0.18,2.99-1.05,4.18c-0.52,0.7-1.25,1.18-2.1,1.4
				c-0.67,0.17-1.72-0.04-2.3,0.43c-0.6,0.48-0.37,1.79-0.34,2.45c0.08,1.51,0.22,3.08,0.62,4.55c0.96,3.56,6.85,3.16,9.64,2.92
				c0.21-0.02,0.81-0.12,0.9-0.37c0.35-0.92,0.9-1.7,1.43-2.52c0.56-0.85,0.85-1.67,1.16-2.63c0.5-1.58,1.17-3.1,2.1-4.47
				c0.51-0.75,1.14-1.42,1.58-2.2c0.32-0.56,0.53-1.17,0.82-1.75c0.38-0.75,0.6-0.53,1.47-0.26c1.57,0.49,2.05,1.15,2.61,2.59
				c0.53,1.37,1.44,2.57,2.46,3.62c1.81,1.86,4.19,3.19,6.78,3.52c4.22,0.54,8.82-1.63,9.59-6.12c0.22-1.28,0.13-2.59-0.15-3.85
				c-0.11-0.52-0.75-1.75-0.53-2.22c0.13-0.29,1.24-0.74,1.48-0.86c0.51-0.26,1.04-0.49,1.57-0.7c4-1.53,8.45-1.73,12.69-1.57
				c3.48,0.13,7.63,0.22,10.49,2.5c2.52,2.01,2.95,5.32,2.86,8.34c0.25-0.13,0.5-0.27,0.76-0.4c-2.13,0.47-4.53-0.11-6.65-0.41
				c-2.19-0.31-4.44-0.66-6.66-0.49c-1.49,0.12-3.42,0.49-4.41,1.72c-1.32,1.64-0.76,4.6,0.52,6.09c1.02,1.18,2.99,0.97,4.38,1.33
				c0.91,0.24,1.8,0.46,2.73,0.6c0.53,0.08,0.92,0.11,1.26,0.55c0.46,0.6,0.66,1.55,0.9,2.26c0.43,1.23,0.72,2.49,0.87,3.78
				c0.14,1.26,0.22,2.62-0.17,3.84c-0.23,0.74-0.81,2.33-1.69,2.59c-0.63,0.18-1.62-0.34-2.17-0.6c-0.86-0.41-1.67-0.89-2.52-1.32
				c-1.63-0.83-3.37-1.5-5.23-1.43c-4.36,0.16-8.96,4.8-13.11,1.51c-1.97-1.56-3-4.06-3.53-6.45c-0.32-1.44-0.35-3.27-1.22-4.52
				c-0.8-1.15-2.28-1.13-3.53-0.94c-1.33,0.21-2.62,0.92-3.93,1.04c-1.61,0.15-3.24-0.58-4.82-0.76c-2.13-0.24-4.51,0.28-6.17,1.68
				c-0.98,0.83-1.9,1.52-3.13,1.95c-0.99,0.35-2.02,0.58-3.02,0.87c-1.77,0.5-3.75,1.05-5.14,2.33c-1.63,1.51-1.38,3.59-0.59,5.49
				c0.25-0.13,0.5-0.27,0.76-0.4c-4.85,0.93-9.42,2.89-10.86,7.99c-0.66,2.33-0.81,4.79-1.02,7.2c-0.14,1.58-0.26,3.13-0.75,4.65
				c-0.51,1.59-1.22,3.12-1.89,4.65c-1.27,2.9-2.67,6.15-2.05,9.38c0.3,1.54,1.17,2.9,1.74,4.34c0.51,1.29,1.24,2.41,1.94,3.61
				c1.39,2.37,2.4,5,4.28,7.05c1.98,2.16,4.94,3.1,7.84,2.74c1.01-0.13,2.03-0.45,2.82-1.12c0.78-0.66,1.24-1.61,1.91-2.36
				c0.96-1.07,2.41-1.89,3.62-0.71c1.26,1.23,1.26,3.4,1.19,5.02c0,0.07,0.2,0.09,0.22,0.09c2.69,0.05,4.99-1.5,7.14-2.93
				c1.32-0.88,2.7-1.94,4.26-2.33c1.14-0.29,3.25-0.22,3.78,1.08c0.32,0.79,0.07,1.76,0.07,2.58c0,1.07,0.26,2.05,0.95,2.88
				c0.8,0.96,2.1,1.32,2.77,2.38c0.57,0.89,0.75,2,0.82,3.03c0.2,3.08-0.45,6.22-0.95,9.24c-0.5,3.04-1.06,6.11-1.08,9.21
				c-0.04,4.36,0.48,8.72,1.04,13.03c0.46,3.52,2.49,6.31,3.69,9.57c0.61,1.66,0.97,3.48,0.58,5.23c-0.31,1.42-1.09,2.7-1.95,3.85
				c-1.72,2.33-4.01,4.44-4.76,7.33c-0.84,3.26,0.24,6.85,1.71,9.76c0.53,1.04,1.31,3.17,2.59,3.31c1.11,0.12,2.23-0.05,3.3-0.36
				c4.95-1.46,9.32-6.1,11.63-10.59c1.3-2.53,2.03-5.3,3.57-7.72c1.07-1.69,2.43-3.12,4.6-2.86c1.39,0.17,2.68,0.44,4.08,0.25
				c3.55-0.5,7.29-0.73,10.75-1.69c1.5-0.42,2.91-1.03,4.19-1.93c1.28-0.91,2.32-2.09,3.51-3.11c2.26-1.95,5.01-3.03,6.57-5.73
				c1.19-2.05,1.31-4.46,1.18-6.78c-0.09-1.57-0.29-3.13-0.47-4.68c-0.01-0.08-0.19-0.09-0.22-0.09c-2.92-0.08-5.18,1.47-6.85,3.77
				c-1.63,2.25-3.01,4.76-4.31,7.22c-0.6,1.15-1.25,2.31-2.18,3.23c-0.52,0.51-1.14,0.97-1.85,1.16c-0.9,0.24-2.52,0.26-3.17-0.51
				c-0.98-1.16-1.28-3.12-1.34-4.57c-0.08-1.82,0.26-3.63,0.78-5.37c0.97-3.24,2.58-6.32,4.55-9.07c0.98-1.37,2.13-2.58,3.16-3.91
				c1.37-1.77,2.59-3.65,3.59-5.65c0.99-1.97,1.76-4.06,2.23-6.22c0.49-2.27,0.42-4.48,0.31-6.78c-0.08-1.83,0.02-3.7,0.25-5.53
				c0.11-0.9,0.39-1.23,1.13-1.72c1.21-0.81,2.28-1.82,3.68-2.26c0.88-0.28,1.64-0.59,2.09-1.44c1.67-3.17,0.22-6.79-2.52-8.76
				c-2.45-1.76-5.54-1.57-8.29-2.54c-3.32-1.18-4.9-4.31-6.02-7.43c-0.92-2.56-1.94-5.97-0.89-8.64c1.16-2.94,5.11-2.57,6.66-0.23
				c1.32,2,1.62,4.54,2.32,6.78c0.73,2.34,1.85,3.84,4.13,4.85c3.91,1.73,12.19,2.93,13.86-2.52c1.04-3.4-0.99-7.14-2.96-9.8
				c-0.98-1.32-2.12-2.49-3.3-3.64c-1.08-1.05-2.22-2.11-2.9-3.47c-0.79-1.6-0.78-3.38-0.57-5.11c-0.2,0.12-0.39,0.24-0.59,0.36
				c2.24-0.65,4.26,0.49,6.31,1.27c1.1,0.42,2.48,0.71,3.36,1.55c0.77,0.73,1.15,1.91,1.6,2.84c0.79,1.61,1.79,3.1,2.85,4.55
				c2.04,2.79,4.33,5.51,5.44,8.84c0.87,2.62,0.65,5.4,1.3,8.06c0.72,2.93,3.09,4.1,5.88,4.6c0.25,0.05,1.3-0.39,1.12-0.46
				c-0.28-0.11-0.38-1.37-0.43-1.62c-0.24-1.32-0.43-2.64-0.62-3.97c-0.53-3.71-0.99-7.44-1.46-11.16
				c-0.39-3.06-0.75-6.14-1.25-9.19c-0.29-1.74-0.77-3.43-1.18-5.14c-0.79-3.35-1.54-6.71-2.46-10.02
				c-3.49-12.54-9.97-24.26-17.33-34.92c-3.63-5.26-7.55-10.35-11.73-15.19c-2.83-3.28-6.02-6.25-9.23-9.14
				c-5.41-4.87-11.01-9.54-16.75-14.02c-0.27-0.21-1.38,0.29-1.2,0.43c4.88,3.81,9.65,7.77,14.3,11.85c3.36,2.94,6.68,5.95,9.76,9.2
				c4.09,4.31,7.74,9.11,11.23,13.91c7.58,10.46,14.29,21.89,18.43,34.18c1.1,3.26,1.94,6.6,2.73,9.95c0.65,2.73,1.38,5.46,1.95,8.2
				c0.56,2.7,0.83,5.47,1.18,8.2c0.54,4.18,1.05,8.36,1.63,12.54c0.21,1.5,0.42,3,0.69,4.5c0.06,0.32,0.14,1.7,0.53,1.85
				c0.37-0.15,0.75-0.31,1.12-0.46c-2.9-0.53-5.1-1.77-5.73-4.79c-0.62-2.94-0.43-5.93-1.61-8.76c-1.45-3.46-4.05-6.25-6.13-9.33
				c-0.97-1.43-1.7-2.94-2.47-4.47c-0.39-0.78-0.8-1.46-1.58-1.91c-1.54-0.89-3.42-1.43-5.07-2.04c-1.78-0.66-3.47-0.83-5.3-0.3
				c-0.17,0.05-0.56,0.14-0.59,0.36c-0.24,1.97-0.18,3.96,0.89,5.68c0.88,1.41,2.18,2.51,3.35,3.67c2.8,2.79,5.76,6.67,5.76,10.83
				c0,1.95-0.92,3.88-2.83,4.56c-1.71,0.61-3.74,0.4-5.48,0.06c-2.92-0.58-5.81-1.71-6.98-4.63c-1.02-2.55-1.17-5.51-2.67-7.85
				c-1.47-2.3-4.17-2.51-6.59-1.69c-2.97,1-3.32,4.04-2.92,6.77c0.46,3.24,1.71,7.1,3.88,9.62c2.42,2.8,5.89,2.65,9.16,3.64
				c4,1.21,7.13,5.64,4.94,9.75c-0.59,1.12-2.4,1.24-3.42,1.94c-0.93,0.65-2.19,1.34-2.97,2.17c-0.59,0.63-0.54,1.63-0.61,2.44
				c-0.21,2.63,0.01,5.19-0.04,7.81c-0.1,5.2-2.58,10.29-5.6,14.4c-1.2,1.64-2.62,3.09-3.79,4.75c-1.09,1.52-2.05,3.15-2.87,4.83
				c-1.63,3.35-2.97,7.31-2.33,11.09c0.15,0.88,0.42,1.75,0.83,2.55c0.51,1.01,0.79,1.2,1.93,1.36c1.4,0.2,2.84,0.03,4.12-0.57
				c2.63-1.24,3.66-4.02,5-6.39c0.8-1.4,1.65-2.79,2.51-4.15c1-1.59,2.29-3.5,4.16-4.12c0.96-0.32,1.22-0.27,1.33,0.66
				c0.06,0.52,0.12,1.04,0.17,1.56c0.1,0.98,0.19,1.97,0.22,2.96c0.05,1.63-0.06,3.28-0.66,4.81c-0.65,1.64-1.82,2.97-3.2,4.05
				c-0.9,0.7-1.9,1.23-2.82,1.89c-0.87,0.63-1.64,1.37-2.41,2.11c-2.03,1.94-4.15,3.09-6.92,3.6c-2.37,0.44-4.78,0.59-7.17,0.96
				c-1.35,0.21-2.54,0.35-3.9,0.14c-0.84-0.13-1.66-0.28-2.51-0.21c-1.59,0.13-3.06,0.89-4.13,2.06c-2.49,2.74-3.19,6.45-4.92,9.61
				c-1.8,3.3-4.58,6.4-7.76,8.42c-0.88,0.56-1.82,1.06-2.83,1.32c-0.47,0.12-0.95,0.19-1.44,0.19c-0.91,0-1.15-0.4-1.62-1.12
				c-1.28-1.98-2.27-4.18-2.8-6.48c-0.5-2.19-0.56-4.49,0.37-6.57c0.79-1.76,2.09-3.23,3.3-4.72c1.17-1.45,2.36-2.99,2.86-4.82
				c0.55-2.01,0.12-4.1-0.62-6c-0.85-2.16-2.11-4.13-2.89-6.3c-0.85-2.36-0.95-5.03-1.21-7.5c-0.52-4.97-0.63-9.8,0.12-14.74
				c0.6-3.9,1.61-7.91,1.43-11.88c-0.06-1.29-0.27-2.72-1.15-3.73c-0.49-0.56-1.17-0.83-1.74-1.28c-0.74-0.58-1.3-1.32-1.53-2.24
				c-0.3-1.21,0.18-2.47-0.13-3.65c-0.32-1.24-1.72-1.49-2.83-1.58c-3.68-0.3-6.58,2.45-9.53,4.2c-0.6,0.36-2.71,1.72-3.1,0.82
				c-0.15-0.36,0-1.14-0.04-1.54c-0.06-0.57-0.16-1.14-0.35-1.68c-0.41-1.13-1.21-2.04-2.46-2.15c-2.72-0.25-4.23,1.87-5.73,3.7
				c-1.34,1.62-3.67,1.32-5.51,0.72c-1.88-0.62-3.33-2-4.44-3.6c-1.04-1.5-1.8-3.16-2.67-4.76c-0.83-1.53-1.81-2.94-2.46-4.57
				c-0.76-1.92-1.82-3.59-1.85-5.72c-0.03-2.18,0.72-4.3,1.54-6.29c0.8-1.94,1.75-3.83,2.43-5.83c0.58-1.71,0.72-3.44,0.88-5.23
				c0.27-3.04,0.39-6.35,1.84-9.11c1.69-3.23,5.13-4.48,8.52-5.13c0.07-0.01,0.84-0.19,0.76-0.4c-0.76-1.84-1.07-3.96,0.63-5.38
				c1.41-1.18,3.4-1.56,5.12-2.04c1.68-0.46,3.39-0.94,4.82-1.97c0.7-0.51,1.28-1.22,2.05-1.61c1.69-0.86,3.6-0.44,5.35-0.06
				c1.13,0.25,2.27,0.47,3.43,0.31c1.37-0.19,2.61-0.9,4-1.06c1.71-0.2,2.57,0.7,2.98,2.26c1.03,3.85,1.43,8.88,5.82,10.52
				c1.74,0.65,3.66,0.36,5.39-0.14c2.07-0.6,4.1-1.89,6.25-2.15c2.04-0.25,4.02,0.73,5.77,1.66c1.29,0.68,2.71,1.63,4.22,1.67
				c4.12,0.09,4.51-5.02,4.05-8.01c-0.18-1.17-0.49-2.27-0.88-3.38c-0.24-0.66-0.42-1.54-0.89-2.08c-0.67-0.78-2.23-0.66-3.15-0.89
				c-1.11-0.28-2.19-0.52-3.32-0.69c-0.98-0.15-1.64-0.4-2.17-1.29c-1.35-2.27-1.35-5.86,1.8-6.36c4.74-0.75,9.56,1.82,14.26,0.78
				c0.17-0.04,0.75-0.14,0.76-0.4c0.08-2.68-0.22-5.57-2.09-7.65c-1.87-2.07-4.79-2.76-7.45-3.07c-7.24-0.85-15.86-0.71-22.11,3.53
				c-0.03,0.02-0.18,0.11-0.15,0.19c1.21,3.18,1.6,7.18-1.1,9.74c-2.52,2.39-6.36,1.89-9.17,0.3c-1.68-0.95-3.15-2.33-4.24-3.93
				c-0.82-1.19-0.99-3.04-2.24-3.86c-1.12-0.74-2.95-1.26-4.26-0.72c-1.21,0.5-1.39,2.09-2.03,3.09c-0.85,1.32-1.86,2.45-2.54,3.89
				c-0.62,1.29-0.88,2.71-1.47,4c-0.59,1.28-1.59,2.31-2.09,3.64c0.3-0.12,0.6-0.24,0.9-0.37c-1.56,0.13-3.13,0.19-4.68-0.04
				c-1.33-0.2-3.19-0.67-3.96-1.92c-0.43-0.71-0.5-1.74-0.62-2.54c-0.17-1.15-0.29-2.32-0.31-3.48c0-0.27,0.17-1.02,0.07-1.26
				c-0.01-0.02,0.05-0.12,0.04-0.13c0.04,0.04-0.44,0.09-0.43,0.21c0,0.01,0.97-0.11,1.09-0.13c1.03-0.18,2.07-0.52,2.93-1.13
				c1.68-1.2,2.09-3.26,2.11-5.21c0.03-2.75-0.63-5.45-0.8-8.19c-0.02-0.04-0.06-0.07-0.11-0.07c-4.74-1.4-8.1-5.86-7.38-10.87
				c-0.3,0.14-0.61,0.28-0.91,0.42c2.35-0.15,5.81-1.41,6.46,1.81c0.2,0.98,0.06,2.18,0.81,2.95c0.79,0.82,2.14,1.27,3.26,1.35
				c2.11,0.15,4.29-0.82,5.56-2.5c0.43-0.56,0.76-1.19,0.99-1.86c0.05-0.15,0.35-0.88,0.26-1.01c0.14,0.19-1.03,0.09-0.67,0.32
				c0.31,0.2,1.3,0.11,1.67,0.15c4.05,0.5,8.08,1.21,12.13,1.72c1.2,0.15,2.5,0.41,3.71,0.27c2.07-0.24,3.99-1.64,5.32-3.17
				c1.64-1.89,2.91-4.77,1.47-7.13c-0.3-0.49-0.78-0.85-1.03-1.36c-0.24-0.48-0.32-1.06-0.45-1.57c-0.29-1.15-0.64-2.49-1.8-3.05
				c-0.26-0.13-1.19,0.03-1.24,0.39c-0.18,1.31-0.52,3.02-1.78,3.75c-1.03,0.59-2.53,0.32-3.65,0.22c-1.44-0.13-2.88-0.3-4.32-0.29
				c-1.63,0.01-3.22,0.37-4.85,0.44c-2.1,0.09-4.34-0.47-4.05-2.98c0.28-2.43,1.84-4.78,3.05-6.84c0.28-0.48,0.88-1.17,1-1.71
				c0.08-0.35-0.12-0.98-0.16-1.33c-0.05-0.48-0.09-0.97-0.12-1.46c-0.05-1-0.12-2.27,0.43-3.17c0.57-0.93,1.89-0.89,2.68-1.59
				c0.84-0.74,1.13-1.91,1.89-2.73c0.93-1.01,2.15-0.45,3.33-0.16c2.45,0.61,4.97,0.8,7.43,1.35c1.99,0.44,6.2,1.52,4.56,4.37
				c-1.36,2.36-4.07,3.97-3.37,7.07c0.02,0.08,0.18,0.08,0.22,0.09c3.02,0.24,6.62,0.64,8.72-2.04c0-0.02,0.01-0.04,0.01-0.06
				c-0.9-1.15-0.69-2.34-1.14-3.64c-0.35,0.14-0.7,0.29-1.05,0.43c4.34,0.14,7.77-4.17,9.75-7.57
				C327.94,181.9,326.78,181.95,326.6,182.27z"/>
		</g>
	</g>
	<g>
		<path class="st9" d="M250.06,199.67c0,0,15.87,2.19,12.59-12.04c0,0-9.3-3.28-9.3,4.38C253.34,192.01,247.87,194.75,250.06,199.67
			z"/>
		<g>
			<path class="st16" d="M249.83,200.13c3.51,0.48,7.75,0,10.66-2.13c2.5-1.83,3.4-4.76,3.2-7.76c-0.03-0.47-0.08-0.94-0.16-1.41
				c-0.06-0.4-0.08-1.3-0.41-1.56c-0.15-0.12-0.42-0.16-0.59-0.2c-1-0.29-2.04-0.49-3.09-0.56c-1.56-0.1-3.2,0.06-4.55,0.91
				c-1.61,1.01-2.2,2.82-2.22,4.65c0.12-0.14,0.24-0.28,0.37-0.42c-1.04,0.53-2.01,1.32-2.75,2.21c-1.44,1.74-1.78,3.9-0.89,5.98
				c0.24,0.55,1.5,0.19,1.27-0.34c-0.81-1.88-0.59-3.81,0.75-5.37c0.61-0.71,1.5-1.42,2.17-1.76c0.15-0.07,0.36-0.23,0.37-0.42
				c0.02-1.97,0.72-3.85,2.78-4.38c1.44-0.37,3.04-0.17,4.46,0.18c0.35,0.09,0.7,0.18,1.04,0.3c-0.09-0.08-0.18-0.17-0.27-0.25
				c0.81,3.58,0.65,7.7-2.72,9.89c-2.09,1.35-4.91,1.69-7.2,1.65c-0.6-0.01-1.21-0.04-1.8-0.12
				C249.66,199.14,248.98,200.01,249.83,200.13z"/>
		</g>
	</g>
</g>
<g>
	<path class="st19" d="M387.63,318.01c0,0-8.12,9.99-7.85,22.51c0,0-16.23,10.61-7.49,28.72c0,0-0.62,5-9.36-1.25
		c0,0-46.82-10.61-49.95,14.98c0,0-43.08-6.24-28.09,23.1c0,0-18.73,6.87-8.74,24.97c0,0-7.27,2.61-2.07,7.24l52.64-20.97
		l56.19-28.09C382.9,389.21,408.85,315.51,387.63,318.01z"/>
	<g>
		<path class="st20" d="M405.61,380.6c0,0-0.57-14.41,4.32-23.57c0,0,6.72-16.49-1.22-23.21c0,0-9.16-19.55-20.77-14.05
			c0,0-4.89,19.55-1.83,21.38c0,0-17.1,11.61-7.94,29.93c0,0,1.83,7.33-6.11,6.11c0,0-50.09-20.16-55.59,9.16
			c0,0-27.49-4.28-29.93,8.55c0,0-1.83,10.39,6.11,15.27c0,0-13.44-1.22-14.05,7.33c0,0-1.22,10.39,3.05,15.88
			c0,0-14.05,3.05-8.55,12.83c0,0,13.44,12.83,18.94,13.44c0,0,18.33,2.44,21.38-3.67c0,0,15.88,9.16,20.16,7.33
			c0,0,10.39-3.67,12.83-9.16c0,0,3.05-8.55,1.22-13.44c0,0,6.11,0.61,10.39-1.22l28.37,60.5H500
			C500,500,413.86,390.68,405.61,380.6z"/>
		<g>
			<path class="st21" d="M406.7,380.31c-0.11-2.83,0.06-5.69,0.34-8.5c0.28-2.73,0.71-5.45,1.39-8.12c0.62-2.42,1.57-4.6,2.57-6.88
				c0.97-2.21,1.56-4.7,2.02-7.06c0.8-4.06,1.15-8.62-0.52-12.51c-0.39-0.91-0.9-1.77-1.54-2.54c-0.37-0.45-0.9-0.83-1.22-1.29
				c-0.44-0.63-0.73-1.43-1.12-2.1c-1.63-2.86-3.55-5.59-5.85-7.95c-2.53-2.58-5.73-4.8-9.45-4.99c-1.96-0.1-3.96,0.35-5.75,1.15
				c-0.88,0.39-0.81,0.85-1.02,1.73c-0.86,3.7-1.62,7.43-2.13,11.2c-0.26,1.94-0.49,3.93-0.4,5.89c0.04,1.01,0.1,2.52,1.05,3.14
				c0.07-0.12,0.13-0.24,0.2-0.36c-5.39,3.68-9.6,9.88-10.64,16.32c-0.46,2.82-0.29,5.71,0.4,8.48c0.42,1.68,1.03,3.32,1.77,4.88
				c0.22,0.46,0.32,0.75,0.39,1.25c0.17,1.34,0.06,2.88-0.83,3.97c-0.85,1.05-2.29,1.05-3.51,0.7c-1.66-0.48-3.28-1.2-4.92-1.74
				c-3.16-1.03-6.37-1.94-9.61-2.7c-7.96-1.87-16.4-3.05-24.55-1.76c-7.74,1.22-14.96,5.15-17.59,12.94
				c-0.35,1.03-0.61,2.09-0.81,3.16c0.66-0.23,1.32-0.46,1.98-0.69c-5.73-0.89-11.79-1.03-17.53-0.2
				c-3.84,0.55-7.97,1.58-11.06,4.05c-2.27,1.81-3.37,4.3-3.49,7.14c-0.23,5.33,1.68,10.65,6.33,13.6c0.64-0.25,1.28-0.51,1.92-0.76
				c-3.73-0.33-7.85,0.13-11.26,1.72c-2.25,1.05-4.12,2.76-4.64,5.28c-0.37,1.82-0.34,3.79-0.28,5.64c0.13,3.89,0.8,8.08,3.2,11.27
				c0.43-0.22,0.87-0.44,1.3-0.66c-3.31,0.73-6.95,2.19-9.27,4.73c-1.68,1.83-2.25,4.2-1.52,6.59c0.56,1.86,1.41,2.63,2.77,3.87
				c4.23,3.84,8.71,7.86,13.79,10.56c3.21,1.71,6.92,1.71,10.49,1.77c3.25,0.06,6.55-0.09,9.72-0.84c2.43-0.57,5.4-1.55,6.65-3.92
				c-0.7,0.19-1.4,0.37-2.1,0.56c2.25,1.3,4.58,2.5,6.92,3.62c3.44,1.65,7.22,3.51,11.07,3.94c2.76,0.31,4.79-0.76,7.31-1.97
				c3.52-1.69,8.22-4.16,9.79-7.99c0.62-1.52,0.97-3.22,1.28-4.82c0.56-2.82,0.93-5.93-0.05-8.7c-0.66,0.23-1.32,0.46-1.98,0.69
				c3.97,0.38,8.2,0,11.9-1.51c-0.57,0.06-1.14,0.12-1.7,0.18c3.21,6.85,6.43,13.71,9.64,20.56c5.08,10.83,10.15,21.65,15.23,32.48
				c1.17,2.49,2.33,4.97,3.5,7.46c0.06,0.12,0.27,0.13,0.37,0.13c3.76,0,7.52,0,11.28,0c9.03,0,18.06,0,27.09,0
				c10.97,0,21.95,0,32.92,0c9.45,0,18.9,0,28.35,0c4.59,0,9.2,0.13,13.79,0c0.07,0,0.13,0,0.2,0c0.19,0,2.03-0.42,1.8-0.71
				c-2.89-3.66-5.77-7.32-8.66-10.98c-6.99-8.87-13.99-17.74-20.99-26.62c-8.7-11.03-17.4-22.05-26.1-33.07
				c-7.91-10.01-15.82-20.03-23.75-30.03c-4.71-5.95-9.4-11.91-14.17-17.81C407.18,380.9,406.94,380.6,406.7,380.31
				c-0.4-0.49-2.29,0.44-2.17,0.58c4.25,5.19,8.38,10.48,12.55,15.74c7.67,9.68,15.33,19.37,22.99,29.06
				c8.74,11.07,17.48,22.14,26.22,33.21c7.33,9.29,14.65,18.58,21.98,27.86c2.37,3.01,4.74,6.02,7.11,9.02
				c1.09,1.38,2.12,3.11,3.4,4.32c0.06,0.05,0.1,0.12,0.15,0.18c0.6-0.24,1.2-0.47,1.8-0.71c-3.76,0-7.52,0-11.28,0
				c-9.03,0-18.06,0-27.09,0c-10.97,0-21.95,0-32.92,0c-9.45,0-18.9,0-28.35,0c-3.12,0-6.23,0-9.35,0c-0.97,0-1.93,0-2.9,0
				c-0.46,0-1.09-0.11-1.55,0c-0.06,0.01-0.14,0-0.2,0c0.12,0.04,0.25,0.08,0.37,0.13c-3.21-6.85-6.43-13.71-9.64-20.56
				c-5.08-10.83-10.15-21.65-15.23-32.48c-1.17-2.49-2.33-4.97-3.5-7.46c-0.2-0.42-1.44,0.07-1.7,0.18
				c-2.69,1.1-6.02,1.21-8.87,0.93c-0.26-0.03-2.15,0.21-1.98,0.69c1.39,3.96,0.27,8.7-0.95,12.58c-1.08,3.43-4.47,5.64-7.46,7.28
				c-1.37,0.75-2.79,1.42-4.24,1.99c-0.22,0.09-0.45,0.18-0.68,0.26c-0.75,0.25,0.21,0.02-0.18,0.03c-0.35,0.01-0.7-0.01-1.05-0.06
				c-3.61-0.45-7.14-2.17-10.38-3.72c-2.43-1.16-4.83-2.39-7.16-3.74c-0.44-0.25-1.86,0.11-2.1,0.56c-1,1.89-3.12,2.62-5.09,3
				c-2.53,0.49-5.14,0.56-7.72,0.52c-3.04-0.06-6.46,0.01-9.26-1.35c-4.75-2.32-8.94-6.03-12.87-9.51
				c-1.04-0.92-2.35-1.84-3.22-2.93c-1.32-1.65-1.64-4.53-0.85-6.46c0.89-2.15,2.92-3.61,4.96-4.57c0.74-0.35,1.65-0.7,2.35-0.91
				c0.13-0.04,0.5-0.14,0.72-0.2c0.23-0.06,0.42-0.1,0.07-0.02c0.04-0.01,1.49-0.4,1.3-0.66c-3.2-4.24-3.54-10.36-3.09-15.48
				c0.17-1.96,0.81-3.7,2.38-4.97c1.65-1.33,3.79-1.8,5.85-2.01c0.93-0.09,1.87-0.13,2.81-0.11c0.28,0,0.56,0.02,0.84,0.03
				c0.11,0.01,0.5,0.04,0.22,0.01c0.26,0.02,2.31-0.51,1.92-0.76c-4.1-2.6-6.03-7.06-6.22-11.79c-0.1-2.57,0.21-5.04,1.9-7.1
				c2.23-2.72,5.87-3.79,9.21-4.33c3.62-0.58,7.32-0.61,10.98-0.42c2.01,0.1,4.04,0.27,6.03,0.57c0.46,0.07,1.87-0.12,1.98-0.69
				c0.78-4.02,2.59-7.83,5.74-10.52c2.79-2.39,6.27-3.65,9.85-4.24c7.99-1.3,16.41,0.1,24.2,1.99c3.11,0.76,6.19,1.64,9.22,2.65
				c1.47,0.49,2.9,1.11,4.37,1.57c3.01,0.94,7.64-0.21,8.37-3.66c0.2-0.93,0.24-2.08-0.04-3.01c-0.4-1.34-1.18-2.59-1.61-3.94
				c-0.47-1.45-0.8-2.95-0.97-4.47c-0.91-8.22,3.51-16.19,9.97-21.06c0.1-0.07,0.59-0.42,0.28-0.21c0.08-0.06,0.4-0.24,0.2-0.36
				c-0.78-0.51-0.85-1.81-0.91-2.64c-0.11-1.59,0.02-3.19,0.2-4.77c0.39-3.56,1.07-7.09,1.84-10.59c0.2-0.92,0.63-1.97,0.67-2.91
				c0-0.07,0.04-0.18,0.06-0.25c0.01-0.02-0.49,0.13,0.07,0.02c1-0.19,1.78-0.5,2.83-0.43c3.54,0.22,6.63,2.59,9,5.05
				c2.22,2.31,4.06,4.98,5.64,7.77c0.36,0.63,0.64,1.35,1.04,1.96c0.24,0.37,0.62,0.62,0.92,0.95c0.72,0.77,1.29,1.68,1.73,2.63
				c1.7,3.7,1.47,8.07,0.78,11.99c-0.45,2.53-1.08,5.17-2.09,7.55c-0.89,2.09-1.82,4.09-2.43,6.3c-0.72,2.63-1.2,5.33-1.51,8.03
				c-0.36,3.12-0.56,6.31-0.44,9.45C404.53,381.2,406.72,380.87,406.7,380.31z"/>
		</g>
	</g>
	<path class="st22" d="M383.66,422.4c0.09,0.46-12.39-2.95-13.71-3.54c-3.89-1.74-7.63-3.81-11.45-5.7
		c-3.71-1.83-7.18-4.11-10.97-5.78c-5.99-2.64-11.6-3.89-17.21-7.51c-3.08-1.98-10.8-6.07-10.8-10.46c0,0,7.94,6.41,18.94,12.22
		c0,0,10.08,1.22,28.71,13.44c0,0,7.64,4.58,18.33,3.97C385.49,419.04,383.35,420.87,383.66,422.4z"/>
	<path class="st22" d="M347,446.68c0,0-25.05-11-29.32-16.8c0,0-23.37-17.72-26.73-18.94c0,0,0.15-1.68,4.74,0.76
		c0,0,17.72,11,22.6,15.27c0,0,14.05,8.86,29.32,13.13C347.61,440.11,347.92,445.76,347,446.68z"/>
	<path class="st22" d="M310.65,457.52c0,0-27.64-18.94-27.95-23.37c0,0,25.35,19.4,30.85,21.99L310.65,457.52z"/>
	<path class="st22" d="M401.68,369.86c0,0-8.04,10.08-22.04,4.89c0,0,0.89-0.31-1.79-5.19
		C377.85,369.55,383.81,380.24,401.68,369.86z"/>
	<path class="st22" d="M386.1,341.15c0,0-17.1,14.97-6.11,31.46C379.99,372.61,375.72,357.33,386.1,341.15z"/>
	<path class="st22" d="M338.25,371.08c0,0-18.12,3.56-18.12,18.53l-2.85-3.26C317.27,386.35,319.11,371.69,338.25,371.08z"/>
	<path class="st22" d="M317.27,388.59c0,0-34.54-2.15-27,17.6c0,0-7.92-10.98,1.75-17.19c0,0,7.13-4.89,23.82-2.24L317.27,388.59z"
		/>
	<path class="st22" d="M292.12,411.3c1.85,0.72-3.87,0.6-5.75,1.26c-1.21,0.42-2.67,0.83-3.67,1.65c-1.91,1.58-2.12,5.05-2.26,7.36
		c-0.23,3.83,0.32,5.75,1.17,8.98c0,0-5.06-10.49-0.78-16.4C280.82,414.15,285.81,408.85,292.12,411.3z"/>
	<path class="st22" d="M281.84,434.83c0,0-9.19,3.63-6.95,11.47c0,0-4.56-3.54-0.79-8.03c0,0,1.43-2.43,7.03-4.06L281.84,434.83z"/>
	<path class="st22" d="M407.88,401.67c0,0-1.87,23.41-19.98,23.41c0,0-1.53,15.92-15.57,20.29L414.47,500h-26.22l-28.44-60.24
		c0,0,17.79-4.45,25.29-20.68C385.09,419.07,403.51,416.65,407.88,401.67z"/>
	<g>
		<g>
			<g>
				<path class="st21" d="M333.98,375.1c1.92,1.82,3.69,3.9,5.11,6.13c1.43,2.26,3.24,6.02,0.24,7.82
					c-3.76,2.26-8.57,2.52-12.62,0.75c-0.78-0.34-1.54-0.76-2.25-1.22c-0.27-0.17-0.73-0.32-0.76-0.53
					c-0.03-0.23,0.36-0.81,0.46-1.01c0.67-1.44,1.4-2.85,2.19-4.22c1.14-1.98,2.39-3.94,3.96-5.61c0.67-0.72,1.42-1.43,2.28-1.91
					c0.58-0.33,0.8-0.36,1.55-0.16c0.46,0.13,1.11-0.09,1.52-0.29c0.2-0.09,0.74-0.4,0.28-0.53c-3.14-0.88-6.22,1.48-8.13,3.7
					c-2.16,2.5-3.82,5.43-5.28,8.39c-0.35,0.71-0.69,1.42-0.99,2.14c-0.04,0.07-0.02,0.12,0.04,0.17c3.54,2.54,7.72,3.54,12.03,2.92
					c2.56-0.37,5.13-1.21,7.36-2.53c1.64-0.98,2.48-2.42,2.13-4.35c-0.43-2.43-2.03-4.64-3.53-6.52c-1.08-1.36-2.24-2.68-3.5-3.87
					C335.64,374,333.68,374.82,333.98,375.1z"/>
			</g>
		</g>
		<g>
			<g>
				<path class="st21" d="M308.11,391.64c1.54,1.55,2.79,3.47,3.7,5.45c1.81,3.93,1.91,8.26-0.63,11.91c0.2-0.12,0.4-0.25,0.6-0.37
					c-0.12,0.05-0.24,0.09-0.37,0.13c0.32-0.09-0.1,0.03-0.2,0.06c-0.22,0.07-0.45,0.13-0.67,0.19c-1.11,0.29-2.25,0.49-3.39,0.59
					c-3.76,0.35-7.64-0.33-10.93-2.24c-0.45-0.26-0.88-0.54-1.3-0.84c-0.25-0.18-0.5-0.43-0.77-0.58c0.02,0.01-0.49-0.36-0.44-0.19
					c-0.02-0.07,0.14-0.26,0.16-0.33c0.26-0.69,0.73-1.37,1.11-2c1.38-2.32,2.99-4.54,4.85-6.51c2.32-2.46,5.34-4.88,8.84-5.14
					c0.41-0.03,1.22-0.14,1.44-0.55c0.22-0.4-0.19-0.52-0.55-0.49c-7.73,0.56-13.32,7.12-16.96,13.38c-0.37,0.64-0.74,1.3-1.06,1.97
					c-0.03,0.09-0.01,0.17,0.06,0.23c5.33,4.49,12.57,5.29,19.16,3.56c0.59-0.15,1.21-0.31,1.77-0.55c1.28-0.54,2.01-2.63,2.38-3.87
					c0.97-3.24,0.24-6.68-1.27-9.63c-0.91-1.78-2.09-3.54-3.51-4.97C309.69,390.38,307.65,391.17,308.11,391.64z"/>
			</g>
		</g>
		<g>
			<g>
				<path class="st21" d="M293.47,415.54c1.14,1.22,2.15,2.58,3.06,3.97c1.39,2.13,2.92,4.86,2.59,7.5c-0.08,0.6-0.27,1.1-0.56,1.63
					c-0.1,0.19-0.29,0.34-0.09,0.15c-0.36,0.33-0.78,0.62-1.2,0.88c-0.39,0.24-1.38,0.7-1.98,0.87c-1,0.29-2.04,0.4-3.08,0.3
					c-4.17-0.38-7.58-3.45-10.19-6.48c0.01,0.19,0.03,0.39,0.04,0.58c0.04-0.08,0.09-0.18,0.15-0.24c0.18-0.18-0.03,0.04,0.1-0.15
					c0.09-0.12,0.18-0.24,0.27-0.36c0.63-0.82,1.35-1.58,2.11-2.28c2.95-2.74,6.56-4.7,10.25-6.24c0.4-0.17,0.82-0.66,0.52-1.09
					c-0.31-0.45-1.06-0.31-1.47-0.14c-3.98,1.66-7.8,3.81-10.98,6.74c-1.12,1.03-2.27,2.2-3.02,3.53c-0.09,0.17-0.09,0.43,0.04,0.58
					c2.71,3.15,6.07,6.06,10.26,6.89c2.5,0.5,5.13,0.13,7.41-1.02c1.18-0.59,2.43-1.35,3.07-2.55c1.43-2.71,0.11-5.97-1.24-8.43
					c-1.11-2.01-2.49-3.94-4.06-5.62C294.81,413.89,292.75,414.76,293.47,415.54z"/>
			</g>
		</g>
		<g>
			<g>
				<path class="st21" d="M286.67,442.72c-0.31,0.72-0.7,1.29-1.17,1.89c-0.44,0.56-0.92,1.05-1.46,1.46
					c-0.35,0.26-0.5,0.36-0.88,0.54c-0.29,0.15,0.18-0.07-0.12,0.05c-0.1,0.04-0.19,0.08-0.29,0.11c-0.32,0.11,0.22-0.06-0.11,0.03
					c-0.07,0.02-0.14,0.04-0.21,0.05c0.12-0.02,0.11-0.02-0.02,0c-0.75,0.13-1.73,0.01-2.59-0.28c-0.6-0.2-1.18-0.47-1.73-0.79
					c-0.25-0.14-0.78-0.35-0.86-0.58c-0.11-0.29-0.01-0.81,0.01-1.11c0.06-0.73,0.19-1.47,0.41-2.17c0.62-2.03,2.02-3.83,4.11-4.47
					c-0.38-0.01-0.75-0.02-1.13-0.03c2.04,1.83,4.07,3.66,6.11,5.5c0.48,0.43,2.48-0.39,2.04-0.78c-1.67-1.5-3.34-3-5.01-4.5
					c-0.32-0.29-0.63-0.58-0.95-0.86c-0.61-0.51-1.5-0.12-2.16,0.13c-1.67,0.64-3.17,1.7-4.15,3.21c-0.72,1.11-1.16,2.37-1.34,3.69
					c-0.07,0.48-0.11,0.96-0.11,1.44c0,0.17-0.05,0.45,0.02,0.61c0.1,0.26,0.62,0.48,0.84,0.61c0.49,0.29,1,0.56,1.53,0.78
					c0.83,0.35,1.72,0.59,2.62,0.65c1.65,0.12,3.35-0.27,4.79-1.1c1.72-0.99,3.19-2.63,3.98-4.46c0.18-0.41-0.73-0.34-0.9-0.31
					C287.53,442.13,286.85,442.3,286.67,442.72z"/>
			</g>
		</g>
		<g>
			<g>
				<path class="st21" d="M391.12,347.55c3.74,6.58,4.62,15.71-0.51,21.76c-0.55,0.65,1.44,0.2,1.62,0.11
					c1.99-0.93,3.9-2.13,5.64-3.47c2.06-1.58,4.94-4.04,5.2-6.84c0.13-1.38-0.08-2.89-0.3-4.24c-0.35-2.23-1.02-4.55-2.5-6.31
					c-2.06-2.45-5.29-2.49-8.17-1.67C391.89,346.94,391.03,347.19,391.12,347.55c0.09,0.35,1,0.13,1.19,0.08
					c5.13-1.45,7.56,3.39,8.27,7.67c0.22,1.35,0.44,2.85,0.33,4.23c-0.19,2.32-2.38,4.4-4.05,5.8c-1.77,1.48-3.79,2.77-5.89,3.75
					c0.54,0.04,1.08,0.07,1.62,0.11c5.26-6.2,4.56-15.43,0.71-22.22C392.97,346.39,390.92,347.18,391.12,347.55z"/>
			</g>
		</g>
		<g>
			<g>
				<path class="st21" d="M280.72,434.04c3.98,3.95,8.76,7.16,13.32,10.39c4.95,3.51,9.97,6.92,15.03,10.28
					c1.07,0.71,2.14,1.42,3.22,2.13c1.09,0.71,3.62-0.79,2.23-1.69c-8.4-5.49-16.76-11.12-24.78-17.17
					c-2.18-1.65-4.43-3.3-6.37-5.23C282.42,431.81,279.69,433.01,280.72,434.04L280.72,434.04z"/>
			</g>
		</g>
		<g>
			<g>
				<path class="st21" d="M400.68,368.16c-2.07,2.17-4.88,3.93-7.72,4.86c-2.78,0.91-5.77,0.81-8.54-0.04
					c-0.86-0.26-1.7-0.61-2.51-1.01c-0.69-0.34-1.78-0.73-2.3-1.29c-0.11-0.12-0.18-0.36-0.25-0.51c-3.55-7.7-2.76-16.93,2.42-23.7
					c1.21-1.57,2.61-2.99,4.12-4.27c0.45-0.38,0.96-0.85,1.18-0.98c0.32-0.19,0.3-0.13,0.7-0.27c3.38-1.26,6.93-2.01,10.52-2.33
					c0.5-0.04,1.65-0.21,1.94-0.67c0.29-0.47-0.26-0.44-0.67-0.41c-3.91,0.35-7.78,1.16-11.5,2.4c-0.88,0.29-1.76,0.59-2.61,0.97
					c-1.27,0.57-2.38,1.7-3.39,2.64c-4.64,4.35-7.63,10.11-7.8,16.52c-0.1,3.66,0.63,7.42,2.14,10.76c0.09,0.19,0.16,0.46,0.3,0.62
					c0.42,0.51,1.35,0.89,1.92,1.2c0.92,0.49,1.88,0.9,2.87,1.23c3.18,1.06,6.58,1.13,9.85,0.41c4.34-0.95,8.84-3.15,11.94-6.41
					c0.43-0.45-0.39-0.43-0.67-0.41C402.06,367.53,401.1,367.72,400.68,368.16L400.68,368.16z"/>
			</g>
		</g>
		<g>
			<g>
				<path class="st21" d="M315.13,386.98c2.76,4.24,7.7,7.22,11.93,9.81c3.26,2,6.65,4.06,10.16,5.6c1.28,0.56,2.76,0.66,4.12,1.13
					c2.24,0.78,4.42,1.75,6.57,2.75c4.61,2.15,9.11,4.55,13.56,7.02c1.32,0.73,2.63,1.47,3.93,2.22c1.06,0.61,1.8,1.34,3.08,1.94
					c4.21,1.96,9.18,2.52,13.77,2.85c4.56,0.33,9.62-0.96,13.64-3.1c4.01-2.13,7.27-5.35,9.53-9.28c2.8-4.87,4.26-10.88,4.15-16.5
					c0-0.1,0-0.2-0.01-0.3c-0.07-1.48-2.98-1-2.93,0.24c0.2,4.47-0.78,9.23-2.51,13.33c-1.55,3.66-3.88,6.99-7.1,9.37
					c-3.64,2.7-8.57,4.26-13.02,4.25c-1.57,0-3.18-0.25-4.73-0.46c-2.48-0.33-4.96-0.77-7.33-1.59c-1.5-0.52-2.6-1.32-3.9-2.16
					c-0.99-0.64-2.06-1.18-3.09-1.75c-4.09-2.29-8.22-4.51-12.42-6.57c-3.93-1.93-8.07-4.08-12.39-4.98
					c-0.06-0.01-1.03-0.23-1.05-0.18c0.03-0.12,0.75,0.36,0.27,0.09c-0.41-0.23-0.86-0.43-1.28-0.64c-1.81-0.92-3.59-1.88-5.35-2.88
					c-4.51-2.56-9.24-5.33-12.93-9.03c-0.75-0.75-1.44-1.54-2.02-2.43C317.1,384.67,314.33,385.75,315.13,386.98L315.13,386.98z"/>
			</g>
		</g>
		<g>
			<g>
				<path class="st21" d="M382.18,419.43c0.12-0.49-0.07,0.23-0.15,0.47c-0.23,0.67-0.51,1.33-0.81,1.98
					c-1.03,2.18-2.32,4.07-3.96,5.91c-5.92,6.66-14.75,9.82-23.41,10.8c-1.62,0.18-3.25,0.3-4.88,0.36
					c-0.2,0.01-1.23,0.08-0.53,0.13c-0.01,0-0.03-0.01-0.04-0.01c-0.09-0.01-0.18-0.06-0.27-0.08c-1-0.29-1.99-0.63-2.97-0.96
					c-4.12-1.38-8.19-2.92-12.18-4.63c-4.78-2.05-9.53-4.34-13.8-7.33c-1.47-1.03-2.72-2.29-4.13-3.38
					c-0.69-0.53-1.49-0.97-2.22-1.45c-5.74-3.75-11.48-7.5-17.22-11.25c-0.14-0.09-0.28-0.19-0.43-0.28
					c-1.14-0.74-3.63,0.81-2.22,1.74c5.4,3.53,10.79,7.05,16.19,10.58c1.08,0.7,2.16,1.41,3.23,2.11c1.05,0.69,1.89,1.64,2.88,2.41
					c4.16,3.27,8.98,5.7,13.78,7.88c4.33,1.96,8.77,3.68,13.27,5.23c1.25,0.43,2.51,0.85,3.77,1.25c1.53,0.48,3.1,0.29,4.68,0.18
					c9.8-0.66,19.96-3.57,27.19-10.54c2.98-2.87,6.03-6.73,7.06-10.85c0.04-0.15,0.09-0.31,0.12-0.46
					C385.49,417.78,382.52,418.08,382.18,419.43L382.18,419.43z"/>
			</g>
		</g>
	</g>
</g>
<g id="left_hand">
	<path class="st19" d="M118,319.88c0,0,9.36,6.24,7.83,20.63c0,0,16.23,10.61,7.49,28.72c0,0,0.62,5,9.36-1.25
		c0,0,46.82-10.61,49.95,14.98c0,0,43.08-6.24,28.09,23.1c0,0,18.73,6.87,8.74,24.97c0,0,7.27,2.61,2.07,7.24l-52.64-20.97
		l-56.19-28.09C122.71,389.21,96.78,317.38,118,319.88z"/>
	<g>
		<path class="st20" d="M100.04,380.6c0,0,0.57-14.41-4.32-23.57c0,0-6.72-16.49,1.22-23.21c0,0,9.16-19.55,20.77-14.05
			c0,0,4.89,19.55,1.83,21.38c0,0,17.1,11.61,7.94,29.93c0,0-1.83,7.33,6.11,6.11c0,0,50.09-20.16,55.59,9.16
			c0,0,27.49-4.28,29.93,8.55c0,0,1.83,10.39-6.11,15.27c0,0,13.44-1.22,14.05,7.33c0,0,1.22,10.39-3.05,15.88
			c0,0,14.05,3.05,8.55,12.83c0,0-13.44,12.83-18.94,13.44c0,0-18.33,2.44-21.38-3.67c0,0-15.88,9.16-20.16,7.33
			c0,0-10.39-3.67-12.83-9.16c0,0-3.05-8.55-1.22-13.44c0,0-6.11,0.61-10.39-1.22L119.87,500H0C0,500,91.79,390.68,100.04,380.6z"/>
		<g>
			<path class="st21" d="M101.13,380.31c0.28-7.29-0.58-15.33-3.57-22.03c-2.49-5.58-4.31-12.21-3.06-18.32
				c0.4-1.94,1.18-3.86,2.53-5.34c0.59-0.65,0.97-0.97,1.35-1.71c1.25-2.41,2.72-4.73,4.41-6.85c2.09-2.63,4.79-5.49,8.1-6.51
				c1.74-0.53,3.49-0.27,5.17,0.32c0.5,0.18,0.47,0.13,0.64,0.5c0.15,0.33,0.19,0.78,0.27,1.12c0.82,3.54,1.55,7.12,2.05,10.73
				c0.25,1.84,0.47,3.7,0.45,5.56c-0.01,0.85,0.06,2.79-0.75,3.33c-0.1,0.07-0.39,0.27-0.19,0.41c5.47,3.73,9.66,10.22,10.44,16.79
				c0.35,2.99,0.01,6.02-0.89,8.89c-0.54,1.74-1.66,3.32-1.82,5.15c-0.12,1.37,0.07,2.85,0.99,3.94c1.43,1.68,4.16,1.72,6.15,1.32
				c1.26-0.26,2.5-0.89,3.71-1.31c2.75-0.95,5.54-1.8,8.35-2.54c7.71-2.03,15.87-3.46,23.87-2.66c7.88,0.79,15.23,4.49,17.94,12.37
				c0.36,1.04,0.62,2.11,0.83,3.18c0.05,0.26,0.75,0.14,0.89,0.12c1.37-0.21,3.29-0.39,5-0.5c3.59-0.23,7.22-0.23,10.79,0.23
				c3.6,0.46,7.5,1.37,10.34,3.76c2.05,1.73,2.98,4.06,3.09,6.68c0.22,5.12-1.53,10.36-6.02,13.2c-0.55,0.35-0.03,0.52,0.36,0.48
				c3.21-0.28,6.93,0.09,9.78,1.66c2.16,1.19,3.41,3.08,3.66,5.52c0.18,1.76,0.2,3.54,0.11,5.3c-0.19,3.64-0.91,7.5-3.15,10.47
				c-0.09,0.12,0.1,0.22,0.18,0.24c2.87,0.63,5.97,2.01,7.95,4.21c1.63,1.81,2.06,4.18,1.28,6.48c-0.24,0.72-0.52,1.46-1.02,2.02
				c-0.46,0.51-1.02,0.95-1.52,1.4c-3.9,3.54-7.96,7.08-12.49,9.79c-0.88,0.53-1.84,1.1-2.83,1.39c-0.12,0.03-1.05,0.18-0.44,0.11
				c-0.15,0.02-0.31,0.04-0.46,0.05c-1.7,0.19-3.4,0.31-5.1,0.38c-2.94,0.11-5.95,0.06-8.85-0.49c-2.3-0.44-5.12-1.22-6.3-3.46
				c-0.27-0.51-1.59,0.06-1.92,0.25c-1.93,1.11-3.91,2.14-5.91,3.12c-3.23,1.58-6.75,3.4-10.34,3.95c-2.19,0.34-4.34-0.95-6.24-1.9
				c-3.16-1.59-7.29-3.89-8.63-7.39c-0.64-1.66-1.02-3.47-1.34-5.21c-0.47-2.61-0.75-5.45,0.15-8c0.1-0.29-0.46-0.27-0.6-0.26
				c-3.24,0.31-6.81,0.09-9.83-1.15c-0.5-0.21-1.84,0-2.1,0.56c-3.13,6.81-6.25,13.62-9.38,20.43
				c-4.99,10.86-9.97,21.72-14.96,32.58c-1.15,2.5-2.29,5-3.44,7.5c0.59-0.21,1.18-0.43,1.78-0.64c-4,0-7.99,0-11.99,0
				c-9.51,0-19.02,0-28.53,0c-11.58,0-23.16,0-34.74,0c-9.94,0-19.88,0-29.82,0c-3.3,0-6.6,0-9.9,0c-1.02,0-2.04,0-3.06,0
				c-0.41,0-1.23-0.16-1.61,0c-0.05,0.02-0.15,0-0.21,0c0.09,0.12,0.19,0.25,0.28,0.37c3.07-3.66,6.14-7.31,9.21-10.97
				c7.47-8.89,14.93-17.79,22.39-26.68c9.22-10.98,18.43-21.97,27.64-32.96c8.39-10.01,16.78-20.01,25.15-30.03
				c4.98-5.95,9.97-11.89,14.9-17.87c0.24-0.3,0.49-0.59,0.73-0.89c0.43-0.53-1.63-0.26-1.97,0.16c-4.32,5.28-8.72,10.49-13.1,15.73
				c-8.12,9.72-16.26,19.42-24.39,29.13c-9.25,11.03-18.5,22.06-27.75,33.09c-7.79,9.29-15.59,18.58-23.39,27.87
				c-2.55,3.04-5.11,6.08-7.66,9.12c-1.17,1.4-2.56,2.76-3.59,4.27c-0.04,0.07-0.1,0.12-0.16,0.18c-0.21,0.25,0.01,0.37,0.28,0.37
				c4,0,7.99,0,11.99,0c9.51,0,19.02,0,28.53,0c11.58,0,23.16,0,34.74,0c9.94,0,19.88,0,29.82,0c4.85,0,9.72,0.11,14.57,0
				c0.07,0,0.14,0,0.21,0c0.47,0,1.54-0.12,1.78-0.64c3.13-6.81,6.25-13.62,9.38-20.43c4.99-10.86,9.97-21.72,14.96-32.58
				c1.15-2.5,2.29-5,3.44-7.5c-0.7,0.19-1.4,0.37-2.1,0.56c3.38,1.39,7.32,1.64,10.94,1.29c-0.2-0.09-0.4-0.17-0.6-0.26
				c-1.44,4.08-0.29,9.12,1.06,13.09c1.25,3.68,5.38,6.08,8.63,7.75c2.18,1.11,4.56,2.45,7.09,2.22c3.91-0.34,7.76-2.12,11.27-3.76
				c2.75-1.28,5.45-2.67,8.08-4.19c-0.64,0.08-1.28,0.17-1.92,0.25c1.07,2.03,3.39,2.94,5.5,3.47c2.72,0.68,5.57,0.84,8.36,0.84
				c2.27,0,4.54-0.12,6.8-0.34c1.6-0.16,2.59-0.27,4.19-0.92c2.56-1.05,4.87-2.68,7.08-4.32c2.42-1.8,4.74-3.73,7-5.72
				c1.12-0.99,2.47-1.97,3.44-3.12c1.48-1.78,1.81-4.89,0.87-6.97c-1.57-3.49-5.95-5.44-9.49-6.22c0.06,0.08,0.12,0.16,0.18,0.24
				c3.27-4.34,3.59-10.69,3.08-15.93c-0.51-5.23-5.58-7.03-10.16-7.48c-1.49-0.15-3.02-0.19-4.52-0.06
				c0.12,0.16,0.24,0.32,0.36,0.48c4.23-2.68,6.3-7.18,6.52-12.08c0.13-2.79-0.26-5.42-2.17-7.59c-2.46-2.82-6.41-4.01-9.97-4.64
				c-3.91-0.69-7.91-0.78-11.87-0.6c-2.33,0.1-4.67,0.29-6.98,0.65c0.3,0.04,0.59,0.08,0.89,0.12c-0.77-3.98-2.52-7.71-5.54-10.46
				c-2.75-2.5-6.27-3.97-9.87-4.76c-8.04-1.77-16.64-0.68-24.59,1.04c-5.56,1.2-11.06,2.78-16.38,4.8c-0.87,0.33-0.72,0.25-1.7,0.19
				c-1.98-0.12-3.38-1.32-3.72-3.26c-0.18-1.01-0.16-2.13,0.26-3.07c1.3-2.91,2.28-5.86,2.49-9.05c0.53-7.99-3.97-15.69-10.25-20.4
				c-0.13-0.1-0.27-0.2-0.41-0.3c-0.06,0.14-0.13,0.27-0.19,0.41c0.9-0.6,1.09-1.68,1.19-2.69c0.16-1.61,0.03-3.27-0.14-4.88
				c-0.38-3.67-1.09-7.32-1.88-10.92c-0.2-0.91-0.28-2.13-0.69-2.98c-0.46-0.96-2.43-1.18-3.43-1.3c-3.82-0.46-7.57,1.19-10.49,3.55
				c-2.77,2.24-5,5.14-6.89,8.15c-0.63,1-1.22,2.02-1.77,3.07c-0.45,0.86-1.05,1.33-1.67,2.1c-2.65,3.33-2.91,7.92-2.47,11.99
				c0.35,3.23,1.15,6.44,2.27,9.49c0.63,1.71,1.52,3.29,2.09,5.03c0.94,2.87,1.52,5.84,1.9,8.83c0.43,3.38,0.67,6.85,0.54,10.26
				C98.94,381.23,101.1,380.95,101.13,380.31z"/>
		</g>
	</g>
	<g>
		<g>
			<path class="st21" d="M169.64,374.77c-1.04,0.99-2.01,2.07-2.93,3.17c-1.58,1.9-3.18,4.05-3.91,6.44
				c-0.6,1.95-0.28,3.87,1.54,5.01c1.83,1.15,3.93,1.88,6.05,2.28c4.78,0.89,9.62-0.38,13.54-3.19c0.09-0.06,0.29-0.26,0.23-0.4
				c-0.79-1.86-1.73-3.67-2.73-5.41c-1.59-2.76-3.5-5.87-6.26-7.62c-1.43-0.9-3.01-1.21-4.65-0.75c-0.26,0.07-1.08,0.33-0.97,0.74
				c0.11,0.4,0.97,0.22,1.21,0.16c0.26-0.07,0.72-0.05,1.14,0.07c0.61,0.18,1.16,0.51,1.67,0.88c1.21,0.88,2.22,2.02,3.12,3.2
				c1.78,2.33,3.22,4.92,4.49,7.56c0.28,0.58,0.55,1.16,0.81,1.76c0.08-0.13,0.16-0.27,0.23-0.4c-3.24,2.33-7,3.13-10.89,2.28
				c-1.73-0.37-3.5-1.02-5-1.97c-4.03-2.56,0.25-8.09,2.27-10.55c0.95-1.15,1.95-2.27,3.03-3.3c0.38-0.36-0.33-0.51-0.55-0.51
				C170.57,374.2,170.02,374.41,169.64,374.77z"/>
		</g>
	</g>
	<g>
		<g>
			<path class="st21" d="M195.52,391.26c-3.29,3.3-5.8,8.38-5.14,13.11c0.12,0.88,0.36,1.74,0.7,2.56c0.31,0.75,0.8,2.06,1.51,2.51
				c0.35,0.22,0.89,0.3,1.28,0.41c2.54,0.7,5.2,1.01,7.83,0.86c4.46-0.25,8.74-1.8,12.17-4.68c0.08-0.06,0.3-0.26,0.23-0.4
				c-2.36-4.93-6.09-9.96-10.79-12.83c-1.86-1.14-3.92-1.91-6.11-2.07c-0.48-0.04-1.17,0.05-1.54,0.41
				c-0.27,0.27-0.33,0.6,0.17,0.64c6.9,0.5,12.03,7.2,15.19,12.74c0.32,0.55,0.63,1.11,0.9,1.69c0.08-0.13,0.16-0.27,0.23-0.4
				c-4.65,3.92-10.84,4.68-16.59,3.08c-0.31-0.09-0.96-0.16-1.21-0.38c-0.18-0.16-0.41-0.74-0.54-0.97
				c-0.21-0.38-0.4-0.76-0.56-1.16c-0.34-0.82-0.58-1.68-0.7-2.56c-0.41-2.93,0.5-5.86,1.9-8.41c0.83-1.49,1.85-2.96,3.06-4.17
				c0.37-0.37-0.32-0.51-0.56-0.51C196.46,390.7,195.88,390.9,195.52,391.26z"/>
		</g>
	</g>
	<g>
		<g>
			<path class="st21" d="M210.3,414.84c-1.33,1.43-2.53,3.04-3.56,4.7c-1.48,2.39-3.11,5.62-2.23,8.5c0.44,1.44,1.42,2.19,2.68,2.89
				c2.07,1.16,4.5,1.61,6.85,1.31c4.67-0.59,8.5-3.72,11.47-7.17c0.2-0.23,0.27-0.4,0.12-0.67c-0.71-1.27-1.83-2.37-2.89-3.34
				c-3.1-2.85-6.83-4.94-10.7-6.55c-0.49-0.21-1.1-0.12-1.55,0.18c-0.27,0.19-0.67,0.73-0.17,0.94c3.8,1.58,7.5,3.61,10.53,6.43
				c1.01,0.94,2.08,2.01,2.76,3.22c0.04-0.22,0.08-0.45,0.12-0.67c-2.36,2.75-5.37,5.6-9.08,6.24c-1.95,0.34-3.94-0.05-5.66-0.99
				c-1.03-0.56-1.8-1-2.23-2.17c-0.94-2.55,0.48-5.46,1.77-7.63c1.01-1.69,2.19-3.33,3.53-4.77
				C212.96,414.33,210.85,414.24,210.3,414.84z"/>
		</g>
	</g>
	<g>
		<g>
			<path class="st21" d="M216.81,442.84c0.66,1.52,1.77,2.9,3.09,3.89c2.95,2.19,6.72,1.48,9.67-0.33c0.47-0.29,0.99-0.54,1.04-1.12
				c0.03-0.38,0-0.77-0.02-1.14c-0.08-1.18-0.35-2.36-0.86-3.44c-0.69-1.48-1.78-2.7-3.2-3.5c-1.01-0.57-2.38-1.23-3.4-0.36
				c-0.19,0.16-0.37,0.34-0.56,0.5c-1.85,1.66-3.7,3.33-5.55,4.99c-0.36,0.32-0.2,0.74,0.23,0.87c0.51,0.15,1.15-0.07,1.54-0.41
				c2.04-1.83,4.07-3.66,6.11-5.5c-0.51,0.14-1.02,0.27-1.54,0.41c2.29,0.71,3.93,2.44,4.64,4.71c0.24,0.77,0.38,1.57,0.43,2.38
				c0.02,0.25,0.03,0.57,0,0.94c0.13-0.17,0.27-0.33,0.4-0.5c-0.63,0.43-1.29,0.82-2,1.11c-0.52,0.21-1.05,0.35-1.54,0.41
				c-0.82,0.09-1.72-0.05-2.54-0.45c-1.42-0.68-2.52-1.9-3.33-3.23c-0.07-0.12-0.14-0.24-0.21-0.36c-0.05-0.1,0.05,0.1-0.03-0.05
				c-0.02-0.05-0.05-0.09-0.07-0.14c-0.04-0.09-0.09-0.17-0.12-0.26C218.63,441.44,216.49,442.09,216.81,442.84z"/>
		</g>
	</g>
	<g>
		<g>
			<path class="st21" d="M112.4,347.13c-3.89,6.86-4.67,16.3,0.65,22.59c0.54-0.4,1.08-0.8,1.62-1.2c-1.33-0.62-3.31-1.83-4.73-2.87
				c-1.97-1.45-4.78-3.73-5.19-6.31c-0.18-1.12,0.06-2.46,0.2-3.57c0.25-1.99,0.72-4.05,1.79-5.76c1.4-2.24,3.59-2.72,6.06-2.02
				c0.51,0.14,1.19,0.03,1.54-0.41c0.29-0.37,0.23-0.9-0.28-1.04c-2.71-0.77-5.64-0.63-7.83,1.32c-1.81,1.63-2.7,4.02-3.19,6.35
				c-0.35,1.65-0.52,3.37-0.49,5.06c0.04,2.53,2.34,4.82,4.12,6.37c2.01,1.75,4.33,3.22,6.75,4.35c0.58,0.27,2.28-0.43,1.62-1.2
				c-5.06-5.97-4.26-14.89-0.57-21.39C115.07,346.33,112.87,346.31,112.4,347.13z"/>
		</g>
	</g>
	<path class="st22" d="M121.99,422.4c-0.09,0.46,12.39-2.95,13.71-3.54c3.89-1.74,7.63-3.81,11.45-5.7
		c3.71-1.83,7.18-4.11,10.97-5.78c5.99-2.64,11.6-3.89,17.21-7.51c3.08-1.98,10.8-6.07,10.8-10.46c0,0-7.94,6.41-18.94,12.22
		c0,0-10.08,1.22-28.71,13.44c0,0-7.64,4.58-18.33,3.97C120.16,419.04,122.3,420.87,121.99,422.4z"/>
	<g>
		<g>
			<path class="st21" d="M187.83,386.29c-2.65,4.07-7.47,6.89-11.53,9.36c-2.1,1.28-4.24,2.49-6.41,3.64
				c-1,0.53-2.27,0.95-3.18,1.63c-0.34,0.26,0.84-0.13,0.39-0.12c-0.45,0.01-0.94,0.16-1.38,0.26c-0.84,0.19-1.66,0.46-2.48,0.74
				c-2.2,0.76-4.34,1.68-6.45,2.65c-4.59,2.12-9.06,4.48-13.48,6.91c-2.22,1.22-4.49,2.38-6.52,3.88c-1.85,1.36-4.43,1.86-6.63,2.29
				c-2.12,0.41-4.27,0.67-6.42,0.85c-8.42,0.7-16.86-4.05-20.95-11.44c-2.57-4.65-3.82-10.51-3.8-15.56c0-0.1,0-0.2,0.01-0.3
				c0.06-1.26-2.86-0.71-2.91,0.33c-0.21,4.77,0.85,9.84,2.76,14.19c1.7,3.88,4.25,7.31,7.67,9.83c4.21,3.1,10.03,4.96,15.27,4.78
				c3.89-0.13,7.92-0.74,11.65-1.8c1.25-0.36,2.5-0.78,3.67-1.36c0.48-0.24,0.96-0.49,1.4-0.8c0.23-0.16,0.47-0.33,0.68-0.51
				c0.09-0.08,0.43-0.37,0.19-0.2c0.72-0.51,1.55-0.89,2.32-1.32c4.06-2.29,8.16-4.51,12.34-6.59c2.32-1.15,4.66-2.26,7.04-3.26
				c1.62-0.68,3.75-1.51,5.2-1.78c1.21-0.22,2.01-0.56,3.1-1.12c1.91-0.98,3.8-1.99,5.66-3.05c4.72-2.69,9.64-5.62,13.46-9.53
				c0.74-0.76,1.44-1.58,2.03-2.47c0.38-0.59-0.33-0.9-0.81-0.93C189.09,385.43,188.2,385.72,187.83,386.29L187.83,386.29z"/>
		</g>
	</g>
	<path class="st22" d="M158.64,446.68c0,0,25.05-11,29.32-16.8c0,0,23.37-17.72,26.73-18.94c0,0-0.15-1.68-4.74,0.76
		c0,0-17.72,11-22.6,15.27c0,0-14.05,8.86-29.32,13.13C158.03,440.11,157.73,445.76,158.64,446.68z"/>
	<g>
		<g>
			<path class="st21" d="M120.54,419.73c0.83,3.38,3.06,6.63,5.34,9.18c6.12,6.85,15.11,10.29,24.05,11.48
				c1.62,0.22,3.26,0.38,4.89,0.47c1.12,0.07,2.37,0.26,3.48-0.01c0.82-0.2,1.62-0.51,2.42-0.77c4.09-1.35,8.13-2.84,12.1-4.5
				c4.98-2.08,9.94-4.41,14.47-7.37c2.65-1.73,4.58-3.69,7.1-5.34c5.89-3.84,11.77-7.69,17.66-11.53c0.15-0.1,0.31-0.2,0.46-0.3
				c0.46-0.3,0.79-0.8,0.24-1.17c-0.53-0.36-1.58-0.05-2.06,0.26c-5.23,3.41-10.45,6.83-15.68,10.24c-2.02,1.32-3.94,2.54-5.75,4.12
				c-3.78,3.29-8.38,5.66-12.89,7.77c-4.3,2-8.72,3.75-13.19,5.33c-1.35,0.48-2.7,0.93-4.07,1.37c-0.35,0.11-0.69,0.22-1.04,0.33
				c-0.07,0.02-0.14,0.05-0.21,0.06c-0.15,0.03,0.38-0.09,0.31-0.09c-0.46-0.07-0.97-0.03-1.44-0.05
				c-9.58-0.44-19.56-3.06-26.64-9.87c-1.96-1.89-3.7-4.06-5-6.45c-0.66-1.22-1.06-2.49-1.6-3.75c-0.02-0.06-0.04-0.12-0.05-0.18
				C123.18,417.91,120.28,418.66,120.54,419.73L120.54,419.73z"/>
		</g>
	</g>
	<path class="st22" d="M194.99,457.52c0,0,27.64-18.94,27.95-23.37c0,0-25.35,19.4-30.85,21.99L194.99,457.52z"/>
	<g>
		<g>
			<path class="st21" d="M222.39,432.95c-3.8,3.77-8.66,6.99-13.09,10.12c-4.88,3.45-9.82,6.81-14.79,10.12
				c-1.07,0.71-2.14,1.42-3.22,2.13c-0.55,0.36-0.68,1.11-0.15,1.53c0.6,0.47,1.52,0.2,2.08-0.17c8.55-5.58,17.06-11.3,25.19-17.48
				c2.22-1.68,4.44-3.4,6.42-5.36c0.5-0.5,0.19-1.2-0.38-1.44C223.72,432.11,222.89,432.44,222.39,432.95L222.39,432.95z"/>
		</g>
	</g>
	<path class="st22" d="M103.97,369.86c0,0,8.04,10.08,22.04,4.89c0,0-0.89-0.31,1.79-5.19
		C127.79,369.55,121.84,380.24,103.97,369.86z"/>
	<path class="st22" d="M119.55,341.15c0,0,17.1,14.97,6.11,31.46C125.65,372.61,129.93,357.33,119.55,341.15z"/>
	<g>
		<g>
			<path class="st21" d="M102.32,368.59c2.5,2.62,5.97,4.57,9.4,5.63c3.15,0.97,6.48,1.06,9.69,0.34c1.86-0.42,3.65-1.14,5.33-2.05
				c0.77-0.42,1.73-0.83,2.2-1.59c1.58-2.57,2.19-6.18,2.4-9.11c0.42-5.9-1.4-11.6-5.13-16.19c-1.87-2.31-4.12-4.72-6.96-5.75
				c-3.85-1.4-7.87-2.24-11.95-2.6c-1.11-0.1-3.07,1.47-1.13,1.64c3.44,0.31,6.87,1.02,10.14,2.14c0.65,0.22,1.4,0.42,2.01,0.76
				c1.22,0.68,2.35,1.88,3.33,2.87c4.11,4.11,6.66,9.44,6.84,15.28c0.11,3.45-0.59,6.98-1.92,10.16c-0.17,0.41-0.22,0.62-0.36,0.8
				c-0.03,0.04-0.03,0.1-0.07,0.13c0.31-0.29-0.55,0.23-0.66,0.29c-0.48,0.28-0.98,0.54-1.49,0.77c-2.83,1.28-5.91,1.59-8.94,0.94
				c-3.69-0.79-7.43-2.85-10.04-5.6C104.31,366.73,101.56,367.79,102.32,368.59L102.32,368.59z"/>
		</g>
	</g>
	<path class="st22" d="M167.4,371.08c0,0,17.91,3.68,17.91,18.65l3.06-3.38C188.37,386.35,186.54,371.69,167.4,371.08z"/>
	<path class="st22" d="M188.37,388.59c0,0,34.44-1.68,26.91,18.07c0,0,8.02-11.45-1.66-17.67c0,0-7.13-4.89-23.82-2.24
		L188.37,388.59z"/>
	<path class="st22" d="M213.52,411.3c-1.85,0.72,3.87,0.6,5.75,1.26c1.21,0.42,2.67,0.83,3.67,1.65c1.91,1.58,2.09,5.06,2.26,7.36
		c0.25,3.32-0.57,6.53-1.42,9.76c0,0,5.31-11.27,1.04-17.18C224.82,414.15,219.84,408.85,213.52,411.3z"/>
	<path class="st22" d="M223.09,434.84c0,0,10.04,3.71,7.8,11.55c0,0,4.42-3.62,0.65-8.1c0,0-2.04-2.65-7.64-4.27L223.09,434.84z"/>
	<path class="st22" d="M97.67,402.29c0,0,1.87,23.41,19.98,23.41c0,0,2.84,14.05,15.95,20.91l-38.54,52.3l24.18-0.17l26.5-58.37
		c0,0-17.79-4.45-25.29-20.68C120.46,419.7,102.04,417.28,97.67,402.29z"/>
</g>
<path id="leftwing" class="st9" d="M424.12,89.88c0,0,13.45,1.71,10.3,16.24C434.42,106.12,444.27,89.06,424.12,89.88z"/>
<path id="rightwing" class="st9" d="M452.84,111.51c0,0-5.32-12.47-18.43-5.47C434.4,106.04,448.13,91.9,452.84,111.51z"/>
<path id="leftwing_00000093173056720983029170000008674823906246619275_" class="st9" d="M408.7,58.34c0,0,13.47-1.51,13.84,13.35
	C422.54,71.69,428.09,52.78,408.7,58.34z"/>
<path id="rightwing_00000162333228621074788360000012469262098722395541_" class="st9" d="M441.71,72.58c0,0-8.11-10.86-19.21-0.96
	C422.51,71.62,432.5,54.63,441.71,72.58z"/>
<path id="leftwing_00000051359348717352201860000010906333350258922657_" class="st9" d="M454.5,125.57c0,0,13.53,0.82,11.35,15.52
	C465.85,141.09,474.55,123.41,454.5,125.57z"/>
<path id="rightwing_00000061446914788423016820000007748083149214389432_" class="st9" d="M484.59,145.25c0,0-6.14-12.09-18.76-4.24
	C465.83,141.01,478.59,125.99,484.59,145.25z"/>
<path id="leftwing_00000087412022618276443150000011182624067077666954_" class="st9" d="M64.58,57.43c0,0,11.79-6.7,17.98,6.82
	C82.56,64.25,80.22,44.69,64.58,57.43z"/>
<path id="rightwing_00000080190719192243347900000014097221991509990038_" class="st9" d="M100.54,57.52c0,0-11.74-6.79-18.03,6.68
	C82.51,64.19,85,44.65,100.54,57.52z"/>
<path id="leftwing_00000087392872550118662900000012219175446060443028_" class="st9" d="M30.11,153.94c0,0,11.79-6.7,17.98,6.82
	C48.1,160.76,45.75,141.2,30.11,153.94z"/>
<path id="rightwing_00000142854371502990200130000009751789337258218172_" class="st9" d="M66.07,154.03c0,0-11.74-6.79-18.03,6.68
	C48.04,160.71,50.54,141.16,66.07,154.03z"/>
<path id="leftwing_00000075875684506150887930000016042337745548625560_" class="st9" d="M30.88,33.43c0,0,11.79-6.7,17.98,6.82
	C48.86,40.25,46.51,20.69,30.88,33.43z"/>
<path id="rightwing_00000114769419855451917740000015585561705135526334_" class="st9" d="M66.84,33.52c0,0-11.74-6.79-18.03,6.68
	C48.8,40.19,51.3,20.65,66.84,33.52z"/>
<path id="leftwing_00000042736394588735598510000015679203540854306221_" class="st9" d="M115.42,47.41c0,0,11.42-7.31,18.32,5.85
	C133.73,53.26,130.35,33.85,115.42,47.41z"/>
<path id="rightwing_00000109030634328598261330000011423100639349717170_" class="st9" d="M151.32,45.58c0,0-12.08-6.15-17.65,7.63
	C133.67,53.21,135.13,33.56,151.32,45.58z"/>
<path id="leftwing_00000053528301930550888550000002161024565966810526_" class="st9" d="M426.96,275.13c0,0,13.45-1.74,14.06,13.12
	C441.03,288.25,446.26,269.25,426.96,275.13z"/>
<path id="rightwing_00000173876837043030960970000004440477373431910060_" class="st9" d="M460.21,288.81c0,0-8.29-10.72-19.22-0.64
	C440.99,288.17,450.7,271.02,460.21,288.81z"/>
<path id="leftwing_00000107573055462854949840000016718079233585013690_" class="st9" d="M430.38,241.58c0,0,13.11-3.46,15.64,11.19
	C446.02,252.77,448.75,233.26,430.38,241.58z"/>
<path id="rightwing_00000041258282565336712390000000312872999450183603_" class="st9" d="M465.12,250.86c0,0-9.61-9.57-19.14,1.84
	C445.98,252.7,453.39,234.45,465.12,250.86z"/>
<path id="leftwing_00000166654201779111706820000009516982948193105837_" class="st9" d="M457.69,310.8c0,0,13.33-2.5,14.79,12.29
	C472.47,323.09,476.61,303.83,457.69,310.8z"/>
<path id="rightwing_00000101824039321639182230000014131774983401171599_" class="st9" d="M491.66,322.57c0,0-8.89-10.24-19.22,0.45
	C472.44,323.02,481.15,305.35,491.66,322.57z"/>
</svg>
