<?xml version="1.0" encoding="utf-8"?>
<!-- Generator: Adobe Illustrator 26.3.1, SVG Export Plug-In . SVG Version: 6.00 Build 0)  -->
<svg version="1.1" xmlns="http://www.w3.org/2000/svg" xmlns:xlink="http://www.w3.org/1999/xlink" x="0px" y="0px"
	 viewBox="0 0 500 500" style="enable-background:new 0 0 500 500;" xml:space="preserve">
<style type="text/css">
	.st0{fill:#FFCAEC;}
	.st1{opacity:0.2;}
	.st2{fill:#39005E;}
	.st3{fill:#FFC470;}
	.st4{fill:#6F6F88;}
	.st5{fill-rule:evenodd;clip-rule:evenodd;fill:#39005E;}
	.st6{fill:#F72167;}
	.st7{fill:#A6A6A6;}
	.st8{opacity:0.6;}
	.st9{fill:#FFFFFF;}
	.st10{fill:#F2C5A9;}
	.st11{fill-rule:evenodd;clip-rule:evenodd;fill:#6F6F88;}
	.st12{fill:#F70200;}
	.st13{opacity:0.5;}
	.st14{fill:#E35656;}
	.st15{opacity:0.35;}
</style>
<g id="body">
	<g>
		<g>
			<rect class="st0" width="500" height="500"/>
		</g>
	</g>
	<g class="st1">
		<g>
			<g>
				<ellipse class="st2" cx="219.25" cy="435.77" rx="123.25" ry="12.98"/>
			</g>
		</g>
	</g>
	<g>
		<g>
			<g>
				<polygon class="st3" points="121.71,198.6 105.78,210.08 138.62,255.63 154.55,244.14 121.71,198.6 				"/>
			</g>
		</g>
	</g>
	<g>
		<g>
			<g>
				<path class="st3" d="M118.42,187.77c-1.11-1.55-3.27-1.9-4.82-0.78c-4.11,2.96-11.73,8.46-16.01,11.54
					c-0.82,0.59-1.38,1.49-1.54,2.5c-0.16,1,0.08,2.03,0.67,2.86c0.99,1.37,2.15,2.99,3.2,4.44c1.57,2.17,4.6,2.67,6.77,1.1
					c4.57-3.3,11.96-8.63,15.68-11.31c1.27-0.91,1.55-2.68,0.64-3.95C121.7,192.33,119.83,189.74,118.42,187.77L118.42,187.77z"/>
			</g>
		</g>
	</g>
	<g>
		<g>
			<g>
				<path class="st2" d="M132.6,248.99c-0.13,0-0.25-0.01-0.38-0.04c-0.94-0.21-1.53-1.14-1.32-2.08l4.96-22.3l-20.53-1.39
					c-0.53-0.04-1.02-0.32-1.32-0.76c-0.3-0.44-0.38-1-0.22-1.51l7.22-22.84c0.29-0.92,1.27-1.43,2.19-1.14
					c0.92,0.29,1.43,1.27,1.14,2.19l-6.55,20.72l20.34,1.37c0.51,0.03,0.98,0.29,1.28,0.7c0.3,0.41,0.42,0.93,0.31,1.42l-5.4,24.28
					C134.12,248.44,133.4,248.99,132.6,248.99z"/>
			</g>
		</g>
	</g>
	<g>
		<g>
			<g>
				<path class="st2" d="M138.62,258.42c-0.87,0-1.72-0.4-2.27-1.16l-32.83-45.54c-0.9-1.25-0.62-3,0.63-3.9l15.93-11.48
					c0.6-0.43,1.35-0.61,2.08-0.49c0.73,0.12,1.39,0.52,1.82,1.12l32.83,45.54c0.43,0.6,0.61,1.35,0.49,2.08
					c-0.12,0.73-0.52,1.39-1.12,1.82l-15.93,11.48C139.75,258.25,139.18,258.42,138.62,258.42z M109.68,210.72l29.57,41.01
					l11.4-8.22l-29.57-41.01L109.68,210.72z"/>
			</g>
		</g>
	</g>
	<g>
		<g>
			<g>
				<path class="st2" d="M103.88,213.13c-2.38,0-4.72-1.1-6.21-3.17l-3.2-4.44c-1.03-1.43-1.45-3.19-1.17-4.94
					c0.28-1.75,1.23-3.28,2.67-4.31l16.01-11.54c2.79-2.01,6.7-1.38,8.72,1.41l4.61,6.39c1.81,2.52,1.24,6.04-1.27,7.85
					l-15.68,11.31C106.99,212.66,105.42,213.13,103.88,213.13z M115.62,189.14c-0.13,0-0.27,0.04-0.38,0.12L99.23,200.8
					c-0.22,0.16-0.37,0.41-0.42,0.68c-0.04,0.27,0.02,0.55,0.18,0.77l3.2,4.44c0.32,0.45,0.8,0.74,1.34,0.83
					c0.54,0.09,1.09-0.04,1.53-0.36l15.68-11.31l-2.16-3.06l-2.44-3.38l0,0C116.03,189.23,115.82,189.14,115.62,189.14z"/>
			</g>
		</g>
	</g>
	<g>
		<g>
			<g>
				<path class="st2" d="M147.68,237.34c-0.04,0-0.09,0-0.13,0l-24.12-1.77c-0.53-0.04-1.01-0.31-1.31-0.75
					c-0.3-0.43-0.39-0.98-0.24-1.49l5.97-20.27l-22.15-0.98c-0.96-0.04-1.71-0.86-1.67-1.82s0.86-1.71,1.82-1.67l24.38,1.08
					c0.54,0.02,1.03,0.29,1.34,0.73c0.31,0.44,0.41,0.99,0.25,1.51l-5.99,20.33l21.96,1.61c0.96,0.07,1.68,0.91,1.61,1.87
					C149.35,236.64,148.59,237.34,147.68,237.34z"/>
			</g>
		</g>
	</g>
	<g>
		<g>
			<g>
				<polygon class="st3" points="159.81,227.95 122.66,254.73 128.54,262.89 165.7,236.1 159.81,227.95 				"/>
			</g>
		</g>
	</g>
	<g>
		<g>
			<g>
				<path class="st2" d="M128.54,265.68c-0.87,0-1.72-0.4-2.27-1.16l-5.88-8.16c-0.43-0.6-0.61-1.35-0.49-2.08
					c0.12-0.73,0.52-1.39,1.12-1.82l37.15-26.79c1.25-0.9,3-0.62,3.9,0.63l5.88,8.16c0.43,0.6,0.61,1.35,0.49,2.08
					c-0.12,0.73-0.52,1.39-1.12,1.82l-37.15,26.79C129.68,265.51,129.11,265.68,128.54,265.68z M126.56,255.37l2.61,3.63
					l32.62-23.52l-2.61-3.63L126.56,255.37z"/>
			</g>
		</g>
	</g>
	<g>
		<g>
			<g>
				<path class="st4" d="M286.54,346.94c0,0,0.06,0.1,0.16,0.29c0.63,1.14,2.97,5.56,3.95,10.03c0.99,4.46,0.63,8.98-4.11,10.34
					c0,0,0.92,2.23,2.32,5.88c3.98,10.4,11.81,32.27,13.11,46.53c0.49,5.44,0.03,9.77-1.94,11.94c-8.99,9.87-47.51,5.61-52.51,0
					c-5.01-5.61,4.31-12.15,4.31-12.15s-6.35-25.71-22.07-40.75c0,0-6.12,3.14-21.85,0c0,0-14.06,6.99-20.96,34.26
					c0,0,9.32,9.83,6.9,18.64c-2.41,8.82-55.64,11.04-63.19-8.82c-1.35-3.56-1.92-7.91-1.93-12.65
					c-0.03-17.87,7.79-41.26,10.52-48.88c0.58-1.61,0.93-2.51,0.93-2.51s-7.19-4.81-4.87-13.99c0.98-3.88,3.66-8.55,9.32-13.97
					c0.26-0.24,0.52-0.49,0.79-0.74l4.28-23.97l0.25-1.41c0,0-13.92-5.66-16.69-19.44c-1.53-7.64,5.21-28.64,27.03-40.21
					c15.14-8.03,37.54-11.51,69.47-2.84c17.99,4.89,38.15,18.7,54.64,35.58c4.31,4.41,8.37,9.02,12.06,13.74
					c10.03,12.76,17.46,26.31,20.24,38.55C316.7,330.39,307.93,345.45,286.54,346.94z"/>
			</g>
		</g>
	</g>
	<g class="st1">
		<g>
			<g>
				<path class="st2" d="M286.54,346.94c0,0,0.06,0.1,0.16,0.29c-78.46,9.87-127.61-9.29-142.08-16.1c0.26-0.24,0.52-0.49,0.79-0.74
					l4.28-23.97c19.66,2.36,40.17-5.99,40.17-5.99c75.71,39.58,80.8-16.7,80.8-16.7c10.34,22.31,20.29,12.06,25.8,8.12
					c10.03,12.76,17.46,26.31,20.24,38.55C316.7,330.39,307.93,345.45,286.54,346.94z"/>
			</g>
		</g>
	</g>
	<g class="st1">
		<g>
			<g>
				<path class="st2" d="M300.03,431.96c-8.99,9.87-47.51,5.61-52.51,0c-5.01-5.61,4.31-12.15,4.31-12.15s-6.35-25.71-22.07-40.75
					c0,0-6.12,3.14-21.85,0c0,0-14.06,6.99-20.96,34.26c0,0,9.32,9.83,6.9,18.64c-2.41,8.82-55.64,11.04-63.19-8.82
					c-1.35-3.56-1.92-7.91-1.93-12.65c4.59,4.85,13.7,12.97,25.73,16.24c17.66,4.78,26.04-0.9,25.44-5.99
					c-0.46-3.9-10.43-4.1-17.21-3.64c-2.21,0.15-3.51-2.41-2.11-4.13c2.61-3.2,7.38-7.27,15.65-9.58c0,0,1.68-5.7,4.39-12.08
					c2.41-5.67-0.7-12.17-6.65-13.76c-9.93-2.66-23.93-7.57-34.72-15.93c0.58-1.61,0.93-2.51,0.93-2.51s-7.19-4.81-4.87-13.99
					c8.97,5.2,34.36,17.74,72.18,18.6c0,0,2.34,5.89,13.41,5.58c11.08-0.32,22.2-8.7,22.2-8.7s24.8,3.97,47.55-3.32
					c0.99,4.46,0.63,8.98-4.11,10.34c0,0,0.92,2.23,2.32,5.88c-5.49,2.13-14.35,4.81-26.27,6.06c-6.59,0.69-10.71,7.46-8.36,13.65
					c2.1,5.5,4.27,11.65,5.38,16.09c0,0,4.7,0.44,11.59,5.6c1.84,1.38,1,4.29-1.28,4.52c-5.53,0.56-12.85,2.06-13.4,6.12
					c-0.75,5.54,33.21,5.38,45.45-5.5C302.46,425.46,302,429.79,300.03,431.96z"/>
			</g>
		</g>
	</g>
	<g>
		<g>
			<g>
				<path class="st2" d="M169.2,441.25c-17.9,0-36.57-5.1-41.14-17.12c-7.03-18.48,5.61-55.4,8.83-64.19
					c-1.8-1.77-4.4-5.14-4.78-10.04c-0.52-6.61,3.09-13.64,10.73-20.91l4-22.39c-4.3-2.28-13.92-8.62-16.3-20.48
					c-1.37-6.81,2.61-21.92,15.73-34.18c13.23-12.37,38.59-24.51,84.25-12.1c17.34,4.71,37.42,17.65,55.09,35.49
					c17.71,17.88,30.04,37.73,33.84,54.46c0.16,0.69,0.05,1.41-0.31,2.02c-0.36,0.62-8.63,14.44-28.27,17.47
					c1.91,4.22,4.25,11.05,2.28,15.94c-0.64,1.58-1.66,2.85-3.03,3.79c1.83,4.63,5.86,15.16,9.22,26.28
					c8.47,27.99,5.63,35.42,2.77,38.57c-5.22,5.73-16.97,6.88-25.87,6.82c-12.03-0.07-26.9-2.49-30.79-6.84
					c-1.66-1.87-2.4-4.09-2.13-6.42c0.44-3.77,3.42-6.94,5.34-8.62c-1.65-5.69-7.74-24.33-19.61-36.51c-3,0.84-9.47,1.82-20.61-0.27
					c-2.76,1.83-12.76,9.69-18.4,30.59c2.58,3.12,8.81,11.75,6.52,20.1c-1.84,6.72-16.59,8.14-22.84,8.44
					C172.22,441.21,170.71,441.25,169.2,441.25z M195.09,240.22c-22.43,0-36.51,7.83-45.03,15.79c-11.83,11.06-15,24.35-14.06,29
					c2.43,12.09,14.88,17.35,15,17.4c1.21,0.5,1.92,1.78,1.69,3.08l-4.53,25.39c-0.11,0.6-0.41,1.15-0.85,1.56
					c-6.66,6.16-9.99,12.02-9.65,16.94c0.34,4.75,3.94,7.29,4.09,7.4c1.06,0.73,1.5,2.11,1.03,3.32
					c-0.17,0.43-16.59,43.42-9.51,62.05c3.56,9.36,20.32,13.11,33.6,13.48c14.48,0.4,23.51-2.67,24.3-4.43
					c1.62-5.93-3.96-13.54-6.25-15.96c-0.65-0.69-0.91-1.68-0.68-2.6c7.13-28.19,21.8-35.77,22.42-36.08
					c0.55-0.28,1.18-0.36,1.79-0.24c14.26,2.85,20.02,0.26,20.07,0.23c1.06-0.55,2.3-0.34,3.16,0.49
					c16.12,15.43,22.58,41.02,22.85,42.1c0.28,1.12-0.16,2.29-1.11,2.96c-1.1,0.78-4.31,3.55-4.58,5.96
					c-0.06,0.5-0.02,1.18,0.75,2.05c1.72,1.93,13.23,4.9,26.65,4.97c10.7,0.04,18.81-1.81,21.71-5c1.07-1.17,3.93-7.02-3.97-33.15
					c-4.4-14.56-9.98-28.12-10.03-28.26c-0.3-0.73-0.28-1.56,0.07-2.28c0.35-0.72,0.98-1.25,1.74-1.47c1.46-0.42,1.94-1.18,2.18-1.8
					c1.41-3.49-1.6-10.92-3.83-14.78c-0.48-0.83-0.5-1.86-0.05-2.71c0.45-0.85,1.31-1.41,2.27-1.48
					c16.86-1.17,25.18-11.19,27.36-14.29c-8.22-32.95-50.51-75.37-84.67-84.65C216.02,241.68,204.77,240.22,195.09,240.22z"/>
			</g>
		</g>
	</g>
	<g>
		<g>
			<g>
				<path class="st5" d="M253.53,422.22c0,0,2.11-1.89,6.71-2.62c2.22-0.35,4.93-0.49,8.19-0.08c0.79,0.16,1.57-0.35,1.73-1.15
					c0.16-0.79-0.35-1.57-1.15-1.73c-4.51-1.28-8.18-1.43-11.03-1.2c-5.25,0.41-7.87,2.35-7.87,2.35c-1.22,0.94-1.45,2.69-0.51,3.92
					C250.56,422.93,252.31,423.16,253.53,422.22L253.53,422.22z"/>
			</g>
		</g>
	</g>
	<g>
		<g>
			<g>
				<path class="st5" d="M188.32,410.76c0,0-3.84-1.81-10.46-1.42c-3.85,0.23-8.7,1.14-14.29,3.72c-0.75,0.3-1.12,1.15-0.83,1.9
					c0.3,0.75,1.15,1.12,1.9,0.83c4.24-1.4,7.93-1.91,11.03-1.97c6.51-0.13,10.15,1.93,10.15,1.93c1.38,0.69,3.06,0.13,3.75-1.25
					C190.26,413.13,189.7,411.45,188.32,410.76L188.32,410.76z"/>
			</g>
		</g>
	</g>
	<g>
		<g>
			<g>
				<path class="st2" d="M219.02,383.03c-10.86,0-18.67-6.58-21.29-9.12c-24.07,0.38-57.17-12.43-58.59-12.98
					c-1.44-0.56-2.15-2.18-1.59-3.62c0.56-1.44,2.18-2.15,3.62-1.59c0.34,0.13,34.63,13.4,57.61,12.57c0.83-0.03,1.64,0.32,2.2,0.94
					c0.07,0.08,7.44,8.21,18.05,8.21c9.52,0,14.74-2.76,22.19-8.56c0.5-0.39,1.13-0.61,1.77-0.59c0.32,0.01,31.82,0.55,42.62-3.32
					c1.45-0.52,3.05,0.24,3.57,1.69c0.52,1.45-0.24,3.05-1.69,3.57c-10.74,3.84-37.98,3.72-43.62,3.66
					C236.11,379.82,229.69,383.03,219.02,383.03z"/>
			</g>
		</g>
	</g>
	<g>
		<g>
			<g>
				<path class="st6" d="M145.12,330.74c0,0,36.81,27.73,142.05,15.29l-2.47-12.45c0,0-92.8,12.45-137.27-14.08L145.12,330.74
					L145.12,330.74z"/>
			</g>
		</g>
	</g>
	<g class="st1">
		<g>
			<g>
				<path class="st2" d="M287.17,346.03c-105.24,12.44-142.06-15.29-142.06-15.29l1.15-5.6c6.93,4.39,45.92,25.52,139.67,14.65
					L287.17,346.03z"/>
			</g>
		</g>
	</g>
	<g>
		<g>
			<g>
				<path class="st4" d="M165.7,327.45c-0.11-0.04,41.65-11.83,100.67-64.56l6.34,4.53c0,0-32.87,33.65-86.28,64.05
					C186.42,331.47,176.79,331.47,165.7,327.45L165.7,327.45z"/>
			</g>
		</g>
	</g>
	<g>
		<g>
			<g>
				<path class="st2" d="M236.22,352.01c-27.1,0-46.87-3.03-60.19-6.24c-22.66-5.45-32.19-12.5-32.59-12.8
					c-0.86-0.65-1.27-1.74-1.06-2.79l2.31-11.24c0.18-0.89,0.78-1.63,1.61-1.99c0.83-0.36,1.78-0.31,2.56,0.16
					c43.11,25.72,134.55,13.84,135.47,13.71c1.46-0.2,2.82,0.78,3.11,2.22l2.47,12.45c0.15,0.76-0.02,1.56-0.48,2.19
					c-0.46,0.63-1.16,1.04-1.93,1.13C268.11,351.1,251.06,352.01,236.22,352.01z M148.24,329.44c3.35,2.04,12.7,7.01,29.63,11.02
					c19.75,4.68,54.05,8.97,105.97,3.14l-1.38-6.94c-6.89,0.79-26.64,2.78-49.75,2.62c-36.42-0.26-64.42-5.46-83.32-15.48
					L148.24,329.44z M145.12,330.74L145.12,330.74L145.12,330.74z"/>
			</g>
		</g>
	</g>
	<g>
		<g>
			<g>
				<path class="st2" d="M186.42,334.26c-0.41,0-10.26-0.05-21.68-4.19c-1.12-0.41-1.86-1.48-1.84-2.68
					c0.01-0.6,0.25-2.07,2.17-2.68c7.26-2.32,46.18-16.33,99.42-63.9c0.97-0.87,2.42-0.95,3.49-0.19l6.34,4.53
					c0.66,0.47,1.09,1.21,1.16,2.03c0.07,0.81-0.21,1.61-0.78,2.2c-0.33,0.34-33.76,34.28-86.89,64.53
					C187.38,334.14,186.91,334.26,186.42,334.26z M174.63,327.14c5.29,1.18,9.48,1.46,11.09,1.52
					c44.17-25.24,74.32-52.89,82.65-60.9l-1.82-1.3C223.73,304.37,190.02,320.89,174.63,327.14z"/>
			</g>
		</g>
	</g>
	<g>
		<g>
			<g>
				<path class="st6" d="M225.3,340.24c0,0,7.59,19,19.01,31.26c1.98,2.07,5.08,2.61,7.65,1.35c2.14-1.07,4.74-2.67,7.05-4.95
					c2.48-2.41,2.53-6.37,0.13-8.85c-5.26-5.37-15.58-15.15-26.3-21.51L225.3,340.24L225.3,340.24z"/>
			</g>
		</g>
	</g>
	<g class="st1">
		<g>
			<g>
				<path class="st2" d="M259.01,367.9c-2.31,2.28-4.91,3.88-7.05,4.95c-2.57,1.26-5.66,0.71-7.65-1.35
					c-11.42-12.26-19.01-31.26-19.01-31.26l4.96-1.78c3.33,6.37,8.18,14.43,14.05,20.73c1.98,2.07,5.08,2.61,7.65,1.35
					c1.61-0.8,3.48-1.91,5.29-3.38c0.68,0.68,1.31,1.31,1.89,1.89C261.54,361.53,261.49,365.49,259.01,367.9z"/>
			</g>
		</g>
	</g>
	<g>
		<g>
			<g>
				<path class="st2" d="M249.05,376.32c-2.49,0-4.93-1-6.75-2.89c-11.67-12.53-19.27-31.36-19.59-32.16
					c-0.28-0.7-0.26-1.49,0.05-2.18c0.31-0.69,0.89-1.23,1.6-1.48l7.54-2.7c0.78-0.28,1.65-0.2,2.37,0.23
					c11.15,6.62,21.62,16.6,26.87,21.96c3.48,3.59,3.4,9.33-0.18,12.8c-2.16,2.13-4.77,3.97-7.75,5.45
					C251.87,376,250.45,376.32,249.05,376.32z M229.04,341.86c2.5,5.57,8.87,18.67,17.32,27.73c1.12,1.16,2.89,1.48,4.37,0.75
					c1.67-0.83,4.14-2.28,6.32-4.43c1.38-1.34,1.42-3.54,0.09-4.91c-3.93-4.01-14.01-13.83-24.6-20.38L229.04,341.86z"/>
			</g>
		</g>
	</g>
	<g>
		<g>
			<g>
				<path class="st6" d="M218.17,337.54c0,0-16.7,6.78-29.76,18.91c-1.59,1.5-2.3,3.72-1.86,5.86c0.53,2.6,1.99,6.11,5.79,9.26
					c2.48,2.06,6.13,1.86,8.37-0.46c5.55-5.78,16.25-17.59,21.3-27.84L218.17,337.54L218.17,337.54z"/>
			</g>
		</g>
	</g>
	<g class="st1">
		<g>
			<g>
				<path class="st2" d="M222.01,343.27c-5.05,10.25-15.75,22.06-21.3,27.84c-2.24,2.32-5.89,2.52-8.37,0.46
					c-3.8-3.15-5.26-6.66-5.79-9.26c-0.44-2.14,0.26-4.36,1.86-5.86c0.24-0.22,0.47-0.43,0.71-0.64c0.82,1.16,1.87,2.33,3.23,3.45
					c2.48,2.06,6.13,1.86,8.37-0.46c4.39-4.57,11.98-12.89,17.46-21.24L222.01,343.27z"/>
			</g>
		</g>
	</g>
	<g>
		<g>
			<g>
				<path class="st2" d="M196.27,375.77c-2.03,0-4.06-0.68-5.71-2.05c-4.5-3.73-6.15-7.96-6.74-10.84
					c-0.64-3.12,0.36-6.28,2.68-8.46c13.29-12.35,29.92-19.18,30.62-19.47c1.22-0.5,2.63-0.07,3.37,1.03l3.85,5.73
					c0.56,0.83,0.63,1.89,0.19,2.79c-5.15,10.45-15.86,22.37-21.79,28.54C200.99,374.85,198.63,375.77,196.27,375.77z
					 M217.15,341.04c-4.79,2.2-16.98,8.29-26.84,17.46c-0.88,0.83-1.27,2.05-1.02,3.25c0.41,2.01,1.59,4.97,4.84,7.67
					c1.35,1.12,3.36,1.01,4.58-0.25c5.42-5.65,15.01-16.27,20.07-25.71L217.15,341.04z"/>
			</g>
		</g>
	</g>
	<g>
		<g>
			<g>
				<path class="st6" d="M225.3,324.26c7.72,0,13.99,5.6,13.99,12.49c0,6.89-6.27,12.49-13.99,12.49c-7.72,0-13.99-5.6-13.99-12.49
					C211.31,329.86,217.58,324.26,225.3,324.26L225.3,324.26z"/>
			</g>
		</g>
	</g>
	<g>
		<g>
			<g>
				<path class="st6" d="M225.3,324.26c7.72,0,13.99,5.6,13.99,12.49c0,6.89-6.27,12.49-13.99,12.49c-7.72,0-13.99-5.6-13.99-12.49
					C211.31,329.86,217.58,324.26,225.3,324.26L225.3,324.26z"/>
			</g>
		</g>
	</g>
	<g class="st1">
		<g>
			<g>
				<path class="st2" d="M239.28,336.75c0,6.89-6.26,12.49-13.99,12.49c-7.72,0-13.99-5.6-13.99-12.49c0-1.93,0.5-3.76,1.38-5.39
					c2.26,4.2,7.06,7.09,12.61,7.09c5.56,0,10.36-2.9,12.62-7.09C238.79,333,239.28,334.82,239.28,336.75z"/>
			</g>
		</g>
	</g>
	<g>
		<g>
			<g>
				<path class="st2" d="M225.3,352.04c-9.25,0-16.78-6.86-16.78-15.28c0-8.43,7.53-15.28,16.78-15.28
					c9.25,0,16.78,6.86,16.78,15.28C242.08,345.18,234.55,352.04,225.3,352.04z M225.3,327.05c-6.17,0-11.2,4.35-11.2,9.7
					c0,5.35,5.02,9.7,11.2,9.7c6.17,0,11.19-4.35,11.19-9.7C236.49,331.4,231.47,327.05,225.3,327.05z"/>
			</g>
		</g>
	</g>
	<g>
		<g>
			<g>
				<path class="st5" d="M284.38,331.73c0,0,0.79-10.65-3.87-27.52c-2.05-7.41-5.14-16.04-9.84-25.51
					c-0.36-0.76-1.27-1.09-2.03-0.74c-0.76,0.36-1.09,1.27-0.74,2.03c4.14,9.42,6.77,17.96,8.42,25.27
					c3.62,16.01,2.5,25.96,2.5,25.96c-0.14,1.54,0.99,2.9,2.53,3.04C282.88,334.39,284.24,333.26,284.38,331.73L284.38,331.73z"/>
			</g>
		</g>
	</g>
	<g>
		<g>
			<g>
				<g>
					<path class="st7" d="M198.1,304.37l74.6,13.51l77.51,18c1.67,0.39,2.3,2.43,1.14,3.69l-5.56,6.04
						c-0.43,0.47-1.05,0.73-1.69,0.72l-75.36-1.68l-74-29.45c-2.83-1.13-4.06-4.47-2.62-7.16l0.57-1.06
						C193.73,305.04,195.92,303.98,198.1,304.37z"/>
				</g>
			</g>
		</g>
		<g>
			<g>
				<g>
					<path class="st2" d="M343.47,349.13c-0.04,0-0.07,0-0.11,0l-75.03-1.68c-0.33-0.01-0.66-0.08-0.97-0.2l-73.67-29.45
						c-2.08-0.83-3.71-2.52-4.48-4.62c-0.77-2.11-0.61-4.46,0.45-6.45l0.57-1.06c1.62-3.04,4.98-4.67,8.36-4.05h0l74.27,13.51
						c0.05,0.01,0.09,0.02,0.13,0.03l77.17,18c1.76,0.41,3.12,1.68,3.66,3.41c0.53,1.73,0.12,3.56-1.1,4.89l-5.54,6.04
						C346.22,348.54,344.88,349.13,343.47,349.13z M268.96,341.88l74.27,1.66l4.72-5.15l-76.17-17.76l-74.2-13.5c0,0,0,0,0,0
						c-0.98-0.18-1.96,0.3-2.43,1.18l-0.57,1.06c-0.32,0.59-0.36,1.27-0.13,1.9c0.23,0.63,0.69,1.11,1.31,1.35L268.96,341.88z"/>
				</g>
			</g>
		</g>
		<g>
			<g>
				<g>
					<path class="st7" d="M404.26,283.85c-0.01,1.31-0.53,2.58-1.48,3.53c-12.8,12.95-41.73,42.23-53.87,54.51
						c-3.52,3.56-8.39,5.47-13.39,5.24c-17.07-0.79-56.69-2.61-65.17-3c-1.08-0.05-2.13-0.27-3.14-0.64
						c-9.53-3.58-61.28-22.95-76.15-28.53c-2.23-0.84-3.4-3.29-2.65-5.54c0.36-1.08,0.75-2.25,1.1-3.31
						c0.33-0.97,1.03-1.78,1.96-2.23c0.92-0.45,1.99-0.51,2.96-0.17c14.69,5.21,68.31,24.22,68.31,24.22s46.94-47.07,62.48-62.65
						c3.04-3.06,7.49-4.27,11.67-3.17c14.31,3.75,47.68,12.5,63.52,16.65c1.78,0.47,3.18,1.85,3.67,3.63
						C404.21,282.87,404.28,283.36,404.26,283.85z"/>
				</g>
			</g>
		</g>
		<g class="st8">
			<g>
				<g>
					<path class="st9" d="M404.26,283.85c-0.01,0.66-0.14,1.3-0.39,1.91c-0.55-0.43-1.19-0.75-1.88-0.94
						c-15.84-4.15-49.22-12.9-63.52-16.65c-4.18-1.1-8.62,0.11-11.67,3.17c-13.46,13.49-50.48,50.62-60.14,60.31
						c-1.43,1.43-3.54,1.91-5.45,1.24c-11.65-4.13-52.64-18.66-65.19-23.11c-0.97-0.34-2.04-0.28-2.96,0.17
						c-0.93,0.45-1.63,1.26-1.96,2.23c-0.25,0.78-0.52,1.6-0.8,2.41c-1.71-1.05-2.53-3.18-1.87-5.16c0.36-1.08,0.75-2.25,1.1-3.31
						c0.33-0.97,1.03-1.78,1.96-2.23c0.92-0.45,1.99-0.51,2.96-0.17c14.69,5.21,68.31,24.22,68.31,24.22s46.94-47.07,62.48-62.65
						c3.04-3.06,7.49-4.27,11.67-3.17c14.31,3.75,47.68,12.5,63.52,16.65c1.78,0.47,3.18,1.85,3.67,3.63
						C404.21,282.87,404.28,283.36,404.26,283.85z"/>
				</g>
			</g>
		</g>
		<g>
			<g>
				<g>
					<path class="st2" d="M336.33,349.94c-0.31,0-0.62-0.01-0.94-0.02l-65.18-3c-1.36-0.06-2.7-0.34-3.98-0.82l-76.15-28.52
						c-3.66-1.37-5.55-5.34-4.32-9.05l1.1-3.3c0.56-1.68,1.79-3.09,3.38-3.86c1.59-0.78,3.46-0.88,5.13-0.29l66.64,23.62l61.23-61.4
						c3.74-3.75,9.24-5.24,14.36-3.9l63.52,16.66c2.74,0.72,4.91,2.86,5.66,5.59c0.75,2.73-0.02,5.68-2.01,7.7l-53.87,54.51
						C347.05,347.75,341.78,349.94,336.33,349.94z M193.16,306.28c-0.16,0-0.31,0.04-0.46,0.11c-0.25,0.12-0.44,0.34-0.53,0.61
						l-1.1,3.3c-0.28,0.84,0.15,1.74,0.98,2.05l76.15,28.52c0.73,0.27,1.5,0.43,2.28,0.47l65.18,3c4.2,0.19,8.31-1.41,11.27-4.41
						l53.87-54.51c0.59-0.6,0.82-1.48,0.6-2.29c-0.22-0.81-0.87-1.45-1.68-1.67l-63.52-16.66c-3.2-0.84-6.65,0.09-8.99,2.44l0,0
						l-62.47,62.65c-0.76,0.76-1.9,1.02-2.91,0.66l-68.31-24.21C193.39,306.3,193.27,306.28,193.16,306.28z M325.22,265.27
						L325.22,265.27L325.22,265.27z"/>
				</g>
			</g>
		</g>
		<g>
			<g>
				<g>
					<path class="st2" d="M272.99,334.65c-0.34,0-0.68-0.06-1-0.19l-10.19-3.93c-0.88-0.34-1.53-1.1-1.73-2.02
						c-0.2-0.92,0.08-1.88,0.74-2.55c0.47-0.48,47-47.73,62.5-62.8c3.18-3.09,8.5-4.67,12.66-0.83c1.61,1.49,2.5,3.64,2.49,6.05
						c-0.01,2.99-1.38,6.1-3.58,8.11c-16.12,14.7-59.5,56.93-59.94,57.36C274.41,334.38,273.71,334.65,272.99,334.65z
						 M267.78,326.86l4.55,1.75c7.35-7.14,44.18-42.91,58.79-56.24c1.05-0.96,1.75-2.56,1.76-4c0-0.59-0.12-1.39-0.7-1.93
						c-2.11-1.95-4.69,0.45-4.98,0.73C314.03,279.97,278.35,316.13,267.78,326.86z"/>
				</g>
			</g>
		</g>
		<g>
			<g>
				<g>
					<path class="st2" d="M268.73,346.01c-0.3,0-0.6-0.05-0.9-0.15c-1.46-0.5-2.24-2.08-1.74-3.54l3.87-11.36
						c0.5-1.46,2.08-2.24,3.54-1.74c1.46,0.5,2.24,2.08,1.74,3.54l-3.87,11.36C270.98,345.28,269.89,346.01,268.73,346.01z"/>
				</g>
			</g>
		</g>
		<g>
			<g>
				<g>
					<path class="st2" d="M352.36,340.33c-0.07,0-0.13,0-0.2-0.01l-79.76-5.68c-1.54-0.11-2.7-1.45-2.59-2.98
						c0.11-1.54,1.45-2.7,2.98-2.59l79.76,5.68c1.54,0.11,2.7,1.45,2.59,2.98C355.04,339.21,353.81,340.33,352.36,340.33z"/>
				</g>
			</g>
		</g>
		<g class="st1">
			<g>
				<g>
					<path class="st2" d="M404.26,283.85c-0.01,1.31-0.53,2.58-1.48,3.53c-12.8,12.95-41.73,42.23-53.87,54.51
						c-3.52,3.56-8.39,5.47-13.39,5.24c-17.07-0.79-56.69-2.61-65.17-3c-1.08-0.05-2.13-0.27-3.14-0.64
						c-9.53-3.58-61.28-22.95-76.15-28.53c-2.23-0.84-3.4-3.29-2.65-5.54c0.36-1.08,70.42,25.32,70.42,25.32l5.18,1.23
						c4.12,0.97,8.45-0.3,11.38-3.34l59.99-62.25c0,0,39.94,9.71,56.7,14.2C398.44,286.28,402.13,285.49,404.26,283.85z"/>
				</g>
			</g>
		</g>
		<g>
			<g>
				<g>
					
						<ellipse transform="matrix(0.803 -0.5959 0.5959 0.803 -116.4607 265.1528)" class="st9" cx="342.9" cy="308.76" rx="8.15" ry="5.14"/>
				</g>
			</g>
		</g>
	</g>
	<g>
		<g>
			<g>
				<path class="st10" d="M326.56,335.85c0,0,7.43-9.23,15.92-7.62c8.49,1.61,5.77,33.65-22.1,34.46
					c-27.87,0.8-28.97-28.76-19.66-34.46C310.91,321.99,326.56,335.85,326.56,335.85L326.56,335.85z"/>
			</g>
		</g>
	</g>
	<g class="st8">
		<g>
			<g>
				<path class="st9" d="M345.97,342.86c-0.14-4.32-1.68-7.58-4.24-8.06c-5.86-1.11-11.2,2.93-13.96,5.55
					c-1.16,1.1-2.94,1.22-4.21,0.26c-4.7-3.53-15.75-10.6-23.59-5.81c-2.07,1.26-3.62,3.71-4.48,6.73
					c-0.22-5.87,1.79-11.21,5.22-13.3c10.2-6.24,25.85,7.62,25.85,7.62s7.43-9.23,15.91-7.62
					C346.23,328.95,347.79,335.59,345.97,342.86z"/>
			</g>
		</g>
	</g>
	<g>
		<g>
			<g>
				<path class="st2" d="M319.33,365.5c-12.81,0-22.33-6.42-25.57-17.34c-2.67-8.99-0.26-18.79,5.49-22.31
					c9.5-5.81,22.08,2.4,27.04,6.19c3.05-2.97,9.41-7.94,16.7-6.55c4.49,0.85,7.02,6.12,6.44,13.43
					c-0.99,12.42-10.48,26.03-28.99,26.56C320.08,365.49,319.7,365.5,319.33,365.5z M306.76,329.42c-1.65,0-3.21,0.35-4.59,1.19
					c-3.12,1.91-5.14,8.93-3.06,15.95c1.24,4.16,5.79,13.78,21.18,13.33c17.31-0.5,22.97-13.7,23.58-21.42
					c0.36-4.53-0.9-7.31-1.92-7.5c-6.66-1.26-13.16,6.55-13.22,6.62c-0.48,0.6-1.18,0.97-1.94,1.03c-0.76,0.06-1.52-0.19-2.09-0.69
					C321.56,335.16,313.42,329.42,306.76,329.42z"/>
			</g>
		</g>
	</g>
	<g>
		<g>
			<g>
				<path class="st11" d="M238.17,300.73c-5.89,5.38-10.08-5.39-10.08-5.39s-13.76,13.65-36.21,2.04c0,0-0.19,0.17-0.57,0.47
					c-2.95,2.33-17.44,12.39-41.36,7.16l14.36-35.42c0,0,29.99-15.82,51.84-7.88c1.13,0.41,2.22,0.87,3.27,1.37
					C238.59,272.25,243.74,295.62,238.17,300.73z"/>
			</g>
		</g>
	</g>
	<g>
		<g>
			<g>
				<path class="st10" d="M238.17,300.73c-5.89,5.38-10.08-5.39-10.08-5.39s-13.76,13.65-36.21,2.04c0,0-0.19,0.17-0.57,0.47
					c-0.93-5.35-3.97-28.92,12.91-36.6c0,0,7.07,0.78,15.2,1.84C238.59,272.25,243.74,295.62,238.17,300.73z"/>
			</g>
		</g>
	</g>
	<g class="st8">
		<g>
			<g>
				<path class="st9" d="M165.7,268.9c0,0,25.97-11.86,48.03-6.01c20.11,5.34,26.26,20.78,24.47,36.04c0,0-3.71-24.69-26.88-30.3
					C188.14,263.02,165.7,268.9,165.7,268.9z"/>
			</g>
		</g>
	</g>
	<g>
		<g>
			<g>
				<path class="st2" d="M234.86,305.03c-0.55,0-1.05-0.07-1.49-0.17c-2.84-0.66-4.92-3.1-6.24-5.23
					c-5.35,3.61-17.75,9.3-35.15,0.92c-0.55,0.14-1.14,0.11-1.68-0.1c-0.91-0.35-1.58-1.16-1.75-2.13
					c-0.89-5.11-4.36-31.03,14.51-39.62c0.46-0.21,0.96-0.29,1.46-0.23c0.07,0.01,7.19,0.8,15.25,1.84
					c0.29,0.04,0.58,0.12,0.85,0.25c14.1,6.75,20.75,20.15,22.16,29.58c0.86,5.76-0.11,10.25-2.72,12.65c0,0,0,0,0,0
					C238.15,304.53,236.33,305.03,234.86,305.03z M238.17,300.73L238.17,300.73L238.17,300.73z M228.09,292.54
					c0.19,0,0.39,0.02,0.58,0.06c0.92,0.2,1.68,0.84,2.02,1.72c0.76,1.92,2.56,4.77,3.96,5.09c0.16,0.04,0.65,0.15,1.63-0.75
					c0.9-0.83,1.59-3.59,0.97-7.71c-1.28-8.61-7.54-19.67-18.65-25.17c-6.27-0.81-11.88-1.46-13.9-1.68
					c-12.68,6.39-11.85,24.06-10.97,31.09c20.06,10.03,32.26-1.72,32.38-1.84C226.65,292.83,227.36,292.54,228.09,292.54z"/>
			</g>
		</g>
	</g>
	<g class="st1">
		<g>
			<g>
				<path class="st2" d="M238.56,286.06c0,0-0.51,8.08-9.83,0c0,0-17.54,13.77-37.22,0c0,0-28.13,10.18-41.56,1.5
					c-13.43-8.68-9.44-24.67-9.44-24.67s-23.75,27.06,11.27,42.32c0,0,13.17,5.27,40.1-7.84c0,0,10.47,12.33,36.21-2.04
					C228.09,295.34,239.76,316.29,238.56,286.06z"/>
			</g>
		</g>
	</g>
	<g>
		<g>
			<g>
				<path class="st5" d="M235.28,298.44c-0.97,0.15-1.68-0.54-2.28-1.23c-1.56-1.78-2.36-4.22-2.36-4.22
					c-0.31-0.95-1.09-1.67-2.05-1.91c-0.97-0.25-1.99,0.02-2.72,0.7c-5.15,4.85-10.45,6.79-15.22,7.2
					c-9.23,0.8-16.41-3.99-16.41-3.99c-0.97-0.65-2.24-0.65-3.21,0c-6.67,4.52-13.52,6.75-19.65,7.71
					c-11.89,1.88-21.08-0.95-21.08-0.95c-1.47-0.46-3.04,0.36-3.5,1.83c-0.46,1.47,0.36,3.04,1.83,3.5c0,0,10.29,3.27,23.62,1.22
					c6.39-0.99,13.48-3.2,20.47-7.56c3.07,1.65,10.06,4.71,18.42,4.01c4.93-0.41,10.34-2.11,15.72-6.17
					c0.74,1.26,1.71,2.61,2.89,3.63c1.91,1.66,4.29,2.56,7.07,1.89c1.75-0.42,3.39-1.83,4.36-4.31c1.36-3.44,1.53-9.49-0.55-16.03
					c-2.48-7.81-8.09-16.38-18.24-21.74c-6.34-3.32-15.29-4.4-24.48-3.84c-4.84,0.3-9.75,1.03-14.32,2.02
					c-3.77,0.81-7.31,1.8-10.42,2.84c-4.4,1.47-7.91,3.04-10.03,4.33c-0.61,0.32-0.85,1.08-0.52,1.69c0.32,0.61,1.08,0.84,1.69,0.52
					c2.12-0.96,5.6-1.94,9.87-2.87c3.09-0.68,6.56-1.29,10.25-1.81c4.42-0.62,9.11-1.06,13.73-1.19c8.09-0.24,15.98,0.44,21.53,3.42
					c6.93,3.69,11.34,9.14,13.88,14.59c2.34,5.03,3.1,10.05,2.69,13.63c-0.11,0.95-0.29,1.77-0.58,2.43
					C235.57,298.02,235.36,298.33,235.28,298.44L235.28,298.44z"/>
			</g>
		</g>
	</g>
	<g class="st1">
		<g>
			<g>
				<path class="st2" d="M346.73,337.15c-0.1,10.04-7.42,24.99-26.35,25.54c-24.35,0.7-28.26-21.77-22.66-31.26
					c0.55,11.47,11.58,20.62,25.1,20.62C333.99,352.05,343.47,345.79,346.73,337.15z"/>
			</g>
		</g>
	</g>
</g>
<g id="Layer_3">
	<g>
		<g>
			<g>
				<g>
					<path class="st12" d="M370.54,162.38c-3.18-5.2-4.75-11.45-4.08-17.98c1.63-15.86,15.8-27.39,31.66-25.76
						c15.86,1.63,27.39,15.8,25.76,31.66s-15.8,27.39-31.66,25.76c-4.41-0.45-8.48-1.88-12.04-4.04l-13.36,3L370.54,162.38z"/>
				</g>
			</g>
		</g>
		<g class="st13">
			<g>
				<g>
					<g>
						<path class="st9" d="M397.55,124.17c-14.81-1.52-28.15,8.45-31.17,22.69c0-1.02,0.04-2.04,0.15-3.08
							c1.63-15.86,15.8-27.39,31.66-25.76c15.86,1.63,27.39,15.8,25.76,31.66c-0.11,1.04-0.27,2.06-0.48,3.06
							C423.41,138.16,412.37,125.69,397.55,124.17z"/>
					</g>
				</g>
			</g>
		</g>
		<g>
			<g>
				<g>
					<path class="st9" d="M395.43,133.37c-6.63,0-12,5.38-12,12.01c0,4.38,2.35,8.2,5.86,10.29v3.69c0,0.48,0.39,0.87,0.87,0.87
						h0.73c0.48,0,0.87-0.39,0.87-0.87v-2.56c0.26,0.08,0.52,0.15,0.79,0.21v2.34c0,0.48,0.39,0.87,0.87,0.87h0.73
						c0.48,0,0.87-0.39,0.87-0.87v-2c0.14,0.01,0.28,0.02,0.42,0.02s0.29-0.02,0.43-0.02v2c0,0.48,0.39,0.87,0.87,0.87h0.73
						c0.48,0,0.87-0.39,0.87-0.87v-2.34c0.26-0.07,0.53-0.14,0.79-0.21v2.56c0,0.48,0.39,0.87,0.87,0.87h0.73
						c0.48,0,0.87-0.39,0.87-0.87v-3.69c3.51-2.1,5.86-5.91,5.86-10.29C407.44,138.75,402.06,133.37,395.43,133.37z M390.44,150.49
						c-2.04,0-3.68-1.65-3.68-3.68c0-2.04,1.64-3.68,3.68-3.68c2.03,0,3.68,1.64,3.68,3.68
						C394.12,148.84,392.47,150.49,390.44,150.49z M400.42,150.49c-2.03,0-3.68-1.65-3.68-3.68c0-2.04,1.65-3.68,3.68-3.68
						c2.03,0,3.68,1.64,3.68,3.68C404.1,148.84,402.45,150.49,400.42,150.49z"/>
				</g>
			</g>
		</g>
		<g class="st1">
			<g>
				<g>
					<path class="st2" d="M370.89,161c7.91,6.69,18.8,9.61,29.61,6.92c11.99-2.99,20.83-12.12,24.01-23.2
						c0.08,1.47,0.04,2.96-0.11,4.47c-1.63,15.86-15.8,27.39-31.66,25.76c-4.41-0.45-8.48-1.88-12.04-4.04l-13.36,3l3.71-12.64
						C371,161.18,370.95,161.09,370.89,161z"/>
				</g>
			</g>
		</g>
		<g>
			<g>
				<g>
					<path class="st2" d="M395.23,179.01c-1.09,0-2.19-0.06-3.29-0.17c-4.34-0.45-8.44-1.74-12.21-3.85l-12.28,2.76
						c-0.96,0.22-1.97-0.09-2.65-0.82c-0.68-0.72-0.92-1.75-0.64-2.7l3.37-11.48c-3.18-5.69-4.51-12.11-3.84-18.63
						c1.78-17.36,17.35-30.04,34.72-28.26c8.41,0.86,15.98,4.95,21.32,11.51c5.34,6.56,7.8,14.8,6.94,23.21
						c-0.86,8.41-4.95,15.98-11.51,21.32C409.45,176.54,402.48,179.01,395.23,179.01z M380.19,169.23c0.51,0,1.01,0.14,1.45,0.41
						c3.32,2.02,6.98,3.25,10.87,3.65c6.92,0.71,13.72-1.32,19.12-5.71c5.4-4.39,8.77-10.63,9.48-17.56
						c0.71-6.93-1.32-13.72-5.71-19.12c-4.4-5.4-10.63-8.77-17.56-9.48c-14.3-1.47-27.13,8.97-28.59,23.27
						c-0.59,5.72,0.69,11.34,3.68,16.24c0.41,0.67,0.52,1.49,0.3,2.24l-2.37,8.09l8.73-1.96
						C379.78,169.25,379.98,169.23,380.19,169.23z"/>
				</g>
			</g>
		</g>
	</g>
</g>
<g id="head">
	<g>
		<g>
			<g>
				<g>
					<path class="st6" d="M142.44,130.43c0,0-13.92-13.56-24.16-21.8c0,0-8.25,7.1-14.24,11.58c0,0,16.54,9.95,24.38,19.72
						c0,0-6.6,1.45-12.15,4.63c-6.58,3.76-12.23,8.96-19.52,7.56c0,0-3.01,8.57,0,16.98c0,0,25.79-8.99,45.69-22.37
						C142.44,146.72,142.44,138.33,142.44,130.43L142.44,130.43z"/>
				</g>
			</g>
		</g>
		<g>
			<g>
				<g>
					<path class="st2" d="M96.76,171.88c-1.15,0-2.22-0.71-2.63-1.85c-3.3-9.24-0.14-18.45-0.01-18.84c0.46-1.31,1.8-2.08,3.16-1.82
						c4.66,0.9,8.73-1.69,13.44-4.69c1.34-0.85,2.72-1.73,4.17-2.56c2.89-1.65,6.02-2.86,8.47-3.67
						c-8.04-8.16-20.61-15.77-20.76-15.86c-0.8-0.48-1.3-1.32-1.35-2.25c-0.05-0.93,0.37-1.82,1.12-2.38
						c5.84-4.37,14.01-11.39,14.09-11.46c1.02-0.88,2.52-0.9,3.57-0.06c10.22,8.23,23.78,21.42,24.36,21.98
						c0.54,0.53,0.84,1.25,0.84,2v16.29c0,0.93-0.46,1.8-1.23,2.32c-19.96,13.43-45.26,22.32-46.32,22.69
						C97.37,171.83,97.06,171.88,96.76,171.88z M98.85,155.13c-0.49,2.29-1.02,6.19-0.21,10.28c6.98-2.64,25.66-10.14,41.01-20.2
						v-13.61c-2.94-2.84-13.02-12.46-21.33-19.35c-2.12,1.8-5.83,4.9-9.41,7.72c5.38,3.53,15.78,10.82,21.69,18.19
						c0.6,0.75,0.78,1.77,0.46,2.68c-0.32,0.91-1.09,1.59-2.03,1.8c-0.06,0.01-6.27,1.41-11.37,4.32c-1.33,0.76-2.65,1.6-3.94,2.42
						C109.18,152.29,104.48,155.28,98.85,155.13z"/>
				</g>
			</g>
		</g>
		<g>
			<g>
				<g>
					<path class="st4" d="M138.94,143.06c8.42-41.8,39.71-100.04,123.61-82.03c74.82,16.06,74.15,85.34,67.31,103.08
						c-4.67,12.12-12.19,32.13-12.19,49.73c0,12.61-11.85,55.46-88.9,41.65C152.88,241.88,127.33,200.72,138.94,143.06
						L138.94,143.06z"/>
				</g>
			</g>
		</g>
		<g class="st1">
			<g>
				<g>
					<path class="st2" d="M317.73,210.4c-0.03,0.89-0.06,1.77-0.06,2.65c0,12.61-11.86,55.46-88.9,41.65
						c-75.89-13.6-101.44-54.77-89.83-112.43c1.55-7.7,3.88-15.96,7.18-24.2c-0.02,0.1-0.04,0.2-0.06,0.29
						c-11.61,57.66,13.95,98.82,89.83,112.43C285.27,239.65,307.88,225.22,317.73,210.4z"/>
				</g>
			</g>
		</g>
		<g>
			<g>
				<g>
					<path class="st14" d="M332.29,152.95c-0.52,4.65-1.4,8.49-2.44,11.17c-0.91,2.35-1.92,5.01-2.97,7.88
						C328.31,165.34,330.28,158.81,332.29,152.95z"/>
				</g>
			</g>
		</g>
		<g class="st8">
			<g>
				<g>
					<path class="st9" d="M331.41,128.53c-6.65-24.06-24.85-49.94-66.94-58.97c-7.81-1.68-15.17-2.69-22.1-3.11
						c-0.36,2.49-5.87,4.86-12.76,5.38c-7.25,0.56-13.29-1.13-13.49-3.77c-0.01-0.08-0.01-0.17,0-0.24
						c-48.29,8.74-68.71,51.24-75.26,83.78c-2.95,14.68-3.51,28.29-1.42,40.65c-4.12-14.52-4.14-31.03-0.49-49.17
						c8.41-41.79,39.71-100.04,123.61-82.03C309.67,71.15,326.85,102.37,331.41,128.53z"/>
				</g>
			</g>
		</g>
		<g>
			<g>
				<g>
					<path class="st10" d="M190.55,136.85c0,0-15.83,39.11,7.12,56.38c22.17,16.69,38.82-0.33,62.07,3.94
						c14.73,2.71,21.28,19.48,39.14,15.98c17.02-3.33,17.57-32.42,14.9-44.98C313.77,168.18,259.97,140.74,190.55,136.85
						L190.55,136.85z"/>
				</g>
			</g>
		</g>
		<g>
			<g>
				<g>
					<path class="st2" d="M294.17,216.42c-8.83,0-15.07-4.68-20.69-8.89c-4.54-3.4-8.82-6.61-14.25-7.61
						c-8.63-1.59-16.49-0.02-24.08,1.49c-12.15,2.42-24.72,4.92-39.16-5.95c-24.38-18.35-8.71-57.99-8.03-59.66
						c0.45-1.11,1.55-1.81,2.75-1.74c69.21,3.88,123.8,31.35,124.34,31.63c0.75,0.38,1.29,1.08,1.46,1.91
						c2.01,9.44,2.42,28.6-5.02,39.85c-3.07,4.64-7.13,7.48-12.07,8.45C297.57,216.26,295.82,216.42,294.17,216.42z M251.71,193.66
						c2.74,0,5.58,0.22,8.53,0.77c6.72,1.24,11.74,5,16.59,8.63c6.56,4.92,12.23,9.17,21.5,7.35c3.47-0.68,6.25-2.66,8.49-6.05
						c5.87-8.88,6.15-24.86,4.47-34.29c-8.23-3.95-57.45-26.44-118.84-30.32c-2.66,7.74-11.35,37.52,6.89,51.24
						c12.44,9.37,22.76,7.31,34.71,4.93C239.7,194.81,245.47,193.66,251.71,193.66z"/>
				</g>
			</g>
		</g>
		<g>
			<g>
				<g>
					<path class="st2" d="M256.92,261.01c-8.75,0-18.3-0.92-28.64-2.78c-39.17-7.02-66.59-21.69-81.49-43.59
						c-12.86-18.9-16.42-43.17-10.59-72.14l0,0c3.79-18.8,14.66-53.3,44.97-73.18C203,55.02,230.58,51.31,263.14,58.3
						c28.98,6.22,49.79,20.69,61.86,43c12.91,23.88,12.14,51.69,7.47,63.82c-4.19,10.88-12,31.14-12,48.72
						c0,8.77-4.35,22.66-16.6,32.91C292.51,256.24,276.78,261.01,256.92,261.01z M232.85,60.46c-18.58,0-34.86,4.52-48.62,13.54
						c-28.61,18.76-38.94,51.66-42.56,69.61c-5.53,27.44-2.25,50.28,9.73,67.89c14.02,20.61,40.22,34.49,77.85,41.23
						c31.65,5.67,56.21,2.12,71.02-10.28c11.52-9.64,14.6-22.53,14.6-28.62c0-18.63,8.05-39.51,12.38-50.73
						c3.24-8.39,5.92-34.94-7.17-59.15c-11.25-20.81-30.81-34.33-58.12-40.2C251.72,61.56,242.01,60.46,232.85,60.46z
						 M138.94,143.06L138.94,143.06L138.94,143.06z"/>
				</g>
			</g>
		</g>
		<g>
			<g>
				<g>
					<path class="st6" d="M138.45,146.67c0,0,96.86-9.85,185.14,34.06l5.51-15.78c0,0-71.97-44.75-186.24-36.23
						C142.86,128.72,140.39,134.34,138.45,146.67L138.45,146.67z"/>
				</g>
			</g>
		</g>
		<g>
			<g>
				<g>
					<path class="st2" d="M323.59,183.53c-0.43,0-0.85-0.1-1.24-0.29c-45.16-22.47-92.65-30.46-124.53-33.21
						c-34.62-2.98-58.84-0.6-59.08-0.58c-0.86,0.09-1.72-0.23-2.31-0.86c-0.6-0.63-0.87-1.5-0.73-2.35
						c1.97-12.55,4.5-18.4,4.61-18.64c0.42-0.95,1.32-1.59,2.35-1.66c59.47-4.43,107.33,5.74,137.02,15.05
						c32.24,10.11,50.16,21.14,50.91,21.6c1.11,0.69,1.59,2.06,1.16,3.29l-5.51,15.78c-0.26,0.76-0.84,1.36-1.58,1.67
						C324.3,183.46,323.95,183.53,323.59,183.53z M163.29,142.94c9.58,0,21.46,0.36,34.87,1.51c31.74,2.72,78.7,10.57,123.84,32.39
						l3.71-10.63c-5.43-3.07-22.16-11.9-47.92-19.96c-28.88-9.04-75.28-18.89-132.94-14.87c-0.69,2.01-1.9,6.03-3.04,12.23
						C145.93,143.33,153.37,142.94,163.29,142.94z"/>
				</g>
			</g>
		</g>
		<g>
			<g>
				<g>
					<path class="st2" d="M280.6,187.85c0,0,13.46-1.16,17.7-3.47c0,0,0,17.83-10.18,17.83C278.1,202.21,280.6,187.85,280.6,187.85
						L280.6,187.85z"/>
				</g>
			</g>
		</g>
		<g>
			<g>
				<g>
					<path class="st2" d="M220.93,162.46c0,0,7.41,11.03,15.5,14.65c0,0-9.9,16.71-20.54,8.24
						C205.54,177.11,220.93,162.46,220.93,162.46L220.93,162.46z"/>
				</g>
			</g>
		</g>
		<g>
			<g>
				<g>
					
						<ellipse transform="matrix(0.6108 -0.7918 0.7918 0.6108 -55.4194 249.3483)" class="st9" cx="225.93" cy="181.05" rx="3.74" ry="2.51"/>
				</g>
			</g>
		</g>
		<g class="st15">
			<g>
				<g>
					<path class="st9" d="M217.98,175.63c-0.74,1.42-1.85,2.3-2.47,1.97c-0.62-0.32-0.52-1.74,0.22-3.15s1.85-2.3,2.47-1.97
						C218.83,172.81,218.73,174.22,217.98,175.63z"/>
				</g>
			</g>
		</g>
		<g class="st15">
			<g>
				<g>
					
						<ellipse transform="matrix(0.3775 -0.926 0.926 0.3775 4.0766 392.6526)" class="st9" cx="294.08" cy="193.29" rx="2.89" ry="1.27"/>
				</g>
			</g>
		</g>
		<g>
			<g>
				<g>
					
						<ellipse transform="matrix(0.9972 -0.0751 0.0751 0.9972 -13.8514 21.9649)" class="st9" cx="285" cy="195.08" rx="1.91" ry="2.85"/>
				</g>
			</g>
		</g>
		<g>
			<g>
				<g>
					<path class="st2" d="M238.55,179.97c-0.23,0-0.46-0.03-0.69-0.09c-13.66-3.4-22.51-18.89-22.88-19.55
						c-0.77-1.38-0.29-3.12,1.09-3.89c1.38-0.77,3.12-0.29,3.89,1.09l0,0c0.08,0.14,8.04,14.01,19.29,16.81
						c1.53,0.38,2.46,1.93,2.08,3.46C241,179.1,239.83,179.97,238.55,179.97z"/>
				</g>
			</g>
		</g>
		<g>
			<g>
				<g>
					<path class="st2" d="M280.11,190.67c-1.67,0-2.75-0.07-2.92-0.08c-1.57-0.11-2.76-1.47-2.65-3.05
						c0.11-1.57,1.47-2.76,3.05-2.65c0.24,0.02,15.13,0.93,21.9-4.8c1.21-1.02,3.01-0.87,4.03,0.34c1.02,1.2,0.87,3.01-0.34,4.03
						C296.65,189.97,285.42,190.67,280.11,190.67z"/>
				</g>
			</g>
		</g>
	</g>
</g>
</svg>
