<svg version="1.1" id="quiet" xmlns="http://www.w3.org/2000/svg" xmlns:xlink="http://www.w3.org/1999/xlink" x="0px" y="0px"
	 viewBox="0 0 2240 2240" style="enable-background:new 0 0 2240 2240;" xml:space="preserve">
<style type="text/css">
	.quite0{fill:#060C23;}
	.quite1{fill:#F5E000;}
	.quite2{fill:#FCFFDE;}
	.quite3{fill:#FF00D8;}
	.quite4{fill:#FFB8F4;}
	.quite5{fill:#B9BCBC;}
	.quite6{fill:#FFFFFF;}
</style>
<polygon class="quite0" points="0,0 0,2.51 0,7.53 0,48.47 0,67.11 0,142.64 0,155.19 0,193.58 0,206.8 0,282.24 0,287.26 0,328.2 
	0,346.89 0,421.61 0,431.11 0,473.4 0,486.89 0,562.02 0,567.03 0,607.98 0,626.62 0,701.34 0,710.84 0,753.13 0,766.62 0,841.75 
	0,846.76 0,887.71 0,906.39 0,981.12 0,990.62 0,1032.91 0,1046.39 0,1121.48 0,1126.54 0,1167.49 0,1186.12 0,1261.66 0,1274.16 
	0,1312.55 0,1325.77 0,1401.26 0,1406.27 0,1447.22 0,1465.86 0,1540.58 0,1550.08 0,1592.42 0,1605.86 0,1605.9 0,1680.98 0,1686 
	0,1727 0,1745.63 0,1820.36 0,1829.86 0,1872.15 0,1885.63 0,1960.76 0,1965.78 0,2006.73 0,2025.36 0,2100.09 0,2109.59 0,2151.92 
	0,2165.36 0,2165.41 0,2240 2240,2240 2240,2234.89 2240,2226.11 2240,2181.9 2240,2170.74 2240,2165.94 2240,2159.85 2240,2114.38 
	2240,2099.96 2240,2099.82 2240,2096.06 2240,2074.24 2240,2037.19 2240,2030.88 2240,2030.7 2240,2025.05 2240,2025 2240,2013.58 
	2240,1976.76 2240,1959.96 2240,1955.16 2240,1955.12 2240,1946.38 2240,1902.16 2240,1891.01 2240,1886.17 2240,1880.08 
	2240,1834.6 2240,1820.18 2240,1820.04 2240,1816.91 2240,1807.1 2240,1759.38 2240,1750.74 2240,1745.86 2240,1729.91 
	2240,1695.77 2240,1680.9 2240,1675.38 2240,1666.6 2240,1622.39 2240,1611.28 2240,1604.96 2240,1592.15 2240,1552.23 2240,1540.5 
	2240,1536.55 2240,1514.73 2240,1477.68 2240,1471.37 2240,1471.23 2240,1466.12 2240,1450.18 2240,1416 2240,1401.16 2240,1396.55 
	2240,1382.8 2240,1338.58 2240,1331.32 2240,1326.71 2240,1320.62 2240,1275.1 2240,1260.72 2240,1260.58 2240,1256.82 
	2240,1256.78 2240,1234.96 2240,1197.91 2240,1191.64 2240,1191.46 2240,1186.35 2240,1170.4 2240,1136.26 2240,1121.39 
	2240,1115.88 2240,1107.1 2240,1062.88 2240,1051.77 2240,1046.93 2240,1040.84 2240,995.37 2240,980.94 2240,980.81 2240,977.04 
	2240,955.23 2240,918.18 2240,911.86 2240,911.68 2240,906.04 2240,905.99 2240,894.61 2240,857.74 2240,840.94 2240,836.15 
	2240,836.1 2240,827.37 2240,783.15 2240,771.99 2240,767.2 2240,761.11 2240,715.59 2240,701.21 2240,701.08 2240,697.31 
	2240,697.27 2240,675.4 2240,638.62 2240,632.13 2240,631.95 2240,626.84 2240,610.94 2240,576.76 2240,561.88 2240,556.37 
	2240,547.81 2240,503.51 2240,492.22 2240,487.6 2240,487.42 2240,481.51 2240,435.86 2240,421.43 2240,421.3 2240,417.54 
	2240,395.72 2240,358.67 2240,352.35 2240,352.22 2240,347.11 2240,331.16 2240,297.02 2240,282.15 2240,277.54 2240,263.78 
	2240,219.61 2240,212.31 2240,207.69 2240,201.6 2240,156.08 2240,141.7 2240,141.57 2240,137.8 2240,137.76 2240,115.94 
	2240,78.94 2240,72.62 2240,72.44 2240,67.38 2240,51.43 2240,17.25 2240,2.37 2240,0 "/>
<g id="hands">
	<path class="quite1" d="M1065.53,1872.14c-4.61,0-8.77-3.14-9.88-7.8c-1.17-4.82-116.11-483.7-141.58-585.79
		c-23.09-92.87,15.15-110.79,68.06-135.59c11.63-5.45,24.36-11.41,37.84-18.76c47.97-26.17,306.35-154.06,374.96-129.78
		c52.79,18.61,159.84,185.57,180.76,218.84c2.99,4.76,1.56,11.03-3.2,14.03c-4.69,2.98-11.02,1.58-14.01-3.19
		c-71.55-113.81-141.59-200.36-170.3-210.5c-48.95-17.19-259.41,74.45-358.45,128.46c-13.91,7.57-26.98,13.71-38.95,19.32
		c-52.2,24.45-76.01,35.61-56.96,112.25c25.5,102.18,140.47,581.14,141.61,585.97c1.32,5.45-2.04,10.95-7.5,12.26
		C1067.12,1872.05,1066.3,1872.14,1065.53,1872.14z M1452.8,1839.75c-5.16,0-9.56-3.88-10.12-9.11c-7.1-67.51,13-104.29,34.3-143.22
		c17.91-32.77,38.22-69.91,45.75-132.8c0.66-5.58,5.48-9.45,11.31-8.9c5.57,0.68,9.54,5.74,8.88,11.31
		c-7.98,66.79-29.27,105.77-48.08,140.16c-21.43,39.19-38.36,70.14-31.92,131.35c0.59,5.59-3.47,10.58-9.06,11.18
		C1453.52,1839.73,1453.15,1839.75,1452.8,1839.75z M1360.09,1750.08c-5.27,0-9.72-4.05-10.15-9.39
		c-3.52-45.6-36.34-98.69-100.37-162.27c-54.04-53.76-78.51-128.98-79.55-132.16c-0.9-2.85-0.53-5.93,1.06-8.48
		c1.56-2.53,4.19-4.24,7.13-4.69c51.62-7.7,123.76-54.92,124.5-55.39c2.41-1.61,5.4-2.16,8.19-1.33c2.8,0.74,5.16,2.63,6.46,5.21
		c0.5,0.98,50.01,98.25,79.76,143.92c9.96,15.18,26.75,25.19,43.79,26.12c11.28,0.72,20.66-2.87,26.15-9.53
		c3.57-4.33,10.01-4.94,14.3-1.39c4.34,3.58,4.96,9.98,1.38,14.32c-9.62,11.71-25.3,17.85-42.94,16.93
		c-23.37-1.27-46.25-14.79-59.71-35.31c-24.98-38.36-62.22-109.61-75.76-135.89c-20.21,12.42-68.58,40.25-110.96,50.14
		c8.66,22.29,31.73,74.48,70.57,113.11c67.62,67.17,102.38,124.46,106.3,175.13c0.42,5.6-3.76,10.49-9.35,10.93
		C1360.59,1750.07,1360.33,1750.08,1360.09,1750.08z M1563.37,1542.14c-18.78,0-37.35-7.64-50.96-21.26
		c-3.98-3.97-3.95-10.41,0.03-14.39c3.97-3.97,10.41-3.97,14.38,0c11.23,11.24,27.07,16.76,42.46,14.94
		c10.7-1.33,19.26-6.16,23.5-13.24c2.88-4.82,9.13-6.41,13.96-3.51c4.82,2.87,6.39,9.13,3.53,13.95c-7.5,12.52-21.51,20.9-38.49,23
		C1568.96,1541.97,1566.18,1542.14,1563.37,1542.14z M1445.25,1423.24c-3.84,0-7.55-2.2-9.24-5.93
		c-35.81-78.17-77.75-145.14-95.49-152.45c-20.98-8.38-84.24,16.98-126.17,33.77c-26.2,10.49-46.89,18.78-58.49,20.34
		c-5.56,0.82-10.7-3.17-11.44-8.73c-0.74-5.56,3.18-10.69,8.74-11.43c9.09-1.22,30.73-9.89,53.62-19.07
		c64.02-25.64,115.15-44.31,141.43-33.72c38.04,15.67,99.44,147.8,106.3,162.81c2.33,5.11,0.11,11.15-5,13.48
		C1448.12,1422.95,1446.68,1423.24,1445.25,1423.24z M1600.16,1407.23c-4.77,0-9.01-3.34-9.96-8.17
		c-1.11-5.51,2.46-10.87,7.95-11.97c0.1-0.01,14.2-3.14,21.38-14.53c3.07-4.78,9.38-6.15,14.04-3.17c4.74,3.01,6.17,9.28,3.18,14.03
		c-11.94,18.89-33.67,23.43-34.57,23.62C1601.48,1407.16,1600.82,1407.23,1600.16,1407.23z M1551.87,1383.31
		c-3.68,0-7.23-2-9.03-5.49c-75.94-146.47-143.57-237.33-185.53-249.29c-32-9.27-132.37,32.59-198.75,60.26
		c-41.4,17.26-65.4,27.1-76.98,28.73c-5.72,0.88-10.68-3.1-11.47-8.66c-0.79-5.57,3.1-10.71,8.66-11.5
		c9.54-1.34,39.86-13.97,71.97-27.35c94.81-39.48,176.21-71.46,212.15-61.05c61.53,17.55,141.64,150.79,198.01,259.47
		c2.59,5,0.63,11.14-4.34,13.72C1555.05,1382.94,1553.46,1383.31,1551.87,1383.31z M1582.63,1197.49c-0.51,0-1.01-0.04-1.51-0.12
		c-5.56-0.83-9.38-6.01-8.55-11.56c24.55-163.39-12.27-205.45-24.13-214.44c-11-8.34-21.46-6.34-28.32-3.26
		c-15.65,7.05-32.63,29.43-35.25,63.55c-0.45,5.58-4.79,9.41-10.92,9.36c-5.61-0.44-9.8-5.32-9.38-10.93
		c2.86-37.32,21.4-68.94,47.2-80.54c16.56-7.44,34.41-5.42,48.95,5.59c22.49,17.06,56.56,70.09,31.97,233.69
		C1591.93,1193.87,1587.58,1197.49,1582.63,1197.49z M976.55,1120.25c-5.62,0-10.17-4.56-10.17-10.17V678.83
		c0-5.62,4.56-10.17,10.17-10.17c5.62,0,10.17,4.56,10.17,10.17v431.25C986.72,1115.69,982.17,1120.25,976.55,1120.25z
		 M1154.51,1034.81c-5.09,0-9.49-3.79-10.09-8.95c-0.29-2.45-29.43-245.71-35.36-394.4c-3.52-88.13-23.52-130.96-61.06-130.96
		c-5.62,0-10.17-4.56-10.17-10.17c0-5.62,4.55-10.17,10.17-10.17c75.33,0,79.89,113.27,81.4,150.48
		c5.91,147.9,34.91,390.36,35.21,392.78c0.69,5.58-3.31,10.65-8.88,11.32C1155.3,1034.78,1154.9,1034.81,1154.51,1034.81z"/>
</g>
<g id="hands2">
	<path class="quite2" d="M1632.61,1374.54c-1.86-1.22-4.42-0.65-5.62,1.27c-8.66,13.7-25.16,17.22-25.35,17.26
		c-2.2,0.45-3.6,2.59-3.15,4.8c0.37,1.93,2.07,3.26,3.98,3.26c0.26,0,0.53-0.03,0.79-0.08c0.82-0.16,20.06-4.18,30.62-20.89
		C1635.07,1378.26,1634.51,1375.75,1632.61,1374.54z"/>
	<path class="quite2" d="M930.18,1275.1c-20.26-81.49,8.36-94.91,60.29-119.24c11.64-5.46,24.83-11.63,38.63-19.15
		c84.18-45.93,308.34-148.26,363.41-128.86c35.07,12.37,112.37,115.89,173.43,213c1.19,1.88,3.68,2.48,5.62,1.27
		c1.91-1.19,2.46-3.71,1.27-5.62c-57.27-91.1-138.17-202.42-177.61-216.33c-60.98-21.39-295.89,88.96-370.03,129.39
		c-13.56,7.4-26.63,13.52-38.16,18.93c-54.01,25.31-86.62,40.6-64.74,128.58c25.47,102.14,140.43,581.03,141.6,585.87
		c0.45,1.87,2.09,3.11,3.95,3.11c0.32,0,0.64-0.04,0.95-0.11c2.17-0.53,3.52-2.73,2.99-4.91
		C1070.63,1856.2,955.66,1377.27,930.18,1275.1z"/>
	<path class="quite2" d="M1361.28,1122.66c43.58,12.43,112.58,104.4,189.29,252.35c0.71,1.4,2.14,2.2,3.6,2.2
		c0.63,0,1.27-0.14,1.88-0.45c1.99-1.03,2.76-3.5,1.72-5.48c-45.67-88.12-131.67-238.59-194.27-256.43
		c-36.63-10.52-135.81,30.69-208.1,60.82c-33.91,14.12-63.15,26.31-73.48,27.76c-2.22,0.31-3.79,2.37-3.47,4.6
		c0.32,2.21,2.41,3.79,4.58,3.46c11.36-1.59,39.65-13.38,75.49-28.3C1225.7,1155.19,1327.18,1112.81,1361.28,1122.66z"/>
	<path class="quite2" d="M1605.9,1509.92c-1.93-1.11-4.42-0.53-5.59,1.4c-5.21,8.73-15.42,14.62-28,16.17
		c-17.24,2.16-34.96-4.1-47.52-16.67c-1.59-1.59-4.18-1.59-5.78,0c-1.59,1.59-1.59,4.16,0,5.75c12.48,12.48,29.46,19.48,46.62,19.48
		c2.57,0,5.11-0.16,7.68-0.48c15.07-1.87,27.47-9.18,33.98-20.06C1608.45,1513.57,1607.84,1511.07,1605.9,1509.92z"/>
	<path class="quite2" d="M1050.29,494.38c41.48,0,63.47,44.75,67.18,136.82c5.91,148.46,34.99,391.49,35.28,393.92
		c0.27,2.06,2.01,3.58,4.06,3.58c0.16,0,0.32,0,0.48-0.03c2.25-0.26,3.84-2.29,3.55-4.53c-0.29-2.42-29.32-245.13-35.26-393.26
		c-3.89-97.32-28.53-144.63-75.28-144.63c-2.25,0-4.08,1.81-4.08,4.07C1046.21,492.57,1048.04,494.38,1050.29,494.38z"/>
	<path class="quite2" d="M978.85,1114.14c2.25,0,4.07-1.82,4.07-4.06V678.83c0-2.25-1.81-4.07-4.07-4.07c-2.25,0-4.06,1.82-4.06,4.07
		v431.25C974.78,1112.32,976.6,1114.14,978.85,1114.14z"/>
	<path class="quite2" d="M1480.35,1551.13c1.4-1.73,1.16-4.29-0.56-5.72c-1.77-1.44-4.31-1.19-5.74,0.56
		c-6.73,8.16-17.54,12.46-31.18,11.75c-18.94-1.02-37.53-12.09-48.55-28.89c-29.93-45.93-79.57-143.49-80.08-144.47
		c-0.53-1.03-1.46-1.8-2.6-2.09c-1.11-0.28-2.28-0.1-3.28,0.54c-0.72,0.48-73.93,48.42-126.94,56.33c-1.17,0.17-2.23,0.86-2.84,1.88
		c-0.64,1.01-0.8,2.25-0.42,3.39c0.24,0.76,25.03,76.96,78.04,129.68c65.08,64.66,98.51,119,102.14,166.14
		c0.16,2.13,1.93,3.75,4.05,3.75c0.11,0,0.21,0,0.32-0.01c2.22-0.17,3.92-2.12,3.74-4.37c-3.79-49.15-37.99-105.17-104.53-171.28
		c-44.27-44.03-68.37-105.08-74.46-121.93c47.55-8.86,106.09-44.5,121.59-54.33c9.72,18.97,51.79,100.28,78.46,141.24
		c12.4,18.92,33.46,31.39,54.94,32.56C1458.33,1566.82,1471.95,1561.33,1480.35,1551.13z"/>
	<path class="quite2" d="M1345.12,1259.22c22.25,9.17,66.52,85.19,98.73,155.54c0.69,1.5,2.17,2.37,3.71,2.37
		c0.56,0,1.14-0.12,1.69-0.37c2.04-0.93,2.94-3.35,2.02-5.39c-24.58-53.67-73.93-147.69-103.04-159.69
		c-26.3-10.61-87.6,13.97-136.87,33.74c-24.26,9.72-45.24,18.13-55.07,19.46c-2.25,0.29-3.82,2.35-3.5,4.57
		c0.29,2.23,2.68,3.81,4.56,3.49c10.86-1.46,31.23-9.62,57.03-19.96C1259.79,1274.76,1322.07,1249.88,1345.12,1259.22z"/>
	<path class="quite2" d="M1476.69,1034.92c2.23,0.09,4.19-1.5,4.37-3.73c2.44-31.71,18.04-59.3,38.83-68.65
		c12.08-5.43,23.98-4.01,34.51,3.95c16.08,12.2,50.86,58.06,26.49,220.22c-0.32,2.23,1.19,4.3,3.42,4.64
		c0.21,0.03,0.42,0.04,0.61,0.04c1.99,0,3.71-1.44,4.02-3.46c17.61-117.23,6.81-200.3-29.61-227.91
		c-12.9-9.76-28.03-11.52-42.78-4.9c-23.79,10.7-40.9,40.32-43.6,75.44C1472.77,1032.81,1474.46,1034.75,1476.69,1034.92z"/>
	<path class="quite2" d="M1535.6,1551.77c-2.17-0.4-4.24,1.31-4.53,3.56c-7.63,64.06-28.24,101.74-46.44,135
		c-21.72,39.73-40.47,74.05-33.59,139.66c0.24,2.09,1.99,3.64,4.05,3.64c0.14,0,0.29,0,0.42-0.01c2.23-0.24,3.87-2.24,3.63-4.48
		c-6.65-63.1,11.55-96.38,32.63-134.91c18.55-33.91,39.55-72.33,47.39-137.96C1539.44,1554.06,1537.83,1552.03,1535.6,1551.77z"/>
</g>
<g id="lips">
	<path class="quite3" d="M879.44,739.95c17.39,6.81,34.67,13.59,52.47,19.44c5.39,1.74,11.07-1.17,12.85-6.49
		c1.75-5.34-1.15-11.09-6.49-12.85c-17.45-5.72-34.38-12.37-51.4-19.05c-73.65-28.91-149.8-58.77-275.25-22.17
		c-3.74,1.08-6.53,4.21-7.18,8.05c-0.65,3.84,0.94,7.72,4.11,9.99c34.95,24.98,60.73,57.15,88.01,91.19
		c53.19,66.37,108.18,134.99,236.32,157.22c0.58,0.09,1.17,0.14,1.75,0.14c4.85,0,9.15-3.48,10.01-8.44
		c0.95-5.53-2.76-10.79-8.29-11.76c-120.55-20.9-173.09-86.47-223.92-149.88c-22.82-28.47-46.29-57.76-75.55-82.24
		C744.31,686.99,812.94,713.86,879.44,739.95z"/>
	<path class="quite3" d="M936.7,592.99c-60.29,25.11-114.73,71.74-117.02,73.71c-4.25,3.67-4.73,10.09-1.06,14.36
		c2.01,2.33,4.86,3.52,7.71,3.52c2.36,0,4.72-0.81,6.65-2.46c0.53-0.46,54.22-46.46,111.53-70.34c5.19-2.16,7.64-8.12,5.48-13.3
		C947.84,593.28,941.86,590.87,936.7,592.99z"/>
	<path class="quite3" d="M1464.72,698.84c-126.81-36.97-202.27-7.91-275.28,20.14c-8.08,3.11-16.19,6.22-24.4,9.27
		c-5.24,1.95-7.94,7.8-5.99,13.07c1.96,5.27,7.81,7.99,13.09,6c8.26-3.06,16.45-6.21,24.61-9.35c69-26.54,134.4-51.68,242.75-24.89
		c-29.27,24.48-52.77,53.77-75.6,82.26c-44.58,55.64-90.7,113.17-182.7,140.33c-5.38,1.59-8.45,7.26-6.86,12.64
		c1.29,4.44,5.35,7.3,9.75,7.3c0.95,0,1.91-0.13,2.89-0.41c98.09-28.97,146.25-89.03,192.82-147.14
		c27.28-34.05,53.05-66.21,87.99-91.19c3.18-2.26,4.77-6.14,4.13-9.99C1471.27,703.05,1468.48,699.93,1464.72,698.84z"/>
	<path class="quite3" d="M1174.88,406.9c60.66,17.88,222.06,203.38,279.12,273.34c3.57,4.4,9.99,4.98,14.33,1.46
		c4.34-3.55,5-9.96,1.46-14.3c-8.56-10.48-210.06-256.71-289.16-280.02c-34.83-10.28-72.42-4.18-108.53,17.64
		c-21.3,12.82-46.65,12.78-67.81,0.01c-36.16-21.84-73.72-27.93-108.57-17.66c-79.07,23.31-280.59,269.54-289.13,280.02
		c-3.55,4.34-2.9,10.75,1.46,14.3c1.88,1.54,4.16,2.29,6.42,2.29c2.94,0,5.87-1.27,7.88-3.75
		c57.07-69.96,218.46-255.46,279.12-273.34c29.65-8.78,60.75-3.52,92.3,15.54c27.79,16.77,61.01,16.82,88.82,0
		C1114.19,403.38,1145.21,398.14,1174.88,406.9z"/>
	<path class="quite3" d="M1250.03,684.58c2.78,0,5.54-1.13,7.55-3.34c3.76-4.17,3.45-10.6-0.71-14.37
		c-1.86-1.68-45.93-41.37-97.85-67.39c-4.98-2.49-11.13-0.5-13.64,4.54c-2.52,5.02-0.5,11.14,4.53,13.65
		c49.38,24.73,92.87,63.88,93.3,64.26C1245.15,683.7,1247.59,684.58,1250.03,684.58z"/>
</g>
<g id="lips2">
	<path class="quite4" d="M1462.18,676.78c0.79,0.99,1.99,1.5,3.15,1.5c0.9,0,1.83-0.29,2.57-0.91c1.75-1.42,2.01-3.99,0.58-5.72
		c-8.48-10.41-208.84-255.24-286.14-278.02c-41.98-12.37-79.55,2.45-103.65,17.02c-23.28,14.03-50.94,14-74.12,0
		c-24.15-14.57-61.76-29.32-103.69-17.02c-77.28,22.78-277.63,267.61-286.12,278.02c-1.42,1.73-1.16,4.3,0.58,5.72
		c1.75,1.44,4.29,1.17,5.72-0.58c2.06-2.53,207.22-253.26,282.12-275.34c39.07-11.56,74.41,2.42,97.18,16.17
		c25.8,15.59,56.69,15.61,82.51,0c22.78-13.72,58.12-27.64,97.19-16.17C1254.96,423.5,1460.11,674.24,1462.18,676.78z"/>
	<path class="quite4" d="M1253.47,678.85c1.11,0,2.2-0.45,3.02-1.34c1.51-1.66,1.38-4.24-0.29-5.75c-0.45-0.4-45.29-40.81-96.47-66.45
		c-2.01-1.02-4.48-0.19-5.46,1.81c-1.01,2.01-0.21,4.46,1.8,5.47c50.17,25.11,94.22,64.8,94.67,65.2
		C1251.51,678.51,1252.49,678.85,1253.47,678.85z"/>
	<path class="quite4" d="M942.49,599c-59.4,24.75-114.82,72.22-115.38,72.7c-1.7,1.47-1.88,4.04-0.42,5.75c0.81,0.92,1.95,1.4,3.09,1.4
		c0.94,0,1.89-0.32,2.66-0.98c0.54-0.48,54.96-47.1,113.18-71.35c2.08-0.88,3.06-3.26,2.2-5.32
		C946.93,599.12,944.54,598.1,942.49,599z"/>
	<path class="quite4" d="M939.82,746.24c-17.52-5.76-34.91-12.57-51.72-19.16c-72.69-28.53-147.85-58-271.32-22
		c-1.5,0.44-2.61,1.68-2.88,3.22c-0.26,1.54,0.39,3.09,1.64,4c35.63,25.47,61.66,57.96,89.23,92.34
		c52.48,65.48,106.74,133.19,232.6,155.02c0.22,0.04,0.46,0.05,0.69,0.05c1.95,0,3.67-1.39,4.01-3.38c0.38-2.21-1.1-4.32-3.33-4.7
		c-122.82-21.3-176.1-87.77-227.64-152.08c-26.17-32.66-50.99-63.63-84.1-88.91c116.13-31.66,188.29-3.38,258.1,24.01
		c16.93,6.63,34.42,13.5,52.16,19.32c2.15,0.63,4.42-0.45,5.14-2.6C943.11,749.25,941.95,746.95,939.82,746.24z"/>
	<path class="quite4" d="M1466.48,705.08c-124.82-36.41-199.33-7.74-271.39,19.99c-8.1,3.13-16.24,6.25-24.45,9.3
		c-2.12,0.78-3.21,3.13-2.41,5.23c0.8,2.13,3.23,3.17,5.22,2.4c8.26-3.06,16.42-6.2,24.55-9.32
		c72.42-27.85,140.92-54.18,258.24-22.03c-33.11,25.27-57.93,56.25-84.13,88.91c-45.19,56.38-91.92,114.67-185.72,142.37
		c-2.17,0.63-3.39,2.9-2.75,5.06c0.5,1.78,2.14,2.91,3.89,2.91c0.37,0,0.77-0.05,1.14-0.16c96.29-28.42,143.81-87.73,189.8-145.09
		c27.55-34.38,53.59-66.87,89.21-92.34c1.27-0.91,1.91-2.46,1.64-4C1469.1,706.78,1467.96,705.52,1466.48,705.08z"/>
</g>
<g id="naiils">
	<path class="quite5" d="M1022.41,493.79c-9.33-8.33-21.32-11.42-33.1-9.09c-2.75,0-5.4,1.13-7.31,3.1
		c-10.21,10.58-15.62,26.16-15.62,45.04V638.1c0,5.24,3.99,9.63,9.21,10.13c0.28,0.03,2.07,0.18,4.91,0.18
		c9.11,0,29.01-1.64,44.34-14.58c11.55-9.75,18.07-23.58,19.36-41.1C1046.27,564.91,1046.17,515.06,1022.41,493.79z M1023.91,591.23
		c-0.87,11.99-4.85,20.81-12.11,26.98c-7.73,6.58-17.84,8.83-25.08,9.55v-94.91c0-12.12,2.59-21.64,7.75-28.4
		c5.7-0.45,10.4,0.94,14.35,4.49C1021.27,520.08,1026.91,550.83,1023.91,591.23z"/>
	<path class="quite5" d="M1468.48,1440.86c-1.27-3.06-3.97-5.31-7.23-6.02c-3.23-0.66-6.65,0.23-9.09,2.5
		c-1.19,1.12-29.01,27.6-17.43,63.91c4.69,15.06,13.35,20.98,19.81,23.3c3.36,1.21,6.75,1.68,9.99,1.68
		c11.55,0,21.32-6.15,22.67-7.02c3.47-2.29,5.22-6.47,4.37-10.57C1488.25,1492.55,1480.06,1468.49,1468.48,1440.86z
		 M1461.38,1505.39c-3.05-1.11-5.46-4.53-7.23-10.24c-3.7-11.6-1.22-21.85,2.44-29.43c5.88,15.18,10.41,28.61,13.22,39.27
		C1467.03,1505.85,1463.93,1506.3,1461.38,1505.39z"/>
	<path class="quite5" d="M1576.19,1398.48c-1.35-2.7-3.84-4.66-6.75-5.35c-2.99-0.71-6.01-0.08-8.45,1.75
		c-13.54,10.12-33.96,39.47-14.38,78.09c7.76,15.42,18.38,20.8,25.91,22.6c2.83,0.67,5.61,0.97,8.29,0.97
		c14.41,0,26.09-8.26,27.58-9.37c3.76-2.78,5.14-7.77,3.34-12.11C1605.09,1459.14,1592.24,1430.65,1576.19,1398.48z
		 M1577.22,1475.77c-4.85-1.17-9.03-5.18-12.45-11.97c-9.94-19.56-5.67-34.02-0.19-42.83c11.76,24.1,20.16,42.91,24.74,53.44
		C1585.78,1475.77,1581.36,1476.78,1577.22,1475.77z"/>
	<path class="quite5" d="M1642.09,1339.03c-5.17-24.75-36.02-76.16-49.53-98.35c-1.78-2.91-4.87-4.74-8.26-4.87
		c-3.58-0.3-6.65,1.43-8.64,4.17c-1.3,1.76-31.18,43.81-3.34,93.45c10.01,17.71,24.85,23.21,38.46,23.21
		c10.28,0,19.84-3.13,26.15-6.48C1640.96,1348.03,1643.07,1343.49,1642.09,1339.03z M1590.04,1323.45
		c-12.66-22.57-9.88-43.08-5.35-56.3c17.56,29.84,30.54,54.86,35.15,67.9C1611.34,1337.29,1598.18,1337.84,1590.04,1323.45z"/>
</g>
<g id="nails2">
	<path class="quite6" d="M1018.17,498.33c-7.95-7.1-17.85-9.6-29.02-7.52c-1.1,0-2.16,0.45-2.93,1.24
		c-9.22,9.54-13.89,23.27-13.89,40.79V638.1c0,2.09,1.59,3.85,3.68,4.05c0.25,0.03,1.91,0.17,4.53,0.17c8.32,0,26.37-1.5,40.2-13.16
		c10.25-8.65,16.05-21.05,17.22-36.87C1039.94,565.57,1040,517.87,1018.17,498.33z M1029.85,591.68
		c-1.01,13.55-5.83,24.05-14.3,31.23c-11.8,9.99-27.92,11.24-35.09,11.26V532.85c0-14.72,3.59-26.18,10.69-34.15
		c8.7-1.31,15.79,0.48,21.59,5.7C1026.78,516.97,1033,548.78,1029.85,591.68z"/>
	<path class="quite6" d="M1635.98,1340.32c-0.53-2.5-1.38-5.26-2.28-8.26c-5.19-15.9-22.57-48.87-46.51-88.21
		c-0.69-1.15-1.93-1.89-3.31-1.95c-1.27-0.07-2.65,0.58-3.44,1.67c-0.29,0.4-28.9,40.62-2.97,86.86
		c8.66,15.31,21.54,20.06,33.4,20.06c9.03,0,17.48-2.77,23.05-5.72C1635.53,1343.92,1636.38,1342.1,1635.98,1340.32z
		 M1584.56,1326.44c-18.25-32.54-7.1-61.07-0.88-72.65c21.83,36.28,37.51,66.22,42.3,80.85c0.42,1.44,0.85,2.86,1.25,4.25
		C1619.34,1342.13,1597.12,1348.64,1584.56,1326.44z"/>
	<path class="quite6" d="M1570.55,1401.21c-0.53-1.08-1.51-1.87-2.7-2.15c-1.06-0.25-2.38-0.01-3.36,0.71
		c-0.34,0.26-34.78,26.7-12.58,70.46c5.38,10.7,12.74,17.22,21.88,19.4c2.3,0.54,4.58,0.78,6.81,0.78c12.79,0,23.47-7.77,24-8.16
		c1.51-1.11,2.07-3.11,1.35-4.83C1599.32,1461.57,1586.58,1433.24,1570.55,1401.21z M1575.66,1481.71
		c-6.7-1.59-12.24-6.69-16.5-15.15c-14.99-29.58-0.79-49.39,6.52-56.91c16.61,33.52,27.44,58.38,31.42,67.75
		C1592.85,1479.81,1584.17,1483.73,1575.66,1481.71z"/>
	<path class="quite6" d="M1462.71,1443.21c-0.53-1.22-1.61-2.12-2.91-2.39c-1.22-0.29-2.65,0.08-3.63,0.99
		c-1.06,1.01-26.17,24.91-15.76,57.63c3.15,10.16,8.56,16.67,16.05,19.36c2.62,0.94,5.3,1.32,7.87,1.32
		c10.06,0,18.91-5.7,19.36-6.01c1.4-0.91,2.09-2.6,1.75-4.23C1482.21,1494.17,1474.13,1470.49,1462.71,1443.21z M1459.16,1511.14
		c-4.93-1.79-8.64-6.53-10.99-14.13c-6.51-20.47,3.44-37.03,9.48-44.69c9.27,22.66,15.97,42.35,19.2,56.32
		C1473.1,1510.51,1465.65,1513.44,1459.16,1511.14z"/>
</g>
</svg>
