<?xml version="1.0" encoding="utf-8"?>
<!-- Generator: Adobe Illustrator 26.3.1, SVG Export Plug-In . SVG Version: 6.00 Build 0)  -->
<svg version="1.1" id="suckker" xmlns="http://www.w3.org/2000/svg" xmlns:xlink="http://www.w3.org/1999/xlink" x="0px" y="0px"
	 viewBox="0 0 1417.32 1417.32" style="enable-background:new 0 0 1417.32 1417.32;" xml:space="preserve">
<style type="text/css">
	.st0{fill:#4B950A;}
	.st1{fill:#4B770A;}
	.st2{fill:#4B1E0A;}
	.st3{fill:#827A70;}
	.st4{fill:#FFCE00;}
	.st5{fill:#FF8B00;}
	.st6{opacity:0.6;fill:#9A7A4C;}
	.st7{opacity:0.7;fill:#9A7A4C;}
	.st8{fill:#D5D0CC;}
	.st9{opacity:0.7;fill:#E2A881;}
	.st10{fill:#F9C6A2;}
	.st11{opacity:0.7;fill:#C18E6C;}
	.st12{fill:#70482A;}
	.st13{opacity:0.4;fill:#70482A;}
	.st14{fill:#E2A881;}
	.st15{fill:#E59E00;}
	.st16{fill:#FFFFFF;}
	.st17{fill:#FFE8D9;}
	.st18{fill:#996644;}
	.st19{fill:#9A7A4C;}
	.st20{opacity:0.4;fill:#9A7A4C;}
</style>
<g id="bg">
	<rect x="2.11" class="st0" width="1420.04" height="1417.32"/>
	<path class="st1" d="M-4.83,953.15c0,0,165.45-43.66,427.4-16.09s611.23,64.34,726.13,64.34c114.89,0,273.45-18.38,273.45-18.38
		v434.3H-4.83V953.15z"/>
</g>
<g id="foot">
	<path class="st2" d="M646.56,933.81c-2.87-7.1-7.43-8.55-13.65-7.32c-3.11,2.77-6.21,5.54-9.31,8.33
		c-10.67,9.61-19.31,21.56-28.06,32.87c-9.99,12.92-19.28,26.42-28.95,39.58c-19.6,26.7-39.62,53.09-60.18,79.06
		c-9.87,12.47-20.45,24.44-29.13,37.8c-3.81,5.87-7.76,11.18-12.44,16.37c-4.41,4.9-8.52,9.87-10.63,16.2
		c-0.39,1.17,0.32,2.55,1.5,2.37c-0.02,0.28-0.05,0.57-0.04,0.85c0.18,4.01,2.81,6.38,5.78,8.78c2.79,2.25,6.45,3.04,9.28,5.19
		c1.55,1.17,3.25,1.05,4.2-0.59c0.28-0.47,0.11-0.96-0.23-1.15c0.11-0.19,0.19-0.39,0.24-0.6c3.29-13.4,12.88-25.27,21.37-35.86
		c10.76-13.4,23.02-25.7,34.8-38.21c22.08-23.44,43.6-46.99,63.1-72.65c8.66-11.39,16.77-23.29,23.76-35.78
		c8.25-14.73,16.58-27.54,29.77-38.37c0.52-0.43,1.06-0.83,1.58-1.25C651.95,944.72,648.51,938.63,646.56,933.81z"/>
	<g>
		<g>
			<g>
				<g>
					<g>
						<path class="st2" d="M479.47,1173.93c-0.62-1.2-2.42-0.98-3.49-0.15c-3.68-2.38-7.91-4.07-11.12-7.26
							c-2.33-2.31-5.55-5.79-8.9-5.06c0.32-1.79,0.44-3.59,0.25-5.29c-0.54-4.9-6.1-10.41-9.1-14.04
							c-5.97-7.27-13.24-6.16-20.86-4.48c-0.39,0-0.79-0.01-1.18,0c-5.11,0.14-10.11,0.94-15.23,0.43
							c-9.35-0.93-18.01-6.61-25.48-11.87c-16.04-11.29-28.8-26.39-42.59-40.17c-11.36-11.36-24.87-23.67-41.19-26.67
							c-8.21-1.51-26.72-0.05-31.03,8.59c-0.06,0.11-0.09,0.22-0.12,0.34c-5.79,9.14,9.18,28.11,13.59,33.71
							c13.48,17.11,27.21,34.07,42.68,49.44c16.42,16.32,34.64,31.12,52.96,45.24c9.22,7.11,18.93,13.57,29.06,19.31
							c5.03,2.85,11.02,7.4,17.09,9.78c1.09,0.72,2.18,1.45,3.3,2.12c7.97,4.73,15.97,3.99,23.8-0.68
							c8.35-4.99,14.31-13.55,19.97-21.22C479.27,1196.01,485.69,1185.96,479.47,1173.93z"/>
						<path class="st3" d="M407.62,1212.58c-8.5-4.95-16.57-10.65-24.42-16.56c-15.65-11.78-30.69-24.69-45.12-37.92
							c-14.87-13.63-28.07-28.64-40.78-44.27c-5.75-7.08-11.78-13.98-17.09-21.4c-2.96-4.15-10.74-15.38-9.43-22.43
							c0.04-0.03,0.1-0.04,0.13-0.09c0.01-0.01,0.02-0.03,0.04-0.05c4.05,0.55,7.43-0.21,11.47,1.49
							c7.33,3.1,12.7,11.69,17.25,17.87c9.25,12.58,18.62,25.01,28.29,37.28c9.75,12.38,18.21,25.65,28.34,37.74
							c10.49,12.51,22.59,23.25,35.11,33.67c5.85,4.87,11.51,10.2,17.33,15.32C408.36,1213.01,407.99,1212.8,407.62,1212.58z"/>
						<path class="st4" d="M401.37,1199.57c-17.78-14.77-34.51-29.67-48.74-48.01c-13.57-17.5-26.51-35.46-40.32-52.8
							c-8.87-11.15-19.97-32.03-36.76-31.38c-0.7,0.03-1.4,0.06-2.09,0.08c-0.36,0.06-0.6,0.09-0.85,0.11
							c0.22-0.3,0.45-0.59,0.67-0.86c1.58-1.55,4.13-2.28,6.12-2.95c1.33-0.45,2.69-0.78,4.07-1.07c0.4,0.09,0.77,0.12,1.21,0.25
							c5.45,1.63,10.14,6.25,14.3,9.94c7.75,6.87,13.66,15.06,20.05,23.1c12.62,15.89,23.87,32.75,36.07,48.96
							c22.57,30,48.47,58.84,79.47,80.38C422.08,1221.59,410.06,1206.78,401.37,1199.57z"/>
						<path class="st5" d="M467.27,1204.17c-4.82,6.74-10,13.54-16.72,18.49c-3.62,2.66-7.31,3.67-10.98,3.53
							c-39.21-26.31-69.78-64-96.8-102.22c-12.32-17.41-24.81-36.06-40.34-50.77c-3.53-3.35-9.33-8.79-15.12-11.19
							c0.94-0.13,1.89-0.26,2.83-0.37c12.04-1.48,21.62,3.64,30.77,10.89c17.19,13.63,30.78,31.31,46.94,46.09
							c10.8,9.89,26.12,22.1,41.56,22.38c3.73,0.07,7.33-0.64,10.96-1.29c1.82-0.26,3.63-0.57,5.42-0.82
							c1.83-0.19,3.66-0.27,5.46-0.47c4.57-0.02,8.84,1.22,12.36,5.85c2.86,3.77,7.58,9.39,8.05,14.19
							c0.4,4.05-3.66,7.52-1.94,11.44c0.56,1.28,2.62,1.31,3.29,0.05c0.8-1.52,1.53-3.24,2.1-5.02c0.46,0.06,0.93,0.21,1.39,0.43
							c2.06,1.88,4.17,3.72,6.2,5.63c0.18,0.19,0.36,0.4,0.53,0.56c0.13,0.12,0.28,0.22,0.4,0.34c0.9,0.88,1.79,1.77,2.62,2.72
							c2.62,2.97,6.97,4.23,10.4,6.12C477.94,1189.45,472.6,1196.73,467.27,1204.17z"/>
						<path class="st6" d="M429.06,1138.99c-16.92,3.83-31.66,3.37-46.55-6.03c-11.31-7.14-20.3-17.91-28.84-28.02
							c-14.58-17.26-30.57-38.53-55.21-39.26c-0.55-0.02-0.62,0.89-0.08,0.97c26.46,4.13,42.68,31.26,58.86,49.83
							c18.1,20.77,44.61,39.08,72.54,23.99C430.67,1139.98,429.91,1138.8,429.06,1138.99z"/>
						<path class="st7" d="M355.09,1144.95c-6.11-8.12-11.99-16.41-17.91-24.65c0.35,1.13,0.72,2.24,0.99,3.41
							c0.3,1.31-1.18,2.57-2.31,1.52c-10.81-10.03-18.45-26.35-30.41-35.81c2.45,3.39,4.73,6.65,6.87,9.34
							c13.81,17.35,26.75,35.3,40.32,52.8c14.22,18.34,30.95,33.24,48.74,48.01c8.69,7.21,20.71,22.01,33.19,25.76
							C403.56,1203.79,377.66,1174.95,355.09,1144.95z"/>
						<path class="st7" d="M476.63,1180.71c-3.43-1.88-7.78-3.15-10.4-6.12c-0.83-0.94-1.72-1.84-2.62-2.72
							c-0.13-0.12-0.27-0.22-0.4-0.34c-0.17-0.16-0.35-0.37-0.53-0.56c-2.03-1.91-4.14-3.75-6.2-5.63
							c-0.46-0.22-0.93-0.38-1.39-0.43c-0.57,1.78-1.3,3.49-2.1,5.02c-0.66,1.25-2.73,1.23-3.29-0.05
							c-1.72-3.92,2.34-7.39,1.94-11.44c-0.29-2.96-2.21-6.23-4.3-9.2c1.1,4.16,1.4,8.52-0.15,12.65
							c-1.97,5.24-6.07,10.15-6.9,15.76c4.51-0.76,11.61-2.15,14.54,1.38c3.04,3.66,0.45,9.4-1.83,12.83
							c-2.97,4.45-7.33,7.83-12.9,7.88c-13.33,0.11-25.81-11.27-35.01-19.63c-15.96-14.5-30.19-30.85-44.4-47.04
							c-14.05-16-27.83-32.41-43.14-47.24c-4.35-4.22-11.83-12.36-19.57-16.68c1.68,1.46,3.19,2.88,4.42,4.04
							c15.53,14.72,28.02,33.36,40.34,50.77c27.02,38.22,57.59,75.91,96.8,102.22c3.68,0.14,7.36-0.87,10.98-3.53
							c6.72-4.95,11.9-11.75,16.72-18.49C472.6,1196.73,477.94,1189.45,476.63,1180.71z"/>
						<path class="st2" d="M278.42,1083.13c-1.63-1.9-3.13-3.6-4.45-5.78c-0.55-0.92-1.93-0.75-2.72-0.34
							c-2.16,1.13-3.35,3.88-4.05,6.35c-0.14,0.23-0.29,0.48-0.44,0.71c-2.09,3.18,0.73,7.42,3.82,8.73c1.75,0.74,3.4-0.38,4.6-1.55
							c1.28-1.27,3.03-2.36,4.06-3.85C280.32,1085.86,279.49,1084.39,278.42,1083.13z"/>
						<path class="st2" d="M303.09,1092.39c-1.63-1.91-3.13-3.61-4.45-5.78c-0.55-0.93-1.93-0.76-2.72-0.34
							c-2.16,1.12-3.35,3.88-4.05,6.35c-0.14,0.23-0.29,0.47-0.44,0.71c-2.09,3.18,0.73,7.42,3.82,8.72c1.75,0.74,3.4-0.38,4.6-1.55
							c1.28-1.27,3.03-2.36,4.07-3.85C304.99,1095.11,304.16,1093.64,303.09,1092.39z"/>
						<path class="st2" d="M300.85,1115.57c-1.62-1.91-3.13-3.61-4.45-5.78c-0.55-0.92-1.92-0.75-2.72-0.34
							c-2.16,1.12-3.35,3.87-4.05,6.35c-0.14,0.24-0.29,0.48-0.44,0.71c-2.09,3.18,0.73,7.42,3.82,8.72
							c1.76,0.74,3.41-0.37,4.6-1.55c1.28-1.27,3.03-2.37,4.07-3.85C302.75,1118.3,301.92,1116.83,300.85,1115.57z"/>
						<path class="st2" d="M325.52,1124.82c-1.62-1.91-3.13-3.6-4.45-5.78c-0.55-0.92-1.93-0.75-2.72-0.34
							c-2.16,1.13-3.35,3.88-4.05,6.35c-0.14,0.24-0.29,0.48-0.44,0.71c-2.09,3.18,0.73,7.42,3.82,8.72c1.76,0.74,3.4-0.38,4.6-1.55
							c1.28-1.27,3.03-2.36,4.07-3.85C327.42,1127.55,326.59,1126.08,325.52,1124.82z"/>
						<path class="st2" d="M332.17,1155.98c-1.63-1.9-3.14-3.6-4.45-5.77c-0.55-0.93-1.93-0.76-2.72-0.34
							c-2.16,1.13-3.35,3.88-4.05,6.35c-0.15,0.23-0.29,0.48-0.44,0.71c-2.09,3.18,0.73,7.42,3.82,8.72c1.75,0.74,3.4-0.38,4.6-1.55
							c1.28-1.27,3.03-2.36,4.06-3.85C334.06,1158.71,333.23,1157.24,332.17,1155.98z"/>
						<path class="st2" d="M373.65,1187.21c-2.02-1.47-3.89-2.77-5.68-4.58c-0.75-0.77-2.05-0.28-2.72,0.3
							c-1.83,1.6-2.35,4.55-2.45,7.12c-0.09,0.26-0.17,0.53-0.26,0.8c-1.29,3.58,2.44,7.04,5.75,7.59c1.88,0.31,3.22-1.16,4.11-2.59
							c0.95-1.54,2.39-3.01,3.05-4.7C376.13,1189.42,374.98,1188.18,373.65,1187.21z"/>
						<path class="st2" d="M404.56,1210.5c-2.02-1.47-3.89-2.77-5.68-4.57c-0.76-0.77-2.05-0.28-2.72,0.3
							c-1.84,1.6-2.35,4.55-2.45,7.12c-0.09,0.26-0.17,0.53-0.26,0.79c-1.29,3.58,2.45,7.04,5.75,7.59
							c1.88,0.31,3.22-1.16,4.11-2.58c0.95-1.54,2.39-3.01,3.06-4.7C407.04,1212.71,405.89,1211.47,404.56,1210.5z"/>
						<path class="st2" d="M430.05,1227.01c-2.02-1.47-3.89-2.76-5.67-4.57c-0.76-0.77-2.05-0.28-2.72,0.3
							c-1.83,1.6-2.35,4.56-2.45,7.12c-0.09,0.26-0.17,0.53-0.26,0.8c-1.29,3.58,2.45,7.04,5.75,7.59c1.88,0.31,3.22-1.16,4.11-2.59
							c0.95-1.54,2.39-3.01,3.05-4.7C432.54,1229.22,431.39,1227.99,430.05,1227.01z"/>
						<path class="st2" d="M357.85,1163.67c-1.62-1.91-3.13-3.61-4.45-5.78c-0.56-0.93-1.93-0.76-2.72-0.34
							c-2.16,1.13-3.35,3.88-4.05,6.35c-0.14,0.23-0.29,0.48-0.44,0.71c-2.09,3.18,0.73,7.42,3.82,8.72
							c1.76,0.74,3.41-0.38,4.6-1.55c1.28-1.27,3.03-2.36,4.07-3.85C359.75,1166.4,358.92,1164.93,357.85,1163.67z"/>
					</g>
					<g>
						<path class="st8" d="M573.39,1004.09c-1.29,1.78-2.58,3.55-3.87,5.31c-19.67,26.65-39.66,53.07-60.25,79
							c-9.89,12.45-20.5,24.43-29.14,37.8c-3.52,5.45-6.98,10.46-11.37,15.22c-3.68,3.99-7.22,8.08-9.74,12.85
							c-0.82,5.05,1.52,8.48,5.98,11.8c0.46,0.34,3.91,3.01,6.39,4.75c0.11-0.24,0.25-0.48,0.45-0.67
							c3.32-11.96,11.01-22.7,18.58-32.37c10.25-13.08,21.82-25.06,33.17-37.16c24.2-25.79,48.35-51.37,69.43-79.83
							c0.29-0.4,0.56-0.81,0.85-1.21C588.55,1012.83,581.04,1006.81,573.39,1004.09z"/>
						<path class="st8" d="M583.64,1009.7c-16.8,25.76-36.1,49.73-56.07,73.16c-22.18,26.03-48.28,51.51-63.16,82.73
							c0.2,0.16,0.38,0.31,0.59,0.47c0.46,0.34,3.91,3.01,6.39,4.75c0.11-0.24,0.25-0.48,0.45-0.67
							c3.32-11.96,11.01-22.7,18.58-32.37c10.25-13.08,21.82-25.06,33.17-37.16c24.2-25.79,48.35-51.37,69.43-79.83
							c0.29-0.4,0.56-0.81,0.85-1.21C590.99,1015.93,587.46,1012.52,583.64,1009.7z"/>
					</g>
					<g>
						<path class="st2" d="M395.84,1132.58c-0.2,0.08-0.39,0.17-0.58,0.26c-2.18-2.06-5-4.68-4.98-4.69c0.1-0.18,0.1-0.33,0.06-0.45
							c0.2-0.45,0.18-0.94-0.34-1.24c-2.38-1.37-5.91-2.91-9.04-3.65c-0.31-0.57-0.62-1.14-0.89-1.7c-0.69-1.46-0.69-2.63-2.13-3.5
							c-0.79-0.48-1.91-0.2-2.39,0.62c-0.88,1.51-0.87,2.88-0.44,4.2c-1.83,0.04-3.75-0.08-4.94-0.95c0.55-2.23,0.05-4.43-0.49-6.69
							c-0.54-2.26-1-6.37-3.25-7.58c-0.94-0.51-1.86-0.17-2.5,0.65c-1.76,2.2-1.05,4.76-0.02,7.12c1.13,2.57,2.29,5.63,3.93,7.91
							c0.41,0.56,1,0.49,1.47,0.17c1.33,1.2,3.44,1.58,5.16,1.85c0.76,0.12,1.51,0.31,2.26,0.53c0.33,0.48,0.68,0.96,1.03,1.45
							c2.92,4.08,3.89,9.22,6.84,13.28c0.21,0.28,0.64,0.25,0.87,0.02c0.31-0.31,0.47-0.48,0.55-0.84c2.03,0.01,4.92-0.76,5.79-0.91
							c0.55-0.09,1.19-0.18,1.86-0.27c0.6,1.2,1.17,2.42,1.7,3.63c1.24,2.86,1.67,5.94,4.04,8.08c1.33,1.2,3.44-0.58,3.59-1.97
							c0.41-3.89-1.72-7.56-3.96-10.78c2.28-0.68,4.25-1.79,4.85-3.85C405.37,1128.31,397.3,1131.96,395.84,1132.58z
							 M389.12,1135.55c-0.61,0.27-3.02,1.6-3.92,2c-0.12-1.31-0.65-2.64-0.92-3.9c-0.44-2.01-0.84-4-1.35-5.99
							c1.92,0.68,3.87,1.18,5.87,1.1c-0.24,1.79,1.69,3.98,2.53,5.25c0.1,0.15,0.17,0.3,0.26,0.44
							C390.77,1134.82,389.94,1135.18,389.12,1135.55z"/>
						<path class="st2" d="M360.71,1112.01c-1.21-1.38-0.96-3.96-0.9-5.68c0.07-2.11-0.29-5.51-2.57-6.33
							c-0.8-0.29-1.44,0.5-1.64,1.17c-0.36,1.24,0.01,2.15,0.6,3.27c0.71,1.36,0.95,2.72,1.24,4.19c0.34,1.71,0.87,3.58,2.53,4.4
							C360.47,1113.26,361.05,1112.4,360.71,1112.01z"/>
					</g>
				</g>
			</g>
		</g>
	</g>
	<path class="st9" d="M644.44,935.92c-0.18-0.45-0.39-0.81-0.58-1.21c-4.76,3.36-9.28,7.06-13.01,11.49
		c-6.13,7.28-11.11,15.59-16.35,23.53c-8.65,13.12-17.38,26.18-27.5,38.2c3.3,2.56,6.34,5.55,8.91,8.75
		c8.56-12.02,16.09-24.48,23.38-37.37c7.39-13.08,16.25-23.98,28.19-33.21c0.19-0.15,0.39-0.3,0.58-0.45
		C647,942.57,645.8,939.3,644.44,935.92z"/>
	<path class="st10" d="M644.44,935.92c-1.88-4.64-4.44-7.14-7.16-8.39c-2.61,2.34-5.23,4.68-7.85,7.02
		c-21.23,18.88-37.44,43.58-54.05,66.76c7.72,2.83,15.13,8.65,20.53,15.37c8.56-12.02,16.09-24.48,23.38-37.37
		c7.39-13.08,16.25-23.98,28.19-33.21c0.19-0.15,0.39-0.3,0.58-0.45C647,942.57,645.8,939.3,644.44,935.92z"/>
</g>
<g id="body">
	<g>
		<path class="st2" d="M623.14,244L623.14,244C623.17,243.96,623.16,243.96,623.14,244z"/>
		<g>
			<path class="st2" d="M911.81,259.84c1.03,0.27,2.34-0.79,1.93-1.92c-1.17-3.23-2.68-6.13-4.3-9.04c0.39-0.44,0.57-1.05,0.19-1.6
				c-1.88-1.6-1.4-2.97,1.41-4.12c1.25-0.01,2.38-1.65,1.31-2.64c-0.67-0.92-1.49-1.64-2.45-2.16c-6.2-2.27-1.73-6.74,0.88-10.85
				c0.51-0.8-0.17-2.15-1.2-1.82c-6.66,2.12-5.91-2.33-6.57-8.89c-0.64-6.4-2.89-12.71-5-18.74c-4.79-13.71-14.66-27.81-24.98-37.93
				c-10.27-10.06-22.9-19.27-35.98-25.33c-6.08-2.82-12.72-4.13-19.21-5.7c-6.77-1.63-0.32-2.62,3.06-5.02
				c0.74-0.53,0.99-1.96-0.03-2.34c-3.53-1.33-6.57-1.55-10.48-0.87c-3.48,0.6-11.38,4.54-10.4-1.32c0.16-0.99-0.6-1.59-1.52-1.23
				c-0.9,0.34-1.64,0.44-2.26,1.09c-6.02,6.31-3.54,0.39-3.74-5.89c-0.02-0.75-0.81-1.27-1.5-0.87c-2.98,1.71-12.04,10.65-6.9,2.56
				c0.46-0.73-0.15-1.75-1.02-1.55c-3.86,0.88-10.16,2.1-12.5,5.55c0.8-1.19,1.81-2.22,2.63-3.39c0.59-0.22,1.04-1.05,0.85-1.57
				c0.25-0.78-0.6-1.04-1.09-0.5c-4.84-0.94-9.06-0.47-13.61-0.14c2.4-1.19,4.83-2.45,6.12-4.43c0.49-0.76,0.58-2.12-0.65-2.2
				c-6.44-0.42-13.25,1.02-19.27,3.36c-1.7,0.66-9.94,6.37-7.14-0.12c0.98-2.26,1.95-3.96,2.24-6.4c0.12-0.96-0.57-1.6-1.51-1.22
				c-3.69,1.46-7.72,3.84-10.22,7.01c-4.1,5.19-7,0.36-11.81-1.22c-0.9-0.3-2.16,0.96-1.47,1.81c0.24,0.3,2.02,2.62,3.17,4.1
				c-32.71-0.49-66.36,12.67-93.31,30.6c-14.76,9.82-25.75,21.38-36.14,35.67c-7.68,10.56-17.31,24.4-18,37.93
				c-3.28,0.15-6.12-3.17-9.1-4.12c-0.61-0.19-1.42,0.39-1.33,1.07c0.47,3.86,2.32,7.55,3.84,11.1c-0.15-0.35-10.16,4.23-10.74,4.47
				c-0.74,0.3-1.31,1.86-0.25,2.15c2.14,0.59,4.37,0.68,6.49,1.29c2.63,0.76,4.83,0.33,2.06,2.96c-2.38,2.27-4.14,4.63-5.14,7.81
				c-0.13,0.42,0.08,1.02,0.53,1.15c2.16,0.63,4.75,0.18,5.23,2.52c-5.79,0.64-11.73,0.37-17.14,2.87c-0.64,0.3-1.03,1.13-0.66,1.77
				c1.95,3.4,5.55,5.04,8.87,6.82c2.92,1.57,5.15,3.31,8.21,3.83c-3.09,8.89-6.31,22.49-1.82,31.25c0.49,0.96,1.8,0.24,2.14-0.43
				c3-5.84,4.85-11.98,8.89-17.13c-0.03,1.23-0.07,2.45-0.1,3.67c-0.21,0.4-0.45,0.77-0.64,1.19c0.1,11.76,1.85,23.58,4.47,35.02
				c3.18,13.86,8.1,27.26,11.22,41.14c3.32,14.73,2.69,28.82,2.17,43.71c-0.85,24.21,7.27,40.13,28.04,52.6
				c43.61,26.19,96.16,33.51,142.61,11.14c18.04-8.69,33.48-22.54,47.03-37.39c3.19-1.59,6.46-2.99,9.72-4.46
				c2.03-0.92,3.95-2.39,5.92-3.63c-1.61,2.07-3.35,3.99-4.38,6.54c-0.46,1.14,0.36,2.65,1.73,1.92c5.76-3.08,10.46-8.05,15.7-11.94
				c3.96-2.94,7.37-5.72,10.36-9.26c-0.31,1.45-0.74,2.88-0.92,4.29c-0.21,1.62,1.17,2.24,2.46,1.42c4.22-2.66,7.68-7.36,9.26-12.32
				c0.51,2.72,1.47,5.32,2.27,8.17c0.4,1.42,1.97,0.97,2.73,0.21c5.01-4.96,4.97-13.63,8.05-20.19c0.07,2.63-0.18,5.37-0.19,7.79
				c0,1.66,2.09,1.78,2.92,0.65c6.41-8.82,10.92-18.55,14.68-28.66c0.49,1.72,0.95,3.46,1.35,5.23c0.44,1.97,3.15,0.79,3.41-0.68
				c1.55-8.73,2.71-16.05,2.97-24.17c0.58,1.86,1.08,3.75,1.69,5.81c0.36,1.23,1.95,1.09,2.61,0.2c3.97-5.41,3.68-14.18,2.87-21.65
				c0.95,1.57,1.83,3.18,2.79,4.73c0.83,1.34,2.9,0.26,3.09-1.03c1.2-8.53-0.1-19.42-2.81-28.19c-0.07-0.4-0.13-0.8-0.18-1.2
				c0.23,0.47,0.53,0.89,0.73,1.39c0.72,1.36,2.66,0.14,2.87-0.96c1.12-5.93,0.78-12.4,0.74-18.41c-0.02-2.36-1.06-7.43-1.48-9.73
				c0.43,2.35,2.1,3.99,3.64,5.62c0.9,0.96,2.33-0.51,2.32-1.45c-0.08-6.08-1.17-11.97-2.42-17.93
				C909.61,261.98,905.61,258.22,911.81,259.84z"/>
			<path class="st10" d="M749.57,464.12c-43.8,19.48-96.63,7.81-136.11-16.71c-21.62-13.43-21.2-35.46-20.1-58.21
				c1.07-22.04-5.21-43.1-11.76-63.9c-4.07-12.89-6.77-25.97-7.46-39.04c0.08-0.15,0.16-0.3,0.2-0.47
				c2.06-8.75,7.15-14.92,12.92-20.98c-0.08,0.26-0.19,0.51-0.27,0.78c-0.23,0.8,0.45,1.58,1.27,1.4c3.96-0.87,7.2-4.23,10.45-6.53
				c6.09-4.31,12.45-8.22,18.69-12.31c-0.91,1.5-1.73,3.04-2.31,4.92c-0.36,1.15,0.81,1.82,1.78,1.44c7.48-3,14.57-8.42,21.43-12.99
				c-0.65,1.4-1.23,2.85-1.71,4.41c-0.26,0.87,0.49,1.66,1.36,1.5c7.01-1.34,14.17-5.25,20.97-7.51c4.07-1.35,8.13-2.74,12-4.61
				c4.05-1.96,1.55,6.22,1.76,8.48c0.13,1.4,1.52,1.31,2.33,0.51c3.82-3.8,6.64-8.46,10.64-12.11c0.18-0.17,0.31-0.4,0.37-0.64
				c1.92,6.43,8.41,16.82,13.98,16.56c1.17-0.05,2.17-0.78,2.44-1.96c0.86-3.65,0.19-8.37-0.79-12.57
				c6.26,4.35,18.41,12.92,18.42,4.4c0-1.29-0.6-2.71-1.17-4.02c1.6,1.76,4.06,4.37,4.07,4.38c3.94,4.18,7.68,8.55,11.1,13.17
				c1.63,2.19,2.22,4.62,4.45,6.37c0.81,0.64,2.07-0.13,2.22-1.06c0.94-6.08,0.46-12.57-0.26-18.74
				c4.89,4.55,9.14,10.02,14.46,13.76c0.78,0.55,1.76,0.05,2.16-0.73c1.07-2.1,1.15-4.46,1.42-6.77c1.31,5.93,2.44,12.53,2.26,18.17
				c-0.07,2.19-0.13,5.28,2.38,5.94c2.98,0.78,6.96-6.95,9.43-12.38c0.3,4.95-0.38,9.95,0.07,14.9c0.13,1.45,1.67,1.48,2.5,0.55
				c0.99-1.1,1.9-2.24,2.83-3.36c0.35,8.7,1.89,17.94,6.13,25.45c0.91,1.61,3.14-0.09,3.1-1.46c-0.01-0.12-0.01-0.24-0.01-0.35
				c-0.01-0.36-0.11-0.61-0.23-0.81c1.79-6.48,1.07,6.79,1.7,10.62c1.03,6.23,2.04,14.02,5.81,19.24c0.57,0.79,1.87,0.43,2.18-0.44
				c0.91-2.53,1.89-8.02,1.59-9.12c2.88,10.73,6.76,19.99,12.24,29.63c0.64,1.13,2.26,0.14,2.45-0.82
				c0.75-4.04-1.58-21.01,0.92-9.46c1.85,8.54,3.47,17.2,7.68,24.95c0.62,1.13,2.38,0.17,2.51-0.83c1.12-9.23,1.33-19.61,1.06-29.46
				c0.2-0.13,0.35-0.39,0.22-0.63c-0.12-0.23-0.17-0.48-0.27-0.71c-0.07-2.09-0.16-4.15-0.26-6.17
				c2.36-8.51,14.43-16.51,21.57-11.78c5.51,3.66,6.91,11.12,7.34,17.07c0.64,8.81-3.2,36.52-16.29,38.72
				c0.04-2.46,0.01-4.95-0.17-7.46c-0.11-1.61-2.07-0.78-2.18,0.44c-1.28,13.39-2.51,25.95-7.57,38.53
				c-4.26,10.58-12,19.82-19.36,28.39C792.53,439.9,771.35,454.43,749.57,464.12z"/>
			<path class="st9" d="M711.17,331.76c1.75,9.96-0.83,18.75-5.77,19.61c-4.94,0.87-10.37-6.5-12.12-16.46
				c-1.75-9.96,0.83-18.75,5.77-19.61C703.99,314.42,709.41,321.79,711.17,331.76z"/>
			<path class="st9" d="M711.24,280.93c-6.36-3.12-13.63-4.28-20.63-2.84c-13.81,2.85-21.59,11.52-25.8,24.46
				c-0.23,1.65-0.33,3.31-0.28,4.94c0.12,3.19,0.38,6.91,2.17,9.7c2.27,3.54,5.76,5.05,7.37,0.48c2.36-6.67,2.72-13.76,6.94-19.73
				c11.43-16.18,31.44-13.89,44.33-0.87C723.95,290.42,716.74,283.63,711.24,280.93z"/>
			<path class="st9" d="M852.98,317.53c-1.85-2.52-4.11-4.45-6.8-4.9c-5.44-0.9-8.3,4.53-10.09,8.63c-0.59,1.35-1.01,2.21-2.31,2.86
				c-2.45,1.23-4.98-2.52-5.21-4.52c-0.35-3.06-0.18-5.94,0.4-8.77c-1.95,2.08-3.47,4.49-4.15,6.96c0.11,2.02,0.2,4.08,0.26,6.17
				c0.1,0.23,0.15,0.48,0.27,0.71c0.12,0.23-0.02,0.5-0.22,0.63c0.27,9.85,0.06,20.22-1.06,29.46c-0.12,1.01-1.89,1.97-2.51,0.83
				c-4.22-7.74-5.84-16.41-7.68-24.95c-2.5-11.56-0.17,5.41-0.92,9.46c-0.18,0.96-1.8,1.94-2.45,0.82
				c-5.48-9.64-9.37-18.9-12.24-29.63c0.3,1.11-0.68,6.59-1.59,9.12c-0.31,0.87-1.61,1.22-2.18,0.44
				c-3.77-5.22-4.78-13.01-5.81-19.24c-0.63-3.83,0.09-17.1-1.7-10.62c0.13,0.2,0.22,0.45,0.23,0.81c0,0.11,0.01,0.23,0.01,0.35
				c0.04,1.37-2.19,3.07-3.1,1.46c-4.24-7.5-5.78-16.75-6.13-25.45c-0.92,1.13-1.83,2.26-2.83,3.36c-0.83,0.93-2.37,0.9-2.5-0.55
				c-0.45-4.95,0.23-9.95-0.07-14.9c-2.47,5.44-6.46,13.16-9.43,12.38c-2.51-0.65-2.45-3.74-2.38-5.94
				c0.18-5.65-0.95-12.25-2.26-18.17c-0.27,2.31-0.36,4.67-1.42,6.77c-0.4,0.78-1.37,1.28-2.16,0.73
				c-5.32-3.74-9.57-9.2-14.46-13.76c0.73,6.17,1.21,12.66,0.26,18.74c-0.14,0.93-1.41,1.69-2.22,1.06
				c-2.23-1.75-2.82-4.18-4.45-6.37c-3.42-4.61-7.16-8.99-11.1-13.17c-0.01-0.01-2.46-2.63-4.07-4.38c0.57,1.3,1.17,2.73,1.17,4.02
				c-0.02,8.52-12.17-0.05-18.42-4.4c0.98,4.2,1.65,8.92,0.79,12.57c-0.27,1.18-1.27,1.9-2.44,1.96
				c-5.57,0.26-12.06-10.13-13.98-16.56c-0.06,0.24-0.18,0.47-0.37,0.64c-4,3.65-6.82,8.31-10.64,12.11c-0.8,0.8-2.2,0.89-2.33-0.51
				c-0.21-2.26,2.29-10.44-1.76-8.48c-3.86,1.87-7.93,3.26-12,4.61c-6.8,2.26-13.96,6.17-20.97,7.51c-0.87,0.16-1.62-0.63-1.36-1.5
				c0.47-1.56,1.06-3.01,1.71-4.41c-6.86,4.57-13.95,9.99-21.43,12.99c-0.97,0.39-2.13-0.29-1.78-1.44c0.58-1.88,1.4-3.42,2.31-4.92
				c-6.24,4.09-12.59,8-18.69,12.31c-3.24,2.3-6.49,5.66-10.45,6.53c-0.82,0.18-1.5-0.6-1.27-1.4c0.08-0.26,0.18-0.52,0.27-0.78
				c-5.77,6.06-10.86,12.23-12.92,20.98c-0.04,0.17-0.12,0.32-0.2,0.47c0.08,1.57,0.2,3.14,0.34,4.71
				c3.11-6.12,5.93-12.39,9.26-18.41c0.57-1.03,1.85-0.81,2.47,0c1.01,1.33,1.64,2.62,2.12,3.99c5.3-9.16,12.96-16.72,21.66-22.73
				c1.13-0.78,2.31,0.5,2.1,1.61c-0.6,3.16-1.32,6.29-2,9.43c6.1-5.23,11.99-10.7,18.84-14.98c0.7-0.44,1.51-0.11,1.95,0.51
				c1.24,1.75,2.25,3.49,2.95,5.51c0.75,2.18,5.79-2.22,7.07-3.01c6.34-3.87,12.95-7.13,19.82-9.95c0.55-0.23,1.36,0.14,1.61,0.66
				c1.98,4.02,1.49,8.12,2.15,12.31c5.43-5.05,11.48-11.79,18.75-12.96c2.94-0.47,6.58,2.3,8.83,3.76
				c4.79,3.11,10.12,7.13,15.95,7.84c0.17-2.45,0.25-4.9,0.26-7.36c0-0.98,1.26-1.92,2.15-1.23c1.27,0.97,12.4,9.59,12.5,5.52
				c0.04-1.48,1.87-1.87,2.66-0.72c4.5,6.52,11.68,10.15,17.46,15.35c0.69-3.99,1.57-7.86,3.66-11.42c0.58-0.99,2.4-0.92,2.61,0.34
				c1.54,9.05,2.12,18.18,5.28,26.82c3.08-2.95,5.75-6.24,8.42-9.58c0.86-1.08,2.35-0.08,2.44,1.01c0.5,5.8,0.4,11.56,1.76,17.19
				c1.2-1.32,2.37-2.66,3.66-3.9c0.73-0.71,1.66-0.4,2.14,0.23c0.36,0.22,0.64,0.59,0.66,1.13c0.16,5.1,1.45,10.05,2.45,14.99
				c0.56,2.75,1.58,1.03,3.29,1.5c5.86,1.61,6.2,9.85,9,14.07c10.44,15.72,15.87,36.04,14.1,54.94c-1.68,18-9.96,33.88-24.02,45.38
				c-7.1,5.81-14.98,10.3-22.54,15.46c-6.93,4.73-14.13,10.07-22.66,11.24c-0.87,0.12-1.86-0.35-1.81-1.38
				c0.3-6.54,2.36-12.8,2.77-19.3c-8.8,4.11-13.65,14.71-22.45,19.18c-7.05,3.57-15.72,2.45-21.73-2.44c-1-0.81-0.15-2.45,1.01-2.44
				c9.95,0.09,18.85-6.04,23.42-14.79c2.82-5.4,4.21-11.33,6.62-16.9c3.82-8.82,9.58-13.71,18.91-13.43
				c-5.25-3.91-11.26-6.27-17.64-7.65c4.15,20.3-63.65,30.99-74.54,34.49c-0.78,0.25-1.35-0.17-1.6-0.75
				c-0.37-0.4-0.51-0.98-0.13-1.59c3.13-5,7.14-9.37,12.71-11.66c7.18-2.95,16.36-1.82,21.71-8.16c4.9-5.83,7.42-12.85,10.32-19.77
				c1.08-2.57,3.24-6.13,2.98-9c-0.33-3.6-7.64,1.73-8.73,2.43c-12.18,7.94-26.12,12.8-38.62,20.29
				c-3.62,2.17-14.46,9.05-16.76,2.09c-2.83-3.91-2.62-10.47-2.4-14.82c0.3-6.08,0.99-12.11,1.84-18.12
				c1.05-7.44,3.64-15.22,3.68-22.73c0.08-14.37-11.41-28.58-23.23-35.95c-6.71-4.19-19.2-9.65-24.34,0.23
				c-1.54,2.97-1.85,6.14-2.07,9.35c-0.16,6.6-0.54,13.16,0.51,19.57c5.69,18.54,10.54,37.36,9.59,56.93
				c-1.11,22.75-1.52,44.78,20.1,58.21c39.47,24.52,92.31,36.19,136.11,16.71c21.79-9.69,42.96-24.22,58.59-42.41
				c7.36-8.57,15.1-17.81,19.36-28.39c5.06-12.58,6.29-25.14,7.57-38.53c0.12-1.22,2.08-2.04,2.18-0.44c0.18,2.52,0.21,5,0.17,7.46
				c13.09-2.2,16.93-29.91,16.29-38.72C853.59,321.32,853.36,319.43,852.98,317.53z"/>
			<path class="st11" d="M712.81,450.03c-3.39,1.01-6.71,1.03-9.98,0.51c-4.72-0.37-9.09-3.21-14.09-3.35
				c6.56,8.77,23.42,22.21,33.54,15.26c7.26-4.99,5.74-16.2,3.45-24.19C722.56,443.22,718.51,448.32,712.81,450.03z"/>
			<path class="st9" d="M844.07,323.89c-2.3,1.4-3.91,3.75-4.95,6.2c-1.25,2.91-2.03,6.26-1.6,9.43c0.45,3.35,3.6,8.59,6.58,4.05
				c3.11-4.74,2.01-9.73,3.71-14.82c0.67-2.03,1.7-2.91,2.82-3.02C848.91,323.81,846.6,322.35,844.07,323.89z"/>
			<path class="st11" d="M609.68,303.11c-6.71-4.19-19.2-9.65-24.34,0.23c-1.54,2.97-1.85,6.14-2.07,9.35
				c-0.05,1.94-0.1,3.88-0.15,5.81c4.21-7.32,10.93-12.39,19.48-5.99c8.82,6.6,14.35,20.68,16.29,31.16
				c0.26,1.41-1.28,2.38-2.39,1.39c-1.48-1.32-2.72-2.85-4.15-4.21c-2.22-2.79-5.19-2.38-8.92,1.2c-0.29,1.68-0.42,3.37-0.39,5.07
				c0.1,3.07,0.54,6.02,1.26,9c0.9,3.79,5.15,22.45,11.42,18.87c0.99-0.57,2.07,0.17,2.15,1.23c0.77,9.82-4.07,25,9.23,27.31
				c6.71,1.17,13.67,1.92,20.47,2.34c7.31,0.45,16.63,1.09,23.04-3.17c4.23-2.81,6.9-8.12,6.83-13.27
				c-0.09-6.68-6.02-3.16-9.27-1.27c-8.49,4.97-26.79,20.19-37.16,12.38c-4.52-3.4-4.73-9.92-3.71-15.99
				c-0.03-1.66,0.03-3.26,0.09-4.64c0.3-6.08,0.99-12.11,1.84-18.12c1.05-7.44,3.64-15.22,3.68-22.73
				C632.99,324.69,621.5,310.48,609.68,303.11z"/>
			<path class="st12" d="M903.51,255.98c2,5.81,4.01,11.3,5.32,17.34c1.95,9.02,1.25,5.1-2.94,2.28c-1.2-0.8-2.42,0.58-2.23,1.76
				c1.37,8.58,2.51,17.87,1.77,26.76c-0.53-0.66-1.05-1.33-1.69-1.92c-1.04-1.18-2.76-0.12-2.78,1.31
				c-0.08,7.06,2.11,14.9,2.85,22.09c0.06,0.63,0.39,0.9,0.78,0.93c0.04,1.97,0.03,3.92-0.06,5.82c-1.27-2.12-2.61-4.16-4.45-5.95
				c-1.1-1.08-3.06,0.55-2.92,1.82c0.68,5.7,2.12,15.34,0.49,22.17c-0.98-3.03-1.97-5.96-3.61-8.83c-0.8-1.4-2.66,0.1-2.66,1.26
				c-0.01,8-0.85,15.33-2.07,22.89c-0.97-3.06-2.14-6.03-3.7-8.89c-0.88-1.61-3.54,0.31-2.9,1.8c0.88,2.06,1.65,4.13,2.36,6.22
				c-2.12,4.35-3.17,9.16-5.21,13.58c-1.97,4.27-4.61,9.02-7.37,13.3c0.08-2.52,0.05-5.06-0.58-7.41c-0.38-1.41-2.08-1.07-2.82-0.22
				c-4.91,5.7-4.69,15.46-8.57,21.69c-1.26-3.16-2.6-6.28-3.64-9.53c-0.17-0.54-0.69-0.32-0.93,0.03c-0.86,0.01-1.99,0.71-2.28,1.54
				c-1.01,2.86-2.98,6.85-5.28,9.97c0.34-1.65,0.6-3.22,0.24-5.23c-0.24-1.32-2.13-1.09-2.71-0.21c-3.39,5.16-7.67,8.89-12.61,12.54
				c-3.3,2.43-6.39,5.46-9.69,8.09c1.21-1.55,2.42-3.09,3.28-4.91c0.4-0.85-0.09-2.35-1.29-1.96c-5.4,1.78-9.92,5.62-15.1,8.14
				c1.07-1.23,2.13-2.45,3.18-3.69c13.88-16.28,22.66-35.1,23.7-56.04c20.82,0.98,23.35-43.81,15.82-56.17
				c-4.05-6.65-14.88-10.57-21.4-4.98c-3.02,2.59-6.34,6.94-7.88,11.49c-0.45,0.09-0.93,0.52-0.98,1.05
				c-0.58,6.42-0.91,12.85-1.3,19.29c-0.26,3.35-0.35,6.71-0.25,10.07c-0.04,1.06-0.06,1.91-0.08,2.65
				c-3.15-8.7-2.47-19.21-6.98-27.08c-0.7-1.22-2.41-0.15-2.62,0.87c-0.55,2.73-1.45,6.16-1.43,8.95c0.01,1.35,0.02,2.69,0.02,4.04
				c-5.87-10.51-7.87-20.66-10.99-32.06c-0.4-1.44-2.22-0.54-2.47,0.49c-1.56,6.34-0.37,17.37-4.14,5.24
				c-2.62-8.42-1.84-17.22-3.61-25.65c-0.26-1.21-1.85-0.43-2.03,0.4c-0.87,3.85-1.05,4.44-1.21,5.78
				c-3.49-7.63-4.82-16.89-4.77-24.97c0.01-1.68-1.87-1.46-2.71-0.6c-1.08,1.11-2.01,2.29-2.93,3.49
				c-0.04-5.65,0.7-11.26-0.55-16.85c-0.34-1.52-2.32-0.81-2.8,0.19c-1.54,3.19-3.21,6.24-5.02,9.29c-1.09,1.83-3.35,5.08-3.24,0.56
				c0.17-7.04-1.98-14.98-3.7-21.79c-0.37-1.47-2.08-0.68-2.6,0.17c-0.8,1.3-3.26,9.39-2.07,10.16c-5.51-3.59-9.61-8.85-15.23-12.51
				c-0.14-0.77-0.72-0.96-1.27-0.77c-0.24-0.14-0.46-0.3-0.71-0.43c-0.41-0.22-0.9,0.53-0.53,0.82c0.13,0.11,0.26,0.23,0.4,0.34
				c-0.09,0.17-0.16,0.36-0.16,0.58c-0.13,5.61,0.76,11.44,0.47,17.1c-2.5-2.92-4.3-6.97-6.83-9.66
				c-4.44-4.73-8.93-10.58-14.42-14.12c-0.71-0.46-1.64,0.33-1.42,1.13c3.26,11.56-11.23-0.34-15.96-2.59
				c-1.26-0.6-2.43,1.07-2.19,2.17c0.65,2.87-0.92,10.71,1.78,12.81c-4.47-3.48-11.4-9.31-13.19-14.72
				c-0.14-0.42-0.74-0.14-0.71,0.23c0.03,0.43,0.12,0.91,0.24,1.42c-0.21-0.14-0.49-0.17-0.87,0.03c-4.17,2.14-6.71,6.17-9.61,9.82
				c-0.01-2.44,0.29-4.86,0.73-7.33c0.15-0.8-0.36-1.49-1.22-1.35c-7.74,1.29-15.57,5.02-22.99,7.72c-3.5,1.27-7.21,2.3-10.46,4.13
				c-0.77-1.99-0.55-3.88,0.66-5.64c0.84-2.14,2.16-4.16,3.17-6.23c0.23-0.49-0.41-0.85-0.71-0.4c-1.52,2.34-2.99,4.57-4.29,6.88
				c-0.21-0.04-0.44-0.03-0.71,0.11c-4.08,2.19-8.33,4.16-12.22,6.69c-2.42,1.57-4.69,3.24-7,4.96c-1.02,0.75,2.7-5.33,2.96-5.74
				c0.92-1.49-0.87-2.37-2.03-1.65c-8.11,5.03-16.25,10.04-23.94,15.7c-0.83,0.61-7.66,6.48-6.18,3.26
				c0.11-0.23,0.22-0.46,0.32-0.69c0.22-0.23,0.44-0.45,0.66-0.68c0.41-0.42,0.44-0.9,0.26-1.27c1.48-3.12,3-6.21,4.55-9.32
				c0.2-0.4-0.33-0.69-0.58-0.33c-2.12,3.11-4.38,6.3-6.23,9.67c-6.55,4.91-12.11,11.19-15.62,18.56c0.02-1.09,0.02-2.18-0.02-3.28
				c-0.06-1.54-1.69-1.37-2.51-0.56c-5.21,5.21-7.64,11.68-10.37,18.22c-3.09-7.86-0.53-19.85,1.63-27.32
				c0.19,0.01,0.37,0.04,0.58,0.05c1.18,0.04,2.04-1.71,0.83-2.32c-2.49-1.25-5.24-1.92-7.79-3.37c-3-1.7-6.56-2.83-8.84-5.48
				c4.84-1.92,10.23-1.92,15.34-2.95c0.34,0.45,1.11,0.21,1.47-0.33c0.12-0.03,0.24-0.05,0.36-0.08c0.62-0.16,0.77-1.18,0.07-1.17
				c0.57-2.47,0.51-4.34-2.72-4.49c-4.35-0.2,0.29-4.28,1.99-5.9c1.01-0.96,1.84-1.89,2.08-3.26c0.07-0.36,0.02-0.79-0.3-1.03
				c-2.06-1.52-4.9-1.92-7.61-2.32c2.75-0.95,5.48-1.81,8.19-2.89c0.48-0.19,0.96-0.93,0.74-1.45c-1.47-3.38-3.42-6.88-4.38-10.51
				c2.73,1.24,5.26,3.3,8.25,2.68c0.13,0.33,0.63,0.32,0.85,0.03c0.1-0.13,0.21-0.26,0.31-0.39c0.31-0.39-0.04-0.88-0.46-0.67
				c-0.03,0.01-0.05,0-0.07,0.01c3.76-3.03,6-14.07,8.22-18.45c3.86-7.64,9.73-14.88,14.86-21.73c9.1-12.14,19.87-21.86,32.3-30.45
				c28.03-19.37,58.27-29.46,92.12-31.72c0.02,0.06,0.07,0.11,0.16,0.14c0.3,0.11,0.61,0.21,0.92,0.32c0.5,0.17,1.17-0.42,0.96-0.96
				c-0.31-0.92-0.66-1.81-1.06-2.69c1.89,1.36,3.18,2.44,5.58,3.06c0.7,0.18,1.21-0.18,1.58-0.76l4.95-5.87
				c1.16-1.66,2.7-2.26,4.64-1.81c-1.27,3.03-2.46,5.45-3.26,8.65c-0.24,0.99,0.68,1.66,1.58,1.27c7.15-3.15,14.19-5.62,21.84-7.27
				c6.19-1.33-2.41,2.81-3.89,3.99c-0.71,0.56-1.02,2.39,0.34,2.36c5.94-0.11,11.62-1.02,17.57-0.7c-1.22,1.41-2.69,2.76-3.76,4.08
				c-0.72,0.89-0.05,2.14,1.09,1.69c3.56-1.42,13.65-8.13,9.05,0c-0.52,0.92,0.37,1.94,1.33,1.48c4.28-2.05,2.94-1.21,6.67-4.14
				c6.1-4.79,4.95,4.06,5.43,7.17c0.17,1.09,1.55,0.69,2.03,0.15c2.6-2.87,4.05-6.59,3.6-0.45c-0.07,0.92,0.9,1.17,1.59,0.92
				c2.96-1.08,18.67-3.01,16.57-1.94c-2.74,1.39-2.94,1.76-4.95,3.96c-0.65,0.71-0.41,1.95,0.61,2.09
				c22.06,2.87,40.51,14.57,57.08,28.86c21.9,18.88,28.84,44.31,34.07,71.25c0.2,1.05,1.45,0.93,2.11,0.49
				c4.12-2.81-0.98,4.35-1.39,6.37c-0.11,0.52,0.06,1.23,0.65,1.4c1.49,0.31,2.89,0.85,4.2,1.56c-0.43,0.17-0.96,0.4-1.7,0.7
				c-0.62,0.26-1.04,0.97-1.04,1.62c0,2.76,0.9,3.78,2.81,5.95c0.23,0.27,0.52,0.37,0.81,0.4c1.99,3.82,3.73,6.55-2.55,4.41
				C904.5,253.44,903.09,254.78,903.51,255.98z"/>
			<path class="st13" d="M725.1,121.57c1.04,0.44,0.8,1.73,0.07,2.33c5.04-1.55,10.19-2.63,15.66-2.52
				c1.47,0.03,1.89,1.88,0.72,2.66c-2.18,1.47-4.21,2.93-6.06,4.59c3.23-1.53,6.58-2.68,10.34-2.96c0.74-0.06,1.49,0.69,1.43,1.43
				c-0.31,4.05-1.76,7.75-2.85,11.58c1.72-0.84,3.45-1.66,4.99-2.81c0.93-0.69,2.1,0.26,2.15,1.23c0.3,5.62-1.06,11.05-1.76,16.58
				c3.17-3.66,6.21-7.41,10.05-10.44c0.82-0.64,2.08-0.5,2.39,0.63c0.9,3.27,1.35,6.62,2.01,9.94c2.25-4.23,4.48-8.38,7.75-12
				c0.5-0.55,1.52-0.56,2.02,0c2.27,2.57,4.04,5.52,6.2,8.15c-0.08-4.69-0.58-9.29,0.71-13.96c0.23-0.82,1.34-1.41,2.1-0.85
				c4.37,3.21,8.76,5.91,13.71,7.75c-1.04-1.58-1.92-3.27-2.8-5.08c-0.42-0.85,0.06-2.29,1.23-2.15c9.1,1.11,17.06,5.52,25.31,9.2
				c-0.48-1.58-0.4-3.14-0.28-5.63c0.04-0.8,0.62-1.4,1.43-1.43c4.62-0.17,9.28-0.04,13.92,0.35c-7.8-3.59-16.06-6.18-24.91-7.33
				c-1.02-0.13-1.26-1.37-0.61-2.09c2.01-2.2,2.22-2.57,4.95-3.96c2.11-1.07-13.61,0.86-16.57,1.94c-0.69,0.25-1.65-0.01-1.59-0.92
				c0.45-6.14-1.01-2.42-3.6,0.45c-0.48,0.54-1.87,0.94-2.03-0.15c-0.48-3.11,0.67-11.96-5.43-7.17c-3.73,2.93-2.38,2.09-6.67,4.14
				c-0.97,0.46-1.85-0.56-1.33-1.48c4.6-8.13-5.49-1.42-9.05,0c-1.14,0.45-1.82-0.8-1.09-1.69c1.07-1.32,2.54-2.66,3.76-4.08
				c-5.95-0.31-11.63,0.59-17.57,0.7c-1.36,0.03-1.05-1.8-0.34-2.36c1.48-1.19,10.08-5.33,3.89-3.99
				c-7.65,1.66-14.69,4.13-21.84,7.27c-0.9,0.39-1.82-0.28-1.58-1.27c0.79-3.2,1.98-5.62,3.26-8.65c-1.93-0.45-3.47,0.15-4.64,1.81
				l-4.95,5.87c-0.36,0.58-0.88,0.94-1.58,0.76c-2.4-0.62-3.69-1.7-5.58-3.06c0.4,0.88,0.75,1.77,1.06,2.69
				c0.21,0.53-0.46,1.13-0.96,0.96c-0.31-0.11-0.61-0.21-0.92-0.32c-0.09-0.03-0.13-0.08-0.16-0.14c-4.19,0.28-8.33,0.68-12.42,1.2
				C713.26,117.91,719.39,119.15,725.1,121.57z"/>
			<path class="st13" d="M905.66,253.84c6.28,2.14,4.54-0.59,2.55-4.41c-0.29-0.02-0.58-0.13-0.81-0.4
				c-1.91-2.17-2.81-3.19-2.81-5.95c0-0.66,0.42-1.37,1.04-1.62c0.75-0.31,1.27-0.53,1.7-0.7c-1.31-0.71-2.71-1.25-4.2-1.56
				c-0.59-0.17-0.75-0.87-0.65-1.4c0.41-2.03,5.51-9.18,1.39-6.37c-0.66,0.45-1.91,0.56-2.11-0.49c-0.44-2.28-0.91-4.55-1.39-6.81
				c-5.21-2.64-9.99-6.31-15.29-8.81c2.01,7.38,6.84,13.74,7.95,21.49c0.17,1.21-0.9,2.26-2.1,1.61c-2.65-1.42-5.16-3.07-7.62-4.78
				c1.08,24.47-16.68,18.56-40.98-4.32c-8.91-8.38-28.57,27.77-32.77,15.95c-4.19-11.82-3.99-24.56-5.59-36.88
				c-4.88,1.88-9.13,4.99-14.16,6.58c-1.09,0.34-1.99-0.74-1.76-1.76c0.73-3.26,1.99-6.29,3.21-9.36c-3.2,1.4-5.84,3.47-8.69,5.75
				c-1.04,0.83-2.83,0.1-2.39-1.39c2.09-7.02-4.31-16.02-2.91-23.21c-14.25,5.93-17.06,18.38-32.02,22.59
				c-15.97,4.5-31.6-18.67-48.05-20.45c-18.94-2.04-56.85,12.04-48.48-12.23c-12.71,9.33-23.97,20.44-36.58,29.9
				c-0.98,0.74-2.54-0.49-2.1-1.61c2.37-6.12,5.54-11.8,8.63-17.56c-5.34,3.3-9.94,7.68-15.11,11.31c-1.04,0.73-2.45-0.47-2.1-1.61
				c2.94-9.47,9.71-16.55,15.07-24.62c-6.11,2.6-11.92,5.95-18.69,6.41c-0.55,0.04-1.02-0.35-1.26-0.83
				c-0.51,0.66-1.04,1.3-1.55,1.97c-5.13,6.85-11,14.1-14.86,21.73c-2.22,4.37-4.46,15.41-8.22,18.45c0.02-0.01,0.04,0,0.07-0.01
				c0.42-0.21,0.78,0.28,0.46,0.67c-0.11,0.13-0.21,0.26-0.31,0.39c-0.22,0.28-0.72,0.3-0.85-0.03c-3,0.62-5.53-1.44-8.25-2.68
				c0.96,3.63,2.9,7.13,4.38,10.51c0.22,0.52-0.26,1.27-0.74,1.45c-2.7,1.08-5.44,1.94-8.19,2.89c2.71,0.4,5.55,0.8,7.61,2.32
				c0.32,0.24,0.37,0.67,0.3,1.03c-0.24,1.37-1.07,2.3-2.08,3.26c-1.7,1.62-6.34,5.7-1.99,5.9c3.23,0.15,3.29,2.02,2.72,4.49
				c0.7-0.01,0.55,1.01-0.07,1.17c-0.12,0.03-0.24,0.05-0.36,0.08c-0.36,0.54-1.13,0.78-1.47,0.33c-5.1,1.03-10.49,1.04-15.34,2.95
				c2.28,2.64,5.84,3.78,8.84,5.48c2.55,1.45,5.3,2.12,7.79,3.37c1.22,0.61,0.35,2.36-0.83,2.32c-0.2-0.01-0.39-0.04-0.58-0.05
				c-2.16,7.47-4.73,19.45-1.63,27.32c2.73-6.54,5.16-13.01,10.37-18.22c0.82-0.82,2.45-0.99,2.51,0.56
				c0.04,1.1,0.04,2.19,0.02,3.28c3.51-7.36,9.06-13.64,15.62-18.56c1.85-3.36,4.11-6.56,6.23-9.67c0.25-0.36,0.78-0.07,0.58,0.33
				c-1.55,3.11-3.07,6.19-4.55,9.32c0.17,0.38,0.15,0.85-0.26,1.27c-0.22,0.23-0.44,0.45-0.66,0.68c-0.11,0.23-0.22,0.46-0.32,0.69
				c-1.47,3.22,5.35-2.65,6.18-3.26c7.69-5.66,15.83-10.67,23.94-15.7c1.17-0.73,2.95,0.16,2.03,1.65c-0.26,0.42-3.98,6.5-2.96,5.74
				c2.32-1.72,4.59-3.38,7-4.96c3.89-2.53,8.14-4.5,12.22-6.69c0.27-0.15,0.5-0.16,0.71-0.11c1.31-2.31,2.78-4.54,4.29-6.88
				c0.3-0.45,0.94-0.08,0.71,0.4c-1.02,2.07-2.33,4.08-3.17,6.23c-1.22,1.76-1.44,3.65-0.66,5.64c3.25-1.83,6.96-2.86,10.46-4.13
				c7.42-2.7,15.25-6.43,22.99-7.72c0.86-0.14,1.37,0.55,1.22,1.35c-0.44,2.47-0.73,4.89-0.73,7.33c2.9-3.65,5.43-7.68,9.61-9.82
				c0.38-0.2,0.66-0.16,0.87-0.03c-0.12-0.51-0.21-1-0.24-1.42c-0.03-0.37,0.58-0.66,0.71-0.23c1.79,5.42,8.72,11.24,13.19,14.72
				c-2.69-2.09-1.12-9.94-1.78-12.81c-0.25-1.1,0.93-2.78,2.19-2.17c4.73,2.26,19.21,14.15,15.96,2.59
				c-0.22-0.79,0.71-1.58,1.42-1.13c5.49,3.54,9.98,9.39,14.42,14.12c2.53,2.69,4.33,6.75,6.83,9.66c0.28-5.66-0.6-11.49-0.47-17.1
				c0.01-0.22,0.07-0.4,0.16-0.58c-0.13-0.11-0.26-0.23-0.4-0.34c-0.37-0.3,0.11-1.04,0.53-0.82c0.25,0.13,0.47,0.29,0.71,0.43
				c0.55-0.19,1.13,0,1.27,0.77c5.62,3.66,9.72,8.92,15.23,12.51c-1.19-0.78,1.27-8.86,2.07-10.16c0.52-0.85,2.23-1.65,2.6-0.17
				c1.71,6.81,3.87,14.74,3.7,21.79c-0.11,4.51,2.15,1.27,3.24-0.56c1.81-3.05,3.47-6.1,5.02-9.29c0.49-1,2.46-1.71,2.8-0.19
				c1.26,5.59,0.51,11.2,0.55,16.85c0.92-1.2,1.84-2.38,2.93-3.49c0.84-0.86,2.72-1.08,2.71,0.6c-0.05,8.08,1.28,17.34,4.77,24.97
				c0.16-1.34,0.34-1.93,1.21-5.78c0.18-0.83,1.78-1.61,2.03-0.4c1.76,8.43,0.98,17.22,3.61,25.65c3.78,12.13,2.59,1.1,4.14-5.24
				c0.26-1.04,2.08-1.93,2.47-0.49c3.11,11.4,5.12,21.55,10.99,32.06c-0.01-1.35-0.02-2.69-0.02-4.04
				c-0.02-2.79,0.88-6.22,1.43-8.95c0.21-1.02,1.92-2.09,2.62-0.87c4.5,7.87,3.83,18.38,6.98,27.08c0.02-0.74,0.04-1.59,0.08-2.65
				c-0.1-3.36-0.01-6.72,0.25-10.07c0.39-6.44,0.71-12.87,1.3-19.29c0.04-0.53,0.53-0.96,0.98-1.05c1.54-4.54,4.86-8.9,7.88-11.49
				c6.52-5.58,17.35-1.66,21.4,4.98c7.53,12.36,5,57.15-15.82,56.17c-1.04,20.94-9.82,39.76-23.7,56.04
				c-1.05,1.23-2.11,2.46-3.18,3.69c5.18-2.52,9.71-6.35,15.1-8.14c1.2-0.39,1.69,1.1,1.29,1.96c-0.86,1.83-2.08,3.37-3.28,4.91
				c3.3-2.63,6.39-5.65,9.69-8.09c4.94-3.64,9.22-7.38,12.61-12.54c0.59-0.89,2.47-1.11,2.71,0.21c0.36,2.01,0.1,3.58-0.24,5.23
				c2.3-3.12,4.27-7.11,5.28-9.97c0.29-0.83,1.42-1.53,2.28-1.54c0.25-0.35,0.76-0.57,0.93-0.03c1.04,3.25,2.38,6.37,3.64,9.53
				c3.88-6.24,3.66-15.99,8.57-21.69c0.74-0.86,2.44-1.2,2.82,0.22c0.63,2.35,0.65,4.89,0.58,7.41c2.75-4.29,5.4-9.03,7.37-13.3
				c2.04-4.42,3.09-9.23,5.21-13.58c-0.71-2.09-1.49-4.16-2.36-6.22c-0.63-1.49,2.02-3.41,2.9-1.8c1.56,2.86,2.74,5.83,3.7,8.89
				c1.22-7.57,2.06-14.9,2.07-22.89c0-1.16,1.87-2.66,2.66-1.26c1.65,2.87,2.64,5.8,3.61,8.83c1.63-6.84,0.19-16.47-0.49-22.17
				c-0.15-1.27,1.81-2.9,2.92-1.82c1.83,1.8,3.17,3.83,4.45,5.95c0.09-1.89,0.1-3.85,0.06-5.82c-0.39-0.03-0.71-0.3-0.78-0.93
				c-0.74-7.19-2.93-15.03-2.85-22.09c0.02-1.43,1.74-2.49,2.78-1.31c0.64,0.59,1.16,1.26,1.69,1.92c0.74-8.88-0.4-18.18-1.77-26.76
				c-0.19-1.19,1.04-2.57,2.23-1.76c4.19,2.83,4.89,6.74,2.94-2.28c-1.31-6.03-3.32-11.53-5.32-17.34
				C903.09,254.78,904.5,253.44,905.66,253.84z"/>
			<path class="st13" d="M903.51,255.98c-0.42-1.2,0.99-2.54,2.16-2.14c0.09,0.03,0.15,0.05,0.23,0.07
				c-1.43-1.42-2.89-2.8-4.42-4.12c1.47,5.38,2.62,10.84,3.72,16.32c0.25,1.26-1.42,2.61-2.39,1.39c-1.72-2.15-3.54-4.12-5.66-5.8
				c1.44,9.39,3.31,18.69,5.19,28c0.31,1.56-1.76,2.55-2.61,1.1c-2.4-4.04-5.01-7.76-8.48-10.85c-1.67,10.94,1.56,21.99,1.14,33
				c-0.05,1.19-1.56,1.97-2.44,1.01c-3.91-4.25-6.81-9.27-10.74-13.48c-2.93,6.93-1.58,15.14-2.55,22.47
				c-0.16,1.2-2.02,2.21-2.66,0.72c-4.23-9.78-9.06-23.25-18.31-29.51c-11.14-7.55-22.93,0.96-31.63,8.36
				c-0.92,0.78-2.44,0.31-2.44-1.01v-8.45c-1.94,4.75-3.45,9.65-5.05,14.55c-0.35,1.07-2.06,1.55-2.61,0.34
				c-4.55-9.89-8.29-19.97-10.23-30.65c-1.62,3.35-2.9,6.84-4.32,10.29c-0.48,1.17-1.85,1.42-2.61,0.34
				c-4.15-5.87-5.87-12.66-7.13-19.59c-1.14,3.28-2.16,6.6-3.12,9.96c-0.34,1.18-1.99,1.43-2.61,0.34c-0.7-1.22-1.37-2.46-2.04-3.7
				c0.74,4.83,2,9.65,3.96,13.94c0.16-1.34,0.34-1.93,1.21-5.78c0.18-0.83,1.78-1.61,2.03-0.4c1.76,8.43,0.98,17.22,3.61,25.65
				c3.78,12.13,2.59,1.1,4.14-5.24c0.26-1.04,2.08-1.93,2.47-0.49c3.11,11.4,5.12,21.55,10.99,32.06c-0.01-1.35-0.02-2.69-0.02-4.04
				c-0.02-2.79,0.88-6.22,1.43-8.95c0.21-1.02,1.92-2.09,2.62-0.87c4.5,7.87,3.83,18.38,6.98,27.08c0.02-0.74,0.04-1.59,0.08-2.65
				c-0.1-3.36-0.01-6.72,0.25-10.07c0.39-6.44,0.71-12.87,1.3-19.29c0.04-0.53,0.53-0.96,0.98-1.05c1.54-4.54,4.86-8.9,7.88-11.49
				c6.52-5.58,17.35-1.66,21.4,4.98c7.53,12.36,5,57.15-15.82,56.17c-1.04,20.94-9.82,39.76-23.7,56.04
				c-1.05,1.23-2.11,2.46-3.18,3.69c5.18-2.52,9.71-6.35,15.1-8.14c1.2-0.39,1.69,1.1,1.29,1.96c-0.86,1.83-2.08,3.37-3.28,4.91
				c3.3-2.63,6.39-5.65,9.69-8.09c4.94-3.64,9.22-7.38,12.61-12.54c0.59-0.89,2.47-1.11,2.71,0.21c0.36,2.01,0.1,3.58-0.24,5.23
				c2.3-3.12,4.27-7.11,5.28-9.97c0.29-0.83,1.42-1.53,2.28-1.54c0.25-0.35,0.76-0.57,0.93-0.03c1.04,3.25,2.38,6.37,3.64,9.53
				c3.88-6.24,3.66-15.99,8.57-21.69c0.74-0.86,2.44-1.2,2.82,0.22c0.63,2.35,0.65,4.89,0.58,7.41c2.75-4.29,5.4-9.03,7.37-13.3
				c2.04-4.42,3.09-9.23,5.21-13.58c-0.71-2.09-1.49-4.16-2.36-6.22c-0.63-1.49,2.02-3.41,2.9-1.8c1.56,2.86,2.74,5.83,3.7,8.89
				c1.22-7.57,2.06-14.9,2.07-22.89c0-1.16,1.87-2.66,2.66-1.26c1.65,2.87,2.64,5.8,3.61,8.83c1.63-6.84,0.19-16.47-0.49-22.17
				c-0.15-1.27,1.81-2.9,2.92-1.82c1.83,1.8,3.17,3.83,4.45,5.95c0.09-1.89,0.1-3.85,0.06-5.82c-0.39-0.03-0.71-0.3-0.78-0.93
				c-0.74-7.19-2.93-15.03-2.85-22.09c0.02-1.43,1.74-2.49,2.78-1.31c0.64,0.59,1.16,1.26,1.69,1.92c0.74-8.88-0.4-18.18-1.77-26.76
				c-0.19-1.19,1.04-2.57,2.23-1.76c4.19,2.83,4.89,6.74,2.94-2.28C907.52,267.28,905.51,261.79,903.51,255.98z"/>
			<path class="st2" d="M839.36,344.12c0.37-2.43,0.26-6.17,0.54-9.77c0.77,0.4,1.78,0.5,2.6,0.68c1.25,0.28,2.53,0.49,3.78,0.15
				c0.87-0.23,1.09-1.7-0.02-1.59c-1.08,0.11-2.14-0.37-3.12-0.78c-0.93-0.39-1.93-1.1-2.97-0.84c0.73-4.92,2.66-8.91,8.37-7.76
				c0.57,0.12,0.98-0.87,0.4-1.12c-11.86-5.15-13.19,14.25-11.99,21.5C837.18,345.99,839.2,345.14,839.36,344.12z"/>
			<path class="st2" d="M605.59,342.44c-3.32,0.52-4.33,7.61-2.28,15.82c2.07,8.23,6.43,14.47,9.75,13.96
				c3.32-0.52,4.34-7.6,2.28-15.82C613.27,348.17,608.91,341.93,605.59,342.44z M612.06,357.46c-1.06,0.17-2.43-1.8-3.09-4.42
				c-0.65-2.6-0.32-4.84,0.72-5c1.05-0.16,2.43,1.82,3.09,4.42C613.43,355.06,613.11,357.31,612.06,357.46z"/>
			<path class="st2" d="M699.99,318.83c-3.35,0.2-5.05,7.15-3.79,15.53c1.27,8.39,5.01,15.02,8.36,14.83
				c3.36-0.2,5.05-7.15,3.79-15.53C707.09,325.28,703.35,318.64,699.99,318.83z M703.55,324.8c1.06-0.07,2.25,2.04,2.65,4.69
				c0.4,2.65-0.14,4.86-1.2,4.91c-1.06,0.07-2.25-2.03-2.65-4.69C701.95,327.07,702.49,324.87,703.55,324.8z"/>
			<path class="st2" d="M613.61,316.82c1.49,0.6,2.85-1.18,2.55-2.53c-1.86-8.34-11.71-16.51-20.06-17.26
				c-7.82-0.7-15.29,9.65-12.23,16.89c0.16,0.38,0.65,0.13,0.65-0.22c-0.03-3.59,2.48-8.43,5.05-10.82
				c3.62-3.39,9.03,0.28,11.89,2.51C605.74,308.73,608.46,314.76,613.61,316.82z"/>
			<path class="st2" d="M668.88,305.74c5.26-7.93,8.86-16.02,17.55-21.02c10.44-6.01,26.91-3.25,34.63,5.53
				c0.61,0.7,1.78-0.27,1.28-1.01c-15.95-23.65-55.1-12.98-56.96,15.71C665.26,306.95,667.98,307.11,668.88,305.74z"/>
			<path class="st2" d="M676.05,383.45c-6.79,0.42-12.21,2.31-18.4,5.21c-4.95,2.31-25.72,19.36-29.46,4.62
				c-5.13-20.22,7.69-39,4.65-58.59c-0.06-0.35-0.61-0.1-0.58,0.2c1.4,12.52-4.86,24.56-6.21,36.85
				c-0.83,7.58-2.89,23.36,2.49,30.09c2.92,3.64,6.08,4.41,10.69,2.34c12.38-5.55,24.55-11.72,36.85-17.46
				C677.25,386.16,678,383.33,676.05,383.45z"/>
			<path class="st2" d="M730.1,389.38c-1.16-0.31-2.31-0.62-3.47-0.92c-0.72-0.47-1.57,0.77-1.17,1.39
				c3.76,5.84-13.93,15.15-16.6,16.5c-7.72,3.91-16.45,5.93-24.72,8.25c-10.28,2.87-20.3,4.95-30.86,6.35
				c-4.09,0.54-12.42,2.87-6.15-3.09c0.22-0.21-0.04-0.65-0.31-0.42c-2.14,1.82-4.45,3.3-6.71,4.97c-0.41,0.3-0.58,1.09-0.04,1.37
				c3.78,1.97,9.42,1.46,14.91,0.41c9.18,2.86,17.36,5.85,26.07,10.27c4.87,2.47,12.88,4.72,18.12,2.08
				c14.19-7.17,13.39-21.97,20.36-34.24c2.07-1.73,3.93-3.64,5.38-5.81c0.97-1.46,2.13-3.11,2.6-4.89c0.16,0.2,0.71,0.33,2.22,0.5
				C731.44,392.29,731.93,389.19,730.1,389.38z"/>
			<path class="st8" d="M695.51,434.43c-7.46,1.76-16.05-3.79-22.51-6.92c-4.84-2.35-9.91-3.12-15.06-3.94
				c3.37-0.74,6.53-1.54,8.98-1.94c13.04-2.11,26.21-6.41,38.44-11.27c3.61-1.44,7.45-3.3,10.93-5.63
				C710.19,415.6,710.75,430.84,695.51,434.43z"/>
			<path class="st2" d="M722.93,440.28c-3.71,3.59-6.18,6.98-11.26,8.85c-6.84,2.5-13.33-0.02-20.15-0.75
				c-0.5-0.05-0.75,0.75-0.23,0.91c8.07,2.33,14.43,6.01,23.02,3.54c5.38-1.55,10.57-5.98,10.99-11.76
				C725.4,439.56,723.77,439.46,722.93,440.28z"/>
		</g>
		<g>
			<path class="st2" d="M1001.76,1232.61c0.18-0.99-0.36-1.9-1.18-2.2c1.46-3.36,1.88-6.7,1.56-10.25c0.55-0.66,0.34-1.56-0.23-1.82
				c-0.17-1.17-0.4-2.35-0.71-3.58c-2.17-8.58-4.7-18.03-9.14-25.73c-0.02-0.04-0.06-0.06-0.08-0.09
				c-2.55-7.52-5.75-14.44-12.03-19.94c-1.92-1.68-5.47-3.31-8-2.04c-1.89,0.94-3.67,1.93-5.43,2.9
				c-6.64-23.13-11.53-46.64-17.45-69.94c-6.01-23.64-15.15-45.55-25.84-67.41c-10.54-21.54-24.61-40.67-39.89-59.05
				c-15.97-19.21-24.52-41.66-33.18-64.8c-0.03-0.09-0.1-0.12-0.18-0.12c0.18-0.57-0.03-1.21-0.77-1.03
				c-7.25,1.78-14.33,0.15-21.54-1.01c-5.26-0.85-9.78-0.03-14.83-0.26c-0.39-0.02-0.59,0.53-0.25,0.7
				c3.5,11.06,8.34,21.96,12.87,32.66c4.8,11.34,12.58,20.83,20.49,30.12c9.05,10.62,17.85,21.5,25.22,33.37
				c7.37,11.87,15.38,24.47,21.07,37.23c5.8,13,12.4,25.6,17.9,38.74c5.66,13.54,10.38,27.47,15.16,41.34
				c4.28,12.42,8.63,24.88,12.35,37.48c0.93,3.16,2.39,6.22,3.58,9.28c0.66,1.7,3.32,6.74,2.85,8.92
				c-9.06,1.39-12.43,7.75-13.55,15.49c-1.73,3.11-5.14,5.9-7.35,8.1c-3.91,3.9-8.17,7.33-12.65,10.55
				c-7.52,5.4-16.03,9.32-24.62,12.66c-15.38,5.98-32.15,7.41-47.39,13.49c-10.71,4.27-17.19,14.4-18.17,25.71
				c-0.4,4.66,2.32,7.29,6.12,8.71c0.97,3.11,1.12,6.67,4.2,8.37c2.3,1.27,7.32,0.09,9.49-1.01c1.72-0.86,2.9-2.21,3.31-3.75
				c4.51,0.65,9.04,1.17,13.46,1.66c0.97,0.11,1.93,0.17,2.89,0.26c-0.25,1.32-0.18,2.73,0.82,3.72c0.64,0.63,1.4,0.83,2.28,0.89
				c1.65,0.12,3.22,0.8,4.86,1.02c2.14,0.29,4.61-0.67,5.21-2.92c0.18-0.67,0.16-1.35,0.06-2.02c7.73,0.08,15.45-0.37,23.16-1.17
				c-0.03,0.28-0.06,0.57-0.08,0.82c-0.18,2.39,0.51,4.57,3.07,5c1.49,0.25,3.51-0.47,4.95-0.81c1.16-0.27,2.68-0.51,3.76-1.04
				c2.62-1.27,2.05-3.51,1.67-5.73c1.84-0.29,3.7-0.55,5.54-0.87c6.27-1.09,12.57-2.29,18.81-3.69c0.32,2.21,1.43,4.05,4.07,4.27
				c1.73,0.14,3.52-0.73,5.19-1.06c1.65-0.33,3.21-1.05,4.49-2.12c1.31-1.08,2.17-3.41,1.72-5.13c4.91-1.47,9.76-3.12,14.51-5.04
				c0.65-0.26,1.3-0.57,1.94-0.85c0.39,0.75,0.87,1.46,1.49,2.07c1.51,1.49,4.64-0.08,6.14-0.72c2.06-0.88,4.72-1.99,5.82-4.05
				c0.76-1.44,0.09-2.77-0.89-3.82c6.06-3.79,11.68-8.37,16.22-13.73c-0.2,1.44-0.04,2.86,1.03,3.94c0.65,0.64,1.94,0.4,2.55-0.16
				c2.03-1.88,5.05-3.2,4.75-6.45C1002.85,1235.33,1002.43,1233.9,1001.76,1232.61z"/>
			<g>
				<path class="st10" d="M899.02,1049.91c7.8-0.96,16.19-6.18,23.12-12.24c-1.67-3.46-3.37-6.91-5.11-10.37
					c-10.69-21.22-26.72-38.68-40.89-57.46c-13.88-18.39-19.55-39.28-26.4-60.88c-0.13,0.16-0.3,0.29-0.51,0.34
					c-6.63,1.61-13.07,0.57-19.7-0.65c-2.95-0.54-6.08-1.51-9.09-1.6c-2.49-0.07-4.79,0.37-7.21,0.01
					c5.44,12.53,10.72,25.94,18.18,37.43c7.17,11.05,15.87,20.55,24.1,30.78c9.46,11.75,16.35,24.41,23.78,37.44
					c6.81,11.96,13.24,23.72,19.22,36.12C898.69,1049.19,898.85,1049.55,899.02,1049.91z"/>
				<path class="st8" d="M945.63,1098.7c-5.47-20.46-13.27-39.57-22.28-58.47c-6.87,5.93-15.07,11.04-22.99,12.53
					c11.86,25.08,21.86,50.78,30.69,77.12c3.59,10.7,6.58,21.65,10.74,32.14c1.28,3.23,5.02,9.62,4.48,13.79
					c1.14-0.07,2.28-0.08,3.43-0.03c0.16-0.08,0.32-0.16,0.48-0.23c0.06-0.16,0.17-0.3,0.35-0.3c0.15-0.01,0.27-0.03,0.41-0.04
					c0.29-0.13,0.58-0.27,0.84-0.35c1.75-0.59,3.87-0.92,5.71-1.09c0.34-0.03,0.73-0.08,1.11-0.13c1.75-0.64,3.44-1.42,5.1-2.28
					c0.01-0.1,0.01-0.21,0.04-0.31C956.75,1147.15,952.06,1122.73,945.63,1098.7z"/>
				<path class="st8" d="M938.42,1115.07c-4.49-13.19-9.14-26.11-14.87-38.82c-4.16-9.22-8.31-18.45-11.2-28.15
					c-3.93,2.23-7.99,3.91-11.99,4.66c11.86,25.08,21.86,50.78,30.69,77.12c3.59,10.7,6.58,21.65,10.74,32.14
					c1.28,3.23,5.02,9.62,4.48,13.79c1.14-0.07,2.28-0.08,3.43-0.03c0.16-0.08,0.32-0.16,0.48-0.23c0.06-0.16,0.17-0.3,0.35-0.3
					c0.15-0.01,0.27-0.03,0.41-0.04c0.29-0.13,0.58-0.27,0.84-0.35c1.28-0.43,2.74-0.69,4.17-0.89
					C951.33,1154.02,945.03,1134.47,938.42,1115.07z"/>
				<path class="st5" d="M832.22,1243.48c4.67-4.08,11.22-5.62,17.12-6.9c7.19-1.56,14.33-3.11,21.43-5.07
					c13.2-3.66,25.89-8.66,37.48-16.01c6.23-3.96,11.86-8.83,16.81-14.3c1.61-1.79,3.66-4.12,5.15-6.64
					c-0.12,1.47-0.18,2.98-0.2,4.48c-0.01,0.55,0.78,0.39,0.85-0.06c0.68-4.24,1.11-8.43,2.61-12.49c2.04-5.52,8.53-7.07,13.69-7.15
					c4.98-0.08,10.24,0.89,13.69,4.78c1.99,2.23,2.85,5.25,4.68,7.6c0.83,1.06,2.46,0.07,2.4-1.13
					c-0.38-8.41-5.94-12.57-12.71-14.11c1.74-0.07,3.48-0.09,5.18-0.42c1.23-0.25,3.52-0.91,5.03-2.01
					c0.69-0.04,1.45-0.74,1.64-1.48c3.45-1.81,6.99-3.28,10.58-0.75c7.9,5.59,8.57,15.12,13.06,22.74
					c1.5,5.95,3.29,11.83,4.74,17.79c0.75,3.11,1.62,5.99,1.91,9.01c-11.69,9.27-24.31,17.45-37.88,23.67
					c-15.68,7.18-32.94,10.32-49.89,12.83c-16.65,2.46-34.32,6.19-51.19,5.12c-3.44-0.22-32.84,0.34-34.25-6.93
					C825.88,1250.91,829.92,1245.48,832.22,1243.48z"/>
				<path class="st4" d="M997.27,1226.29c-0.69,4.32-5.03,8.65-7.87,11.81c-9.95,11.04-24.31,17.39-38.21,21.77
					c-32.38,10.2-67.5,14.53-101.2,10.38c-3.53-0.44-7.04-1.02-10.54-1.64c-4.51-0.79-11.47-0.41-14.67-4.12
					c-1.34-1.56-1.59-3.69-1.2-6.01c2.04,3.7,10.82,4.69,14.17,5.12c19.08,2.43,37.11,1.2,56.06-1.29
					c20.05-2.64,40.24-5.22,59.34-12.2c15.69-5.73,31.23-15.13,44.32-25.91C997.44,1224.87,997.38,1225.57,997.27,1226.29z"/>
			</g>
			<path class="st2" d="M946.89,1197.92c-1.89-0.04-3.68-0.8-5.57-1.01c-1.89-0.22-3.83-0.07-5.72,0.21
				c-0.51-0.53-1.01-1.05-1.54-1.57c-1.31-1.28-2.96-2.07-4.78-1.54c-0.35,0.1-0.37,0.55-0.15,0.65c0,0.01,0,0.01-0.01,0.01
				c1.41,0.45,2.45,1.68,3.31,3.02c-4.97,1.09-9.32,3.78-14.25,4.85c-1.44,0.32-2.7,2.89-0.83,3.55c1.38,0.49,2.44,1.36,3.35,2.4
				c-6.22,1.11-12.12,3.2-18.24,4.9c-0.8,0.22-2.01,1.78-0.89,2.44c0.14,0.08,0.23,0.18,0.36,0.27c-1.13,0.2-2.26,0.45-3.46,0.78
				c-4.09,1.12-8.19,1.26-12.11,2.91c-1.04,0.44-1.39,1.8-0.63,2.61c0.63,0.67,1.26,1.31,1.87,1.95c-1.93-0.15-3.85-0.17-5.88,0.04
				c-2.42,0.26-5.04,1.83-7.5,2.42c-0.68,0.16-1.06,1.12-0.35,1.49c1.64,0.88,1.49,0.71,3.43,0.54c3.99-0.34,7.52-2.07,11.87-1.7
				c0.32,0.03,0.63,0.06,0.95,0.08c1.07,1.37,2.01,2.83,2.65,4.62c0.57,1.59,1.8,2.56,3,3.63c0.66,0.58,1.75-0.43,1.47-1.16
				c-0.97-2.56-2.08-4.73-3.37-6.75c1.77,0.17,3.54,0.35,5.31,0.58c3.49,0.45,6.57,2.16,10,2.61c0.32,0.04,0.58-0.51,0.23-0.65
				c-5.77-2.32-10.72-4.37-17.02-5.23c-0.16-0.03-0.31-0.04-0.46-0.06c-0.74-0.97-1.54-1.94-2.38-2.91
				c5.01-1.24,10.15-2.26,15.31-2.76c1.87,3.2,1.99,7.22,4.26,10.53c0.7,1.03,1.98-0.2,1.82-1.13c-0.57-3.19-1.39-6.66-2.94-9.63
				c1.51-0.08,3.02-0.12,4.52-0.08c4.52,0.12,11.07,1.63,15.69,0.66c0.2,0.15,0.38,0.31,0.59,0.44c0.64,0.4,1.46-0.41,1.08-1.07
				c-1.45-2.55-2.57-5.66-3.99-8.53c5.12-0.46,10.45,0.25,15.62,0.1c0.33,0.3,0.7,0.55,1.16,0.69c0.96,0.3,1.9-0.13,2.31-0.95
				c0.04-0.07,0.08-0.12,0.14-0.23c0.15-0.3,0.22-0.62,0.22-0.96c-0.01-0.97-0.48-1.65-1.02-2.42c-1.46-2.05-2.94-3.73-4.78-5.49
				c-0.57-0.55-1.11-1.12-1.66-1.68c0.37-0.09,0.73-0.19,1.1-0.26c2.65-0.51,5.27,0.16,7.83-0.53
				C947.12,1198.56,947.35,1197.93,946.89,1197.92z M927.1,1218.57c-2.18-0.37-4.61-1.22-6.49-1.43c-4.16-0.48-8.28-1.05-12.45-1.37
				c-0.83-0.06-1.61-0.08-2.39-0.06c-0.11-0.12-0.2-0.26-0.32-0.38c5.65-1.4,11.22-3.16,16.92-4.44
				C923.88,1213.48,925.08,1216.47,927.1,1218.57z M938.93,1206.76c0.63,0.7,1.08,1.65,1.61,2.5c-5.11-0.88-10.38-1.82-15.49-1.36
				c-0.16,0.01-0.31,0.04-0.47,0.06c-0.63-1.03-1.32-2-2.13-2.85c2.17-0.91,4.22-2.18,6.51-2.92c1.73-0.56,3.41-1.16,5.12-1.71
				C935.42,1202.75,937.17,1204.81,938.93,1206.76z"/>
		</g>
		<g>
			<path class="st2" d="M1042.56,718.37c-9.07-9.38-20.52-17.03-31.42-24.08c-2.03-1.32-4.11-2.69-6.27-3.76
				c-1.17-1.39-2.18-2.9-2.85-4.81c-1.28-3.64-1.68-8.05-2.13-11.82c-0.93-7.67-1.71-15.32-2.79-22.97
				c-2.25-15.98-4.06-32.09-5.52-48.16c-1.4-15.34-3-30.48-5.86-45.63c-1.42-7.53-2.84-15.25-5.5-22.42
				c0.28-0.19,0.51-0.45,0.56-0.73c1.69-9.04-0.87-14.05-6.88-20.86c-3.16-3.59-6.38-6.93-10.19-9.84
				c-4.2-3.21-9.27-4.52-13.64-7.38c-0.25-0.16-0.49-0.02-0.61,0.19c-0.07,0.06-0.11,0.14-0.1,0.24c0.13,1.31-1.32,2.98-1.95,4.18
				c-1.06,1.99-2.74,3.71-4.08,5.51c-2.35,3.14-4.95,5.67-7.89,8.23c-0.03-0.02-0.07-0.04-0.11-0.06c-0.63-0.34-1.37,0.8-0.8,1.25
				c5.13,3.95,10.54,7.38,15.39,11.7c7.55,6.74,7.44,15.2,7.25,24.61c-0.34,16.67,4.46,34.65,8.22,50.76
				c3.94,16.89,8.03,33.67,11.34,50.7c1.83,9.36,3.97,18.84,4.99,28.33c0.44,4.04,0.36,8.22,0.15,12.27
				c-0.18,3.42,0.15,6.99-0.21,10.41c-2.26,5.22-2.81,10.86-1.63,17.66c1.38,7.92,4.36,15.29,4.74,23.41
				c0.27,5.96-2.1,11.62-2.38,17.53c-0.37,7.75,9.41,0.71,10.99-2.32c2.53-4.83,3.32-9.85,3.55-15.24
				c0.16-3.82-0.32-7.66,1.06-11.35c0.35-0.93,1.14-1.74,2.18-2.46c3.37,3.99,5.41,9.6,7.5,14.01c1.68,3.55,3.79,7.63,5.03,11.37
				c1.02,3.09-1.68,10.54-2.07,13.89c-0.37,3.09-2.09,22.74,5.8,21.17c4.84-0.97,6.56-6.92,7.27-12.74c0.17-0.16,0.33-0.32,0.5-0.47
				c0.12,0.04,0.26,0.04,0.39-0.06c4.08-3.23,8.22-7.33,10.82-12.06c0.1,0.07,0.22,0.1,0.4,0.03c2.22-0.95,4.41-2.72,6.28-4.87
				c6.43-1.69,8.92-7.55,9.36-13.84C1052.23,736.42,1050.75,726.84,1042.56,718.37z"/>
			<path class="st10" d="M1043.43,760.07c2.13-2.98,3.55-6.46,3.54-9.63c-0.04-11.03-6.39-19.41-12.13-28.22
				c-0.16-0.25-0.5,0.08-0.39,0.31c3.36,6.69,6.6,13.33,8.62,20.56c2.4,8.63-0.39,16.29-6.93,22.06c1.22-2.61,1.97-5.38,1.96-8.29
				c-0.01-12.06-5.65-23.25-10.63-33.85c-0.13-0.28-0.58,0.05-0.49,0.31c3.11,9.07,6.41,17.84,8.14,27.34
				c1.36,7.45,0.44,13.07-4.59,18.76c-1.98,2.24-3.93,4.52-5.53,7.05c-0.37,0.31-0.75,0.63-1.13,0.96c0.29-3.21,0.34-6.22,0.49-8.12
				c0.32-4.09,0.93-7.72,2.39-11.47c0.36-2.54,0.55-5.07-0.41-7.49c-0.89-2.21-1.82-4.41-2.72-6.62
				c-0.76-1.86-4.12-12.15-6.72-13.61c-0.12,0.18-0.21,0.37-0.15,0.56c1.76,5.71,4.07,11.27,6.27,16.82
				c2.54,6.39,0.26,11.54-0.23,17.94c-0.43,5.56-0.28,11.04-1.3,16.56c-0.27,1.46-3.6,12.73-7.78,6.87
				c-1.78-2.48-1.83-6.61-2.02-9.44c-0.41-5.93,0.35-12.4,2.13-18.06c1.56-4.97-0.93-8.3-2.82-12.85
				c-1.89-4.51-3.99-10.24-7.17-14.77c-0.35-0.29-0.68-0.59-1.04-0.87c-1.68-1.24-3.49-2.46-4.82-4.09
				c-0.58-0.25-1.17-0.49-1.76-0.68c1.16,0.66,2.2,1.49,3.13,2.45c-1.71,1.49-2.99,3.41-3.51,6.04c-0.95,4.73-0.09,9.94-0.64,14.74
				c-0.4,3.56-1.69,7.01-3.64,10c-1.75,3.25-4.42,3.68-8.03,1.29c0.07-1.08,0.19-2.15,0.38-3.21c0.77-4.84,2.05-9.45,2.3-14.37
				c0.27-5.18-0.98-10.55-2.08-15.57c-0.93-4.24-1.99-8.42-2.53-12.68c-0.13-0.17-0.23-0.39-0.27-0.69
				c-0.22-1.54-0.2-2.97-0.06-4.39c0-0.26-0.01-0.53-0.01-0.79c0.03-1.47,0.26-2.88,0.63-4.24c0.13,0.02,0.27,0.01,0.42-0.04
				c0.11-0.35,0.18-0.69,0.3-1.04c0.33-1.04,0.61-2.08,0.87-3.12c0.01-0.01,0.01-0.02,0.02-0.03c0.01-0.03,0.01-0.07,0.02-0.1
				c0.06-0.24,0.11-0.49,0.16-0.73c0.14-0.61,0.29-1.21,0.41-1.83c-0.01,0.02-0.02,0.04-0.03,0.07c0.07-0.36,0.16-0.71,0.22-1.07
				c0.31-4.26,0.05-8.74-0.01-12.66c-0.12-8.77-2.26-17.44-3.87-26.01c-3.69-19.65-8.48-38.93-13.41-58.3
				c-5.05-19.86-8.49-39.47-7.83-59.97c0.22-6.93-0.65-11.18-5.57-16.15c-4.65-4.7-10.66-7.54-16.46-10.54
				c3.41-1.84,6.19-6.25,8.27-9.05c1.49-2.01,4.66-5.87,4.7-8.86c5.47,5.54,12.47,9.04,17.68,15.07c2.46,2.85,4.97,5.66,7.26,8.66
				c2.08,2.72,2.72,5.79,3.17,8.95c-1.53-3.19-3.37-6.25-5.71-9.06c-0.27-0.32-0.8,0.12-0.58,0.45
				c7.99,11.91,9.65,28.64,12.14,42.39c3.04,16.75,4.08,33.62,5.86,50.52c1.59,15.1,3.51,30.19,5.7,45.22
				c1.1,7.58,1.5,15.23,2.92,22.76c0.54,2.83,1.28,5,2.31,6.88c-1.16-0.27-2.36-0.42-3.61-0.37c-1.75,0.07-3.42,0.83-5,1.89
				c1.79-0.46,3.5-0.65,4.45-0.58c0.58,0.04,1.14,0.11,1.71,0.21c0.77,0.01,1.55,0.07,2.38,0.27c0.42,0.1,0.84,0.25,1.26,0.4
				c0.11,0.15,0.21,0.32,0.32,0.47c2.5,0.98,4.87,2.4,7.1,4.08c-0.02-0.03-0.01-0.06-0.03-0.08c-0.23-0.25-0.46-0.49-0.69-0.73
				c1.76,1.23,3.46,2.51,5,3.54c7.07,4.67,13.53,9.84,20.14,15.12c7.54,6.02,13.43,12.15,15.38,21.9
				C1050.71,742.65,1051.6,756.31,1043.43,760.07z"/>
			<path class="st9" d="M1017.92,752.38c-4.81-7.83-7.86-22.16-17.49-25.55c-0.3-0.11-0.51-0.29-0.66-0.51
				c-1.81-0.62-3.78-1.01-6.14-1.01c-1.53,0-3.19-0.69-4.06-2.01c-2.85-4.29-3.28-11.56-2.52-16.46c1.69-10.87,6.97-9.45,5.78-20.72
				c-1.15-10.91-5.03-32.9-7.93-43.44c-5.69-20.62-10.66-41.05-12.53-62.41c-1.01-11.51-1.47-23.13-3.42-34.53
				c-1.29-7.54-2.73-15.18-0.97-22.75c0.23-0.97,1.3-1.23,2.1-0.85c1.35,0.63,2.62,1.58,3.83,2.66c-0.64-1.18-1.27-2.36-2.01-3.46
				c-0.22-0.33,0.31-0.77,0.58-0.45c2.13,2.56,3.84,5.33,5.28,8.22c0.12,0.17,0.25,0.34,0.37,0.51c-0.45-3.05-1.11-6-3.12-8.63
				c-2.29-2.99-4.8-5.81-7.26-8.66c-5.21-6.03-12.2-9.53-17.68-15.07c-0.04,2.99-3.21,6.85-4.7,8.86c-2.08,2.8-4.86,7.21-8.27,9.05
				c5.8,3.01,11.81,5.84,16.46,10.54c4.92,4.97,5.8,9.22,5.57,16.15c-0.66,20.5,2.78,40.11,7.83,59.97
				c4.93,19.37,9.72,38.65,13.41,58.3c1.61,8.57,3.75,17.24,3.87,26.01c0.06,3.91,0.31,8.39,0.01,12.66
				c-0.07,0.36-0.16,0.71-0.22,1.07c0.01-0.02,0.02-0.04,0.03-0.07c-0.12,0.61-0.26,1.22-0.41,1.83c-0.06,0.24-0.11,0.49-0.16,0.73
				c-0.01,0.03-0.02,0.07-0.02,0.1c-0.01,0.01-0.01,0.02-0.02,0.03c-0.26,1.04-0.54,2.08-0.87,3.12c-0.12,0.35-0.2,0.69-0.3,1.04
				c-0.14,0.05-0.28,0.06-0.42,0.04c-0.36,1.37-0.59,2.78-0.63,4.24c-0.01,0.27,0.01,0.53,0.01,0.79c-0.13,1.42-0.16,2.85,0.06,4.39
				c0.04,0.3,0.14,0.51,0.27,0.69c0.54,4.27,1.6,8.44,2.53,12.68c1.09,5.02,2.35,10.39,2.08,15.57c-0.25,4.92-1.53,9.53-2.3,14.37
				c-0.19,1.06-0.31,2.13-0.38,3.21c3.61,2.39,6.28,1.96,8.03-1.29c1.95-2.99,3.24-6.44,3.64-10c0.55-4.81-0.31-10.01,0.64-14.74
				c0.53-2.63,1.8-4.56,3.51-6.04c-0.94-0.96-1.98-1.78-3.13-2.45c0.6,0.19,1.19,0.43,1.76,0.68c1.33,1.63,3.14,2.85,4.82,4.09
				c0.36,0.27,0.7,0.58,1.04,0.87c3.18,4.53,5.28,10.26,7.17,14.77c1.89,4.54,4.38,7.88,2.82,12.85
				c-1.78,5.66-2.54,12.13-2.13,18.06c0.2,2.83,0.25,6.96,2.02,9.44c4.19,5.86,7.52-5.41,7.78-6.87c1.01-5.52,0.87-11,1.3-16.56
				c0.3-3.92,1.27-7.38,1.39-10.93C1022.94,756.16,1019.92,755.63,1017.92,752.38z"/>
			<path class="st9" d="M1033.39,755.05c-4.66-5.21-5.34-12.07-8.68-17.99c-1.83-3.24-3.69-4.09-6.29-5.3
				c2.24,3.38,4.57,10.44,5.19,11.95c0.9,2.21,1.83,4.41,2.72,6.62c0.97,2.42,0.78,4.95,0.41,7.49c-1.46,3.75-2.07,7.38-2.39,11.47
				c-0.15,1.9-0.2,4.91-0.49,8.12c0.38-0.33,0.76-0.65,1.13-0.96c1.6-2.53,3.55-4.81,5.53-7.05c4.06-4.6,5.41-9.17,5.07-14.68
				C1035.17,755.49,1034.02,755.75,1033.39,755.05z"/>
			<path class="st9" d="M1043.88,748.79c-0.52,0.3-1.23,0.13-1.64-0.26c-2.78-2.73-3.66-8.47-5.43-11.85
				c-2.14-4.08-4.78-9.83-8.91-12.76c4.87,10.33,10.19,21.22,10.2,32.93c0.01,2.91-0.74,5.69-1.96,8.29
				C1041.2,760.68,1043.98,755.09,1043.88,748.79z"/>
			<path class="st9" d="M1042.39,728.39c-2.12-2.43-4.42-4.52-7.33-5.85c5.68,8.69,11.87,17,11.91,27.89
				c0.01,3.18-1.41,6.66-3.54,9.63c6.44-2.96,7.24-12.07,6.57-19.44C1047.86,736.3,1045.53,731.99,1042.39,728.39z"/>
			<path class="st2" d="M1021.59,722.6c-0.92,0.37-1.78,0.91-2.79,1.01c-0.35,0.04-0.5,0.74-0.08,0.71
				c1.08-0.06,2.14-0.51,3.06-1.06C1022.14,723.05,1022.09,722.4,1021.59,722.6z"/>
		</g>
		<g>
			<path class="st2" d="M730.11,575.89c0.47-0.37,0.2-1.33-0.43-0.96c-2.68,1.61-7.32-2.14-9.33-3.32c-2.52-1.5-5.72-2.54-7.5-5.02
				c-0.21-0.3-0.59-0.11-0.74,0.15c-0.94,1.57,0.06,0.1-0.98,2.42c-8.73,17.72-20.54,33.8-26.72,52.76c-1.4,2.85-2.87,5.7-3.98,8.56
				c-1.8,4.66-3.6,9.33-5.2,14.06c-3.86,11.47-5.22,24.25-7.12,36.18c-1.94,12.15-3.45,24.36-5.23,36.54
				c-0.88,6.01-1.58,12.03-2.63,18.01c-0.79,4.53-1.41,12.77-4.45,16.62c-1.89,0.04-3.74,0.11-5.44,0.17
				c-7.13,0.26-13.13,1.05-18.8,3.5c-0.72,0.06-1.41,0.16-2.02,0.33c-6.99,1.98-14.25,8.87-19.27,14.47
				c-1.74,1.64-3.36,3.66-5.12,6.16c-4.61,6.57-9.3,13.82-12.7,21.11c-1.38,2.97-1.06,5.98,2.05,5.97
				c-1.18,1.36-2.35,2.73-3.45,4.16c-1.48,1.92-4.05,6.24-1.7,8.51c3.6,3.48,9.22,0.15,12.5-2.19c5.96-4.26,9.39-11.16,12.47-17.56
				c3.81-7.93,10.01-4.4,15.74-3.54c2.94,0.44,5.69-0.28,8.28-1.5c-0.18,0.37-0.36,0.74-0.56,1.1c-2.23,4.01-5,7.62-7.65,11.35
				c-2.25,3.18-5.42,5.41-7.19,8.93c-1.16,2.28,0.32,5.32,2.8,5.85c15.52,3.3,20.02-11.8,24.93-23.06c0.58-1.32,1.52-2.22,2.63-2.92
				c8.86-2.88,19.2-2.62,24.36-11.32c2.32-3.92,2.23-8.8,1.74-13.14c-0.22-1.93-0.91-3.68-1.76-5.36
				c-0.92-5.19-1.74-10.36-1.75-15.69c-0.01-6.48,2.07-12.99,3.59-19.22c3.29-13.46,6.89-26.85,10.16-40.31
				c5.39-22.14,14.12-45.2,13.8-68.29c0.16-0.05,0.31-0.14,0.41-0.32c5.1-8.92,11.3-17.26,16.61-26.09
				c2.56-4.26,5.16-8.33,7.56-12.69C729.95,576.84,730.41,578,730.11,575.89L730.11,575.89z"/>
			<path class="st10" d="M723.09,585.81c-1.89,2.91-3.94,5.68-5.76,8.64c-4.64,7.55-10.11,15-13.88,23.06
				c-0.06-1.82-0.17-3.64-0.36-5.45c-0.03-0.27-0.34-0.13-0.36,0.07c-2.79,27.64-10.89,53.84-17.35,80.79
				c-3.17,13.23-6.69,26.37-9.72,39.63c-2.8,12.32-1.46,22.84,1.67,34.83c0.22,3.26-0.03,6.49-1.04,9.41
				c-0.02,0.07-0.02,0.13-0.03,0.21c-0.89,4.33-3.83,7.03-7.51,8.94c0.45-0.35,0.87-0.74,1.29-1.11
				c-6.28,4.03-14.71,3.37-20.49,8.34c-0.01,0.01-0.01,0.02-0.02,0.03c-2.73,4.7-3.8,10.13-6.22,15.01c-1.7,3.43-4.66,6.07-7.9,7.99
				c-2.31,1.22-4.76,1.6-7.33,1.14c-2.73-3.72-2.61-6.49,0.38-8.32c3.51-3.21,7.13-7.19,10.09-11.52c1.33-3.37,2.47-6.81,2.94-10.3
				c0.04-0.34,0.22-2.13,0.32-4.2c-0.11,0.02-0.22,0.02-0.32,0.01c-0.56,2.11-1.2,4.19-2.06,6.23c-6.98,1.98-12.44-0.36-19.27-0.22
				c-2.96,0.06-5.65,2.49-6.94,4.98c-3.54,6.81-6.51,13.14-12.53,18.25c-1.81,1.58-3.9,2.57-6.26,2.96
				c-3.35-1.87-3.9-3.88-1.66-6.04c1.23-1.81,2.84-3.41,4.32-5.01c2.49-2.68,4.8-5.48,7.03-8.34c2.71-5.69,5.23-11.47,9.18-16.47
				c3.56-4.53,8.77-6.97,14.05-9.17c1.09-0.66,2.19-1.3,3.33-1.87c-4.31,1.33-8.52,2.9-12.42,5.22c-6.28,3.74-9.34,12-13.29,17.71
				c-2.72,3.93-5.98,7.39-9.15,10.93c-4.64-1.31,1.78-9.53,3.16-11.83c3.24-5.45,6.38-12.82,11.19-17.74
				c0.82-0.67,1.69-1.45,2.6-2.29c1.46-1.07,3.06-1.9,4.84-2.42c6.57-1.91,13.35-2.08,20.04-2.76c1.35-0.53,2.72-1.02,4.09-1.53
				c-6.22,0.89-12.59,1.11-18.8,1.61c-2.22,0.18-4.12,0.53-5.81,1.07c1.37-1.23,2.8-2.41,4.26-3.52c0.12-0.5,0.41-0.99,0.96-1.24
				c4.33-2.03,8.64-4.47,13.52-4.79c3.26-0.21,6.43-0.02,9.58,0.4c0.99-0.15,1.99-0.25,3-0.34c-1.4-0.11-2.81-0.22-4.26-0.3
				c-1.46-0.08-3.24-0.32-5.1-0.55c2.69-0.55,5.48-0.92,8.49-1.07c2.6-0.13,5.49-0.39,8.44-0.51c0.12-0.14,0.25-0.26,0.36-0.4
				c0.03-0.03,0.05-0.06,0.08-0.09c0.08-0.04,0.17-0.08,0.25-0.15c2.03-1.87,2.67-3.69,3.21-6.43c1.12-5.68,2.48-11.29,3.39-17.01
				c2.21-13.83,3.86-27.76,5.93-41.61c1.96-13.16,4.36-26.3,7.12-39.31c1.33-6.32,3.97-12.35,5.96-18.48
				c1.12-3.41,2.74-6.86,4.04-10.34c3.36-7.99,7.04-15.81,11.02-23.52c4.76-9.2,10.83-18.41,14.48-28.08c0.02-0.05,0.01-0.08,0-0.13
				c0.32-0.44,0.67-0.93,0.7-0.89c0.47,0.86,1.55,1.58,2.31,2.13c2.02,1.5,4.38,2.44,6.51,3.79c1.74,1.11,5.64,3.34,8.06,2.39
				C728.53,579,724.42,583.76,723.09,585.81z"/>
			<path class="st9" d="M628.84,768.89c-3.55,0.31-7.08,1.07-10.42,2.05c-2.73,0.8-5.44,1.6-8.27,1.66
				c-4.79,4.92-7.93,12.28-11.16,17.72c-1.37,2.31-7.79,10.52-3.16,11.83c3.17-3.54,6.43-7,9.15-10.93
				c3.95-5.71,7.01-13.97,13.29-17.71C621.6,771.52,625.17,770.09,628.84,768.89z"/>
			<path class="st9" d="M641.46,763.61c0-0.01-0.01-0.02-0.01-0.04c-0.01-0.15,0.01-0.28,0.03-0.4c-5.14-1.72-11.04-4.01-15.89-3.25
				c-1.09,0.52-2.18,1.06-3.27,1.57c-0.54,0.25-0.84,0.74-0.96,1.24c-1.46,1.11-2.89,2.29-4.26,3.52c1.69-0.54,3.59-0.89,5.81-1.07
				C629.05,764.69,635.33,764.47,641.46,763.61z"/>
			<path class="st9" d="M639.43,789.21c0.87-2.04,1.5-4.12,2.06-6.23c0.1,0.01,0.21,0.01,0.32-0.01c-0.04,0.8-0.09,1.54-0.14,2.19
				c1-3.8,1.92-8.4,0.33-7.92c-2.4,0.73-4.62,1.93-7.07,2.48c-4.83,1.09-9.91-1.65-14.31,1.63c-2.34,1.74-4.34,3.42-7.13,4.33
				c-1.09,0.35-1.98-0.75-1.76-1.76c0.34-1.57,0.71-2.97,1.32-4.24c-3.78,4.92-6.27,10.54-8.92,16.1c-2.22,2.87-4.54,5.66-7.03,8.34
				c-1.49,1.6-3.09,3.19-4.32,5.01c-2.24,2.15-1.69,4.17,1.66,6.04c2.36-0.39,4.44-1.38,6.26-2.96c6.02-5.1,8.99-11.44,12.53-18.25
				c1.29-2.49,3.98-4.92,6.94-4.98C626.98,788.85,632.45,791.19,639.43,789.21z"/>
			<path class="st9" d="M721.36,573.83c-2.12-1.35-4.48-2.29-6.51-3.79c-0.75-0.56-1.83-1.27-2.31-2.13
				c-0.03-0.04-0.38,0.44-0.7,0.89c0.01,0.04,0.02,0.07,0,0.13c-3.64,9.67-9.71,18.88-14.48,28.08c-2.01,3.88-3.94,7.8-5.79,11.74
				c0.48-0.13,1.03-0.01,1.4,0.35c4.74,4.51,2.21,14.3,1.18,19.84c-1.96,10.5-3.58,21.09-5.71,31.55
				c-6.12,30.13-14.26,59.76-22.48,89.37c-0.79,2.83-2.33,6.57-1.22,9.52c0.85,2.26,3.04,4.65,3.46,7.06
				c0.71,4.01,0.14,7.66-2.28,11c-2.22,3.06-6.18,4.45-9.37,6.17c-6.14,3.31-9.04,7.6-12.11,13.66c-2.82,5.57-7.28,12.7-13.71,14.71
				c-1.99,0.62-3.43,0.43-4.49-0.26c-0.38,1.54,0.21,3.4,1.82,5.59c2.57,0.47,5.02,0.09,7.33-1.14c3.24-1.92,6.19-4.56,7.9-7.99
				c2.42-4.88,3.49-10.31,6.22-15.01c0.01-0.01,0.01-0.02,0.02-0.03c5.78-4.97,14.21-4.32,20.49-8.34
				c-0.42,0.37-0.84,0.76-1.29,1.11c3.68-1.91,6.61-4.61,7.51-8.94c0.02-0.07,0.02-0.14,0.03-0.21c1.01-2.92,1.27-6.15,1.04-9.41
				c-3.13-11.99-4.47-22.51-1.67-34.83c3.03-13.26,6.55-26.4,9.72-39.63c6.46-26.94,14.56-53.15,17.35-80.79
				c0.02-0.2,0.34-0.34,0.36-0.07c0.18,1.82,0.3,3.63,0.36,5.45c3.78-8.06,9.24-15.51,13.88-23.06c1.82-2.95,3.87-5.73,5.76-8.64
				c1.33-2.05,5.45-6.81,6.33-9.58C727,577.18,723.1,574.94,721.36,573.83z"/>
		</g>
		<path class="st2" d="M945.7,655.16c0.3-13.47-3.72-28.36-8.3-40.88c-14.92-40.79-38.66-78.64-57.72-117.64
			c8.59,5.53,16.34,12.48,25.64,16.73c4.21,5,8.36,14.03,15.73,12.11c10.8-2.81,20.43-11.29,26.67-20.33
			c5.8-8.4,9.68-18.36,5.44-27.97c-3.13-7.09-8.05-11.64-14.51-5.69c-9.32-5.75-19.57-9.56-30.11-12.89
			c-18.54-5.85-32.77-15.4-49.05-25.54c-7.41-4.61-16.79-7.59-25.32-4.53c-5.8,2.09-12.39,3.69-17.49,7.29
			c-4.19,2.96-9.79,3.94-13.87,6.7c-4.8,0.7-9.87,3.57-14.58,2.39c-0.23-0.06-0.42,0.05-0.59,0.2c-0.41-0.57-1.34-0.73-2.09,0.06
			c-0.36,0.38-0.73,0.71-1.09,1.08c-0.21,0.07-0.42,0.17-0.65,0.35c-0.64,0.54-1.12,1.14-1.51,1.76c-3.33,3.05-6.88,5.65-10.86,8.04
			c-0.3,0.18-0.62,0.37-0.93,0.55c-4.03,2.85-8.27,5.37-12.78,7.43c-0.11,0.38-0.19,0.77-0.28,1.15
			c-6.8,3.85-19.08,4.93-23.33,12.62c-2.7,4.9-2.87,9.19-3.31,14.79c-0.31,3.84-0.69,7.56-1.22,11.21
			c-4.03,14.36-6.41,31.56-15.64,43.2c-2.59,3.26-9.73,7.05-8.19,12.52c4.39,15.53,28.41,20.44,42.17,15.6
			c0.8,3.87,1.64,7.7,2.52,11.44c5.46,23.4,13.31,46.53,22.65,68.92c2.06,19.28-8.66,45.93,1.81,61.55
			c-0.56,0.37-1.08,0.86-1.55,1.34c-1.8,1.83-4.76,2.65-5.68,5.28c-0.69,2,0.05,3.57,1.22,5.04c-2.31,2.07-4.84,4.41-5.52,7.33
			c-0.6,2.59,2.19,5.17,1.04,7.06c-6.51,10.69-6.17,37.18-0.11,48.97c-0.12,0.13-0.23,0.26-0.35,0.39
			c-5.41,6.13-10.39,12.63-15.44,19.06c-3.19,4.07-6.34,9.17-10.26,13.18c-0.15-0.04-0.3-0.03-0.45,0.01
			c-0.56,0.63-1.17,1.21-1.8,1.77c0.07,0.04,0.15,0.07,0.22,0.12c-2.3,1.96-4.87,3.49-7.86,4.23c-1.56,0.39-2.64,3.6-0.4,3.56
			c0.82-0.01,1.61,0.01,2.41,0.04c0.77,3.19,3.7,6.26,5.62,8.46c7.68,8.78,15.04,17.68,23.28,25.96
			c11.3,11.35,24.33,20.02,38.58,26.1c-0.11,4.47-0.55,12.1,4.54,11.99c7.07-0.15,14.76,3.02,21.66,4.01
			c8.65,1.25,16.77-0.18,25.41-0.99c25.59-2.39,57.83-21.95,68.19-46.68c3.43-4.93,6.42-10.28,6.27-15.02
			c-0.41-12.86-6.16-26.32-8.3-39.15c4.65-4.38,9.21-8.82,13.65-13.11c8.26-7.98,17.75-15.58,22.84-26.07
			c5.59-11.54,7.29-25.63,9.34-38.11C965.87,705.04,961.78,677.77,945.7,655.16z"/>
		<g>
			<path class="st5" d="M785.82,449.18c1.59,1.32,2.92,2.7,4.1,4.13c0.54-0.3,1.14-0.29,1.55,0.3
				c8.47,12.28,13.38,26.43,17.31,40.72c0.37,1.33-1.6,3.43-2.68,1.96c-4.55-6.2-10.91-10.51-16.16-16.01
				c-1.41-0.41-2.86-0.72-4.38-0.9C788.36,470.5,783.74,456.76,785.82,449.18z"/>
			<path class="st10" d="M761.87,463.36c0.38-0.12,0.78-0.28,1.26-0.47c3.03-1.23,6.02-2.69,8.97-4.11
				c3.02-1.46,6.05-3.32,8.82-5.49c-0.06,2.42,0.4,4.98,0.53,7.4c0.17,3.33,0.93,15.57-2.36,20.15c-0.16,0.18-0.33,0.35-0.45,0.55
				c-1.41,1.51-3.47,1.77-6.43-0.22c-2.3-1.54-6.39-13.7-10.47-16.27C761.78,464.37,761.83,463.87,761.87,463.36z"/>
			<path class="st14" d="M761.87,463.36c0.38-0.12,0.78-0.28,1.26-0.47c3.03-1.23,6.02-2.69,8.97-4.11
				c3.02-1.46,6.05-3.32,8.82-5.49c-0.06,2.42,0.4,4.98,0.53,7.4c0.17,3.33,0.93,15.57-2.36,20.15c-0.16,0.18-0.33,0.35-0.45,0.55
				c-1.41,1.51-3.47,1.77-6.43-0.22c-2.3-1.54-6.39-13.7-10.47-16.27C761.78,464.37,761.83,463.87,761.87,463.36z"/>
			<path class="st5" d="M758.74,469.81c0.21-1.32,2.18-2.4,2.85-0.85c1.56,3.62,2.72,7.32,3.68,11.09c0.08,0.2,0.16,0.39,0.21,0.51
				c1.37,2.91,3.15,5,5.35,6.07c-3.47,3.31-4.47,9.77-5.62,15.59c-0.26,1.8-0.51,3.6-0.74,5.4c-0.16,1.21-2.37,2.52-2.86,0.85
				C757.92,495.92,756.68,482.76,758.74,469.81z"/>
			<path class="st7" d="M758.74,469.81c0.21-1.32,2.18-2.4,2.85-0.85c1.56,3.62,2.72,7.32,3.68,11.09c0.08,0.2,0.16,0.39,0.21,0.51
				c1.37,2.91,3.15,5,5.35,6.07c-3.47,3.31-4.47,9.77-5.62,15.59c-0.26,1.8-0.51,3.6-0.74,5.4c-0.16,1.21-2.37,2.52-2.86,0.85
				C757.92,495.92,756.68,482.76,758.74,469.81z"/>
			<path class="st3" d="M776.28,679.55c0.42-5.16,0.67-10.35,0.28-15.44c3.43,7.85,7.05,15.58,10.8,23.19
				c-2.27-6.67-3.69-13.57-5.79-20.34c-2.87-9.23-7.06-17.99-10.15-27.16c-1.26-3.76-2.45-7.55-3.55-11.35
				c-4.03-10.76-7.84-21.63-11.08-32.72c-2.04-6.99-4.05-14.34-5.81-21.87c0.28-0.55,0.15-1.25-0.34-1.44
				c-5.39-23.52-8.23-48.81-1.8-71.15c0.18-0.65-0.73-0.59-0.9-0.06c-7.6,22.85-5.17,48.51-0.44,72.29
				c-11.53,4.34-22.57,0.85-31.97-7.13c-9.91-8.43-1.15-12.93,2.45-20.42c3.69-7.67,6.38-15.65,8.53-23.79
				c3.69-8.26,5.47-16.35,6.23-25.48c0.97-11.56,6.31-19.05,17.72-24.09c3.56-1.58,4.42-2.64,6.52-5.24
				c-3.31,15.09-1.92,34.3,4.94,46.69c0.64,1.16,2.52,0.77,3.14-0.2c4.31-6.7,2.28-21.16,8.71-26.42c1.47,0.13,3.08-0.06,4.84-0.69
				c0.32-0.12,0.58-0.29,0.88-0.42c0.31,0.31,0.71,0.01,0.75-0.36c1.24-0.65,2.26-1.45,3.08-2.4c2.48-1.03,4.92-0.33,7.33,2.16
				c3.29,2.14,6.5,4.89,8.7,8.15c2.69,3.97,4.63,6.57,8.87,8.81c1.14,0.61,2.89-0.5,3.28-1.58c1.39-3.78,0.36-7.46-0.75-11.23
				c-2.5-8.44-5.21-16.81-8.53-24.99c-1.94-4.79-4.65-14.18-9.71-18.01c1.08-0.01,2.17-0.06,3.22-0.01
				c3.12,0.16,6.98-0.39,9.48-2.36c0.3-0.24,0.49-0.69,0.52-1.12c1.55-0.16,3.13-0.28,4.51-0.68c1.76-0.51,12.22-6.97,11.67-6.68
				c20.64-10.77,34.29-3.01,50.95,9.53c10.32,7.76,21.85,12.42,34.03,16.42c5.36,1.76,10.43,3.81,15.43,6
				c2.85,1.1,5.71,2.19,8.6,3.22c4.76,1.69,10.54,3.33,14.94,6.04c0.06-0.38-0.02-0.76-0.35-1.02c-1.68-1.31-3.42-2.5-5.18-3.65
				c6.13-2.25,8.89,2.18,9.85,7.78c1.21,2.49,0.8,6.14,0.26,8.89c-0.22,2.36-0.62,4.4-1.09,5.62c-1.75,4.51-4.23,8.46-7.26,12.03
				c-0.18,0.22-0.39,0.43-0.58,0.65c-0.4,0.45-0.8,0.91-1.21,1.35c-0.41,0.43-0.84,0.86-1.27,1.28c-0.3,0.29-0.59,0.59-0.9,0.88
				c-0.16,0.15-0.31,0.31-0.47,0.46c-4.9,4.49-12.9,12.18-20.35,10.97c-3.54-0.57-5.65-3.05-7.17-6.01
				c-0.56-0.6-1.12-1.21-1.69-1.81c0.06,0.03,0.12,0.05,0.17,0.07c-5.45-4.71-10.39-9.98-16.65-13.9
				c-7.91-4.96-16.19-9.08-25.34-10.85c0.01,0.12,0.06,0.23,0.22,0.28c3.89,1.29,7.48,3.11,10.91,5.19
				c13.05,29.36,27.32,58.15,40.84,87.3c7.38,15.9,14.82,31.79,19.61,48.69c2.81,9.91,3.35,19.83,2.94,30.03
				c-0.46,11.53-5.47,17.03-12.61,21.29c0.44-0.7,0.8-1.45,1.18-2.17c-3.84,3.98-8.41,7.03-13.35,9.69c-2.16,1.7-4.6,3.28-7.39,4.71
				c-12.35,6.34-26.13,3.45-39.32,4.24c-6.44,0.39-13.14,1.17-19.73,2.56c4.19-2.66,8.36-5.34,12.51-8.03
				c-4.52,1.21-9.04,2.4-13.29,4.46c-5.21,2.53-10.19,5.44-15.29,8.16c-6.01,3.21-11.69,7.02-17.83,9.99
				c-5.53,2.66-12.57,5.58-18.71,5.26c-3.56,0.13-7.46-0.44-11.97-1.98C770.37,714.47,775.31,691.59,776.28,679.55z"/>
			<path class="st4" d="M950.17,480.31c-0.96-5.6-3.72-10.03-9.85-7.78c1.76,1.15,3.5,2.34,5.18,3.65c0.33,0.26,0.41,0.63,0.35,1.02
				c-4.4-2.71-10.18-4.35-14.94-6.04c-2.89-1.03-5.75-2.12-8.6-3.22c-5-2.19-10.08-4.24-15.43-6c-12.18-4-23.72-8.66-34.03-16.42
				c-16.65-12.54-30.31-20.3-50.95-9.53c0.25-0.13-1.82,1.16-4.3,2.64c-3.15,12.6-7.17,24.6-11.36,37.03
				c1.61,4.69,3.1,9.41,4.51,14.16c1.12,3.77,2.14,7.45,0.75,11.23c-0.4,1.08-2.14,2.19-3.28,1.58c-3.98-2.11-5.95-4.54-8.39-8.1
				c-3.73,13.89-3.05,27.79-2.68,41.68c-10.2-10.9-19.81-22.39-28.8-34.5c-0.71,4.57-1.37,9.1-3.29,12.09
				c-0.62,0.97-2.5,1.36-3.14,0.2c-4.61-8.33-6.69-19.74-6.59-30.91c-2.13-3.23-4.23-6.51-6.28-9.82
				c-10.39,5.02-15.38,12.33-16.31,23.37c-0.76,9.13-2.54,17.22-6.23,25.48c-2.15,8.14-4.85,16.12-8.53,23.79
				c-3.19,6.64-10.41,10.94-5.1,17.7c11.19-13.92,19.03-29.48,30.85-42.28c0.71-6.87,2.04-13.63,4.21-20.15
				c0.17-0.53,1.08-0.59,0.9,0.06c-1.69,5.86-2.72,11.92-3.25,18.11c1.41-1.44,2.89-2.82,4.43-4.17
				c20.66,66.52,46.11,132.83,84.47,190.81c4.88-2.63,9.68-5.4,14.67-7.82c4.24-2.06,8.77-3.25,13.29-4.46
				c-4.16,2.69-8.32,5.38-12.51,8.03c6.58-1.39,13.29-2.17,19.73-2.56c3.72-0.22,7.49-0.16,11.26-0.08
				c-41.31-64.14-22.33-154.06-28.83-228.91c31.25,9.7,70.52,6.48,98.16,20.58c0.07-0.51,0.13-1.04,0.18-1.59
				C950.97,486.45,951.39,482.8,950.17,480.31z"/>
			<path class="st15" d="M768.79,872.58c-8.5-7-15.95-15.27-23.25-23.47c-0.38-0.42-8.92-9.38-11.94-14.14
				c31.33,3.26,48.04,38.03,68.75,57.67c0.65,0.62,1.33,1.2,2.01,1.79c-1.44-0.62-2.85-1.28-4.22-2.04
				C789.14,886.23,778.56,880.64,768.79,872.58z"/>
			<path class="st7" d="M768.79,872.58c-8.5-7-15.95-15.27-23.25-23.47c-0.38-0.42-8.92-9.38-11.94-14.14
				c31.33,3.26,48.04,38.03,68.75,57.67c0.65,0.62,1.33,1.2,2.01,1.79c-1.44-0.62-2.85-1.28-4.22-2.04
				C789.14,886.23,778.56,880.64,768.79,872.58z"/>
			<path class="st4" d="M915.88,857.54c-2.55,5.09-5.8,9.75-8.24,14.92c-0.14,0.29-0.17,0.56-0.15,0.82
				c-13.66,15.91-32.35,26.6-53.1,31.24c-13.36,2.99-26.38,1.93-39.64-0.52c-2.56-0.47-7.7-2.17-10.63-1.4
				c-2.91,0.77-3.96-3.31-4.52-6.57c4.26,1.74,8.62,3.25,13.07,4.53c5.93,3.5,12.52,5.61,19.7,5.17c11.51-0.7,11-9.17,17.19-16.87
				c0.35-0.44,0.44-0.91,0.36-1.32c5.1-3.25,9.77-7,13.45-12.07c4.02-5.53,6.13-11.45,11.34-16.21c1.84-1.68,4.32-4.35,4.91-6.89
				c0.55-2.38-0.28-4.68-0.9-6.91c-2.22-7.97,11.11-14.38,16.17-18.18c6.31-4.74,12.47-10.13,18.46-15.69
				c-1.76,6.15-2.36,13.01-4,18.9c-3.22,11.59-7.67,22.86-12.98,33.64c-0.46,0.92,0.72,1.54,1.31,0.75
				c5.02-6.71,7.65-14.98,10.29-22.86c3.09-9.25,4.13-19.57,6.6-29.08c-0.28,7.73,0.93,15.33,2.33,22.96
				C918.31,843.67,919.66,849.98,915.88,857.54z"/>
			<path class="st7" d="M915.88,857.54c-2.55,5.09-5.8,9.75-8.24,14.92c-0.14,0.29-0.17,0.56-0.15,0.82
				c-13.66,15.91-32.35,26.6-53.1,31.24c-13.36,2.99-26.38,1.93-39.64-0.52c-2.56-0.47-7.7-2.17-10.63-1.4
				c-2.91,0.77-3.96-3.31-4.52-6.57c4.26,1.74,8.62,3.25,13.07,4.53c5.93,3.5,12.52,5.61,19.7,5.17c11.51-0.7,11-9.17,17.19-16.87
				c0.35-0.44,0.44-0.91,0.36-1.32c5.1-3.25,9.77-7,13.45-12.07c4.02-5.53,6.13-11.45,11.34-16.21c1.84-1.68,4.32-4.35,4.91-6.89
				c0.55-2.38-0.28-4.68-0.9-6.91c-2.22-7.97,11.11-14.38,16.17-18.18c6.31-4.74,12.47-10.13,18.46-15.69
				c-1.76,6.15-2.36,13.01-4,18.9c-3.22,11.59-7.67,22.86-12.98,33.64c-0.46,0.92,0.72,1.54,1.31,0.75
				c5.02-6.71,7.65-14.98,10.29-22.86c3.09-9.25,4.13-19.57,6.6-29.08c-0.28,7.73,0.93,15.33,2.33,22.96
				C918.31,843.67,919.66,849.98,915.88,857.54z"/>
			<path class="st4" d="M955.99,742.43c-2.56,13.87-5.72,27.04-15.3,37.85c-9.36,10.56-20.51,19.59-30.98,29
				c-7.43,6.69-14.61,13.62-22.77,19.41c-5.02,3.56-10.95,7.74-12.43,14.12c-0.26,1.1,0.53,4.29,0.54,4.34
				c0.99,6.29-6.53,13.12-9.98,17.79c-4.23,5.72-5.88,11.3-11.64,16.14c-3.9,3.28-8.62,5.76-12.89,8.53
				c-1.45,0.94-0.55,3.62,1.2,2.67c0.44-0.24,0.88-0.49,1.32-0.73c-0.21,0.37-0.45,0.8-0.74,1.29c-7.58,13.2-20.31,8.19-30.22,1.28
				c-12.39-8.64-20.74-21.56-29.44-33.53c-10.51-14.46-28.53-27.41-46.77-29.3c0.49-0.33,0.91-0.76,1.37-1.13
				c0.06-0.03,0.12-0.03,0.17-0.06c3.52-2.44,7.24-3.26,11.43-3.76c5.17-0.62,11.08,1.43,15.98-0.17c0.41-0.13,0.55-0.84-0.01-0.78
				c-3.37,0.4-7.14-1.02-10.47-1.33c-3.1-0.28-6.09-0.3-9.16,0.17c-0.76,0.12-1.65,0.27-2.56,0.48c1.79-2.24,3.53-4.7,5.47-7.32
				c9.56-12.93,21.49-24.57,32.78-35.94c11.25-11.33,22.41-22.61,35.21-32.15c0.12,0.04,0.25,0.09,0.37,0.13
				c0.45-0.47,0.9-0.93,1.36-1.39c-0.01-0.01-0.01-0.03-0.01-0.04c0.07-0.05,0.14-0.11,0.22-0.16c0.6-0.6,1.2-1.19,1.83-1.76
				c4.53-4.16,9.63-7.66,15.01-10.65l0.04-0.03c-6.94,3.43-13.66,7.03-20.18,11.14c-7.48-3.12-15.1-5.84-22.5-9.15
				c-0.5-0.23-0.96,0.64-0.45,0.91c3.68,1.96,7.44,3.71,11.25,5.4c3.11,1.37,6.26,2.96,9.46,4.27
				c-7.41,4.83-14.58,10.36-21.57,17.11c-8.43,8.13-16.77,16.41-24.62,25.11c-4.75-12.5-5.15-39.01,2.99-48.15
				c0.83-0.93,0.69-2.39-0.44-2.95c-2.04-1.02-0.05-5.6,1.45-8.67c2.91,0.93,5.74,2.12,8.55,3.35c-1.64-2.32-3.92-3.98-6.07-5.81
				c-2.42-2.06-2.09-4.39,0.53-6.07c1.08-0.7,1.51-2.35,2.59-3.12c1.3,1.64,2.85,3.14,4.73,4.48c1.65,0.8,4.59,1.91,6.58,3.4
				c9.95,3.41,21.33,0.5,30-4.72c8.52-5.12,17.06-10.35,25.56-15.65c6.89-1.57,14.04-2.4,21.36-3.22
				c13.87-1.56,28.13,2.74,41.54-2.51c6.79-2.65,12.63-6.33,17.21-10.81c15.89-5.84,21.91-18.25,22.73-32.53
				C959.56,684.89,961.64,711.93,955.99,742.43z"/>
			<path class="st7" d="M945.61,657.22c-0.82,14.28-6.83,26.69-22.73,32.53c-4.58,4.48-10.43,8.15-17.21,10.81
				c-13.42,5.25-27.67,0.95-41.54,2.51c-7.32,0.82-14.48,1.64-21.36,3.22c-8.49,5.31-17.04,10.53-25.56,15.65
				c-8.67,5.21-20.04,8.12-30,4.72c-1.99-1.49-4.93-2.59-6.58-3.4c-1.88-1.33-3.43-2.84-4.73-4.48c-1.08,0.78-1.5,2.43-2.59,3.12
				c-2.62,1.68-2.95,4-0.53,6.07c2.15,1.83,4.43,3.49,6.07,5.81c-2.81-1.23-5.64-2.42-8.55-3.35c-1.5,3.07-3.49,7.65-1.45,8.67
				c1.13,0.56,1.27,2.02,0.44,2.95c-8.14,9.14-7.75,35.65-2.99,48.15c4.88-5.4,40.79-38.7,46.19-42.22c-3.2-1.32-6.35-2.9-9.46-4.27
				c-3.81-1.68-7.57-3.43-11.25-5.4c-0.51-0.27-0.06-1.14,0.45-0.91c7.41,3.31,15.02,6.03,22.5,9.15
				c6.21-3.91,12.59-7.34,19.17-10.63c3.06-4.45,10.28-7.76,11.62-12.93c-6.46,3.03-11.57,8.9-18.49,10.75
				c-2.4,0.64-6.91,1.93-9.02-0.19c-4-4,8.01-11.43,10.31-13c11.12-7.63,22.3-9.96,35.91-9.4c17.17,0.72,32.29,0.01,48.24-5.61
				c6.7-5.05,13.12-10.75,21.71-10.71c3.33,0.02,4.73,6.78,5.5,8.71c1.97,4.95,2.72,9.36-1.23,13.39
				c-3.17,3.24-10.15,4.27-14.33,5.19c-7.66,1.69-15.36,1.61-23.16,2.05c-14.68,0.82-34.25,5.65-51.41,11.57
				c14.64-5.05,65.97-7.9,78.84-1.7c20.94,10.08-8.5,22.12-21.79,21.31c-11.78-0.72-23.32-0.65-35.1-0.73
				c-1.39-0.01-2.89-0.11-4.07,0.28c10.28,1.47,24.65,3.56,27.35,15.69c1.21,5.44-0.16,10.9-3.42,15.44
				c-4.75,6.61-9.96,13.49-15.83,19.16c-6.03,5.83-12.93,10.49-20.41,14.27c-3.16,1.59-6.29,3.35-9.6,4.63
				c-3.84,1.49-8.56,2.64-11.21,5.95c6.2,1.93,19.38,4.63,18.74,11.44c-0.41,4.4-7.68,6.72-10.81,8.1
				c-4.15,1.83-8.91,3.65-11.94,7.19c-3.13,3.67-5.36,7.99-8.24,11.85c-9.1,12.22-22.04,7.99-31.43-1.1
				c-3.78-3.66-7.4-7.8-11.46-11.31c1.23,1.45,2.41,2.92,3.5,4.4c8.71,11.97,17.05,24.89,29.44,33.53
				c9.91,6.91,22.64,11.92,30.22-1.28c0.28-0.5,0.53-0.92,0.74-1.29c-0.44,0.24-0.88,0.49-1.32,0.73c-1.75,0.95-2.64-1.73-1.2-2.67
				c4.27-2.77,8.99-5.25,12.89-8.53c5.76-4.84,7.42-10.41,11.64-16.14c3.45-4.67,10.97-11.51,9.98-17.79
				c-0.01-0.06-0.79-3.24-0.54-4.34c1.48-6.38,7.41-10.56,12.43-14.12c8.16-5.79,15.34-12.73,22.77-19.41
				c10.47-9.41,21.62-18.44,30.98-29c9.58-10.82,12.74-23.98,15.3-37.85C961.64,711.93,959.56,684.89,945.61,657.22z"/>
		</g>
		<path class="st9" d="M886.62,1005.06c-4.33-7.22-9.05-14.28-12.82-21.82c-1.78-3.56-5-8.82-3.53-12.97
			c0.2-0.58,0.72-1.09,1.38-1.05c1.59,0.11,3.12,0.41,4.62,0.79c-0.04-0.06-0.09-0.11-0.13-0.17
			c-13.88-18.39-19.55-39.28-26.4-60.88c-0.13,0.16-0.3,0.29-0.51,0.34c-6.63,1.61-13.07,0.57-19.7-0.65
			c-2.95-0.54-6.08-1.51-9.09-1.6c-2.49-0.07-4.79,0.37-7.21,0.01c5.44,12.53,10.72,25.94,18.18,37.43
			c7.17,11.05,15.87,20.55,24.1,30.78c9.46,11.75,16.35,24.41,23.78,37.44c6.81,11.96,13.24,23.72,19.22,36.12
			c0.17,0.36,0.34,0.72,0.5,1.08c3.65-0.45,7.42-1.85,11.11-3.81C901.38,1032.99,894.78,1018.66,886.62,1005.06z"/>
	</g>
	<path class="st2" d="M773.82,851.23c-6.71-5.92-13.99-10.84-22.33-14.14c-6.37-2.52-11.23-5.52-17.4-3.55
		c0.1-0.11,0.21-0.22,0.31-0.34c0.36-0.41-0.18-0.82-0.55-0.44c-0.5,0.5-1.03,0.97-1.54,1.47c-0.13,0.06-0.26,0.11-0.4,0.18
		c-0.12,0.06-0.2,0.22-0.16,0.36c-10.35,9.87-22.84,17.74-34.38,26.04c-12.21,8.79-23.95,18.14-35.67,27.56
		c-11.19,9-20.49,20.45-29.85,31.26c-2.59,2.99-5.14,6.02-7.67,9.07c-0.85,5.51,2.67,12.99,10.32,17.08
		c5.49,2.94,9.54,3.74,16.08,0.18c0.83-1.25,1.69-2.48,2.5-3.75c9.05-14.25,18.08-26.57,31.86-36.65
		c12.33-9.02,25.48-17.05,38.06-25.74c13.85-9.58,27.99-18.74,42.78-26.81c0.23,0.22,0.59,0.27,0.96-0.06
		c0.06-0.06,5.34,0.67,6.26,0.57C773.98,853.43,774.61,851.93,773.82,851.23z"/>
	<path class="st16" d="M612.06,357.46c-1.06,0.17-2.43-1.8-3.09-4.42c-0.65-2.6-0.32-4.84,0.72-5c1.05-0.16,2.43,1.82,3.09,4.42
		C613.43,355.06,613.11,357.31,612.06,357.46z"/>
	<path class="st16" d="M703.55,324.8c1.06-0.07,2.25,2.04,2.65,4.69c0.4,2.65-0.14,4.86-1.2,4.91c-1.06,0.07-2.25-2.03-2.65-4.69
		C701.95,327.07,702.49,324.87,703.55,324.8z"/>
	<path class="st16" d="M705.37,412.66c-11.01,2.96-19.9,9.52-31.31,11.27c3.02,6.75,14.43,8.18,20.62,6.96
		c8.74-1.73,12.03-8.36,12.75-16.66C707.52,413.16,706.32,412.41,705.37,412.66z"/>
	<path class="st17" d="M722.11,417.95c-2.78,12.45-13.26,19.74-25.37,21.31c-0.72,0.09-1.06,1.27-0.19,1.4
		c14.77,2.23,24.75-8.86,26.31-22.61C722.9,417.62,722.2,417.53,722.11,417.95z"/>
	<path class="st17" d="M839.75,305.07c-2.98,0.16-8.77,3.33-6.71,7.02c0.32,0.58,0.98,0.64,1.53,0.4c1.13-0.51,1.49-1.55,2.25-2.45
		c0.85-1.02,2.13-1.48,3.37-1.8c2.69-0.68,6.85,0.31,8.78,2.38c0.06,0.07,0.16-0.02,0.12-0.09
		C847.2,306.82,844.11,304.83,839.75,305.07z"/>
	<path class="st17" d="M637.01,361.93c1.46-10.41,1.5-20.08-1.5-30.21c-0.09-0.32-0.56-0.18-0.5,0.14
		c2.7,12.82-2.23,26.08-3.94,38.78c-0.72,5.39-2.48,18.49,3.4,22c1.04,0.62,2.74,0.09,2.97-1.21c0.52-3.05-1.02-6.09-1.57-9.11
		C634.68,375.78,636.1,368.39,637.01,361.93z"/>
	<path class="st17" d="M714.09,380.38c-0.65,0.28-0.14,1.12,0.44,1.04c5.84-0.84,11.95-0.37,17.65,1.17
		c7.19,1.94,10.44,7.13,15.39,12.04c0.39,0.39,1.17,0,0.97-0.57C742.87,377.91,729.04,373.76,714.09,380.38z"/>
	<path class="st17" d="M582.25,279.22c0.11-0.41-0.48-0.67-0.69-0.29c-5.82,10.34-5.66,20.64-1.28,31.52
		c0.17,0.43,0.86,0.41,0.85-0.11C580.97,299.65,579.54,289.73,582.25,279.22z"/>
	<path class="st10" d="M661.92,462.8c-16.73-8.6-36.03-15.35-50.02-28.32c-16.1-14.93-11-40.13-16.29-59.36
		c-0.04-0.16-0.27-0.12-0.28,0.04c-1.38,20.39-3.69,43.81,10.08,60.69c5.72,7.01,14.48,11.2,22.49,14.95
		c10.77,5.04,21.63,11.1,33.34,13.62C662.18,464.61,662.85,463.27,661.92,462.8z"/>
	<path class="st18" d="M712.47,118.92c-59.61,2.58-112.04,39.77-131.48,96.46c-0.16,0.46,0.58,0.78,0.8,0.34
		c11.18-23.56,26.78-44.75,47.1-61.23c10.75-8.72,22.84-15.37,35.2-21.49c15.5-7.67,31.73-9.87,48.59-12.54
		C713.56,120.32,713.34,118.88,712.47,118.92z"/>
	<path class="st18" d="M838.39,146.5c-0.41-0.16-0.66,0.49-0.29,0.7c12.92,7.24,24.14,16.67,33.61,27.65
		c-5.22-2.64-11.12-4.14-16.73-4.6c-0.92-0.08-1.6,0.96-1.36,1.79c1.16,3.96,2.21,7.95,2.7,12.05c0.57,4.69-0.64,12.34-6.06,6.9
		c-5.66-5.68-9-13.38-14.74-18.94c-1.09-1.06-3.28-0.7-3.6,0.95c-1.38,7.25-1.9,14.62-3.07,21.9c-3.93-8.54-7.78-17.19-13.18-24.89
		c-0.71-1.01-2.16-0.86-2.57,0.34c-1.77,5.15-4.35,10-6.67,14.91c-0.21,0.45,0.38,1.01,0.74,0.57c2.98-3.73,4.84-8.05,7.19-12.15
		c4.78,9.58,9.05,19.35,13.53,29.08c0.78,1.7,3.45,1.17,3.86-0.5c1.94-7.86,2.43-15.94,3.62-23.92c2.9,3.64,5.32,7.78,8.17,11.37
		c2.18,2.74,6.16,8.53,10.41,7.83c9.52-1.58,5.24-16.87,3-24.21c8.11,1,14.97,4.31,21.07,9.46c6.69,9.02,12.32,18.87,16.85,29.28
		c0.34,0.77,1.44,0.2,1.29-0.54C889.74,181.14,866.99,157.44,838.39,146.5z"/>
	<path class="st18" d="M798.02,177.48c-12.38,2.16-24.79-0.61-28.21-14.24c-0.18-0.71-1.06-1.07-1.68-0.68
		c-5.07,3.14-9.4,6.76-13.45,11.12c-1.1,1.19-0.88-0.71-1.67-2.73c-1.53-3.88-3.18-7.7-4.93-11.49c-0.34-0.73-1.4-0.94-2.05-0.54
		c-8.1,4.98-12.72,13.4-19.6,19.67c-1.85-6.99,0.58-24.28-9.25-22.94c-10.18,1.39-17.43,11.42-25.74,17.07
		c-1.44-10.43,6.44-19.82,7.86-30.04c0.24-1.72-0.92-2.95-2.67-2.67c-16.71,2.69-29.06,14.6-42.52,23.94
		c3.78-13.42,19.57-24.07,29.46-32.14c1.87-1.52-0.16-4.36-2.23-3.83c-25.22,6.45-45.21,24.95-62.19,43.79
		c-0.44,0.49,0.24,1.18,0.73,0.73c14.72-13.85,31.7-28.39,50.89-36.23c-10.56,8.7-21.42,19.24-22.09,32.54
		c-0.09,1.71,2.02,2.88,3.45,1.98c13.94-8.79,26.07-21.8,42.39-25.89c-2.42,10.73-9.92,20.11-6.4,31.59c0.39,1.25,1.8,1.85,2.95,1.2
		c7.74-4.35,13.72-11.58,21.09-16.54c2.25-1.51,5.91-4,8.29-0.84c1.72,2.28,1.35,6.46,1.44,9.18c0.14,4.33,0.22,8.72,2.61,12.47
		c0.57,0.89,1.62,0.94,2.4,0.31c7.21-5.84,11.66-14.41,19.26-19.77c1.81,4.04,3.45,8.14,5.22,12.2c0.5,1.15,1.27,2.62,2.73,2.62
		c1.52,0,2.65-1.73,3.52-2.72c3.11-3.56,6.67-6.52,10.51-9.22c4.75,13.39,16.93,16.46,30.36,13.8
		C799.59,178.94,799.11,177.29,798.02,177.48z"/>
	<path class="st17" d="M687.93,620.94c-4.66,9.06-9.19,17.67-11.97,27.54c-3.11,11.05-4.8,22.59-6.41,33.93
		c-3.12,22.05-5.11,44.29-7.86,66.39c-0.04,0.29,0.44,0.35,0.51,0.07c9.86-41.82,7.7-88.17,26.2-127.66
		C688.54,620.9,688.09,620.63,687.93,620.94z"/>
	<path class="st17" d="M628.29,771.19c-5.05,0.92-10.54,4.79-13.38,9c-0.08,0.11,0.1,0.25,0.19,0.15c1.74-2.05,3.76-3.77,6.02-5.22
		c2.32-1.49,4.95-2.2,7.36-3.46C628.76,771.52,628.56,771.14,628.29,771.19z"/>
	<path class="st17" d="M635.26,765.56c-6.2-0.47-12.88,2.19-18.86,3.6c-0.15,0.04-0.11,0.28,0.04,0.27
		c2.78-0.27,5.45-0.92,8.16-1.58c3.5-0.85,7.11-1.05,10.66-1.51C635.76,766.28,635.78,765.6,635.26,765.56z"/>
	<path class="st17" d="M634.07,757.83c-0.03,0-0.03,0.04,0,0.04h0.96c0.03,0,0.03-0.04,0-0.04H634.07z"/>
	<path class="st17" d="M645.83,758.02c-2.76-1.51-6.24-0.73-9.18-0.3c-0.16,0.02-0.12,0.28,0.04,0.28c2.96,0.01,5.88,1.31,8.82,1.21
		C646.12,759.18,646.41,758.33,645.83,758.02z"/>
	<path class="st17" d="M656.84,754.33c-3.76,1.77-7.74,1.49-11.73,0.87c-0.35-0.06-0.5,0.42-0.15,0.54
		c3.97,1.33,8.91,2.26,12.14-1.08C657.27,754.49,657.05,754.24,656.84,754.33z"/>
	<path class="st17" d="M646.57,775.5c-3.85,2.7-4.37,7.76-4.38,12.14c0,0.26,0.36,0.3,0.44,0.06c1.35-4.12,1.73-8.18,4.29-11.85
		C647.07,775.65,646.78,775.36,646.57,775.5z"/>
	<path class="st17" d="M1003.84,693.94c-1.54-0.94-3.41-1.11-5.17-1.24c-0.38-0.03-0.45,0.58-0.09,0.66
		c1.69,0.41,3.33,1.19,5.09,1.21C1004.01,694.57,1004.12,694.11,1003.84,693.94z"/>
	<path class="st17" d="M1048.61,731.9c-7.94-16.55-26.31-28.98-42.28-36.79c-0.09-0.04-0.16,0.08-0.08,0.13
		c15.57,10.95,30.15,21.66,41.6,37.09C1048.18,732.78,1048.85,732.41,1048.61,731.9z"/>
	<path class="st17" d="M1013.28,725.49c-0.28-0.37-0.91-0.02-0.64,0.37c4.49,6.32,6.11,13.43,8.53,20.65
		c0.16,0.46,0.83,0.28,0.73-0.2C1020.43,739.05,1017.72,731.5,1013.28,725.49z"/>
	<path class="st17" d="M1025.49,722.48c-0.17-0.49-0.82-0.28-0.75,0.21c1.03,7.14,4.01,14.29,6.62,20.98c0.2,0.53,1,0.34,0.86-0.24
		C1030.48,736.4,1027.9,729.33,1025.49,722.48z"/>
	<path class="st17" d="M1035.71,727.04c-1.09-1.99-2.14-3.96-3.74-5.59c-0.18-0.19-0.49,0-0.43,0.25c0.51,1.96,1.52,3.58,2.56,5.31
		c1.3,2.17,2.58,4.43,4.09,6.46c0.2,0.27,0.73,0.12,0.59-0.25C1037.99,731.06,1036.8,729.05,1035.71,727.04z"/>
	<path class="st17" d="M991.78,640.95c-1.72-14.57-2.82-29.22-4.52-43.79c-2.54-21.82-3.02-46.77-13.16-66.65
		c-0.14-0.27-0.59-0.08-0.49,0.21c7.9,22.79,9.04,48.09,11.67,71.93c2.85,25.81,5.04,52.14,10.61,77.54
		c0.12,0.57,1.03,0.44,1.01-0.14C996.41,666.95,993.31,653.94,991.78,640.95z"/>
	<path class="st7" d="M928.61,510.78c-1.51,0.68-2.77-0.96-1.73-2.25c2.29-2.86,4.84-5.56,6.84-8.64c0.77-1.18,5.2-7.7-0.59-7.03
		c-2.81,0.32-4.48,1.62-6.83,2.78c-7.79,3.84-13.23,0.31-20.1-3.93c-10.89-6.71-22.09-13.02-33.86-18.07
		c-7.37-3.16-14.49-4.84-22.02-6.42c1.14,2.49,1.66,5.43,2.17,7.89c2.18,10.69-1.71,28.25,8.28,35.59
		c9.06-12.5,19.64,23.29,21.04,27.82c5.79,18.75,11.5,37.56,18.87,55.76c6.87,16.95,20.43,35.47,19.59,54.41
		c-0.49,11.11-14.54,26.13-25.26,29.55c-43.37,13.82-2.38-15.25-13.13-13.98c-10.22,0.64-27.04,7.51-38.61,15.8
		c-9.51,6.81-17.14,17.59-27.94,22.46c-4.23,1.91-17.52,2.92-20.45-1.56c-4.06-6.22,5.35-13.78,0.81-23.43
		c-15.09-32.05-27.29-62.61-34.35-97.41c-2.93-14.45-11.82-37.92-4.96-52.07c4.48-9.24,14.99-0.92,17.22-11.28
		c0.58-2.69,0.94-5.38,1.31-8.11c0.63-4.63,1.04-10.15,3.54-14.25c5.09-8.34,13.51-2.12,18.56,3.05
		c2.87,2.94,13.07,15.55,17.63,9.93c5.17-6.36,4.19-16.13,2.35-23.52c-3.15-12.67-9.12-27.71-19.08-37.08
		c-0.74,0.04-1.48,0.06-2.18,0.02c-1.05-0.06-2.13-0.01-3.22,0.01c5.06,3.83,7.77,13.22,9.71,18.01c3.32,8.18,6.03,16.55,8.53,24.99
		c1.12,3.77,2.14,7.45,0.75,11.23c-0.4,1.08-2.14,2.19-3.28,1.58c-4.24-2.25-6.19-4.85-8.87-8.81c-2.2-3.26-5.41-6.01-8.7-8.15
		c-2.41-2.49-4.86-3.19-7.33-2.16c-0.81,0.95-1.84,1.75-3.08,2.4c-0.04,0.37-0.44,0.68-0.75,0.36c-0.3,0.13-0.55,0.3-0.88,0.42
		c-1.76,0.63-3.37,0.82-4.84,0.69c-6.43,5.25-4.41,19.71-8.71,26.42c-0.62,0.97-2.5,1.36-3.14,0.2c-6.86-12.39-8.24-31.6-4.94-46.69
		c-2.09,2.6-2.96,3.67-6.52,5.24c-11.41,5.04-16.76,12.53-17.72,24.09c-0.76,9.13-2.54,17.22-6.23,25.48
		c-2.15,8.14-4.85,16.12-8.53,23.79c-3.6,7.49-12.36,11.99-2.45,20.42c9.39,7.98,20.44,11.47,31.97,7.13
		c-4.74-23.78-7.17-49.44,0.44-72.29c0.17-0.53,1.08-0.59,0.9,0.06c-6.43,22.34-3.59,47.63,1.8,71.15c0.49,0.18,0.62,0.89,0.34,1.44
		c1.76,7.53,3.78,14.88,5.81,21.87c3.24,11.1,7.04,21.96,11.08,32.72c1.11,3.8,2.29,7.59,3.55,11.35
		c3.09,9.17,7.28,17.93,10.15,27.16c2.1,6.77,3.52,13.67,5.79,20.34c-3.75-7.62-7.37-15.35-10.8-23.19
		c0.39,5.09,0.15,10.29-0.28,15.44c-0.98,12.04-5.92,34.92,9.07,40.06c4.51,1.54,8.41,2.11,11.97,1.98
		c6.14,0.32,13.18-2.6,18.71-5.26c6.14-2.96,11.82-6.77,17.83-9.99c5.1-2.72,10.08-5.63,15.29-8.16c4.24-2.06,8.77-3.25,13.29-4.46
		c-4.16,2.69-8.32,5.38-12.51,8.03c6.58-1.39,13.29-2.17,19.73-2.56c13.19-0.8,26.96,2.09,39.32-4.24c2.79-1.43,5.23-3.01,7.39-4.71
		c4.94-2.66,9.51-5.71,13.35-9.69c-0.39,0.73-0.75,1.47-1.18,2.17c7.14-4.27,12.14-9.77,12.61-21.29
		c0.41-10.2-0.13-20.11-2.94-30.03c-4.79-16.9-12.23-32.8-19.61-48.69c-13.52-29.14-27.79-57.94-40.84-87.3
		c-3.43-2.08-7.01-3.9-10.91-5.19c-0.16-0.06-0.22-0.16-0.22-0.28c9.16,1.77,17.43,5.89,25.34,10.85c6.26,3.92,11.2,9.19,16.65,13.9
		c-0.06-0.03-0.12-0.05-0.17-0.07c0.56,0.6,1.12,1.21,1.69,1.81c1.52,2.96,3.63,5.44,7.17,6.01c7.45,1.21,15.44-6.48,20.35-10.97
		c0.16-0.15,0.31-0.31,0.47-0.46c0.31-0.29,0.6-0.58,0.9-0.88c0.43-0.42,0.86-0.85,1.27-1.28c0.41-0.44,0.82-0.9,1.21-1.35
		c0.19-0.22,0.4-0.43,0.58-0.65c3.03-3.57,5.51-7.52,7.26-12.03c0.47-1.22,0.88-3.26,1.09-5.62c0.01-0.04,0.01-0.09,0.02-0.13
		C945.85,498.57,937.83,506.66,928.61,510.78z"/>
	<path class="st19" d="M942.92,477.16c-12.07-5.04-24.43-9.27-36.43-14.51c-15.09-6.58-25.31-10.28-33.89-14.58
		c-10.38-5.2-17.74-14.79-29.55-15.73c-10.98-0.88-24.54,6.16-33.19,12.34c-0.64,0.46-0.09,1.44,0.62,1.06
		c11.22-5.98,23.25-8.8,35.86-6.1c11.11,2.38,22.2,9.92,32.58,14.58c20.78,9.31,32.17,12.31,53.73,19.59
		C933.87,474.22,944.04,477.63,942.92,477.16z"/>
	<path class="st20" d="M946.97,478.44c-0.16-0.44-0.86-0.53-0.99,0c-1.49,6.28-2.69,11.79-5.77,17.6
		c-3.44,6.5-8.34,10.7-13.94,15.22c-0.25,0.21,0.07,0.55,0.32,0.42C937.71,506.29,952.07,492.09,946.97,478.44z"/>
	<path class="st19" d="M814.12,835.06c-22.57-7.47-45.27-11.11-68.89-7.16c-0.56,0.09-0.43,1.03,0.13,0.99
		c23.26-1.93,45.74,4.29,68.63,7.14C814.56,836.1,814.61,835.23,814.12,835.06z"/>
	<path class="st19" d="M850.04,637.04c-1.23-8.53-1.61-17.21-1.61-25.88c-0.01-16.71,1.26-33.44,2.24-50.09
		c1.78-30.32,3.31-64.12-8.88-91.06c-0.22-0.48-0.75-0.06-0.55,0.44c11.28,28.1,7.36,64.42,5.51,94.96
		c-0.96,15.88-2.04,31.74-1.61,47.69c0.48,17.81,3.86,36.55,8.22,53.28c0.25,0.98,1.52,0.9,1.41-0.26
		C853.84,656.28,851.44,646.76,850.04,637.04z"/>
	<path class="st7" d="M995.48,1212.36c-0.73-2.99-1.54-5.96-2.36-8.93c-0.36,2.65-1.07,5.24-2.28,7.7
		c-4.44,8.99-13.34,14.33-22.05,18.61c-14.02,6.89-28.7,13.44-43.84,17.43c-3.51,0.92-27.87,7.49-27.15-1.23
		c0.29-3.44,6.23-6.2,8.7-7.56c8.41-4.62,17.25-8.88,25.92-12.98c7.08-3.35,16.48-7.64,20.24-14.97c3.35-6.53-1.15-12.28-2.56-18.7
		c-0.71-3.25,0.77-5.26,3.76-6.18c3.5-1.08,6.53,2.16,8.39,4.56c1.4,1.81,2.52,3.81,3.86,5.65c0.81,1.11,2.02,2.9,3.36,3.51
		c4.19,1.92,4.64-4.14,4.61-6.01c-0.16-10.34-4.79-16.35-15.93-16.72c-0.23-0.01-0.44-0.07-0.61-0.15c-0.76,0.04-1.53,0.07-2.3,0.1
		c6.77,1.54,12.33,5.7,12.71,14.11c0.06,1.2-1.57,2.19-2.4,1.13c-1.83-2.35-2.69-5.37-4.68-7.6c-3.46-3.88-8.71-4.86-13.69-4.78
		c-5.16,0.08-11.66,1.63-13.69,7.15c-1.5,4.06-1.94,8.24-2.61,12.49c-0.07,0.44-0.86,0.61-0.85,0.06c0.02-1.51,0.08-3.01,0.2-4.48
		c-1.49,2.52-3.54,4.85-5.15,6.64c-4.95,5.47-10.58,10.34-16.81,14.3c-11.59,7.36-24.28,12.36-37.48,16.01
		c-7.1,1.97-14.24,3.52-21.43,5.07c-5.9,1.28-12.45,2.82-17.12,6.9c-2.3,2.01-6.34,7.43-8.04,12.57c1.41,7.27,30.81,6.71,34.25,6.93
		c16.87,1.07,34.54-2.66,51.19-5.12c16.95-2.51,34.21-5.65,49.89-12.83c13.57-6.21,26.19-14.4,37.88-23.67
		C997.09,1218.35,996.23,1215.46,995.48,1212.36z"/>
	<path class="st7" d="M997.27,1226.29c-0.69,4.32-5.03,8.65-7.87,11.81c-9.95,11.04-24.31,17.39-38.21,21.77
		c-32.38,10.2-67.5,14.53-101.2,10.38c-3.53-0.44-7.04-1.02-10.54-1.64c-4.51-0.79-11.47-0.41-14.67-4.12
		c-1.34-1.56-1.59-3.69-1.2-6.01c2.04,3.7,10.82,4.69,14.17,5.12c19.08,2.43,37.11,1.2,56.06-1.29c20.05-2.64,40.24-5.22,59.34-12.2
		c15.69-5.73,31.23-15.13,44.32-25.91C997.44,1224.87,997.38,1225.57,997.27,1226.29z"/>
	<path class="st6" d="M990.68,1201.56c-0.9-4.2-4.45-9.21-6-14.53c-1.19-4.07-2.45-7.86-5-11.3c-3.99-5.38-9.82-4.86-14.56-0.8
		c-0.22,0.19,0.07,0.56,0.31,0.4c7.9-4.86,11.83,1.8,15.55,7.94c11.47,18.88,5.77,32.52-13.65,42.68
		c-9.4,4.92-19.84,7.44-29.34,12.17c-0.3,0.15-0.09,0.66,0.22,0.55c13.25-4.5,27.24-7.21,39.39-14.52
		C989.34,1217.08,992.58,1210.51,990.68,1201.56z"/>
	<path class="st19" d="M843.67,729.83c-6.23,8.37-14.67,14.23-22.88,20.5c-7.55,5.77-14.59,12.37-21.73,18.65
		c-16.05,14.13-30.98,29.1-44.22,45.91c-0.3,0.39,0.2,0.92,0.55,0.55c14.7-15.37,31.12-29.04,47.2-42.93
		c8.34-7.2,16.93-14.21,24.55-22.18c6.17-6.47,13.82-11.52,17.43-19.96C844.85,729.73,844.08,729.28,843.67,729.83z"/>
	<path class="st17" d="M734.88,837.59c-9.06,3.25-16.5,11.18-24.04,16.92c-8.58,6.53-17.39,12.76-26,19.24
		c-15.54,11.71-32.46,25.24-42.17,42.44c-0.14,0.25,0.21,0.54,0.4,0.31c6.47-7.57,12.68-15.03,20.18-21.63
		c7.98-7.02,16.53-13.4,25.13-19.63c15.97-11.55,33.2-22.37,47.32-36.25C736.27,838.42,735.69,837.3,734.88,837.59z"/>
	<path class="st10" d="M750.89,839.48c-3.31-1.16-6.26-3-9.52-4.28c-1.45-0.57-6.38-1.21-7.84-0.45l-0.37,0.41
		c-0.03,0.11-0.05,0.23,0.01,0.38c0.05,0.13-0.17,0.3-0.26,0.16c-0.03-0.05-0.07-0.1-0.11-0.15c-8.64,9.22-20.23,17.05-30.29,24.54
		c-12.15,9.04-21.55,17.46-34.28,25.66c-18.44,11.88-29.5,35.18-42.89,51.89c-0.06,5.55,0.06,9.22,5.47,12.12
		c3.73,2,7.06,0.65,11.96-1.2c3.76-5.42,9.12-10.41,12.72-16.02c8.11-12.65,17.56-23.03,30-31.58
		c14.06-9.67,28.48-19.13,42.98-28.14c6.84-4.25,13.73-8.43,20.8-12.28c3.86-2.1,7.72-4.28,11.71-6.12
		c1.57-0.78,3.18-1.47,4.83-2.07c0.12-0.02,0.17-0.03,0.28-0.06c0.02-0.16,0.06-0.34,0.18-0.5c0.2-0.26,0.39-0.53,0.59-0.8
		c0.18-0.25,0.6-0.52,0.93-0.44c0.77,0.16,1.43,0.34,2.08,0.49C764.07,846.4,757.91,841.94,750.89,839.48z"/>
</g>
<g id="ball">
	<g>
		<path class="st2" d="M410.1,881.5c-65.26,3.15-115.61,58.62-112.46,123.89c3.16,65.26,58.63,115.62,123.89,112.46
			c65.27-3.16,115.62-58.62,112.46-123.89C530.84,928.7,475.37,878.34,410.1,881.5z"/>
		<path class="st8" d="M510.28,939.44c-3.58,7.1-7.41,13.99-12.42,22.57c-6.45,1.95-12.82,4.84-18.7,7.26
			c-4.57,1.88-9.03,3.97-13.43,6.22c-2.03,1.04-7.07,2.2-9.04,3.47c-16.15-14.39-20.46-19.63-36.23-34.19
			c-0.23-3.5-0.61-6.98-0.87-10.27c-0.48-5.98-1.38-11.94-2.4-17.88c16.2-9.39,26.54-14.72,41.3-20.97
			C479.78,904.56,497.88,919.91,510.28,939.44z"/>
		<path class="st8" d="M381.25,892.62c11.69,6.61,20.62,13.09,33.29,23.66c0.39,9.6,0.9,19.22,1.58,28.8
			c-16.82,7.69-26.55,11.57-43.35,20.37c-5-0.31-10-0.44-14.87-0.45c-7.15-0.02-13.95,0.85-20.8,1.83c0.04-0.01,0.08-0.02,0.11-0.04
			c-3.85-12.67-6.98-20.82-12.01-33.06C338.93,914.67,358.42,900.08,381.25,892.62z"/>
		<path class="st8" d="M303.77,1006.17c-0.35-7.32,0.01-14.52,0.98-21.52c4.81-5.07,16.5-11.71,29.17-16.62
			c1.68-0.26,3.37-0.51,5.05-0.64c6.15-0.46,12.35-0.32,18.51-0.2c3.97,0.08,8.05,0.6,12.15,1.16c3.8,22.74,5.91,33.65,10.11,54.26
			c-5.8,6.29-11.88,12.32-17.07,19.28c-2.07,2.8-4.08,5.67-6.04,8.59c-17.86-6.12-26.98-9.87-46.49-15.29
			c-0.28,0.41-0.53,0.8-0.81,1.2C306.22,1026.82,304.28,1016.7,303.77,1006.17z"/>
		<path class="st8" d="M444.57,1110.67c-7.45,1.97-15.21,3.22-23.21,3.61c-20.89,1.01-40.71-3.85-57.95-13.13
			c-1.58-18.55-3.14-28.34-4.4-46.82c2.11-3.6,4.19-7.18,6.47-10.4c5.02-7.09,11.44-13.79,16.61-21.02
			c20.72,0.22,32.18,1.34,52.41,4.98c4.24,3.18,8.47,6.36,12.62,9.64c7.21,5.68,13.78,12.18,21.23,17.53c0.01,0-1.14,3.76-1.14,3.76
			c-5.38,17.71-7.63,23.21-12.17,41.9c-0.9,0.88-1.8,1.77-2.75,2.6c-2.51,2.21-5.4,4.12-7.56,6.69
			C444.58,1110.2,444.55,1110.43,444.57,1110.67z"/>
		<path class="st8" d="M448.28,1109.61c1.5-1.34,2.86-3.09,4.09-4.29c0.93-0.9,1.81-1.85,2.67-2.8c1.64,1.02,3.19,1.99,4.69,2.93
			C456.02,1107.04,452.2,1108.42,448.28,1109.61z"/>
		<path class="st8" d="M518.55,1046.74c-19.06,2.32-28.82,4.27-48.58,6.24c-9.17-9.83-20.49-18.97-32.45-25.99
			c8.75-17.22,10.38-26.89,19.08-44.91c6.26-2.91,14.46-7.26,20.88-9.68c6.73-2.54,13.71-4.38,20.59-6.48
			c13.35,15.28,20.28,24.91,29.82,41.65c0.12-2.01,0.18-4.04,0.19-6.07C528.02,1017.54,524.61,1032.85,518.55,1046.74z"/>
		<path class="st16" d="M500.57,935.55c-2.88,5.71-5.95,11.25-9.99,18.15c-5.19,1.57-10.3,3.89-15.03,5.83
			c-3.68,1.51-7.27,3.19-10.8,5.01c-1.63,0.84-5.68,1.76-7.27,2.79c-12.99-11.57-16.45-15.78-29.13-27.49
			c-0.19-2.82-0.49-5.61-0.7-8.26c-0.39-4.81-1.12-9.6-1.94-14.38c13.02-7.55,21.33-11.83,33.21-16.86
			C476.04,907.5,490.59,919.84,500.57,935.55z"/>
		<path class="st16" d="M376.69,897.07c9.4,5.31,16.58,10.52,26.77,19.03c0.31,7.72,0.72,15.45,1.27,23.16
			c-13.52,6.18-21.35,9.3-34.86,16.37c-4.02-0.25-8.04-0.35-11.96-0.37c-5.75-0.02-11.22,0.69-16.72,1.47
			c0.03-0.01,0.06-0.02,0.09-0.03c-3.1-10.19-5.61-16.74-9.66-26.58C342.66,914.8,358.34,903.07,376.69,897.07z"/>
		<path class="st16" d="M312.38,1001.4c-0.28-5.89,0.01-11.68,0.79-17.31c3.86-4.07,13.26-9.42,23.45-13.36
			c1.36-0.21,2.71-0.42,4.07-0.51c4.94-0.36,9.92-0.26,14.88-0.16c3.19,0.06,6.48,0.48,9.77,0.93c3.06,18.28,4.76,27.06,8.13,43.63
			c-4.67,5.06-9.55,9.91-13.72,15.5c-1.68,2.25-3.29,4.56-4.86,6.91c-14.36-4.92-21.69-7.94-37.38-12.3
			c-0.23,0.33-0.43,0.64-0.65,0.96C314.35,1018.01,312.79,1009.87,312.38,1001.4z"/>
		<path class="st16" d="M437.76,1096.1c-5.99,1.59-12.22,2.59-18.66,2.9c-16.8,0.81-32.74-3.1-46.6-10.56
			c-1.27-14.91-2.53-22.79-3.54-37.65c1.69-2.9,3.37-5.77,5.2-8.37c4.03-5.7,9.2-11.09,13.36-16.91
			c16.66,0.18,25.88,1.08,42.14,4.01c3.41,2.55,6.81,5.12,10.15,7.75c5.79,4.57,11.08,9.79,17.08,14.09c0,0-0.92,3.03-0.92,3.03
			c-4.33,14.24-6.14,18.66-9.8,33.69c-0.72,0.71-1.44,1.42-2.2,2.09c-2.01,1.78-4.34,3.32-6.08,5.39
			C437.78,1095.72,437.75,1095.91,437.76,1096.1z"/>
		<path class="st16" d="M513.76,1034.29c-15.33,1.86-23.18,3.43-39.06,5.02c-7.37-7.9-16.48-15.25-26.09-20.9
			c7.03-13.85,8.34-21.63,15.34-36.12c5.03-2.34,11.63-5.84,16.79-7.79c5.41-2.04,11.03-3.53,16.56-5.21
			c10.73,12.28,16.31,20.03,23.99,33.49c0.09-1.61,0.14-3.24,0.15-4.88C521.38,1010.81,518.64,1023.12,513.76,1034.29z"/>
	</g>
</g>
</svg>
