<?xml version="1.0" encoding="utf-8"?>
<!-- Generator: Adobe Illustrator 26.3.1, SVG Export Plug-In . SVG Version: 6.00 Build 0)  -->
<svg version="1.1" id="objects" xmlns="http://www.w3.org/2000/svg" xmlns:xlink="http://www.w3.org/1999/xlink" x="0px" y="0px"
	 viewBox="0 0 536 77" style="enable-background:new 0 0 536 77;" xml:space="preserve">
<style type="text/css">
	.st0{fill:#20BDD3;}
	.st1{fill:#00A2B5;}
</style>
<g>
	<path class="st0" d="M144.61,46.18l-3.47,10.5h-4.46l11.35-33.39h5.2l11.4,33.39h-4.61l-3.57-10.5H144.61z M155.56,42.81
		l-3.27-9.61c-0.74-2.18-1.24-4.16-1.73-6.09h-0.1c-0.5,1.98-1.04,4.01-1.68,6.04l-3.27,9.66H155.56z"/>
	<path class="st0" d="M169.54,56.68V23.29h4.71l10.7,16.89c2.48,3.91,4.41,7.43,6,10.85l0.1-0.05c-0.4-4.46-0.5-8.52-0.5-13.72
		V23.29h4.06v33.39h-4.36l-10.6-16.94c-2.33-3.72-4.56-7.53-6.24-11.15l-0.15,0.05c0.25,4.21,0.35,8.22,0.35,13.77v14.27H169.54z"/>
	<path class="st0" d="M206.46,23.29v33.39h-4.31V23.29H206.46z"/>
	<path class="st0" d="M242.13,42.02c-0.25-4.66-0.54-10.26-0.5-14.42h-0.15c-1.14,3.91-2.53,8.08-4.21,12.68l-5.9,16.2h-3.27
		l-5.4-15.9c-1.58-4.71-2.92-9.02-3.86-12.98h-0.1c-0.1,4.16-0.35,9.76-0.64,14.76l-0.89,14.32h-4.11l2.33-33.39h5.5l5.7,16.15
		c1.39,4.11,2.53,7.78,3.37,11.25h0.15c0.84-3.37,2.03-7.04,3.52-11.25l5.95-16.15h5.5l2.08,33.39h-4.21L242.13,42.02z"/>
	<path class="st0" d="M258.73,46.18l-3.47,10.5h-4.46l11.35-33.39h5.2l11.4,33.39h-4.61l-3.57-10.5H258.73z M269.68,42.81
		l-3.27-9.61c-0.74-2.18-1.24-4.16-1.73-6.09h-0.1c-0.5,1.98-1.04,4.01-1.68,6.04l-3.27,9.66H269.68z"/>
	<path class="st0" d="M286.18,26.96h-10.16v-3.67h24.72v3.67h-10.21v29.73h-4.36V26.96z"/>
	<path class="st0" d="M308.78,23.29v33.39h-4.31V23.29H308.78z"/>
	<path class="st0" d="M344.85,39.64c0,11.49-6.99,17.59-15.51,17.59c-8.82,0-15.01-6.84-15.01-16.94c0-10.6,6.59-17.54,15.51-17.54
		C338.95,22.74,344.85,29.73,344.85,39.64z M318.94,40.18c0,7.13,3.86,13.53,10.65,13.53c6.84,0,10.7-6.29,10.7-13.87
		c0-6.64-3.47-13.58-10.65-13.58C322.51,26.26,318.94,32.85,318.94,40.18z"/>
	<path class="st0" d="M350.45,56.68V23.29h4.71l10.7,16.89c2.48,3.91,4.41,7.43,6,10.85l0.1-0.05c-0.4-4.46-0.5-8.52-0.5-13.72
		V23.29h4.06v33.39h-4.36l-10.6-16.94c-2.33-3.72-4.56-7.53-6.24-11.15l-0.15,0.05c0.25,4.21,0.35,8.22,0.35,13.77v14.27H350.45z"/>
</g>
<path class="st1" d="M40.56,61.18c-7.48,0-13.33-3.72-13.58-10.75H36c0.25,2.67,1.93,3.96,4.31,3.96c2.48,0,4.06-1.24,4.06-3.27
	c0-6.44-17.39-2.97-17.29-15.31c0-6.59,5.4-10.26,12.68-10.26c7.58,0,12.68,3.77,13.03,10.4h-9.17c-0.15-2.23-1.73-3.57-4.01-3.62
	c-2.03-0.05-3.57,0.99-3.57,3.17c0,6.04,17.19,3.32,17.19,14.96C53.24,56.32,48.68,61.18,40.56,61.18z"/>
<path class="st1" d="M75.49,11.24h8.97L72.12,46.02h-10.6L49.18,11.24h9.02l8.62,26.26L75.49,11.24z"/>
<path class="st1" d="M80.22,49.65h9.36c1.29,2.33,3.67,3.57,6.84,3.57c5.45,0,9.07-3.86,9.07-9.91c0-6.44-3.67-10.21-9.76-10.21
	c-4.21,0-7.13,2.23-8.42,6.14h10.75v6.24H79.63v-7.88c1.78-6,7.58-11.99,16.75-11.99c10.4,0,17.74,7.28,17.74,17.69
	c0,10.41-7.28,17.74-17.69,17.74C88.1,61.05,82.05,56.79,80.22,49.65z"/>
</svg>
