	<svg version="1.1" xmlns="http://www.w3.org/2000/svg" xmlns:xlink="http://www.w3.org/1999/xlink" x="0px" y="0px"
				viewBox="0 0 500 500" style="enable-background:new 0 0 500 500;" xml:space="preserve">
			<style type="text/css">
				.naruto0{fill:#F39DB6;}
				.naruto1{fill:#F6BCC2;}
				.naruto2{fill:#FEFAFA;}
				.naruto3{fill:#F6D2D6;}
				.naruto4{fill:#FFE7E8;}
				.naruto5{fill:#FFFFFF;}
			</style>
			<g id="BACKGROUND">
				<rect class="naruto0" width="500" height="500"/>
				<circle class="naruto1" cx="250" cy="250" r="189.59"/>
			</g>
			<g id="OBJECTS">
				<g id="hnads">
					<g>
						<path class="naruto2" d="M470.77,164.25c-4-3.5-19.25,2.75-28.25,20s-11.67,34.29-15.5,46c-1.36,4.16-3.08,8.35-4.73,12.04
							c-2.08,0.76-4.19,1.61-6.26,2.53c-0.48-9.7-1.08-24.58-0.76-31.82c0.5-11.25,1.5-15-0.5-22.5s-10.25-22.71-16.75-42
							c-5.55-16.48-8.75-21.75-15.75-13c-5.72,7.15-5.25,19.25-5.25,19.25s-2.08-14.25-7.67-13.75c-5.58,0.5-12.58,13.75-12.33,32.25
							s5.25,32,3.5,39.75s-4.75,25.75-5.25,32.5c0,0-2.5,3.25-7,1.5s-6.75-10-8.5-20s-3-16.5-8.5-23.5s-17.5-26.75-21-26
							s-8.25,10.75-4.75,21.75s8.5,13,9.25,19s1.75,19,3.5,26.25s3.5,16,1,20.5s-40.75,34.25-52.75,42.75c-12,8.5-27.75,21.5-27,38.25
							s4.25,36.25,4.25,42.25S246.52,500,246.27,500s78.25,0,78.25,0s-8.67-73-9-83.67c-0.33-10.67,8-28.33,13.67-32
							c5.67-3.67,25.67-6,31-10.33c5.33-4.33,17.67-20,25-26.67c7.33-6.67,19.67-11.67,22.67-16.33c1.63-2.53,3.94-10.83,7.36-20.51
							c1.51-1.32,2.96-2.61,4.31-3.83c10.33-9.33,20.33-19.33,23.67-24c1.84-2.58,5.67-16.59,9.6-32.59c0.02-0.03,0.05-0.05,0.07-0.08
							c1.24-1.45,1.58-3.23,1.16-4.97c2.77-11.5,5.49-23.5,7.51-32.69C468.27,181.5,474.77,167.75,470.77,164.25z"/>
						<g>
							<g>
								<path class="naruto3" d="M454.15,245.92c-0.03-0.3-0.07-0.6-0.14-0.9C454.08,245.33,454.13,245.63,454.15,245.92z"/>
								<path class="naruto3" d="M454.17,246.16c0.01,0.3,0.01,0.59-0.02,0.88C454.18,246.76,454.19,246.46,454.17,246.16z"/>
								<path class="naruto3" d="M454.12,247.21c-0.04,0.27-0.1,0.53-0.17,0.79C454.03,247.74,454.08,247.48,454.12,247.21z"/>
								<path class="naruto4" d="M416.03,244.82c-0.48-9.7-1.08-24.58-0.76-31.82c0.5-11.25,1.5-15-0.5-22.5s-10.25-22.71-16.75-42
									c-5.55-16.48-8.75-21.75-15.75-13c-5.72,7.15-5.25,19.25-5.25,19.25s-2.08-14.25-7.67-13.75c-5.58,0.5-12.58,13.75-12.33,32.25
									s5.25,32,3.5,39.75s-4.75,25.75-5.25,32.5c0,0-2.5,3.25-7,1.5s-6.75-10-8.5-20s-3-16.5-8.5-23.5s-17.5-26.75-21-26
									s-8.25,10.75-4.75,21.75s8.5,13,9.25,19s1.75,19,3.5,26.25s3.5,16,1,20.5s-40.75,34.25-52.75,42.75
									c-9.71,6.88-21.88,16.71-25.77,29.09c3.69,37.29,43.77,44.49,43.77,44.49c0-18.33,7.67-36.33,25.33-53.33
									c17.67-17,54-26.33,64.33-32.67c10.33-6.33,13.67-25.33,22.33-37C400.45,253.04,408.01,248.38,416.03,244.82L416.03,244.82z"/>
								<path class="naruto3" d="M419.17,243.49c-0.01,0-0.01,0.01-0.02,0.01C419.16,243.49,419.16,243.49,419.17,243.49z"/>
								<path class="naruto3" d="M443.18,282.67c1.84-2.58,5.67-16.59,9.6-32.59c-4.06,4.75-15.99,19.34-26.27,35.59
									c-4.73,7.48-8.42,16.64-11.31,24.82l0,0c1.5-1.32,2.96-2.6,4.31-3.82C429.85,297.33,439.85,287.33,443.18,282.67z"/>
								<path class="naruto3" d="M453.9,248.17c-0.1,0.29-0.22,0.57-0.37,0.84C453.68,248.73,453.8,248.45,453.9,248.17z"/>
								<path class="naruto3" d="M470.77,164.25c-4-3.5-19.25,2.75-28.25,20s-11.67,34.29-15.5,46c-1.36,4.16-3.08,8.35-4.73,12.04l0,0
									c7.63-2.79,14.93-4.48,19.23-4.62c6.89-0.23,11.56,3.49,12.49,7.36c2.77-11.5,5.49-23.5,7.51-32.69
									C468.27,181.5,474.77,167.75,470.77,164.25z"/>
								<path class="naruto3" d="M453.42,249.19c-0.17,0.28-0.35,0.55-0.57,0.81C453.07,249.74,453.26,249.47,453.42,249.19z"/>
							</g>
						</g>
						<path class="naruto0" d="M434.52,256c0,0-7.17,6.67-9.83,13c-2.67,6.33,0.38,11.08,9.44,5.29c7.96-11.33,15.55-20.58,18.64-24.2
							C452.15,250.8,447.71,255.23,434.52,256z"/>
						<g>
							<g>
								<path class="naruto0" d="M415.21,310.49c3.18-9.47,6.94-18.88,12.44-27.28c7.15-11.29,15.11-22.05,23.58-32.38
									c4.15-3.88,1.82-8.67-2.73-10.93c-7.96-4.21-24.89,2.67-32.86,6.08c-20.76,9.36-21.35,17.88-30.42,36.7
									c-2.93,6.05-7.02,12.31-13.48,15c-21.05,9.51-44.66,15.29-61.96,31.28c-7.14,6.9-13.49,14.74-18.01,23.61
									c-4.6,8.86-7.06,18.78-7.25,28.76c-0.14-10.04,2.14-20.08,6.57-29.09c4.34-9.09,10.68-17.11,17.81-24.18
									c17.17-16.45,40.96-22.47,62.02-32.05c6.17-2.63,9.71-8.37,12.55-14.19c9.09-19.31,10.35-28.07,31.43-37.49
									c6.15-2.73,12.52-4.94,19.11-6.42c4.99-1.07,10.51-1.94,15.23,0.57c3.98,1.85,7.44,7.03,4.7,11.23
									c-9.09,10.9-17.81,22.07-25.65,33.91C422.6,291.87,418.7,301.13,415.21,310.49L415.21,310.49z"/>
							</g>
							<g>
								<path class="naruto0" d="M377.02,154.75c0.23,7.63,1.98,15.1,3.69,22.5c1.8,7.31,3.82,14.74,6.94,21.58c0,0,0.15,0.33,0.15,0.33
									s-0.1,0.35-0.1,0.35c-2.09,7.87-4.21,15.89-4.84,24.01c-0.28,8.21,0.62,16.45,0.23,24.72c-0.1,1.39-0.17,2.78-0.57,4.19
									c-0.47,1.47-1.47,2.52-2.43,3.52c-1.99,1.95-4.24,3.58-6.57,5.04c3.01-2.49,6.8-5.03,8.16-8.79
									c1.02-9.52-1.01-19.15-0.69-28.77c0.51-8.36,2.65-16.44,4.86-24.46c0,0,0.06,0.68,0.06,0.68c-3.16-7.1-4.96-14.57-6.55-22.11
									C377.95,170.05,376.58,162.4,377.02,154.75L377.02,154.75z"/>
							</g>
							<g>
								<path class="naruto0" d="M368.02,263.5c4.3-3.02,9.01-5.14,14-6.75C378.5,260.71,373.26,263.07,368.02,263.5L368.02,263.5z"/>
							</g>
							<g>
								<path class="naruto0" d="M355.27,245.5c0.29,1.66,0.88,3.05,1.31,4.71c0.18,0.73,0.35,1.83-0.39,2.53
									c-0.23,0.25-0.61,0.39-0.88,0.49c-3.85,1.35-7.78,1.91-11.54,3.52c2.73-3.29,7.3-4.35,11.2-5.38
									C355.21,249.99,354.53,247.3,355.27,245.5L355.27,245.5z"/>
							</g>
							<g>
								<path class="naruto0" d="M330.16,383.79c-5.33,2.59-11.27,3.5-17.06,4.37c-5.83,0.72-11.69,1.17-17.58,0.85
									C306.78,386.5,318.81,385.75,330.16,383.79L330.16,383.79z"/>
							</g>
							<g>
								<path class="naruto0" d="M311.77,391.25c-6.91,3.85-15.1,5.93-23,5C296.33,394.44,304.09,392.46,311.77,391.25L311.77,391.25z"/>
							</g>
						</g>
					</g>
					<g>
						<path class="naruto2" d="M29.23,335.75c4,3.5,19.25-2.75,28.25-20s11.67-34.29,15.5-46c1.36-4.16,3.08-8.35,4.73-12.04
							c2.08-0.76,4.19-1.61,6.26-2.53c0.48,9.7,1.08,24.58,0.76,31.82c-0.5,11.25-1.5,15,0.5,22.5s10.25,22.71,16.75,42
							c5.55,16.48,8.75,21.75,15.75,13c5.72-7.15,5.25-19.25,5.25-19.25s2.08,14.25,7.67,13.75c5.58-0.5,12.58-13.75,12.33-32.25
							s-5.25-32-3.5-39.75s4.75-25.75,5.25-32.5c0,0,2.5-3.25,7-1.5s6.75,10,8.5,20s3,16.5,8.5,23.5s17.5,26.75,21,26
							s8.25-10.75,4.75-21.75s-8.5-13-9.25-19s-1.75-19-3.5-26.25s-3.5-16-1-20.5s40.75-34.25,52.75-42.75s27.75-21.5,27-38.25
							s-4.25-36.25-4.25-42.25S253.48,0,253.73,0s-78.25,0-78.25,0s8.67,73,9,83.67c0.33,10.67-8,28.33-13.67,32
							c-5.67,3.67-25.67,6-31,10.33c-5.33,4.33-17.67,20-25,26.67c-7.33,6.67-19.67,11.67-22.67,16.33
							c-1.63,2.53-3.94,10.83-7.36,20.51c-1.5,1.32-2.96,2.61-4.31,3.82c-10.33,9.33-20.33,19.33-23.67,24
							c-1.84,2.58-5.67,16.59-9.6,32.59c-0.02,0.03-0.05,0.05-0.07,0.08c-1.24,1.45-1.58,3.23-1.16,4.97
							c-2.77,11.5-5.49,23.5-7.51,32.69C31.73,318.5,25.23,332.25,29.23,335.75z"/>
						<g>
							<g>
								<path class="naruto3" d="M45.85,254.08c0.03,0.3,0.07,0.6,0.14,0.9C45.92,254.67,45.87,254.37,45.85,254.08z"/>
								<path class="naruto3" d="M45.83,253.84c-0.01-0.3-0.01-0.59,0.02-0.88C45.82,253.24,45.81,253.54,45.83,253.84z"/>
								<path class="naruto3" d="M45.88,252.79c0.04-0.27,0.1-0.53,0.17-0.79C45.97,252.26,45.92,252.52,45.88,252.79z"/>
								<path class="naruto4" d="M83.97,255.18c0.48,9.7,1.08,24.58,0.76,31.82c-0.5,11.25-1.5,15,0.5,22.5s10.25,22.71,16.75,42
									c5.55,16.48,8.75,21.75,15.75,13c5.72-7.15,5.25-19.25,5.25-19.25s2.08,14.25,7.67,13.75c5.58-0.5,12.58-13.75,12.33-32.25
									s-5.25-32-3.5-39.75s4.75-25.75,5.25-32.5c0,0,2.5-3.25,7-1.5s6.75,10,8.5,20s3,16.5,8.5,23.5s17.5,26.75,21,26
									s8.25-10.75,4.75-21.75s-8.5-13-9.25-19s-1.75-19-3.5-26.25s-3.5-16-1-20.5s40.75-34.25,52.75-42.75
									c9.71-6.88,21.88-16.71,25.77-29.09c-3.69-37.29-43.77-44.49-43.77-44.49c0,18.33-7.67,36.33-25.33,53.33
									c-17.67,17-54,26.33-64.33,32.67c-10.33,6.33-13.67,25.33-22.33,37C99.55,246.96,91.99,251.62,83.97,255.18L83.97,255.18z"/>
								<path class="naruto3" d="M80.83,256.51c0.01,0,0.01-0.01,0.02-0.01C80.84,256.51,80.84,256.51,80.83,256.51z"/>
								<path class="naruto3" d="M56.82,217.33c-1.84,2.58-5.67,16.59-9.6,32.59c4.06-4.75,15.99-19.34,26.27-35.59
									c4.73-7.48,8.42-16.64,11.31-24.82l0,0c-1.5,1.32-2.96,2.6-4.31,3.82C70.15,202.67,60.15,212.67,56.82,217.33z"/>
								<path class="naruto3" d="M46.1,251.83c0.1-0.29,0.22-0.57,0.37-0.84C46.32,251.27,46.2,251.55,46.1,251.83z"/>
								<path class="naruto4" d="M29.23,335.75c4,3.5,19.25-2.75,28.25-20s11.67-34.29,15.5-46c1.36-4.16,3.08-8.35,4.73-12.04l0,0
									c-7.63,2.79-14.93,4.48-19.23,4.62c-6.89,0.23-11.56-3.49-12.49-7.36c-2.77,11.5-5.49,23.5-7.51,32.69
									C31.73,318.5,25.23,332.25,29.23,335.75z"/>
								<path class="naruto3" d="M46.58,250.81c0.17-0.28,0.35-0.55,0.57-0.81C46.93,250.26,46.74,250.53,46.58,250.81z"/>
							</g>
						</g>
						<path class="naruto0" d="M65.48,244c0,0,7.17-6.67,9.83-13c2.67-6.33-0.38-11.08-9.44-5.29c-7.96,11.33-15.55,20.58-18.64,24.2
							C47.85,249.2,52.29,244.77,65.48,244z"/>
						<g>
							<g>
								<path class="naruto0" d="M84.79,189.51c-3.18,9.47-6.94,18.88-12.44,27.28c-7.15,11.29-15.11,22.05-23.58,32.38
									c-4.15,3.88-1.82,8.67,2.73,10.93c7.96,4.21,24.89-2.67,32.86-6.08c20.76-9.36,21.35-17.88,30.42-36.7
									c2.93-6.05,7.02-12.31,13.48-15c21.05-9.51,44.66-15.29,61.96-31.28c7.14-6.9,13.49-14.74,18.01-23.61
									c4.6-8.86,7.06-18.78,7.25-28.76c0.14,10.04-2.14,20.08-6.57,29.09c-4.34,9.09-10.68,17.11-17.81,24.18
									c-17.17,16.45-40.96,22.47-62.02,32.05c-6.17,2.63-9.71,8.37-12.55,14.19c-9.09,19.31-10.35,28.07-31.43,37.49
									c-6.15,2.73-12.52,4.94-19.11,6.42c-4.99,1.07-10.51,1.94-15.23-0.57c-3.98-1.85-7.44-7.03-4.7-11.23
									c9.09-10.9,17.81-22.07,25.65-33.91C77.4,208.13,81.3,198.87,84.79,189.51L84.79,189.51z"/>
							</g>
							<g>
								<path class="naruto0" d="M122.98,345.25c-0.23-7.63-1.98-15.1-3.69-22.5c-1.8-7.31-3.82-14.74-6.94-21.58c0,0-0.15-0.33-0.15-0.33
									s0.1-0.35,0.1-0.35c2.09-7.87,4.21-15.89,4.84-24.01c0.28-8.21-0.62-16.45-0.23-24.72c0.1-1.39,0.17-2.78,0.57-4.19
									c0.47-1.47,1.47-2.52,2.43-3.52c1.99-1.95,4.24-3.58,6.57-5.04c-3.01,2.49-6.8,5.03-8.16,8.79
									c-1.02,9.52,1.01,19.15,0.69,28.77c-0.51,8.36-2.65,16.44-4.86,24.46c0,0-0.06-0.68-0.06-0.68c3.16,7.1,4.96,14.57,6.55,22.11
									C122.05,329.95,123.42,337.6,122.98,345.25L122.98,345.25z"/>
							</g>
							<g>
								<path class="naruto0" d="M131.98,236.5c-4.3,3.02-9.01,5.14-14,6.75C121.5,239.29,126.74,236.93,131.98,236.5L131.98,236.5z"/>
							</g>
							<g>
								<path class="naruto0" d="M144.73,254.5c-0.29-1.66-0.88-3.05-1.31-4.71c-0.18-0.73-0.35-1.83,0.39-2.53
									c0.23-0.25,0.61-0.39,0.88-0.49c3.85-1.35,7.78-1.91,11.54-3.52c-2.73,3.29-7.3,4.35-11.2,5.38
									C144.79,250.01,145.47,252.7,144.73,254.5L144.73,254.5z"/>
							</g>
							<g>
								<path class="naruto0" d="M169.84,116.21c5.33-2.59,11.27-3.5,17.06-4.37c5.83-0.72,11.69-1.17,17.58-0.85
									C193.22,113.5,181.19,114.25,169.84,116.21L169.84,116.21z"/>
							</g>
							<g>
								<path class="naruto0" d="M188.23,108.75c6.91-3.85,15.1-5.93,23-5C203.67,105.56,195.91,107.54,188.23,108.75L188.23,108.75z"/>
							</g>
						</g>
					</g>
				</g>

						<path  id="swirt" class="naruto5" d="M281.39,166.02c0,0,0,6.07-7.67,12.25c7.67,6.18,7.67,12.25,7.67,12.25s0-6.07,7.67-12.25
							C281.39,172.09,281.39,166.02,281.39,166.02z"/>
						<path class="naruto5" d="M357.39,279.56c0,0,0,6.07-7.67,12.25c7.67,6.18,7.67,12.25,7.67,12.25s0-6.07,7.67-12.25
							C357.39,285.64,357.39,279.56,357.39,279.56z"/>
						<path class="naruto5" d="M214.1,184.4c0,0,0,3.04-3.83,6.13c3.83,3.09,3.83,6.13,3.83,6.13s0-3.04,3.83-6.13
							C214.1,187.44,214.1,184.4,214.1,184.4z"/>
						<path class="naruto5" d="M292.06,163.01c0,0,0,3.04-3.83,6.13c3.83,3.09,3.83,6.13,3.83,6.13s0-3.04,3.83-6.13
							C292.06,166.04,292.06,163.01,292.06,163.01z"/>
						<path class="naruto5" d="M262.72,131.82c0,0,0,3.04-3.83,6.13c3.83,3.09,3.83,6.13,3.83,6.13s0-3.04,3.83-6.13
							C262.72,134.85,262.72,131.82,262.72,131.82z"/>
						<path class="naruto5" d="M348.45,297.95c0,0,0,3.04-3.83,6.13c3.83,3.09,3.83,6.13,3.83,6.13s0-3.04,3.83-6.13
							C348.45,300.98,348.45,297.95,348.45,297.95z"/>
						<path class="naruto5" d="M385.65,245.28c0,0,0,3.04-3.83,6.13c3.83,3.09,3.83,6.13,3.83,6.13s0-3.04,3.83-6.13
							C385.65,248.32,385.65,245.28,385.65,245.28z"/>
						<path class="naruto5" d="M180.45,328.93c0,0,0,3.04-3.83,6.13c3.83,3.09,3.83,6.13,3.83,6.13s0-3.04,3.83-6.13
							C180.45,331.97,180.45,328.93,180.45,328.93z"/>
						<path class="naruto5" d="M154.96,227.31c0,0,0,3.04-3.83,6.13c3.83,3.09,3.83,6.13,3.83,6.13s0-3.04,3.83-6.13
							C154.96,230.35,154.96,227.31,154.96,227.31z"/>
						<path class="naruto5" d="M199.55,266.49c0,0,0,3.04-3.83,6.13c3.83,3.09,3.83,6.13,3.83,6.13s0-3.04,3.83-6.13
							C199.55,269.52,199.55,266.49,199.55,266.49z"/>
						<path class="naruto5" d="M114.35,305.85c0,0,0,3.04-3.83,6.13c3.83,3.09,3.83,6.13,3.83,6.13s0-3.04,3.83-6.13
							C114.35,308.89,114.35,305.85,114.35,305.85z"/>
						<path class="naruto5" d="M168.4,315c0,0,0,4.49-5.66,9.05c5.66,4.57,5.66,9.05,5.66,9.05s0-4.49,5.66-9.05
							C168.4,319.49,168.4,315,168.4,315z"/>
						<path class="naruto5" d="M281.39,359.93c0,0,0,3.04-3.83,6.13c3.83,3.09,3.83,6.13,3.83,6.13s0-3.04,3.83-6.13
							C281.39,362.96,281.39,359.93,281.39,359.93z"/>
				

						<path class="naruto5" d="M345.35,103.59c-4.81,6.26-8.1,13.42-12.24,20.11c-1.02,1.65,1.61,3.09,2.63,1.45
							c4-6.46,7.13-13.45,11.78-19.5C348.69,104.14,346.53,102.05,345.35,103.59z"/>
						<path class="naruto5" d="M362.8,121.66c-4.37,4.05-8.91,7.88-13.92,11.12c-1.62,1.05-0.05,3.61,1.58,2.55
							c5.22-3.37,9.97-7.38,14.52-11.6C366.4,122.41,364.21,120.35,362.8,121.66z"/>
						<path class="naruto5" d="M319.38,102.79c-0.36,5.56-0.71,11.13-1.53,16.64c-0.28,1.9,2.63,2.64,2.91,0.73
							c0.86-5.78,1.24-11.61,1.62-17.44C322.51,100.79,319.5,100.88,319.38,102.79z"/>
					</g>
					<g>
						<path class="naruto5" d="M183.21,408.93c5.01-6.11,8.51-13.17,12.85-19.73c1.07-1.62-1.52-3.14-2.58-1.53
							c-4.2,6.34-7.54,13.22-12.38,19.12C179.89,408.28,181.99,410.43,183.21,408.93z"/>
						<path class="naruto5" d="M166.32,390.33c4.49-3.92,9.15-7.6,14.26-10.68c1.65-1,0.16-3.6-1.5-2.6c-5.32,3.21-10.19,7.07-14.87,11.15
							C162.75,389.47,164.87,391.6,166.32,390.33z"/>
						<path class="naruto5" d="M209.14,410.53c0.54-5.55,1.05-11.1,2.04-16.59c0.34-1.89-2.54-2.72-2.89-0.81
							c-1.04,5.75-1.6,11.57-2.16,17.39C205.96,412.44,208.96,412.44,209.14,410.53z"/>
					</g>
				<g id="rotate">
					<g>
						<path class="naruto5" d="M324.64,163.79C365.8,202.52,370.16,268.7,335.19,313c-11.22,14.74-26.58,26.41-44.2,32.34
							c-17.64,6.12-37.09,6.6-55.05,1.48c-26.9-7.69-51.31-28.12-58.89-55.72c-11.72-39.52,13.22-86.83,56.1-91.04
							c7.15-0.59,14.48-0.12,21.42,1.78c1.08,0.22,2.44,0.64,3.45,1.02c2.06,0.68,4.79,1.69,6.69,2.66c2.57,1.05,5.48,2.93,7.88,4.34
							c2.22,1.66,5.09,3.61,7.06,5.56c17.09,14.75,21.6,39.86,11.13,59.8c-8.4,15.81-24.11,25.57-42.22,23.19
							c-20.24-2.56-36.59-21.25-31.13-41.99c2.41-9.57,9.5-18.25,19.14-21.12c9.58-2.97,20.62,0.17,27.06,7.9
							c8.5,9.87,5.29,26.73-7.03,31.71c-7.06,2.82-15.89,0.21-19.87-6.35c-5.84-9.23,2.47-22.94,13.57-18.73
							c2.32,0.95,4.37,2.69,5.39,5.02c2.19,4.63-0.78,11.08-6.1,11.47c-5.56,0.54-9.57-6.1-4.94-10.04c3.26-2.65,8.6,0.98,6.02,4.79
							c-1.46,2.28-5.55,0.91-4.59-1.88c0.38-1.15,1.95-1.61,2.79-0.69c-0.85-0.85-2.33-0.37-2.65,0.74c-0.39,1.06,0.3,2.21,1.34,2.53
							c2.23,0.81,4-2.04,2.9-3.9c-3.04-4.38-8.6,0.36-6.14,4.57c1.02,1.69,3.16,2.66,5.12,2.41c4.13-0.43,6.3-5.69,4.45-9.19
							c-0.83-1.76-2.54-3.08-4.39-3.77c-8.75-3.03-14.92,8.08-10.14,15.02c2.18,3.3,6.12,5.39,10.06,5.55
							c8.32,0.59,14.84-7.51,14.73-15.41c0.21-8.3-6.44-15.13-14.16-17.11c-7.82-2.14-16.49,0.74-21.54,7.08
							c-8.09,9.28-8.1,24.12-0.17,33.49c5.31,6.17,13.04,10.32,21.14,11.22c15.32,1.78,28.03-6.55,34.97-19.87
							c9.83-19.75,3.36-42.31-14.79-54.63c0,0-1.26-0.93-1.26-0.93c-0.89-0.55-3.15-1.83-4.06-2.39c-2.67-1.43-5.76-2.72-8.66-3.66
							c-0.86-0.41-2.1-0.63-3.01-0.87c-17.18-4.62-36.6,0.23-49.48,12.54c-25.09,22.84-28.09,63.05-7.32,89.74
							c27.29,35.31,80.4,42.2,116.41,16.11C364.95,288.82,369.88,210.68,324.64,163.79L324.64,163.79z"/>
					</g>
				</g>
			</svg>