<?xml version="1.0" encoding="utf-8"?>
<!-- Generator: Adobe Illustrator 26.3.1, SVG Export Plug-In . SVG Version: 6.00 Build 0)  -->
<svg version="1.1" id="walking" xmlns="http://www.w3.org/2000/svg" xmlns:xlink="http://www.w3.org/1999/xlink" x="0px" y="0px"
	 viewBox="0 0 200 200" style="enable-background:new 0 0 200 200;" xml:space="preserve">
<style type="text/css">
	.st0{fill:#E7CEB3;fill-opacity:0.9;}
	.st1{fill:#B16348;}
	.st2{fill:#7D491E;}
	.st3{fill:#F09A68;}
	.st4{fill:#B96F48;}
	.st5{fill:#CA875A;}
	.st6{fill:#986429;}
	.st7{fill:#F7C5A3;}
	.st8{fill:#CB9F82;}
	.st9{fill:#734D2E;}
	.st10{fill:#FFFFFF;}
	.st11{fill:#503516;}
	.st12{fill:#999A62;}
	.st13{fill:#53734E;}
	.st14{fill:#9EA480;}
	.st15{fill:#146B92;}
	.st16{fill:#0A5969;}
	.st17{opacity:0.5;fill:#CA875A;}
</style>
<rect id="bg" class="st0" width="200" height="200"/>
<g id="lhand">
	<g>
		<path class="st1" d="M104.59,90.15c0,0,2.67-1.65,5.7,2.16c3.03,3.8,9.47,10.98,15.48,11.56c6,0.58-1.88,9.85-11.86,4.87
			C103.94,103.76,100.53,96.79,104.59,90.15z"/>
		<path class="st2" d="M119.82,110.45c-2.01,0-4.04-0.5-6.02-1.49c-5.88-2.94-9.6-6.61-10.75-10.62c-0.8-2.77-0.35-5.57,1.33-8.32
			c0.02-0.03,0.05-0.06,0.08-0.08c0.03-0.02,0.65-0.39,1.62-0.39c1.06,0,2.68,0.45,4.4,2.61c3.22,4.04,9.49,10.91,15.31,11.47
			c2.16,0.21,2.33,1.43,2.31,1.95c-0.05,1.05-0.98,2.28-2.42,3.22C124.04,109.86,121.96,110.45,119.82,110.45z M104.76,90.33
			c-1.58,2.61-1.99,5.26-1.24,7.88c1.11,3.88,4.75,7.44,10.5,10.32c1.91,0.96,3.86,1.44,5.8,1.44c4.55,0,7.7-2.66,7.79-4.41
			c0.04-0.8-0.62-1.31-1.86-1.43c-6-0.58-12.38-7.55-15.65-11.65c-1.59-2-3.06-2.42-4.02-2.42
			C105.39,90.04,104.91,90.26,104.76,90.33z"/>
	</g>
	<g>
		<g>
			<g>
				<path class="st3" d="M128.17,103.31c0,0-2.19-1.97-4.24-0.29c-2.06,1.68-2.83,6.5-1.16,7.81c1.66,1.31,6.02,2.65,8.01-0.8
					C134.48,103.61,128.17,103.31,128.17,103.31z"/>
				<path class="st4" d="M126.9,112.46L126.9,112.46c-1.7,0-3.38-0.73-4.29-1.44c-0.63-0.5-0.99-1.48-1-2.75
					c-0.02-1.82,0.72-4.28,2.16-5.45c0.6-0.48,1.26-0.73,1.97-0.73c1.25,0,2.26,0.76,2.52,0.97c0.47,0.04,2.66,0.3,3.56,1.94
					c0.69,1.26,0.41,2.99-0.83,5.14C129.88,112.06,128.15,112.46,126.9,112.46z M125.74,102.58c-0.6,0-1.16,0.21-1.66,0.62
					c-1.14,0.93-1.99,3.11-1.98,5.06c0.01,1.12,0.3,1.96,0.81,2.36c0.85,0.67,2.41,1.34,3.98,1.34l0,0c1.13,0,2.68-0.36,3.67-2.07
					c1.15-1.99,1.42-3.56,0.82-4.66c-0.85-1.56-3.21-1.69-3.24-1.69c-0.05,0-0.11-0.03-0.15-0.06
					C127.99,103.48,126.98,102.58,125.74,102.58z"/>
			</g>
			<g>
				<path class="st4" d="M130.17,107.51c-0.16,0.01-0.33,0.01-0.52,0.01c-1.29-0.01-2.96-0.64-3.38-1.58
					c-0.13-0.3-0.21-0.76,0.23-1.26c1.17-1.36,4.54-0.46,4.68-0.42c0.13,0.04,0.21,0.17,0.17,0.3c-0.04,0.13-0.17,0.21-0.3,0.17
					c-0.89-0.24-3.38-0.67-4.18,0.27c-0.22,0.25-0.27,0.5-0.16,0.74c0.3,0.66,1.73,1.28,2.94,1.29c1.56,0.01,2.14-0.31,2.15-0.31
					c0.12-0.06,0.27-0.02,0.33,0.09c0.07,0.12,0.03,0.26-0.09,0.33C132.02,107.15,131.5,107.45,130.17,107.51z"/>
				<path class="st4" d="M129.59,109.99c-0.35,0.01-0.68-0.02-0.96-0.07c-1.18-0.21-2.36-0.88-2.81-1.58
					c-0.2-0.31-0.26-0.63-0.16-0.94c0.21-0.68,1.07-1.07,1.11-1.08c0.12-0.05,0.27,0,0.32,0.13c0.06,0.12,0,0.27-0.12,0.32
					c-0.19,0.09-0.72,0.39-0.83,0.78c-0.05,0.17-0.02,0.35,0.1,0.54c0.33,0.51,1.35,1.16,2.49,1.36c0.65,0.12,1.58,0.13,2.36-0.45
					c0.11-0.08,0.26-0.06,0.34,0.05c0.08,0.11,0.06,0.26-0.05,0.34C130.8,109.81,130.17,109.96,129.59,109.99z"/>
				<path class="st4" d="M128.6,112.04c-0.02,0-0.05,0-0.08-0.01c-0.11-0.03-2.57-0.73-2.97-2.06c-0.15-0.5,0-1.01,0.45-1.52
					c0.09-0.1,0.25-0.11,0.35-0.02c0.1,0.09,0.11,0.24,0.02,0.34c-0.33,0.38-0.45,0.72-0.35,1.06c0.26,0.89,1.99,1.55,2.63,1.73
					c0.13,0.04,0.21,0.17,0.17,0.3C128.79,111.97,128.7,112.04,128.6,112.04z"/>
				<path class="st4" d="M125.08,112.19c-0.05,0-0.11-0.01-0.15-0.05c-0.03-0.02-0.7-0.52-0.64-1.24c0.05-0.55,0.49-1.03,1.32-1.45
					c0.12-0.06,0.27-0.01,0.33,0.11c0.06,0.12,0.01,0.27-0.11,0.33c-0.66,0.33-1.02,0.7-1.05,1.05c-0.04,0.44,0.43,0.8,0.44,0.8
					c0.11,0.08,0.13,0.23,0.05,0.34C125.22,112.15,125.16,112.19,125.08,112.19z"/>
				<path class="st4" d="M124.63,108.56c-0.06,0-0.13,0-0.19,0c-0.37-0.03-0.67-0.19-0.89-0.49c-0.84-1.15-0.19-4-0.16-4.12
					c0.03-0.13,0.16-0.21,0.29-0.18c0.13,0.03,0.21,0.16,0.18,0.29c-0.18,0.77-0.51,2.92,0.08,3.72c0.13,0.18,0.31,0.28,0.53,0.29
					c0.3,0.02,0.56-0.07,0.78-0.27c0.82-0.73,0.93-2.6,0.93-2.62c0.01-0.13,0.12-0.23,0.26-0.23c0.13,0.01,0.24,0.12,0.23,0.26
					c-0.01,0.09-0.12,2.1-1.1,2.96C125.31,108.42,124.99,108.55,124.63,108.56z"/>
			</g>
		</g>
	</g>
</g>
<g id="tail">
	<path class="st5" d="M86,119.27c0.55-1.92,0-3.83-1.57-5.02c-2.02-1.53-6.09-0.39-7.19,1.81c-0.15,0.3,0.26,0.33,0.46,0.29
		c0.29-0.05,0.57-0.12,0.85-0.18c-1.17,0.78-2.15,1.89-2.08,3.41c0.02,0.05,0.06,0.09,0.11,0.1c0.4,0.1,0.81-0.01,1.21-0.18
		c-0.58,0.81-0.9,1.68-0.6,2.85c0.02,0.09,0.14,0.12,0.21,0.13c0.43,0.08,0.81-0.05,1.15-0.29c0.08,1.17,0.55,2.45,1.61,2.61
		c0.67,0.1,1.04-0.13,1.29-0.5c0.75,0.15,1.52-0.08,2.18-0.82c0.42-0.48,0.75-0.94,1.02-1.4C85.35,121.32,85.73,120.18,86,119.27z"
		/>
	<path class="st6" d="M80.46,125.07c-0.1,0-0.21-0.01-0.33-0.02c-1.09-0.16-1.62-1.31-1.78-2.45c-0.32,0.15-0.65,0.19-0.99,0.13
		c-0.08-0.02-0.34-0.07-0.4-0.31c-0.23-0.89-0.14-1.67,0.28-2.47c-0.25,0.05-0.49,0.04-0.72-0.02c-0.14-0.05-0.23-0.13-0.28-0.25
		c-0.01-0.03-0.02-0.05-0.02-0.08c-0.05-1.11,0.41-2.11,1.36-2.98c-0.27,0-0.47-0.07-0.57-0.23c-0.04-0.07-0.1-0.22,0-0.43
		c0.75-1.51,2.91-2.65,5.03-2.65c1,0,1.88,0.26,2.53,0.75c1.63,1.23,2.25,3.21,1.66,5.28c-0.27,0.94-0.66,2.11-1.38,2.92
		c-0.27,0.47-0.61,0.94-1.02,1.4c-0.55,0.62-1.22,0.94-1.93,0.94l0,0c-0.11,0-0.22-0.01-0.32-0.02
		C81.3,124.91,80.93,125.07,80.46,125.07z M78.56,121.95c0.04,0,0.07,0.01,0.1,0.02c0.08,0.04,0.13,0.12,0.14,0.21
		c0.07,1.06,0.48,2.25,1.4,2.38c0.5,0.08,0.82-0.04,1.05-0.4c0.05-0.08,0.15-0.12,0.25-0.1c0.13,0.03,0.26,0.04,0.39,0.04l0,0
		c0.58,0,1.11-0.26,1.57-0.78c0.38-0.43,0.71-0.88,0.99-1.36c0.68-0.77,1.05-1.88,1.31-2.76c0.53-1.87-0.02-3.65-1.48-4.76
		c-0.56-0.43-1.34-0.65-2.23-0.65c-1.92,0-3.86,1-4.56,2.33c0.05,0,0.12,0,0.17-0.01c0.22-0.04,0.45-0.09,0.67-0.14l0.17-0.04
		c0.12-0.02,0.23,0.03,0.28,0.14c0.05,0.11,0.01,0.23-0.09,0.3c-1.32,0.88-1.98,1.92-1.98,3.09c0.24,0.04,0.58-0.01,0.99-0.18
		c0.1-0.05,0.22-0.02,0.29,0.07c0.07,0.09,0.07,0.21,0.01,0.3c-0.63,0.87-0.8,1.65-0.58,2.59c0.01,0,0.02,0.01,0.04,0.01
		c0.34,0.06,0.64-0.02,0.96-0.25C78.46,121.97,78.51,121.95,78.56,121.95z"/>
</g>
<g id="lfeet">
	<path class="st1" d="M101.52,126.79c0,0-2.81,6.84-9.51,11.83c-6.7,4.98-15.09,6.16-15.09,6.16s-1.13,7.33-3.84,4.71
		c-3.02-2.93-8.64-13.63-4.53-14.5c4.65-0.98,11.44-4.72,14.69-12.93C86.49,113.85,105.02,116.29,101.52,126.79z"/>
	<path class="st2" d="M74.2,150.3c-0.42,0-0.86-0.21-1.29-0.64c-2.52-2.45-6.86-10.23-5.92-13.48c0.22-0.78,0.75-1.27,1.52-1.43
		c4.99-1.05,11.42-4.96,14.52-12.78c1.48-3.73,5.74-5.06,9.23-5.06c3.77,0,7.14,1.43,8.8,3.74c1.25,1.73,1.49,3.88,0.71,6.23
		c-0.03,0.08-2.92,6.98-9.6,11.94c-6.13,4.56-13.77,5.97-15.03,6.18C76.95,146.04,76.1,150.3,74.2,150.3z M92.24,117.4
		c-3.33,0-7.39,1.25-8.78,4.75c-3.17,8-9.76,12-14.87,13.08c-0.59,0.12-0.97,0.48-1.15,1.09c-0.88,3.04,3.4,10.67,5.79,12.99
		c0.34,0.33,0.66,0.5,0.95,0.5c1.39,0,2.25-3.66,2.47-5.07c0.02-0.11,0.1-0.19,0.21-0.21c0.08-0.01,8.41-1.23,14.98-6.11
		c6.56-4.88,9.41-11.65,9.43-11.72c0.73-2.21,0.52-4.15-0.65-5.77C99.08,118.75,95.85,117.4,92.24,117.4z"/>
</g>
<g id="body">
	<g>
		<path class="st5" d="M94.44,86.14c0,0-2.53,1.14-5.79,9.95c-3.26,8.81-13.43,23-3.77,30.21c9.66,7.22,28.02-0.12,29.48-5.5
			c1.47-5.38-4.06-28.38-8.59-34.01C101.25,81.16,94.44,86.14,94.44,86.14z"/>
		<path class="st6" d="M95.17,129.56C95.17,129.56,95.17,129.56,95.17,129.56c-4.15,0-7.76-1.06-10.44-3.06
			c-7.81-5.83-2.93-16.13,0.99-24.41c1.04-2.19,2.02-4.26,2.69-6.09c3.12-8.44,5.6-9.92,5.89-10.08c0.26-0.19,2.96-2.06,6.09-2.06
			c2.21,0,4.08,0.93,5.56,2.77c4.75,5.91,10.06,28.98,8.63,34.23C113.55,124.7,104.2,129.56,95.17,129.56z M100.41,84.35
			c-3.07,0-5.79,1.96-5.82,1.98c-0.01,0.01-0.03,0.02-0.04,0.03c-0.02,0.01-2.5,1.27-5.66,9.81c-0.68,1.85-1.67,3.93-2.71,6.13
			c-3.84,8.12-8.63,18.22-1.14,23.81c2.6,1.94,6.1,2.96,10.15,2.96c7.28,0,17.78-4.04,18.95-8.34c1.37-5.03-3.98-28.12-8.54-33.79
			C104.2,85.23,102.46,84.35,100.41,84.35z"/>
	</g>
	<g>
		<path class="st7" d="M108.3,91.38c-0.68-0.42-1.42-0.52-2.08,0.25c-1.05,1.21-1.5,2.93-1.84,4.45c-0.84,3.72-1.17,7.59-1.22,11.41
			c-0.07,4.81,0.95,16.77,6.75,17.82c2.4-1.42,4.07-3.04,4.47-4.51C115.57,116.4,112.08,100.21,108.3,91.38z"/>
		<path class="st8" d="M109.89,125.56c-0.02,0-0.03,0-0.04,0c-5.69-1.03-7.03-12.27-6.95-18.06c0.06-4.34,0.47-8.09,1.23-11.46
			c0.35-1.56,0.82-3.32,1.9-4.56c0.65-0.75,1.49-0.86,2.4-0.29c0.04,0.03,0.08,0.06,0.1,0.11c3.62,8.43,7.35,24.91,6.08,29.58
			c-0.41,1.49-2.03,3.14-4.58,4.66C109.98,125.55,109.94,125.56,109.89,125.56z M107.32,91.31c-0.33,0-0.64,0.16-0.92,0.48
			c-1,1.15-1.43,2.78-1.79,4.35c-0.76,3.34-1.15,7.05-1.22,11.36c-0.08,5.62,1.17,16.48,6.45,17.56c2.36-1.42,3.92-2.99,4.28-4.32
			c1.15-4.22-2.11-20.01-6.02-29.18C107.82,91.39,107.56,91.31,107.32,91.31z"/>
	</g>
</g>
<g id="rfeed">
	<path class="st5" d="M109.08,117.14c3.43,2.75,5.54,7.09,6.37,11.38c1.59,8.2-0.98,16.27-0.98,16.27s6.75,2.63,3.27,4.77
		c-3.21,1.97-15.38,2.33-14.76-1.83c0.61-4.16-0.28-11.96-6.24-18.47c-5.97-6.53,1.72-16.78,8.7-14.19
		C106.77,115.56,107.99,116.27,109.08,117.14z"/>
	<path class="st6" d="M110.18,151.21c-1.62,0-5.53-0.18-6.96-1.84c-0.42-0.49-0.59-1.06-0.5-1.69c0.67-4.58-0.54-12.11-6.18-18.27
		c-2.34-2.57-2.86-5.93-1.4-9.23c1.5-3.41,4.79-5.78,8.01-5.78c0.8,0,1.6,0.14,2.36,0.42c1.33,0.49,2.58,1.21,3.73,2.12
		c3.17,2.55,5.53,6.75,6.45,11.52c1.44,7.42-0.53,14.82-0.92,16.17c0.92,0.38,4.06,1.79,4.21,3.44c0.06,0.63-0.32,1.19-1.11,1.68
		C116.44,150.63,113.35,151.21,110.18,151.21z M103.15,114.89c-3.03,0-6.13,2.26-7.56,5.49c-1.37,3.12-0.89,6.29,1.32,8.7
		c5.75,6.29,6.99,13.99,6.3,18.68c-0.07,0.49,0.05,0.92,0.38,1.3c0.9,1.05,3.37,1.67,6.59,1.67c3.04,0,6.1-0.57,7.42-1.38
		c0.62-0.38,0.92-0.79,0.88-1.22c-0.12-1.29-3-2.68-4.11-3.11c-0.12-0.05-0.18-0.18-0.14-0.3c0.02-0.08,2.53-8.11,0.97-16.15
		c-0.9-4.66-3.19-8.75-6.28-11.23c-1.1-0.88-2.31-1.57-3.59-2.05C104.63,115.02,103.89,114.89,103.15,114.89z"/>
</g>
<g id="rhand">
	<g>
		<path class="st5" d="M93.73,89.52c0,0-2.85-0.79-9.55,3.85c-6.7,4.64-13.3,14.57-13.45,18.37c-0.14,3.8,5.6,2.97,9.21-0.52
			c6.61-6.41,15.46-7.21,17.46-13.01C100.33,89.74,93.73,89.52,93.73,89.52z"/>
		<path class="st6" d="M73.44,114.48L73.44,114.48c-0.99,0-1.78-0.28-2.29-0.81c-0.46-0.48-0.68-1.13-0.64-1.94
			c0.15-4.03,6.88-13.94,13.55-18.56c4.96-3.43,7.84-3.94,9.12-3.94c0.33,0,0.53,0.04,0.6,0.05c0.28,0.01,2.51,0.19,3.78,2.03
			c1.1,1.6,1.13,3.95,0.09,6.97c-1.15,3.33-4.46,5.05-8.29,7.03c-2.97,1.54-6.34,3.28-9.23,6.08
			C78.21,113.24,75.52,114.48,73.44,114.48z M93.17,89.71c-0.98,0-3.82,0.37-8.84,3.86c-6.45,4.46-13.2,14.34-13.34,18.18
			c-0.02,0.67,0.15,1.21,0.51,1.58c0.42,0.43,1.09,0.66,1.94,0.66c1.97,0,4.52-1.19,6.34-2.95c2.95-2.86,6.35-4.61,9.35-6.16
			c3.74-1.93,6.97-3.6,8.05-6.75c0.99-2.87,0.98-5.07-0.03-6.54c-1.19-1.73-3.4-1.82-3.42-1.82c-0.02,0-0.04,0-0.06-0.01l0,0
			C93.67,89.76,93.5,89.71,93.17,89.71z"/>
	</g>
	<g>
		<g>
			<path class="st7" d="M77.09,114.79c0,0-1.49,2.07-4.14,2.03c-2.65-0.04-6.24-3.35-5.75-5.41c0.49-2.06,3.08-5.81,6.79-4.34
				C80.87,109.81,77.09,114.79,77.09,114.79z"/>
			<path class="st8" d="M73.03,117.07h-0.08c-1.85-0.03-3.95-1.5-5.07-2.94c-0.78-1-1.1-1.99-0.92-2.77
				c0.47-1.96,2.5-4.86,5.36-4.86c0.58,0,1.17,0.12,1.76,0.35c2.31,0.92,3.7,2.19,4.14,3.77c0.62,2.23-0.87,4.23-0.94,4.32
				C77.23,115.02,75.73,117.07,73.03,117.07z M72.32,106.99c-2.69,0-4.51,2.92-4.88,4.48c-0.15,0.64,0.14,1.48,0.83,2.36
				c1.2,1.55,3.21,2.73,4.69,2.75l0.07,0c2.44,0,3.85-1.91,3.87-1.93c0.02-0.02,1.41-1.9,0.86-3.9c-0.4-1.43-1.7-2.59-3.85-3.45
				C73.37,107.09,72.84,106.99,72.32,106.99z"/>
		</g>
		<g>
			<path class="st8" d="M72.33,114.08c0.07-0.06,0.17-0.08,0.25-0.04c0.12,0.05,0.18,0.19,0.13,0.32c-0.15,0.36-0.46,1.4-0.11,1.89
				c0.17,0.23,0.5,0.32,0.98,0.28c0.14-0.01,0.25,0.08,0.27,0.22c0.01,0.14-0.09,0.25-0.22,0.27c-0.66,0.07-1.14-0.09-1.42-0.47
				c-0.6-0.81,0.02-2.3,0.05-2.37C72.28,114.13,72.3,114.1,72.33,114.08z"/>
			<path class="st8" d="M69.77,112.86c0.08-0.07,0.2-0.08,0.3-0.02c0.11,0.08,0.14,0.23,0.06,0.34c-0.01,0.01-0.64,0.94-0.45,1.72
				c0.08,0.32,0.29,0.57,0.63,0.76c0.12,0.07,0.16,0.21,0.1,0.33c-0.06,0.12-0.21,0.17-0.33,0.1c-0.47-0.25-0.77-0.62-0.88-1.08
				c-0.24-0.99,0.49-2.06,0.52-2.11C69.74,112.89,69.75,112.87,69.77,112.86z"/>
			<path class="st8" d="M68.25,111.18c0.01-0.01,0.01-0.01,0.02-0.02c0.1-0.08,0.26-0.07,0.34,0.03c0.09,0.1,0.08,0.25-0.03,0.34
				c-0.04,0.05-1,0.84-0.51,2.04c0.05,0.12-0.01,0.27-0.14,0.32c-0.12,0.05-0.27-0.01-0.32-0.14
				C67.13,112.56,67.81,111.56,68.25,111.18z"/>
			<path class="st8" d="M75.27,113.81c0.5-0.42,1.26-0.74,2.22-0.41c0.13,0.05,0.2,0.18,0.15,0.31c-0.04,0.13-0.18,0.2-0.31,0.15
				c-1.43-0.49-2.15,0.79-2.18,0.84c-0.06,0.12-0.21,0.16-0.33,0.1c-0.12-0.07-0.16-0.21-0.1-0.33
				C74.83,114.27,75.02,114.03,75.27,113.81z"/>
			<path class="st8" d="M75.96,113.46c0,0,0.01-0.01,0.02-0.01c0.1-0.09,0.26-0.07,0.34,0.03c0.09,0.11,0.07,0.26-0.03,0.34
				c-0.01,0.01-0.01,0.01-0.02,0.01c-0.57,0.48-0.6,1.17-0.59,1.37c0.01,0.25,0.07,0.41,0.11,0.48c0.1-0.05,0.23-0.03,0.3,0.06
				c0.09,0.1,0.08,0.26-0.03,0.34c-0.13,0.11-0.28,0.14-0.43,0.09c-0.21-0.08-0.35-0.31-0.42-0.66
				C75.11,114.89,75.3,114.02,75.96,113.46z"/>
		</g>
	</g>
</g>
<g id="head">
	<g>
		<g>
			<path class="st5" d="M117.98,72.95c0.11-0.8,0.17-1.61,0.17-2.44c0.06-9.86-7.46-17.9-16.78-17.96
				c-9.32-0.05-19.71,9.93-19.77,19.79c-0.05,9.86,10.24,15.88,19.57,15.93c0.45,0,0.89-0.02,1.32-0.05
				c12.78,0.82,19.85-8.34,19.7-10.84C122.13,76.15,120.07,74.41,117.98,72.95z"/>
			<path class="st6" d="M101.26,88.52h-0.08c-4.83-0.03-9.73-1.61-13.44-4.33c-4.13-3.04-6.39-7.24-6.37-11.85
				c0.05-9.74,10.3-20.03,19.94-20.03h0.07c9.44,0.05,17.08,8.22,17.03,18.2c0,0.75-0.06,1.53-0.16,2.33
				c2.72,1.92,4.13,3.45,4.2,4.53c0.06,1.06-0.99,2.95-2.63,4.68c-1.83,1.95-7.04,6.47-15.72,6.47h0c-0.53,0-1.07-0.02-1.61-0.05
				C102.05,88.5,101.64,88.52,101.26,88.52z M101.3,52.79c-9.4,0-19.4,10.05-19.45,19.55c-0.03,4.44,2.16,8.51,6.16,11.45
				c3.63,2.67,8.43,4.21,13.16,4.24h0.08c0.37,0,0.77-0.02,1.22-0.05c0.56,0.03,1.09,0.05,1.61,0.05c8.49,0,13.57-4.42,15.36-6.32
				c1.78-1.89,2.54-3.56,2.5-4.32c-0.05-0.92-1.51-2.43-4.11-4.25c-0.08-0.05-0.11-0.14-0.1-0.23c0.11-0.82,0.17-1.63,0.17-2.41
				c0.05-9.71-7.36-17.66-16.54-17.71H101.3z"/>
		</g>
		<path class="st5" d="M90.46,81.13c1.48-2.95,4.23-4.59,6.97-6.24c3.72-2.24,7.58-4.26,11.48-6.18c2.77-1.37,5.63-2.54,8.4-3.9
			c-2.21-7.08-8.49-12.21-15.93-12.25c-9.32-0.05-19.71,9.93-19.77,19.79c-0.03,5.64,3.32,10.02,7.94,12.75
			C89.49,83.74,89.84,82.35,90.46,81.13z"/>
		<g>
			<path class="st7" d="M117.98,72.95c0-0.02,0-0.04,0.01-0.06c-2.38,1.02-3.96,4.21-4.8,6.45c-0.87,2.32-1.57,5.01-1.11,7.5
				c6.66-2.53,10.22-7.67,10.11-9.46C122.13,76.15,120.07,74.41,117.98,72.95z"/>
			<path class="st8" d="M112.09,87.08c-0.04,0-0.08-0.01-0.12-0.03c-0.06-0.04-0.11-0.1-0.12-0.17c-0.39-2.09-0.03-4.58,1.12-7.63
				c0.91-2.43,2.51-5.54,4.93-6.59c0.08-0.04,0.17-0.02,0.25,0.03c0.04,0.03,0.07,0.08,0.09,0.13c2.74,1.93,4.15,3.46,4.22,4.55
				c0.12,2-3.69,7.2-10.27,9.7C112.14,87.07,112.11,87.08,112.09,87.08z M117.91,73.19c-2.28,1.12-3.79,4.36-4.49,6.23
				c-1.06,2.82-1.43,5.14-1.14,7.08c6.49-2.57,9.77-7.58,9.68-9.1C121.9,76.48,120.46,74.99,117.91,73.19z"/>
		</g>
		<g>
			<path class="st6" d="M121.65,75.04c-1.61-1.55-2.66-0.07-3.01,1.56c-0.27,1.24-0.9,4.25,0.98,4.52c1.18,0.17,2.07-1.01,2.45-1.98
				C122.59,77.83,122.75,76.1,121.65,75.04z"/>
			<path class="st9" d="M119.84,81.39L119.84,81.39c-0.09,0-0.17-0.01-0.26-0.02c-0.47-0.07-0.84-0.29-1.09-0.66
				c-0.76-1.1-0.29-3.24-0.09-4.16c0.33-1.51,1.06-2.41,1.97-2.41c0.47,0,0.96,0.24,1.46,0.72c1.48,1.42,0.74,3.71,0.48,4.37
				C121.9,80.23,121.02,81.39,119.84,81.39z M120.36,74.63c-0.77,0-1.27,1.05-1.49,2.02c-0.17,0.78-0.62,2.85,0.02,3.77
				c0.18,0.25,0.43,0.4,0.76,0.45c1.03,0.15,1.83-0.92,2.19-1.83c0.23-0.59,0.9-2.62-0.36-3.84
				C121.07,74.83,120.7,74.63,120.36,74.63z"/>
		</g>
	</g>
	<g>
		<path class="st10" d="M115.85,72c-0.16,2.93-1.61,5.24-3.25,5.15c-1.63-0.09-2.83-2.54-2.67-5.47c0.16-2.93,1.62-5.24,3.25-5.15
			C114.82,66.62,116.01,69.07,115.85,72z"/>
		<g>
			<path class="st11" d="M115.3,72.76c-0.09,1.69-0.87,3.03-1.72,2.98c-0.86-0.05-1.49-1.46-1.39-3.15c0.1-1.69,0.87-3.03,1.73-2.98
				C114.77,69.66,115.4,71.07,115.3,72.76z"/>
			<path class="st10" d="M113.75,71.58c-0.03,0.54-0.28,0.98-0.56,0.96c-0.28-0.02-0.48-0.47-0.45-1.01
				c0.03-0.55,0.28-0.98,0.55-0.96C113.58,70.58,113.78,71.04,113.75,71.58z"/>
		</g>
		<path class="st9" d="M108.68,67.72c0,0,3.6-4.4,6.42-1.79c0,0,1.39,1.22,0.6,3.23C115.69,69.17,113.56,66.08,108.68,67.72z"/>
	</g>
	<g>
		<g>
			<path class="st12" d="M113.19,56.91c0.04-0.36,0.07-0.76,0.19-1.12c-7.58-15.14-27.84-9.19-34.46,1.09
				c-6.62,10.28,0.16,18.41,0.16,18.41l0.89,0.98l32.81-16.91l0.4-2.05C113.17,57.18,113.17,57.04,113.19,56.91z"/>
			<path class="st13" d="M79.95,76.52c-0.07,0-0.13-0.03-0.18-0.08l-0.89-0.98c-0.07-0.09-6.82-8.4-0.18-18.71
				c3.87-6.01,12.19-10.37,19.8-10.37c6.72,0,12.08,3.3,15.08,9.3c0.03,0.06,0.03,0.12,0.02,0.18c-0.1,0.33-0.14,0.7-0.17,1.03
				c-0.01,0.13-0.02,0.22-0.03,0.3l-0.01,0.14l-0.4,2.08c-0.01,0.07-0.06,0.14-0.13,0.17L80.07,76.5
				C80.03,76.51,79.99,76.52,79.95,76.52z M98.51,46.87c-7.45,0-15.6,4.27-19.39,10.15c-3.37,5.24-3.16,9.89-2.38,12.87
				c0.84,3.23,2.5,5.24,2.51,5.26l0.75,0.83l32.53-16.77l0.38-2.04c0.01-0.09,0.01-0.19,0.02-0.28c0.04-0.36,0.07-0.72,0.17-1.07
				C110.19,50.04,105,46.87,98.51,46.87z"/>
		</g>
		<path class="st14" d="M84.51,55.4c1.81-3.67,4.89-6.21,8.47-7.85c-5.8,1.49-11.18,5.11-14.03,9.53
			c-6.62,10.28,0.15,18.42,0.15,18.42L80,76.48l7.6-4.82C84.49,65.18,81.56,61.38,84.51,55.4z"/>
		<g>
			<path class="st15" d="M113.19,56.91c0.04-0.36,0.07-0.76,0.19-1.12c-0.8-1.6-1.1-2.21-2.16-3.35
				C102.33,54.5,86.01,65,83.13,67.24c-2.04,1.59-3.89,3.37-5.79,5.1c0.82,1.87,1.72,2.96,1.72,2.96l0.89,0.98l32.81-16.91l0.4-2.05
				C113.17,57.18,113.17,57.04,113.19,56.91z"/>
			<path class="st16" d="M79.95,76.52c-0.07,0-0.13-0.03-0.18-0.08l-0.89-0.98c-0.04-0.05-0.94-1.14-1.76-3.02
				c-0.04-0.1-0.02-0.21,0.06-0.28c0.41-0.37,0.82-0.75,1.23-1.13c1.46-1.34,2.96-2.73,4.57-3.98c3.01-2.34,19.37-12.8,28.18-14.85
				c0.09-0.02,0.18,0.01,0.24,0.07c1.07,1.17,1.4,1.82,2.19,3.4c0.03,0.06,0.04,0.13,0.02,0.19c-0.1,0.33-0.14,0.71-0.17,1.03
				c-0.01,0.13-0.02,0.22-0.03,0.3l-0.01,0.14l-0.4,2.08c-0.02,0.07-0.06,0.14-0.13,0.17L80.07,76.5
				C80.03,76.51,79.99,76.52,79.95,76.52z M77.64,72.4c0.78,1.72,1.61,2.73,1.62,2.74l0.75,0.83l32.53-16.77l0.38-2.04
				c0.01-0.09,0.01-0.19,0.02-0.28c0.04-0.36,0.07-0.72,0.17-1.07c-0.74-1.47-1.05-2.07-1.98-3.11
				c-8.78,2.11-24.88,12.42-27.85,14.73c-1.59,1.24-3.09,2.62-4.54,3.95C78.37,71.73,78.01,72.07,77.64,72.4z"/>
		</g>
		<path class="st15" d="M86.65,69.43c-0.54-1.18-1.07-2.37-1.77-3.45c-0.78,0.53-1.39,0.97-1.76,1.26c-2.04,1.59-3.89,3.37-5.79,5.1
			c0.82,1.87,1.72,2.96,1.72,2.96l0.89,0.98l8.07-4.16C87.55,71.24,87.07,70.35,86.65,69.43z"/>
		<g>
			<path class="st12" d="M79.07,75.3c0,0-1.07,7.4,0.04,9.25c0,0,0.43,0.77,0.98,0.3c0.56-0.47,20.92-15.44,39.67-23.12
				c0,0,2.15-0.46,1.51-1.51c-0.38-0.61-7.88-4.39-7.88-4.39S96.93,61.75,79.07,75.3z"/>
			<path class="st13" d="M79.73,85.24L79.73,85.24c-0.5,0-0.8-0.52-0.83-0.58c-1.13-1.89-0.11-9.09-0.07-9.4
				c0.01-0.06,0.04-0.12,0.09-0.16c17.69-13.42,34.22-19.45,34.39-19.51c0.06-0.02,0.13-0.02,0.19,0.01
				c1.26,0.64,7.59,3.84,7.98,4.48c0.22,0.35,0.17,0.65,0.09,0.83c-0.31,0.72-1.61,1.02-1.75,1.05
				c-19.01,7.79-39.41,22.94-39.57,23.07C80.09,85.17,79.91,85.24,79.73,85.24z M79.3,75.43c-0.12,0.88-0.96,7.35,0.02,8.99
				c0.05,0.09,0.23,0.33,0.41,0.33l0,0c0.06,0,0.13-0.03,0.21-0.1c0.16-0.13,20.62-15.33,39.74-23.16c0.5-0.11,1.29-0.41,1.45-0.78
				c0.03-0.07,0.06-0.19-0.06-0.38c-0.27-0.38-4.15-2.47-7.69-4.25C111.98,56.6,96.18,62.64,79.3,75.43z"/>
		</g>
		<path class="st14" d="M86.68,69.83c-2.09,1.42-5.46,3.83-7.61,5.46c0,0-1.07,7.4,0.04,9.25c0,0,0.43,0.77,0.98,0.3
			c0.21-0.18,3.15-2.35,7.72-5.41C87.7,79.18,87.24,72.51,86.68,69.83z"/>
	</g>
	<path class="st9" d="M115.7,84.68c-0.03,0-0.06,0-0.09,0c-0.68-0.02-1.19-0.26-1.5-0.72c-0.75-1.11-0.02-3.08,0.01-3.16
		c0.05-0.13,0.19-0.19,0.32-0.14c0.13,0.05,0.19,0.19,0.14,0.31c-0.01,0.02-0.67,1.82-0.06,2.72c0.22,0.33,0.58,0.49,1.11,0.51
		c0.02,0,0.05,0,0.07,0c2.36,0,4.23-3.24,4.25-3.28c0.07-0.12,0.22-0.16,0.33-0.09c0.12,0.07,0.16,0.22,0.09,0.33
		C120.29,81.3,118.34,84.68,115.7,84.68z"/>
	<g>
		<g>
			<g>
				<path class="st5" d="M89.09,61.49c-8.06-0.45-10.3-11.43-3.51-14.05c9.71-3.74,9.55,9.65,9.55,9.65S94.68,61.8,89.09,61.49z"/>
				<path class="st6" d="M89.61,61.75c-0.17,0-0.35-0.01-0.54-0.02c-4.57-0.26-7.14-3.69-7.66-6.98c-0.54-3.42,1.06-6.38,4.07-7.54
					c2.95-1.14,5.35-0.83,7.06,0.9c2.87,2.9,2.83,8.74,2.83,8.98C95.37,57.17,94.87,61.75,89.61,61.75z M88.72,47.03
					c-0.92,0-1.95,0.22-3.06,0.64c-2.79,1.07-4.27,3.83-3.77,7.01c0.49,3.1,2.9,6.33,7.2,6.57c5.29,0.3,5.78-4.13,5.79-4.18
					c0-0.04,0.03-5.86-2.69-8.62C91.26,47.51,90.09,47.03,88.72,47.03z"/>
			</g>
			<path class="st5" d="M94.59,58.83c-0.61-3.52-2.4-7.2-5.38-9c-0.83-0.24-1.66-0.18-2.41,0.34c-3.34,2.3-1.4,6.65,1.69,8.96
				c1.37,0.79,2.85,1.39,4.38,1.38C93.55,60.01,94.27,59.49,94.59,58.83z"/>
			<path class="st6" d="M92.6,60.65c-3.56-0.02-6.21-2.55-7.29-5.15c-0.87-2.1-0.66-4.06,0.54-5.12c0.95-0.83,1.92-1.16,2.9-0.97
				c2.09,0.41,3.41,3.04,3.46,3.16c0.06,0.12,0.01,0.27-0.11,0.33c-0.12,0.06-0.27,0.01-0.33-0.11c-0.01-0.02-1.27-2.53-3.12-2.89
				c-0.82-0.16-1.65,0.13-2.48,0.85c-1.04,0.92-1.2,2.67-0.41,4.56c1.07,2.57,3.75,5.06,7.34,4.84c0.14-0.01,0.25,0.09,0.26,0.23
				c0.01,0.13-0.09,0.25-0.23,0.26C92.95,60.64,92.78,60.65,92.6,60.65z"/>
		</g>
		<path class="st17" d="M84.01,49.48c-1.06,1.03-1.67,2.54-1.63,4.06c0.02,0.9,0.17,1.81,0.57,2.62c0.23,0.46,1.03,1.73,1.56,0.83
			c0.47-0.81,0.12-1.81-0.07-2.64c-0.41-1.82,0-3.37,1.71-4.68c0.47-0.37,1.48-1.65,0.12-1.39C85.42,48.43,84.63,48.87,84.01,49.48z
			"/>
	</g>
</g>
</svg>
